<svg width="20" height="20" viewBox="0 0 20 20" fill="none" xmlns="http://www.w3.org/2000/svg">
<path d="M10.1149 14.5C10.6701 14.5 10.9928 14.1662 10.9928 13.5975V11.5451H12.6646C14.5559 11.5451 15.75 10.5127 15.75 8.76945C15.75 7.10036 14.5688 6 12.7356 6H10.5087C9.59856 6 9.25 6.34 9.25 7.21782V13.5975C9.25 14.1662 9.56629 14.5 10.1149 14.5ZM10.9928 10.2469V7.33527H12.5161C13.4714 7.33527 14.0137 7.86691 14.0137 8.79418C14.0137 9.86982 13.465 10.2469 12.1095 10.2469H10.9928Z" fill="#99A2AD"/>
<path d="M1.55334 14.5C2.01607 14.5 2.27314 14.2734 2.45308 13.6978L2.94152 12.277H6.01992L6.51478 13.6978C6.6883 14.2673 6.95823 14.5 7.42738 14.5C7.92224 14.5 8.25 14.2183 8.25 13.7774C8.25 13.6059 8.20501 13.4038 8.11504 13.1405L5.90424 7.10231C5.62789 6.31844 5.24229 6 4.51607 6C3.78342 6 3.39139 6.32457 3.11504 7.10231L0.904242 13.1405C0.794987 13.4528 0.75 13.6427 0.75 13.808C0.75 14.2244 1.07776 14.5 1.55334 14.5ZM3.32712 11.0461L4.44537 7.66571H4.52892L5.64075 11.0461H3.32712Z" fill="#99A2AD"/>
<path d="M17.6315 14.5C18.1824 14.5 18.5 14.1686 18.5 13.604V6.89603C18.5 6.33141 18.1759 6 17.625 6C17.0676 6 16.75 6.33141 16.75 6.89603V13.604C16.75 14.1686 17.0741 14.5 17.6315 14.5Z" fill="#99A2AD"/>
</svg>
