<svg width="20" height="20" viewBox="0 0 20 20" fill="none" xmlns="http://www.w3.org/2000/svg">
<path d="M10 6.5C10.4142 6.5 10.75 6.83579 10.75 7.25V9.67324L13.0203 10.5504C13.4067 10.6997 13.5989 11.1339 13.4496 11.5203C13.3003 11.9067 12.8661 12.0989 12.4797 11.9496L9.7297 10.8871C9.44062 10.7754 9.25 10.4974 9.25 10.1875V7.25C9.25 6.83579 9.58579 6.5 10 6.5Z" fill="#99A2AD"/>
<path fill-rule="evenodd" clip-rule="evenodd" d="M9.87109 1C9.47574 0.999988 9.13465 0.999977 8.85373 1.02293C8.55722 1.04715 8.26231 1.10064 7.97852 1.24524C7.55516 1.46095 7.21095 1.80516 6.99524 2.22852C6.85064 2.51231 6.79715 2.80722 6.77293 3.10373C6.751 3.37206 6.75003 3.69526 6.75 4.06823C6.40245 4.11526 6.08004 4.19857 5.77453 4.35423C5.163 4.66582 4.66582 5.16301 4.35423 5.77453C4.15514 6.16527 4.0744 6.58367 4.03655 7.04693C3.99998 7.49449 3.99999 8.0452 4 8.71857V11.2814C3.99999 11.9548 3.99998 12.5055 4.03655 12.9531C4.0744 13.4163 4.15514 13.8347 4.35423 14.2255C4.66582 14.837 5.163 15.3342 5.77453 15.6458C6.08004 15.8014 6.40245 15.8847 6.75 15.9318C6.75003 16.3047 6.751 16.6279 6.77293 16.8963C6.79715 17.1928 6.85064 17.4877 6.99524 17.7715C7.21095 18.1948 7.55516 18.5391 7.97852 18.7548C8.26231 18.8994 8.55722 18.9528 8.85373 18.9771C9.13466 19 9.47573 19 9.87109 19H10.1289C10.5243 19 10.8653 19 11.1463 18.9771C11.4428 18.9528 11.7377 18.8994 12.0215 18.7548C12.4448 18.5391 12.7891 18.1948 13.0048 17.7715C13.1494 17.4877 13.2028 17.1928 13.2271 16.8963C13.249 16.6279 13.25 16.3047 13.25 15.9318C13.5975 15.8847 13.92 15.8014 14.2255 15.6458C14.837 15.3342 15.3342 14.837 15.6458 14.2255C15.8449 13.8347 15.9256 13.4163 15.9634 12.9531C16 12.5055 16 11.9548 16 11.2815V8.99958C16.2912 8.99756 16.4578 8.98586 16.5905 8.91826C16.7316 8.84635 16.8464 8.73162 16.9183 8.59049C17 8.43006 17 8.22004 17 7.8V7.7C17 7.27996 17 7.06994 16.9183 6.90951C16.8464 6.76839 16.7316 6.65365 16.5905 6.58175C16.442 6.50609 16.251 6.50046 15.8904 6.50004C15.8398 6.24617 15.7635 6.00552 15.6458 5.77453C15.3342 5.16301 14.837 4.66582 14.2255 4.35423C13.92 4.19857 13.5975 4.11526 13.25 4.06823C13.25 3.69526 13.249 3.37206 13.2271 3.10373C13.2028 2.80722 13.1494 2.51231 13.0048 2.22852C12.7891 1.80516 12.4448 1.46095 12.0215 1.24524C11.7377 1.10064 11.4428 1.04715 11.1463 1.02293C10.8654 0.999977 10.5243 0.999988 10.1289 1H9.87109ZM8.26795 16.7741C8.25267 16.5872 8.25038 16.3486 8.25006 15.9995C8.39916 16 8.5552 16 8.71845 16H11.2814C11.4447 16 11.6008 16 11.7499 15.9995C11.7496 16.3486 11.7473 16.5872 11.7321 16.7741C11.7154 16.9779 11.6872 17.0534 11.6683 17.0905C11.5964 17.2316 11.4816 17.3464 11.3405 17.4183C11.3034 17.4372 11.2279 17.4654 11.0241 17.4821C10.8116 17.4994 10.5324 17.5 10.1 17.5H9.9C9.46759 17.5 9.18838 17.4994 8.97588 17.4821C8.77213 17.4654 8.69659 17.4372 8.65951 17.4183C8.51839 17.3464 8.40365 17.2316 8.33175 17.0905C8.31285 17.0534 8.28459 16.9779 8.26795 16.7741ZM11.7499 4.00052C11.7496 3.65141 11.7473 3.41283 11.7321 3.22588C11.7154 3.02213 11.6872 2.94659 11.6683 2.90951C11.5964 2.76839 11.4816 2.65365 11.3405 2.58175C11.3034 2.56285 11.2279 2.53459 11.0241 2.51795C10.8116 2.50059 10.5324 2.5 10.1 2.5H9.9C9.46759 2.5 9.18838 2.50059 8.97588 2.51795C8.77213 2.53459 8.69659 2.56285 8.65951 2.58175C8.51839 2.65365 8.40365 2.76839 8.33175 2.90951C8.31285 2.94659 8.28459 3.02213 8.26795 3.22588C8.25267 3.41283 8.25038 3.65141 8.25005 4.00052C8.3992 4 8.55529 4 8.71858 4H11.2814C11.4447 4 11.6008 4 11.7499 4.00052ZM7.16908 5.53157C6.79858 5.56184 6.59956 5.61735 6.45552 5.69074C6.12623 5.85852 5.85852 6.12623 5.69074 6.45552C5.61735 6.59956 5.56184 6.79858 5.53157 7.16908C5.50058 7.54834 5.5 8.03756 5.5 8.75V11.25C5.5 11.9624 5.50058 12.4517 5.53157 12.8309C5.56184 13.2014 5.61735 13.4004 5.69074 13.5445C5.85852 13.8738 6.12623 14.1415 6.45552 14.3093C6.59956 14.3827 6.79858 14.4382 7.16908 14.4684C7.54833 14.4994 8.03756 14.5 8.75 14.5H11.25C11.9624 14.5 12.4517 14.4994 12.8309 14.4684C13.2014 14.4382 13.4004 14.3827 13.5445 14.3093C13.8738 14.1415 14.1415 13.8738 14.3093 13.5445C14.3827 13.4004 14.4382 13.2014 14.4684 12.8309C14.4994 12.4517 14.5 11.9624 14.5 11.25V8.75C14.5 8.03756 14.4994 7.54834 14.4684 7.16908C14.4382 6.79858 14.3827 6.59956 14.3093 6.45552C14.1415 6.12623 13.8738 5.85852 13.5445 5.69074C13.4004 5.61735 13.2014 5.56184 12.8309 5.53157C12.4517 5.50059 11.9624 5.5 11.25 5.5H8.75C8.03756 5.5 7.54833 5.50059 7.16908 5.53157Z" fill="#99A2AD"/>
</svg>
