<svg width="20" height="20" viewBox="0 0 20 20" fill="none" xmlns="http://www.w3.org/2000/svg">
<path fill-rule="evenodd" clip-rule="evenodd" d="M12.1197 2.71967C11.8268 3.01256 11.8268 3.48744 12.1197 3.78033L13.9393 5.6H8.7C5.69005 5.6 3.25 8.04005 3.25 11.05C3.25 14.06 5.69005 16.5 8.7 16.5H13.35C13.7642 16.5 14.1 16.1642 14.1 15.75C14.1 15.3358 13.7642 15 13.35 15H8.7C6.51847 15 4.75 13.2315 4.75 11.05C4.75 8.86848 6.51847 7.1 8.7 7.1H13.9393L12.1197 8.91964C11.8268 9.21254 11.8268 9.68741 12.1197 9.9803C12.4126 10.2732 12.8874 10.2732 13.1803 9.98031L16.2803 6.88033C16.421 6.73968 16.5 6.54891 16.5 6.35C16.5 6.15109 16.421 5.96032 16.2803 5.81967L13.1803 2.71967C12.8874 2.42678 12.4126 2.42678 12.1197 2.71967Z" fill="#99A2AD"/>
</svg>
