<svg width="20" height="20" viewBox="0 0 20 20" fill="none" xmlns="http://www.w3.org/2000/svg">
<path fill-rule="evenodd" clip-rule="evenodd" d="M8.3859 2.08658C9.27091 1.17117 10.7389 1.17117 11.6239 2.08658L12.2848 2.77019C12.4452 2.93611 12.6731 3.01901 12.9027 2.99496L13.8486 2.89587C15.1153 2.76318 16.2398 3.70622 16.3291 4.97601L16.3957 5.92428C16.4118 6.15443 16.5331 6.36434 16.7245 6.49341L17.5128 7.0252C18.5685 7.73731 18.8234 9.18214 18.0751 10.2122L17.5163 10.9814C17.3806 11.1681 17.3385 11.4068 17.4021 11.6286L17.664 12.5424C18.0147 13.7661 17.2807 15.0367 16.045 15.345L15.1222 15.5752C14.8982 15.6311 14.7124 15.7869 14.6185 15.9977L14.2313 16.866C13.713 18.0287 12.3336 18.5305 11.1887 17.9728L10.3337 17.5563C10.1261 17.4552 9.88363 17.4552 9.67611 17.5563L8.82111 17.9728C7.67621 18.5305 6.29679 18.0287 5.77842 16.866L5.3913 15.9977C5.29735 15.7869 5.11157 15.6311 4.8876 15.5752L3.96477 15.345C2.72906 15.0367 1.99508 13.7661 2.34579 12.5424L2.6077 11.6286C2.67126 11.4068 2.62915 11.1681 2.49352 10.9814L1.93467 10.2122C1.18634 9.18214 1.44125 7.73731 2.49694 7.0252L3.28532 6.49341C3.47666 6.36434 3.59792 6.15443 3.61409 5.92428L3.68071 4.97601C3.76992 3.70622 4.89444 2.76318 6.16114 2.89587L7.1071 2.99496C7.33669 3.01901 7.56458 2.93611 7.72498 2.7702L8.3859 2.08658ZM10.5445 3.12888C10.2495 2.82374 9.76022 2.82374 9.46522 3.12888L8.80431 3.81249C8.32308 4.31025 7.63941 4.55894 6.95064 4.48679L6.00468 4.38769C5.58245 4.34346 5.20761 4.65781 5.17787 5.08108L5.11125 6.02935C5.06274 6.7198 4.69897 7.34951 4.12494 7.73672L3.33656 8.26852C2.98466 8.50589 2.89969 8.9875 3.14914 9.33084L3.70798 10.1001C4.11489 10.6601 4.24123 11.3762 4.05053 12.0416L3.78862 12.9555C3.67172 13.3634 3.91637 13.7869 4.32828 13.8897L5.2511 14.1199C5.92303 14.2875 6.48036 14.7549 6.76222 15.3872L7.14934 16.2555C7.32213 16.643 7.78194 16.8103 8.16357 16.6244L9.01857 16.2079C9.64111 15.9047 10.3687 15.9047 10.9912 16.2079L11.8462 16.6244C12.2278 16.8103 12.6876 16.643 12.8604 16.2555L13.2475 15.3872C13.5294 14.7549 14.0867 14.2875 14.7587 14.1199L15.6815 13.8897C16.0934 13.7869 16.3381 13.3634 16.2211 12.9555L15.9592 12.0416C15.7685 11.3762 15.8949 10.6601 16.3018 10.1001L16.8606 9.33084C17.1101 8.9875 17.0251 8.50589 16.6732 8.26852L15.8848 7.73672C15.3108 7.34951 14.947 6.7198 14.8985 6.02935L14.8319 5.08108C14.8022 4.65781 14.4273 4.34346 14.0051 4.38769L13.0591 4.48679C12.3704 4.55894 11.6867 4.31025 11.2055 3.81249L10.5445 3.12888Z" fill="#99A2AD"/>
<path fill-rule="evenodd" clip-rule="evenodd" d="M13.0066 9.99133C13.0066 10.4055 12.6706 10.7413 12.2562 10.7413H7.75361C7.33916 10.7413 7.00318 10.4055 7.00318 9.99133C7.00318 9.57712 7.33916 9.24133 7.75361 9.24133L12.2562 9.24133C12.6706 9.24133 13.0066 9.57712 13.0066 9.99133Z" fill="#99A2AD"/>
<path fill-rule="evenodd" clip-rule="evenodd" d="M10.0049 12.9913C9.59043 12.9913 9.25446 12.6555 9.25446 12.2413L9.25446 7.74133C9.25446 7.32712 9.59043 6.99133 10.0049 6.99133C10.4193 6.99133 10.7553 7.32712 10.7553 7.74133V12.2413C10.7553 12.6555 10.4193 12.9913 10.0049 12.9913Z" fill="#99A2AD"/>
</svg>
