<svg width="20" height="20" viewBox="0 0 20 20" fill="none" xmlns="http://www.w3.org/2000/svg">
<path fill-rule="evenodd" clip-rule="evenodd" d="M6.47094 3.95323L10.6746 8.15692L11.7978 7.03371C10.8314 5.90773 10.1539 4.52481 9.88223 3.00097C8.63872 3.02145 7.47522 3.36568 6.47094 3.95323ZM11.4452 3.14923C11.6993 4.20175 12.1915 5.16177 12.8622 5.96933L14.3312 4.50039C13.5002 3.84495 12.5178 3.37427 11.4452 3.14923ZM15.4034 5.54951L13.9381 7.01477C14.765 7.6623 15.7405 8.12747 16.8048 8.35077C16.5526 7.30643 16.0661 6.35313 15.4034 5.54951ZM16.9994 9.90856C15.4466 9.67946 14.0307 9.03054 12.871 8.08183L11.7353 9.21758L16.0468 13.5291C16.6528 12.4931 17 11.2878 17 10C17 9.96947 16.9998 9.93899 16.9994 9.90856ZM15.144 14.7476L10.6746 10.2782L9.46807 11.4848C10.7022 12.931 11.4607 14.7976 11.4986 16.8393C12.9239 16.5286 14.1878 15.7832 15.144 14.7476ZM10.0001 17C10.0001 15.3094 9.40147 13.7596 8.40341 12.5495L5.54951 15.4034C6.7596 16.4014 8.30939 17 10 17C10 17 10 17 10.0001 17ZM4.50039 14.3312L7.3312 11.5004C6.13934 10.5602 4.63568 10 3.00007 10C3.00005 10 3.00002 10 3 10C3 11.6356 3.56025 13.1393 4.50039 14.3312ZM3.16063 8.50149C5.14755 8.53834 6.9687 9.2576 8.39791 10.4337L9.61398 9.21758L5.25238 4.85599C4.21678 5.81224 3.4714 7.07613 3.16063 8.50149ZM4.84124 3.24396C6.27174 2.15015 8.06101 1.5 10 1.5C10.1978 1.5 10.3942 1.50677 10.5889 1.52011C12.6726 1.66288 14.5498 2.55669 15.951 3.93081C17.3349 5.2879 18.2579 7.1167 18.4588 9.15818C18.4861 9.43531 18.5 9.71614 18.5 10C18.5 11.939 17.8498 13.7283 16.756 15.1588C15.3536 16.9929 13.2188 18.2408 10.7859 18.4641C10.5269 18.4879 10.2648 18.5 10 18.5C7.62288 18.5 5.47255 17.5232 3.93081 15.951C2.42796 14.4185 1.5 12.3169 1.5 10C1.5 9.73526 1.51213 9.47315 1.53589 9.21422C1.75915 6.78121 3.00712 4.64639 4.84124 3.24396Z" fill="#99A2AD"/>
</svg>
