<svg width="21" height="20" viewBox="0 0 21 20" fill="none" xmlns="http://www.w3.org/2000/svg">
<path fill-rule="evenodd" clip-rule="evenodd" d="M13.2563 11.504C15.3285 11.504 17.0084 9.82419 17.0084 7.75201C17.0084 5.67983 15.3285 4 13.2563 4C11.1842 4 9.50433 5.67983 9.50433 7.75201C9.50433 9.82419 11.1842 11.504 13.2563 11.504ZM18.5084 7.75201C18.5084 10.3987 16.5507 12.5881 14.0043 12.9512V16H15.7543C16.1685 16 16.5043 16.3358 16.5043 16.75C16.5043 17.1642 16.1685 17.5 15.7543 17.5H10.7543C10.3401 17.5 10.0043 17.1642 10.0043 16.75C10.0043 16.3358 10.3401 16 10.7543 16H12.5043V12.9506C9.95998 12.5858 8.00433 10.3973 8.00433 7.75201C8.00433 4.85141 10.3557 2.5 13.2563 2.5C16.157 2.5 18.5084 4.85141 18.5084 7.75201ZM5.89876 2.61227C6.11986 2.74893 6.25444 2.99032 6.25444 3.25024V8C6.66863 8.00003 7.00439 8.3358 7.00439 8.75V14.75C7.00439 16.2688 5.77318 17.5 4.25439 17.5C2.73561 17.5 1.50439 16.2688 1.50439 14.75V8.75C1.50439 8.33579 1.84018 8 2.25439 8L2.25439 4.50009C2.25439 4.21599 2.41491 3.95627 2.66903 3.82924L5.16907 2.5794C5.40156 2.46318 5.67766 2.47561 5.89876 2.61227ZM3.00439 9.75425V14.75C3.00439 15.4404 3.56404 16 4.25439 16C4.94475 16 5.50439 15.4404 5.50439 14.75V9.75425H3.00439ZM4.75444 4.46369V8H3.75443L3.7544 4.96363L4.75444 4.46369Z" fill="#99A2AD"/>
</svg>
