<svg width="20" height="20" viewBox="0 0 20 20" fill="none" xmlns="http://www.w3.org/2000/svg">
<path fill-rule="evenodd" clip-rule="evenodd" d="M9.99973 4.34633C8.3256 3.35491 6.66803 2.96943 4.41359 2.99887L4.29762 3.00025C3.71344 3.00684 3.1893 3.01275 2.71024 3.26239C2.30767 3.47217 1.94575 3.83884 1.74125 4.24412C1.60196 4.52016 1.54753 4.80041 1.52289 5.08566C1.49997 5.35098 1.49999 5.66804 1.5 6.02895L1.5 6.05805L1.5 12.5639V12.5926V12.5926C1.49999 13.1568 1.49999 13.6215 1.52772 13.9958C1.55618 14.38 1.61749 14.743 1.78235 15.0781C2.04827 15.6188 2.39396 15.9811 2.92148 16.2722C3.25977 16.4589 3.65757 16.5352 4.0769 16.582C4.49852 16.6292 5.03833 16.6546 5.70886 16.6862L5.73565 16.6874C7.24232 16.7584 8.38473 17.0962 9.58872 17.8772C9.59842 17.8835 9.60829 17.8897 9.61834 17.8956C9.65346 17.9164 9.6899 17.9341 9.72727 17.9487C9.76602 17.9638 9.80577 17.9756 9.84608 17.984C9.87088 17.9892 9.8959 17.9932 9.92103 17.9958C10.0695 18.0115 10.222 17.9829 10.3579 17.9091L10.3736 17.9003L10.3817 17.8956C10.3917 17.8897 10.4016 17.8835 10.4113 17.8772C11.6164 17.0955 12.7595 16.7542 14.2657 16.6804L14.2923 16.6791C14.964 16.6462 15.5045 16.6198 15.9265 16.5719C16.3459 16.5244 16.7438 16.4475 17.0816 16.2606C17.6086 15.9689 17.9528 15.6075 18.2183 15.0668C18.3828 14.7319 18.444 14.3691 18.4724 13.9852C18.5 13.611 18.5 13.1465 18.5 12.5824V12.5823V6.06129L18.5 6.03219V6.03211C18.5 5.6712 18.5 5.35417 18.4771 5.08889C18.4525 4.80368 18.3981 4.52345 18.2589 4.24744C18.0544 3.84218 17.6928 3.47564 17.2903 3.26576C16.8115 3.01605 16.2872 3.00992 15.7028 3.00308L15.5868 3.00166C13.3324 2.97127 11.6745 3.3547 9.99973 4.34633ZM10.75 5.64526V15.9767C11.8167 15.4826 12.9138 15.2448 14.1923 15.1822C14.8969 15.1477 15.3891 15.1233 15.7575 15.0815C16.134 15.0388 16.2865 14.9862 16.3553 14.9481C16.6139 14.805 16.7417 14.6708 16.872 14.4055C16.9123 14.3234 16.9536 14.1834 16.9764 13.8746C16.9995 13.5623 17 13.1535 17 12.5536V6.06129C17 5.6627 16.9994 5.41098 16.9827 5.21792C16.9671 5.03767 16.9411 4.96566 16.9196 4.92301C16.8566 4.79811 16.7208 4.66047 16.5968 4.59579C16.4742 4.53187 16.3358 4.51189 15.5665 4.50152C13.5414 4.47422 12.1587 4.80755 10.75 5.64526ZM9.25 5.64559C7.84085 4.80734 6.45794 4.4723 4.43318 4.49875C3.6643 4.50879 3.52607 4.5287 3.40342 4.59262C3.27939 4.65725 3.14342 4.795 3.08042 4.91986C3.05888 4.96254 3.03289 5.03455 3.01732 5.21476C3.00065 5.4078 3 5.65948 3 6.05806L3 12.5639C3 13.1639 3.00048 13.5727 3.02362 13.885C3.04649 14.1937 3.08785 14.3338 3.12834 14.4161C3.25871 14.6811 3.38751 14.8162 3.64613 14.9588C3.71519 14.997 3.8677 15.0493 4.24347 15.0913C4.61135 15.1324 5.10267 15.1559 5.80623 15.1891C7.0847 15.2493 8.1824 15.4843 9.25 15.9774V5.64559ZM15.7496 11.7173C15.7357 11.3033 15.3889 10.979 14.9749 10.9928C14.1417 11.0208 13.2871 11.1271 12.5339 11.3589C12.138 11.4808 11.9158 11.9005 12.0377 12.2964C12.1595 12.6923 12.5792 12.9144 12.9751 12.7926C13.5599 12.6126 14.2726 12.5172 15.0251 12.492C15.4391 12.4781 15.7634 12.1313 15.7496 11.7173ZM5.02511 10.9928C4.61113 10.979 4.26429 11.3033 4.25042 11.7173C4.23655 12.1313 4.5609 12.4781 4.97488 12.492C5.72744 12.5172 6.44012 12.6126 7.02487 12.7926C7.42076 12.9144 7.84047 12.6923 7.96232 12.2964C8.08417 11.9005 7.86203 11.4808 7.46614 11.3589C6.7129 11.1271 5.85832 11.0208 5.02511 10.9928ZM15.7496 7.90249C15.7357 7.48851 15.3889 7.16416 14.9749 7.17803C14.1417 7.20594 13.2871 7.31226 12.5339 7.54411C12.138 7.66596 11.9158 8.08567 12.0377 8.48155C12.1595 8.87744 12.5792 9.09959 12.9751 8.97773C13.5599 8.79775 14.2726 8.7024 15.0251 8.67719C15.4391 8.66331 15.7634 8.31647 15.7496 7.90249ZM5.02511 7.17803C4.61113 7.16416 4.26429 7.48851 4.25042 7.90249C4.23655 8.31647 4.5609 8.66331 4.97488 8.67719C5.72744 8.7024 6.44012 8.79775 7.02487 8.97773C7.42076 9.09959 7.84047 8.87744 7.96232 8.48155C8.08417 8.08567 7.86203 7.66596 7.46614 7.54411C6.7129 7.31226 5.85832 7.20594 5.02511 7.17803Z" fill="#99A2AD"/>
</svg>
