<svg width="20" height="20" viewBox="0 0 20 20" fill="none" xmlns="http://www.w3.org/2000/svg">
<path fill-rule="evenodd" clip-rule="evenodd" d="M3.28033 1.21967C2.98744 0.926777 2.51256 0.926777 2.21967 1.21967C1.92678 1.51256 1.92678 1.98744 2.21967 2.28033L3.56754 3.6282C3.53119 3.69129 3.4964 3.75542 3.46322 3.82054C3.20963 4.31824 3.10165 4.86012 3.05018 5.49013C2.99999 6.1044 2.99999 6.86494 3 7.81739V14.3871C2.99999 15.1635 2.99998 15.7979 3.04439 16.2876C3.08819 16.7707 3.18408 17.268 3.49592 17.6561C3.92713 18.1929 4.58035 18.5027 5.26883 18.4969C5.76673 18.4927 6.21249 18.2523 6.61422 17.9806C7.02155 17.705 7.51279 17.3036 8.11388 16.8123L8.95589 16.1242C9.23499 15.8961 9.41314 15.7512 9.55801 15.6497C9.69513 15.5536 9.75946 15.5281 9.79702 15.5175C9.92977 15.4802 10.0702 15.4802 10.203 15.5175C10.2405 15.5281 10.3049 15.5536 10.442 15.6497C10.5869 15.7512 10.765 15.8961 11.0441 16.1242L11.8861 16.8123C12.4872 17.3035 12.9784 17.705 13.3858 17.9806C13.7875 18.2523 14.2333 18.4927 14.7312 18.4969C15.4197 18.5027 16.0729 18.1929 16.5041 17.6561C16.6838 17.4324 16.7893 17.1764 16.8553 16.916L17.7197 17.7803C18.0126 18.0732 18.4874 18.0732 18.7803 17.7803C19.0732 17.4874 19.0732 17.0126 18.7803 16.7197L3.28033 1.21967ZM15.492 15.5526L4.69499 4.75565C4.62491 4.9696 4.57568 5.23915 4.5452 5.61228C4.50058 6.15829 4.5 6.85753 4.5 7.85V14.3492C4.5 15.1727 4.50074 15.7384 4.53826 16.1522C4.57711 16.5806 4.64654 16.6933 4.66531 16.7167C4.80904 16.8956 5.02678 16.9989 5.25628 16.997C5.28625 16.9967 5.41748 16.9791 5.77381 16.7381C6.11791 16.5053 6.55644 16.1479 7.19411 15.6268L8.02634 14.9467C8.28011 14.7393 8.50145 14.5584 8.69737 14.4211C8.90607 14.2749 9.12755 14.1476 9.39105 14.0735C9.7893 13.9616 10.2107 13.9616 10.6089 14.0735C10.8725 14.1476 11.0939 14.2749 11.3026 14.4211C11.4986 14.5584 11.7199 14.7393 11.9737 14.9467L12.8059 15.6268C13.4436 16.1479 13.8821 16.5053 14.2262 16.7381C14.5825 16.9791 14.7138 16.9967 14.7437 16.997C14.9732 16.9989 15.191 16.8956 15.3347 16.7167C15.3438 16.7054 15.3871 16.6443 15.4245 16.4392C15.4614 16.2371 15.4823 15.9567 15.492 15.5526Z" fill="#99A2AD"/>
<path d="M10.65 3C11.6425 3 12.3417 3.00058 12.8877 3.04519C13.425 3.08909 13.7475 3.17184 13.9985 3.29973C14.5159 3.56338 14.9366 3.98408 15.2003 4.50153C15.3282 4.75252 15.4109 5.07503 15.4548 5.61228C15.4994 6.15829 15.5 6.85753 15.5 7.85V11C15.5 11.4142 15.8358 11.75 16.25 11.75C16.6642 11.75 17 11.4142 17 11V7.81737C17 6.86493 17 6.10439 16.9498 5.49013C16.8984 4.86012 16.7904 4.31824 16.5368 3.82054C16.1293 3.02085 15.4791 2.37068 14.6795 1.96322C14.1818 1.70963 13.6399 1.60165 13.0099 1.55018C12.3956 1.49999 11.6351 1.49999 10.6826 1.5L7.5 1.5C7.08579 1.5 6.75 1.83579 6.75 2.25C6.75 2.66421 7.08579 3 7.5 3H10.65Z" fill="#99A2AD"/>
</svg>
