<svg width="20" height="20" viewBox="0 0 20 20" fill="none" xmlns="http://www.w3.org/2000/svg">
<path fill-rule="evenodd" clip-rule="evenodd" d="M6.66737 12.4934C5.66071 12.4934 4.89769 13.2639 4.85287 14.219C4.78942 15.5707 4.14573 16.3782 3.56757 16.8697C4.09574 17.0241 4.83624 17.0816 5.79411 16.7965C7.69683 16.2301 8.48104 15.0732 8.48104 14.1836C8.48104 13.2865 7.70616 12.4934 6.66737 12.4934ZM3.35858 14.1483C3.44018 12.4098 4.84451 10.9918 6.66737 10.9918C8.45809 10.9918 9.97698 12.3845 9.97698 14.1836C9.97698 15.9903 8.47813 17.5638 6.2194 18.2361C4.06156 18.8784 2.57906 18.2114 1.87061 17.688C1.78647 17.6258 1.66018 17.5141 1.57757 17.3353C1.4832 17.131 1.47951 16.9126 1.5418 16.7213C1.69147 16.2618 2.17856 16.0626 2.52896 15.7829C2.91128 15.4778 3.31758 15.0219 3.35858 14.1483Z" fill="#99A2AD"/>
<path fill-rule="evenodd" clip-rule="evenodd" d="M15.7019 2.00141C16.312 1.36368 17.3109 1.32806 17.9631 1.93024C18.6094 2.527 18.68 3.5332 18.1327 4.21788L12.053 11.716C11.7923 12.0376 11.3212 12.0861 11.0008 11.8244C10.6804 11.5626 10.632 11.0897 10.8928 10.7681L16.9669 3.27699C17.0242 3.20385 17.0127 3.09301 16.9503 3.0354C16.8833 2.97354 16.8169 3.009 16.7482 3.07474L9.74541 9.7831C9.44657 10.0694 8.97311 10.0583 8.68791 9.75831C8.40271 9.45834 8.41377 8.98309 8.71261 8.69681L15.7019 2.00141Z" fill="#99A2AD"/>
</svg>
