<svg width="20" height="20" viewBox="0 0 20 20" fill="none" xmlns="http://www.w3.org/2000/svg">
<path d="M10.0998 1.78331C10.0663 1.69324 9.93374 1.69324 9.90024 1.78331C9.70082 2.31952 9.50673 2.67074 9.35015 2.9541C9.14192 3.33092 9 3.58774 9 4.00002C9 4.5523 9.44772 5.00002 10 5.00002C10.5523 5.00002 11 4.5523 11 4.00002C11 3.58774 10.8581 3.33092 10.6499 2.9541C10.4933 2.67074 10.2992 2.31952 10.0998 1.78331Z" fill="#99A2AD"/>
<path fill-rule="evenodd" clip-rule="evenodd" d="M17.2875 11.7C17.0654 11.9961 16.7998 12.2251 16.5 12.3925V13.0805C16.5 13.6146 16.5 14.0605 16.4703 14.4247C16.4392 14.8046 16.3721 15.1612 16.2003 15.4985C15.9366 16.0159 15.5159 16.4366 14.9985 16.7003C14.6612 16.8721 14.3046 16.9392 13.9247 16.9703C13.5604 17 13.1146 17 12.5804 17H7.41957C6.88542 17 6.43957 17 6.07533 16.9703C5.69545 16.9392 5.33879 16.8721 5.00153 16.7003C4.48408 16.4366 4.06338 16.0159 3.79973 15.4985C3.62789 15.1612 3.56078 14.8046 3.52974 14.4247C3.49998 14.0605 3.49999 13.6146 3.5 13.0805L3.5 12.3925C3.20018 12.2251 2.93456 11.9961 2.7125 11.7C2.19721 11.013 2 10.0712 2 8.99905C2 8.99954 2 9.00002 2.75 9.00002L2 8.99905L2 8.99804L2.00001 8.9959L2.00005 8.99109L2.00023 8.97945C2.00041 8.97079 2.00072 8.96035 2.00124 8.94825C2.00227 8.92407 2.00415 8.89308 2.00754 8.85623C2.01428 8.7828 2.02714 8.68453 2.0518 8.56943C2.10065 8.34146 2.19902 8.03265 2.40037 7.71945C2.83253 7.0472 3.64463 6.50002 5 6.50002H15C16.3554 6.50002 17.1675 7.0472 17.5996 7.71945C17.801 8.03265 17.8993 8.34146 17.9482 8.56943C17.9729 8.68453 17.9857 8.7828 17.9925 8.85623C17.9958 8.89308 17.9977 8.92407 17.9988 8.94825C17.9993 8.96035 17.9996 8.97079 17.9998 8.97945L17.9999 8.99109L18 8.9959L18 8.99804L18 8.99905C18 10.0712 17.8028 11.013 17.2875 11.7ZM3.50001 9.00965C3.50123 9.93177 3.6786 10.4881 3.9125 10.8C4.11678 11.0724 4.43299 11.25 5 11.25C5.46086 11.25 5.78014 11.0342 6.09467 10.7197C6.17484 10.6395 6.25037 10.5573 6.33037 10.4695L6.34961 10.4484C6.42028 10.3707 6.50067 10.2824 6.57904 10.2041C6.66311 10.12 6.77483 10.0164 6.90789 9.93172C7.04265 9.84597 7.24533 9.75002 7.5 9.75002C7.75467 9.75002 7.95735 9.84597 8.09211 9.93172C8.22517 10.0164 8.33689 10.12 8.42095 10.2041C8.49931 10.2824 8.57968 10.3707 8.65034 10.4483L8.66963 10.4695C8.74963 10.5573 8.82516 10.6395 8.90533 10.7197C9.21986 11.0342 9.53914 11.25 10 11.25C10.4609 11.25 10.7801 11.0342 11.0947 10.7197C11.1748 10.6395 11.2504 10.5573 11.3304 10.4695L11.3496 10.4484C11.4203 10.3708 11.5007 10.2824 11.579 10.2041C11.6631 10.12 11.7748 10.0164 11.9079 9.93172C12.0426 9.84597 12.2453 9.75002 12.5 9.75002C12.7547 9.75002 12.9574 9.84597 13.0921 9.93172C13.2252 10.0164 13.3369 10.12 13.421 10.2041C13.4993 10.2824 13.5797 10.3707 13.6503 10.4483L13.6696 10.4695C13.7496 10.5573 13.8252 10.6395 13.9053 10.7197C14.2199 11.0342 14.5391 11.25 15 11.25C15.567 11.25 15.8832 11.0724 16.0875 10.8C16.3214 10.4881 16.4988 9.93177 16.5 9.00965L16.4996 9.00328L16.4987 8.99341C16.4967 8.97113 16.492 8.93269 16.4815 8.88372C16.46 8.78357 16.4178 8.65489 16.3379 8.53058C16.2075 8.32784 15.8946 8.00002 15 8.00002H5C4.10537 8.00002 3.79247 8.32784 3.66213 8.53058C3.58222 8.65489 3.53997 8.78357 3.51851 8.88373C3.50801 8.93269 3.5033 8.97113 3.50125 8.99341C3.50055 9.001 3.50019 9.00649 3.50001 9.00965ZM17.25 9.00002C18 9.00002 18 8.99954 18 8.99905L17.25 9.00002ZM12.8447 11.7803C13.2801 12.2158 13.9609 12.75 15 12.75L15 13.05C15 13.6224 14.9994 14.0067 14.9752 14.3025C14.9518 14.5897 14.9099 14.7269 14.8638 14.8175C14.7439 15.0527 14.5527 15.2439 14.3175 15.3638C14.2269 15.4099 14.0896 15.4518 13.8025 15.4753C13.5066 15.4994 13.1224 15.5 12.55 15.5H7.45C6.87757 15.5 6.49336 15.4994 6.19748 15.4753C5.91036 15.4518 5.77307 15.4099 5.68251 15.3638C5.44731 15.2439 5.25608 15.0527 5.13624 14.8175C5.0901 14.7269 5.04822 14.5897 5.02476 14.3025C5.00058 14.0067 5 13.6224 5 13.05L5 12.75C6.03914 12.75 6.71986 12.2158 7.15533 11.7803C7.26266 11.673 7.359 11.5677 7.43916 11.4797L7.5 11.413L7.56084 11.4797C7.641 11.5677 7.73734 11.673 7.84467 11.7803C8.28014 12.2158 8.96086 12.75 10 12.75C11.0391 12.75 11.7199 12.2158 12.1553 11.7803C12.2627 11.673 12.359 11.5677 12.4392 11.4797L12.5 11.413L12.5608 11.4797C12.641 11.5677 12.7373 11.673 12.8447 11.7803Z" fill="#99A2AD"/>
<path d="M6.40024 1.78331C6.43374 1.69324 6.56626 1.69324 6.59976 1.78331C6.79918 2.31952 6.99327 2.67074 7.14985 2.9541C7.35808 3.33092 7.5 3.58774 7.5 4.00002C7.5 4.5523 7.05228 5.00002 6.5 5.00002C5.94772 5.00002 5.5 4.5523 5.5 4.00002C5.5 3.58774 5.64192 3.33092 5.85015 2.9541C6.00673 2.67074 6.20082 2.31952 6.40024 1.78331Z" fill="#99A2AD"/>
<path d="M13.5998 1.78331C13.5663 1.69324 13.4337 1.69324 13.4002 1.78331C13.2008 2.31952 13.0067 2.67074 12.8501 2.9541C12.6419 3.33092 12.5 3.58774 12.5 4.00002C12.5 4.5523 12.9477 5.00002 13.5 5.00002C14.0523 5.00002 14.5 4.5523 14.5 4.00002C14.5 3.58774 14.3581 3.33092 14.1499 2.9541C13.9933 2.67074 13.7992 2.31952 13.5998 1.78331Z" fill="#99A2AD"/>
</svg>
