<svg width="20" height="20" viewBox="0 0 20 20" fill="none" xmlns="http://www.w3.org/2000/svg">
<path fill-rule="evenodd" clip-rule="evenodd" d="M6.25 1C6.66421 1 7 1.33579 7 1.75V2.00671C7.39296 1.99999 7.83006 2 8.31739 2H11.6826C12.1699 2 12.607 1.99999 13 2.00671V1.75C13 1.33579 13.3358 1 13.75 1C14.1642 1 14.5 1.33579 14.5 1.75V2.10571C14.9282 2.17028 15.3156 2.27785 15.6795 2.46322C16.4791 2.87068 17.1293 3.52085 17.5368 4.32054C17.7904 4.81824 17.8984 5.36012 17.9498 5.99013C18 6.60439 18 7.36493 18 8.31737V11.6826C18 12.6351 18 13.3956 17.9498 14.0099C17.8984 14.6399 17.7904 15.1818 17.5368 15.6795C17.1293 16.4791 16.4791 17.1293 15.6795 17.5368C15.1818 17.7904 14.6399 17.8983 14.0099 17.9498C13.3956 18 12.6351 18 11.6826 18H8.31737C7.36493 18 6.60439 18 5.99013 17.9498C5.36012 17.8983 4.81824 17.7904 4.32054 17.5368C3.52085 17.1293 2.87068 16.4791 2.46322 15.6795C2.20963 15.1818 2.10165 14.6399 2.05018 14.0099C1.99999 13.3956 1.99999 12.6351 2 11.6826V8.31739C1.99999 7.36494 1.99999 6.6044 2.05018 5.99013C2.10165 5.36012 2.20963 4.81824 2.46322 4.32054C2.87068 3.52085 3.52085 2.87068 4.32054 2.46322C4.68436 2.27785 5.07179 2.17028 5.5 2.10571V1.75C5.5 1.33579 5.83579 1 6.25 1ZM5.5 3.62958C5.29697 3.67352 5.13859 3.7299 5.00153 3.79973C4.48408 4.06338 4.06338 4.48408 3.79973 5.00153C3.67184 5.25252 3.58909 5.57503 3.54519 6.11228C3.5244 6.36682 3.51317 6.65467 3.50711 6.99H16.4929C16.4868 6.65467 16.4756 6.36682 16.4548 6.11228C16.4109 5.57503 16.3282 5.25252 16.2003 5.00153C15.9366 4.48408 15.5159 4.06338 14.9985 3.79973C14.8614 3.7299 14.703 3.67352 14.5 3.62958V3.75C14.5 4.16421 14.1642 4.5 13.75 4.5C13.3358 4.5 13 4.16421 13 3.75V3.50693C12.6183 3.50016 12.1752 3.5 11.65 3.5H8.35C7.8248 3.5 7.38172 3.50016 7 3.50693V3.75C7 4.16421 6.66421 4.5 6.25 4.5C5.83579 4.5 5.5 4.16421 5.5 3.75V3.62958ZM16.5 8.49H3.5V11.65C3.5 12.6425 3.50058 13.3417 3.54519 13.8877C3.58909 14.425 3.67184 14.7475 3.79973 14.9985C4.06338 15.5159 4.48408 15.9366 5.00153 16.2003C5.25252 16.3282 5.57503 16.4109 6.11228 16.4548C6.65829 16.4994 7.35753 16.5 8.35 16.5H11.65C12.6425 16.5 13.3417 16.4994 13.8877 16.4548C14.425 16.4109 14.7475 16.3282 14.9985 16.2003C15.5159 15.9366 15.9366 15.5159 16.2003 14.9985C16.3282 14.7475 16.4109 14.425 16.4548 13.8877C16.4994 13.3417 16.5 12.6425 16.5 11.65V8.49Z" fill="#99A2AD"/>
<path d="M15 13.5C15 14.3284 14.3284 15 13.5 15C12.6716 15 12 14.3284 12 13.5C12 12.6716 12.6716 12 13.5 12C14.3284 12 15 12.6716 15 13.5Z" fill="#99A2AD"/>
</svg>
