<svg width="20" height="20" viewBox="0 0 20 20" fill="none" xmlns="http://www.w3.org/2000/svg">
<path fill-rule="evenodd" clip-rule="evenodd" d="M4.89286 1.5L4.86936 1.5C4.68974 1.49998 4.51283 1.49996 4.36265 1.51223C4.19716 1.52575 3.99927 1.55783 3.79952 1.6596C3.52399 1.79999 3.29999 2.02399 3.1596 2.29952C3.05783 2.49927 3.02575 2.69716 3.01223 2.86265C2.99996 3.01283 2.99998 3.18974 3 3.36936L3 3.39286V5.67325V8.88569V11.78C3 14.1322 3 15.3083 3.45778 16.2068C3.86044 16.997 4.50296 17.6395 5.29324 18.0422C6.19167 18.5 7.36778 18.5 9.72 18.5H10.28C12.6322 18.5 13.8083 18.5 14.7068 18.0422C15.497 17.6395 16.1396 16.997 16.5422 16.2068C17 15.3083 17 14.1322 17 11.78V9.22782C17 5.90806 17 4.24818 16.3007 3.22664C15.6897 2.3341 14.7433 1.72704 13.6773 1.5439C12.4572 1.3343 11.0173 1.9949 7.99999 3.37925C8.00002 3.19964 8.00004 3.01283 7.98777 2.86265C7.97425 2.69716 7.94217 2.49927 7.84039 2.29952C7.70001 2.024 7.476 1.79999 7.20048 1.6596C7.00073 1.55782 6.80284 1.52575 6.63735 1.51223C6.48716 1.49996 6.31025 1.49998 6.13064 1.5L6.10713 1.5H4.89286ZM4.5 6.63539V11.78C4.5 12.9809 4.50117 13.7913 4.55224 14.4164C4.60189 15.024 4.6911 15.3233 4.79429 15.5258C5.05314 16.0338 5.46619 16.4468 5.97423 16.7057C6.17674 16.8089 6.476 16.8981 7.0836 16.9478C7.70871 16.9988 8.51914 17 9.72 17H10.28C11.4809 17 12.2913 16.9988 12.9164 16.9478C13.524 16.8981 13.8233 16.8089 14.0258 16.7057C14.5338 16.4468 14.9469 16.0338 15.2057 15.5258C15.3089 15.3233 15.3981 15.024 15.4478 14.4164C15.4988 13.7913 15.5 12.9809 15.5 11.78V9.22782C15.5 7.53888 15.4985 6.37509 15.4188 5.50175C15.3391 4.62897 15.1951 4.26704 15.0629 4.07396C14.6811 3.51612 14.0896 3.13671 13.4233 3.02225C13.1927 2.98263 12.8037 3.00266 11.9772 3.2942C11.1502 3.58593 10.0918 4.06989 8.55667 4.77419L4.5 6.63539ZM7.53032 7.96965C7.23743 7.67676 6.76255 7.67676 6.46966 7.96965C6.17677 8.26254 6.17677 8.73742 6.46966 9.03031L6.99999 9.56064V13.4393L6.46966 13.9697C6.17677 14.2625 6.17677 14.7374 6.46966 15.0303C6.76255 15.3232 7.23743 15.3232 7.53032 15.0303L8.06065 14.5H11.9393L12.4697 15.0303C12.7626 15.3232 13.2374 15.3232 13.5303 15.0303C13.8232 14.7374 13.8232 14.2625 13.5303 13.9697L13 13.4393V9.56064L13.5303 9.03031C13.8232 8.73742 13.8232 8.26254 13.5303 7.96965C13.2374 7.67676 12.7626 7.67676 12.4697 7.96965L11.9393 8.49998H8.06065L7.53032 7.96965ZM6.49428 3.00571C6.4995 3.08583 6.49999 3.19803 6.49999 3.39286V4.06746L4.5 4.98505V3.39286C4.5 3.19803 4.50049 3.08583 4.50571 3.00571C4.58583 3.00049 4.69803 3 4.89286 3H6.10713C6.30196 3 6.41416 3.00049 6.49428 3.00571ZM8.49999 9.99998V13H11.5V9.99998H8.49999Z" fill="#99A2AD"/>
</svg>
