<svg width="20" height="20" viewBox="0 0 20 20" fill="none" xmlns="http://www.w3.org/2000/svg">
<path fill-rule="evenodd" clip-rule="evenodd" d="M13.5034 1.78455C12.8406 1.66582 12.2985 1.56872 11.8517 1.52584C11.3892 1.48146 10.9636 1.48724 10.5449 1.61451C9.88968 1.81369 9.31524 2.2159 8.90395 2.76348C8.64115 3.11336 8.49012 3.51136 8.37363 3.96113C8.26109 4.39565 8.16691 4.93825 8.05175 5.60171L7.27516 10.0755C7.15998 10.7389 7.06578 11.2815 7.02523 11.729C6.98326 12.1921 6.99117 12.6185 7.12032 13.0386C7.32243 13.6961 7.7268 14.2736 8.27546 14.6884C8.62603 14.9534 9.02406 15.1068 9.47359 15.2257C9.90788 15.3407 10.45 15.4377 11.1128 15.5564L12.001 15.7155C12.6637 15.8342 13.2059 15.9314 13.6526 15.9742C14.1151 16.0186 14.5408 16.0128 14.9595 15.8856C15.6147 15.6864 16.1891 15.2842 16.6004 14.7366C16.8632 14.3867 17.0142 13.9887 17.1307 13.5389C17.2433 13.1044 17.3375 12.5618 17.4526 11.8983L18.2292 7.42462C18.3444 6.76115 18.4386 6.21855 18.4791 5.77112C18.5211 5.30801 18.5132 4.88155 18.3841 4.46146C18.1819 3.80401 17.7776 3.22649 17.2289 2.81168C16.8783 2.54663 16.4803 2.39332 16.0308 2.27435C15.5965 2.15942 15.0544 2.06233 14.3916 1.94362L13.5034 1.78455ZM10.9867 3.05139C11.141 3.00447 11.3464 2.98487 11.7163 3.02037C12.0949 3.0567 12.5765 3.14238 13.2778 3.26799L14.1041 3.41598C14.8054 3.54159 15.2868 3.62842 15.6548 3.72581C16.0144 3.82096 16.2008 3.91073 16.33 4.00844C16.6254 4.2318 16.8432 4.54277 16.952 4.89678C16.9996 5.05164 17.0202 5.25751 16.9866 5.62789C16.9523 6.00702 16.8692 6.48914 16.7473 7.19109L15.9815 11.603C15.8596 12.3049 15.7754 12.7868 15.68 13.155C15.5869 13.5147 15.4982 13.701 15.4013 13.83C15.1798 14.1249 14.8705 14.3414 14.5177 14.4487C14.3634 14.4956 14.158 14.5152 13.7881 14.4797C13.4095 14.4434 12.9278 14.3577 12.2266 14.2321L11.4003 14.0841C10.699 13.9585 10.2175 13.8717 9.84952 13.7743C9.49 13.6791 9.30359 13.5893 9.17436 13.4916C8.87893 13.2683 8.66119 12.9573 8.55236 12.6033C8.50475 12.4484 8.48415 12.2426 8.51772 11.8722C8.55209 11.4931 8.63518 11.0109 8.75703 10.309L9.52288 5.89712C9.64473 5.19517 9.72897 4.71326 9.82434 4.34505C9.9175 3.98535 10.0062 3.79904 10.1031 3.67007C10.3245 3.37521 10.6338 3.15864 10.9867 3.05139Z" fill="#99A2AD"/>
<path d="M5.9797 5.90137C6.38742 5.82834 6.65875 5.43861 6.58572 5.03089C6.5127 4.62316 6.12297 4.35184 5.71524 4.42486L5.60669 4.44431C4.94383 4.56302 4.40175 4.66011 3.96747 4.77504C3.51789 4.89402 3.12031 5.04724 2.77039 5.3118C2.22265 5.72592 1.81903 6.30237 1.61725 6.95872C1.48834 7.37803 1.48036 7.80403 1.52234 8.2672C1.56289 8.71459 1.65708 9.25717 1.77226 9.92066L2.54885 14.3944C2.66401 15.0579 2.75819 15.6005 2.87074 16.035C2.98721 16.4847 3.13833 16.8832 3.40162 17.2337C3.81361 17.7822 4.38911 18.1852 5.04545 18.3847C5.4649 18.5122 5.89102 18.5179 6.35343 18.4735C6.80025 18.4307 7.34233 18.3336 8.00511 18.2148L8.79163 18.074C9.19935 18.0009 9.47068 17.6112 9.39765 17.2035C9.32463 16.7958 8.9349 16.5244 8.52717 16.5975L7.77166 16.7328C7.07036 16.8584 6.58872 16.9441 6.21014 16.9804C5.8402 17.0159 5.63527 16.9962 5.48171 16.9495C5.13 16.8426 4.82175 16.6268 4.60098 16.3329C4.50459 16.2045 4.416 16.0187 4.32282 15.6589C4.22747 15.2908 4.14322 14.8089 4.02137 14.1069L3.25553 9.69504C3.13368 8.99311 3.05058 8.51097 3.01621 8.1318C2.98265 7.76148 3.00318 7.55514 3.05102 7.39951C3.16019 7.0444 3.37867 6.73236 3.67502 6.50831C3.8049 6.41012 3.99177 6.32025 4.35123 6.22512C4.71928 6.12771 5.20077 6.04088 5.90203 5.91528L5.9797 5.90137Z" fill="#99A2AD"/>
</svg>
