<svg width="20" height="20" viewBox="0 0 20 20" fill="none" xmlns="http://www.w3.org/2000/svg">
<path fill-rule="evenodd" clip-rule="evenodd" d="M5.5 4H14.5C15.8807 4 17 5.11929 17 6.5C17 7.31793 16.6072 8.04412 15.9999 8.50022C15.9992 7.51173 15.9866 6.99362 15.782 6.59202C15.5903 6.21569 15.2843 5.90973 14.908 5.71799C14.4802 5.5 13.9201 5.5 12.7999 5.5H7.20005C6.07991 5.5 5.51984 5.5 5.09202 5.71799C4.71569 5.90973 4.40973 6.21569 4.21799 6.59202C4.01336 6.99362 4.00082 7.51173 4.00005 8.50022C3.3928 8.04412 3 7.31793 3 6.5C3 5.11929 4.11929 4 5.5 4ZM18.5 6.5C18.5 8.17869 17.4659 9.61585 16 10.2092V14.3C16 15.4201 16 15.9802 15.782 16.408C15.5903 16.7843 15.2843 17.0903 14.908 17.282C14.4802 17.5 13.9201 17.5 12.8 17.5H7.2C6.0799 17.5 5.51984 17.5 5.09202 17.282C4.71569 17.0903 4.40973 16.7843 4.21799 16.408C4 15.9802 4 15.4201 4 14.3V10.2092C2.53408 9.61585 1.5 8.17869 1.5 6.5C1.5 4.29086 3.29086 2.5 5.5 2.5H14.5C16.7091 2.5 18.5 4.29086 18.5 6.5ZM7.21149 7H7.20005C6.61523 7 6.26683 7.00117 6.00856 7.02227C5.85094 7.03515 5.78468 7.05214 5.76692 7.05765C5.67765 7.10469 5.60469 7.17765 5.55765 7.26693C5.55214 7.28468 5.53514 7.35093 5.52227 7.50855C5.50117 7.76681 5.5 8.1152 5.5 8.7V14.3C5.5 14.8848 5.50117 15.2332 5.52227 15.4914C5.53514 15.6491 5.55214 15.7153 5.55765 15.7331C5.60469 15.8224 5.67765 15.8953 5.76693 15.9424C5.78468 15.9479 5.85093 15.9649 6.00855 15.9777C6.26681 15.9988 6.6152 16 7.2 16H12.8C13.3848 16 13.7332 15.9988 13.9914 15.9777C14.1491 15.9649 14.2153 15.9479 14.2331 15.9424C14.3224 15.8953 14.3953 15.8224 14.4424 15.7331C14.4479 15.7153 14.4649 15.6491 14.4777 15.4914C14.4988 15.2332 14.5 14.8848 14.5 14.3V8.7C14.5 8.1152 14.4988 7.76681 14.4777 7.50855C14.4649 7.35094 14.4479 7.28469 14.4424 7.26693C14.3953 7.17765 14.3224 7.10469 14.2331 7.05765C14.2153 7.05214 14.1491 7.03515 13.9914 7.02227C13.7332 7.00117 13.3848 7 12.7999 7H12.7885H12.7771H12.7657H12.7542H12.7428H12.7314H12.72H12.7086H12.6973H12.6859H12.6745H12.6631H12.6518H12.6404H12.629H12.6177H12.6064H12.595H12.5837H12.5724H12.561H12.5497H12.5384H12.5271H12.5158H12.5045H12.4932H12.4819H12.4707H12.4594H12.4481H12.4369H12.4256H12.4143H12.4031H12.3918H12.3806H12.3694H12.3582H12.3469H12.3357H12.3245H12.3133H12.3021H12.2909H12.2797H12.2685H12.2573H12.2461H12.235H12.2238H12.2126H12.2015H12.1903H12.1792H12.168H12.1569H12.1457H12.1346H12.1235H12.1123H12.1012H12.0901H12.079H12.0679H12.0568H12.0457H12.0346H12.0235H12.0124H12.0013H11.9903H11.9792H11.9681H11.9571H11.946H11.9349H11.9239H11.9128H11.9018H11.8908H11.8797H11.8687H11.8577H11.8466H11.8356H11.8246H11.8136H11.8026H11.7916H11.7806H11.7696H11.7586H11.7476H11.7366H11.7256H11.7147H11.7037H11.6927H11.6817H11.6708H11.6598H11.6489H11.6379H11.627H11.616H11.6051H11.5941H11.5832H11.5723H11.5613H11.5504H11.5395H11.5286H11.5176H11.5067H11.4958H11.4849H11.474H11.4631H11.4522H11.4413H11.4304H11.4195H11.4087H11.3978H11.3869H11.376H11.3651H11.3543H11.3434H11.3325H11.3217H11.3108H11.3H11.2891H11.2783H11.2674H11.2566H11.2457H11.2349H11.224H11.2132H11.2024H11.1915H11.1807H11.1699H11.1591H11.1483H11.1374H11.1266H11.1158H11.105H11.0942H11.0834H11.0726H11.0618H11.051H11.0402H11.0294H11.0186H11.0078H10.997H10.9862H10.9755H10.9647H10.9539H10.9431H10.9323H10.9216H10.9108H10.9H10.8893H10.8785H10.8677H10.857H10.8462H10.8355H10.8247H10.8139H10.8032H10.7924H10.7817H10.7709H10.7602H10.75V11.5972L11.5061 10.9356C11.8178 10.6628 12.2917 10.6944 12.5644 11.0061C12.8372 11.3178 12.8056 11.7917 12.4939 12.0644L10.4939 13.8144C10.2111 14.0619 9.78889 14.0619 9.50612 13.8144L7.50612 12.0644C7.19439 11.7917 7.16281 11.3178 7.43557 11.0061C7.70833 10.6944 8.18215 10.6628 8.49388 10.9356L9.25 11.5972V7H9.23981H9.22906H9.21831H9.20756H9.19681H9.18606H9.1753H9.16455H9.15379H9.14303H9.13227H9.1215H9.11074H9.09997H9.0892H9.07843H9.06766H9.05688H9.0461H9.03533H9.02454H9.01376H9.00298H8.99219H8.9814H8.97061H8.95981H8.94902H8.93822H8.92742H8.91661H8.90581H8.895H8.88419H8.87338H8.86256H8.85175H8.84093H8.8301H8.81928H8.80845H8.79762H8.78679H8.77595H8.76512H8.75428H8.74343H8.73259H8.72174H8.71089H8.70004H8.68918H8.67832H8.66746H8.65659H8.64573H8.63486H8.62398H8.61311H8.60223H8.59134H8.58046H8.56957H8.55868H8.54778H8.53689H8.52599H8.51508H8.50418H8.49327H8.48235H8.47144H8.46052H8.44959H8.43867H8.42774H8.4168H8.40587H8.39493H8.38399H8.37304H8.36209H8.35114H8.34018H8.32922H8.31825H8.30729H8.29632H8.28534H8.27436H8.26338H8.2524H8.24141H8.23041H8.21942H8.20842H8.19741H8.1864H8.17539H8.16437H8.15335H8.14233H8.1313H8.12027H8.10924H8.0982H8.08715H8.07611H8.06505H8.054H8.04294H8.03187H8.02081H8.00973H7.99866H7.98758H7.97649H7.9654H7.95431H7.94321H7.93211H7.921H7.90989H7.89877H7.88765H7.87653H7.8654H7.85427H7.84313H7.83199H7.82084H7.80969H7.79853H7.78737H7.77621H7.76504H7.75386H7.74268H7.7315H7.72031H7.70912H7.69792H7.68671H7.6755H7.66429H7.65307H7.64185H7.63062H7.61939H7.60815H7.59691H7.58566H7.57441H7.56315H7.55188H7.54062H7.52934H7.51806H7.50678H7.49549H7.48419H7.47289H7.46159H7.45028H7.43896H7.42764H7.41632H7.40498H7.39365H7.3823H7.37095H7.3596H7.34824H7.33688H7.32551H7.31413H7.30275H7.29136H7.27997H7.26857H7.25716H7.24575H7.23434H7.22292H7.21149ZM14.2383 7.05945L14.2352 7.05834C14.2374 7.05904 14.2383 7.05943 14.2383 7.05945ZM14.4405 7.26175C14.4406 7.26169 14.441 7.26264 14.4417 7.26478L14.4405 7.26175ZM14.4405 15.7383L14.4417 15.7352C14.441 15.7374 14.4406 15.7383 14.4405 15.7383ZM14.2383 15.9405C14.2383 15.9406 14.2374 15.941 14.2352 15.9417L14.2383 15.9405ZM5.76175 15.9405L5.76478 15.9417L5.76223 15.9408C5.76188 15.9406 5.76172 15.9406 5.76175 15.9405ZM5.55945 15.7383C5.55943 15.7383 5.55904 15.7374 5.55833 15.7352L5.55945 15.7383ZM5.55945 7.26175L5.55868 7.26376C5.5589 7.2631 5.55908 7.26261 5.55921 7.26227C5.55936 7.26189 5.55944 7.26172 5.55945 7.26175ZM5.76175 7.05946C5.76169 7.05943 5.76264 7.05904 5.76477 7.05833L5.76175 7.05946Z" fill="#99A2AD"/>
</svg>
