<svg width="20" height="20" viewBox="0 0 20 20" fill="none" xmlns="http://www.w3.org/2000/svg">
<path fill-rule="evenodd" clip-rule="evenodd" d="M10.1538 2.50832C10.0517 2.49568 9.94846 2.49568 9.8464 2.50832C9.74729 2.5206 9.64335 2.55059 9.25705 2.67354L4.59229 4.15819C4.38229 4.22502 4.26111 4.26403 4.17231 4.29925C4.11784 4.32086 4.0962 4.33334 4.09058 4.33695C4.05864 4.36341 4.03379 4.3974 4.01826 4.43586C4.01653 4.4423 4.0112 4.4667 4.00713 4.52517C4.0005 4.62047 4.00008 4.74777 4.00008 4.96815V10.6582C4.00008 12.5149 4.99297 14.0122 6.26217 15.171C7.53116 16.3296 9.00263 17.0785 9.76837 17.4211C9.85744 17.4609 9.89397 17.4769 9.92245 17.4874C9.96935 17.5048 10.0303 17.505 10.0777 17.4874C10.1062 17.4769 10.1427 17.4609 10.2318 17.4211C10.9975 17.0785 12.469 16.3296 13.738 15.171C15.0072 14.0122 16.0001 12.5149 16.0001 10.6582V4.96815C16.0001 4.74777 15.9997 4.62047 15.993 4.52517C15.989 4.46672 15.9836 4.44232 15.9819 4.43586C15.9664 4.3974 15.9415 4.36341 15.9096 4.33695C15.904 4.33334 15.8823 4.32086 15.8279 4.29925C15.739 4.26403 15.6179 4.22502 15.4079 4.15819L10.7431 2.67354C10.3568 2.55059 10.2529 2.5206 10.1538 2.50832ZM15.9112 4.33804L15.9096 4.33695L15.9112 4.33804ZM15.9813 4.43402L15.9819 4.43586L15.9813 4.43402ZM4.01883 4.43402L4.01826 4.43586L4.01883 4.43402ZM4.089 4.33804L4.09058 4.33695L4.089 4.33804ZM9.66199 1.0197C9.88653 0.991887 10.1136 0.991887 10.3382 1.0197C10.6071 1.05301 10.8635 1.13772 11.198 1.24419L15.8628 2.72883C15.8895 2.73733 15.9164 2.7458 15.9434 2.75432C16.2595 2.85393 16.5961 2.96001 16.8599 3.17637C17.0889 3.3642 17.2665 3.6071 17.376 3.8823C17.5022 4.19928 17.5012 4.55222 17.5002 4.88362C17.5002 4.91197 17.5001 4.94016 17.5001 4.96815V10.6582C17.5001 13.0978 16.1865 14.9666 14.7494 16.2787C13.3121 17.591 11.6776 18.4176 10.8443 18.7903C10.6919 18.8585 10.5262 18.9365 10.2931 18.9761C10.1175 19.006 9.8827 19.006 9.70702 18.9761C9.47392 18.9365 9.30828 18.8585 9.15585 18.7903C8.3226 18.4176 6.68806 17.591 5.25078 16.2787C3.81371 14.9666 2.50008 13.0978 2.50008 10.6582V4.96815C2.50008 4.94016 2.5 4.91196 2.49992 4.88362C2.49898 4.55222 2.49797 4.19928 2.62414 3.8823C2.73367 3.6071 2.91127 3.3642 3.14029 3.17637C3.40407 2.96001 3.74069 2.85393 4.05677 2.75432C4.08381 2.7458 4.1107 2.73732 4.13737 2.72883L8.80213 1.24419C9.13664 1.13772 9.3931 1.05301 9.66199 1.0197Z" fill="#99A2AD"/>
<path fill-rule="evenodd" clip-rule="evenodd" d="M13.7604 7.20043C14.0639 7.48228 14.0815 7.95683 13.7997 8.26036L9.6211 12.7604C9.47919 12.9132 9.28006 13 9.07151 13C8.86296 13 8.66382 12.9132 8.52191 12.7604L6.20048 10.2604C5.91863 9.95683 5.93621 9.48228 6.23974 9.20043C6.54327 8.91858 7.01782 8.93615 7.29967 9.23969L9.07151 11.1478L12.7005 7.23969C12.9823 6.93615 13.4569 6.91858 13.7604 7.20043Z" fill="#99A2AD"/>
</svg>
