<svg width="20" height="20" viewBox="0 0 20 20" fill="none" xmlns="http://www.w3.org/2000/svg">
<path fill-rule="evenodd" clip-rule="evenodd" d="M8.86488 2.15421C9.32633 2.52053 9.73441 3.02608 10.0518 3.64443C10.2838 3.25704 10.557 2.92292 10.8597 2.65854C11.2652 2.30443 11.7622 2.04431 12.3109 2.00861C12.8829 1.97139 13.4228 2.18482 13.856 2.61806C14.2879 3.04995 14.5026 3.5881 14.5 4.15194C14.4974 4.7007 14.2906 5.22383 13.9722 5.66998C13.8913 5.78345 13.802 5.89364 13.705 5.99995L14.7454 5.99995C15.2047 5.99994 15.5969 5.99993 15.9159 6.02754C16.2493 6.05639 16.5821 6.12016 16.8917 6.29743C17.3476 6.55848 17.6978 6.97083 17.8815 7.46298C18.0063 7.79718 18.0153 8.13598 17.9897 8.4696C17.9653 8.78887 17.9017 9.17583 17.8273 9.62904L17.1018 14.0477C17.008 14.6191 16.9308 15.0891 16.8382 15.4704C16.7418 15.867 16.6172 16.2206 16.4023 16.545C16.063 17.0571 15.5856 17.4625 15.0254 17.7143C14.6704 17.8738 14.3013 17.9395 13.8943 17.9703C13.5031 18 13.0268 18 12.4477 18H7.54406C6.96437 18 6.4875 18 6.09593 17.9703C5.68855 17.9394 5.31911 17.8736 4.96388 17.7138C4.40328 17.4616 3.9257 17.0556 3.58658 16.5429C3.37169 16.218 3.24731 15.864 3.15129 15.4669C3.059 15.0852 2.98229 14.6146 2.88902 14.0425L2.16892 9.62563C2.09507 9.17277 2.03202 8.78609 2.00794 8.46706C1.98279 8.13367 1.99214 7.79516 2.11708 7.46132C2.30109 6.96964 2.65124 6.55778 3.1069 6.29705C3.41629 6.12002 3.74888 6.05632 4.08197 6.0275C4.40071 5.99993 4.79247 5.99994 5.25129 5.99995L6.03972 5.99995C5.84769 5.80424 5.68054 5.59601 5.5395 5.37946C4.89369 4.38786 4.72955 3.04079 5.62351 2.14681C6.07639 1.69392 6.65115 1.48024 7.24963 1.50541C7.83208 1.5299 8.38926 1.77664 8.86488 2.15421ZM7.18661 3.00408C7.00509 2.99645 6.83859 3.05305 6.68418 3.20746C6.48583 3.40581 6.36463 3.89785 6.79643 4.56084C7.18395 5.15586 7.97474 5.75495 9.19906 5.94129C9.03216 4.64804 8.482 3.76545 7.93224 3.32902C7.64569 3.10154 7.38416 3.01239 7.18661 3.00408ZM12.7953 3.67871C12.6433 3.52664 12.5166 3.4984 12.4083 3.50544C12.277 3.51399 12.0803 3.58405 11.8465 3.7883C11.4043 4.17448 10.9689 4.92711 10.8062 5.92284C11.7367 5.74222 12.4128 5.27291 12.7513 4.79863C12.9317 4.54576 12.9992 4.31822 13 4.14492C13.0008 3.9867 12.948 3.8314 12.7953 3.67871ZM3.85186 7.59899C3.88862 7.57795 3.97201 7.54262 4.21126 7.52192C4.45757 7.50061 4.78382 7.49995 5.28296 7.49995H8.4232L7.8851 8.27055C7.64796 8.61016 7.73102 9.07771 8.07063 9.31486C8.41024 9.552 8.8778 9.46894 9.11494 9.12933L10.0858 7.73897L11.6636 9.71756C11.9219 10.0414 12.3938 10.0946 12.7176 9.83633C13.0415 9.57808 13.0947 9.10619 12.8364 8.78234L11.8138 7.49995H14.7138C15.2134 7.49995 15.54 7.50061 15.7866 7.52195C16.0261 7.54268 16.1096 7.57806 16.1463 7.59911C16.2983 7.68613 16.415 7.82358 16.4762 7.98763C16.4911 8.02731 16.5125 8.11538 16.4941 8.3551C16.4752 8.60185 16.4229 8.92425 16.342 9.41729L16.1623 10.5119L15.0311 10.0546C14.6471 9.89938 14.2099 10.0848 14.0547 10.4689C13.8994 10.8529 14.0849 11.29 14.4689 11.4453L15.9131 12.0291L15.6585 13.5799L3.75406 9.29429C3.7128 9.27943 3.6711 9.26842 3.62933 9.26106C3.56328 8.85384 3.52027 8.57398 3.50369 8.35419C3.48562 8.11473 3.50708 8.02674 3.52192 7.98707C3.58326 7.82318 3.69997 7.68589 3.85186 7.59899ZM3.90338 10.9423L4.17375 12.6006L8.48719 14.0384C8.88015 14.1694 9.09252 14.5942 8.96153 14.9871C8.83055 15.3801 8.40581 15.5925 8.01285 15.4615L4.4472 14.2729C4.50582 14.6217 4.55528 14.891 4.60928 15.1143C4.68443 15.4251 4.75661 15.5928 4.83767 15.7154C5.02027 15.9915 5.27743 16.2101 5.57929 16.3459C5.71329 16.4062 5.89042 16.4504 6.20925 16.4746C6.53749 16.4995 6.95732 16.5 7.57253 16.5H12.4192C13.0337 16.5 13.4531 16.4995 13.781 16.4746C14.0995 16.4505 14.2765 16.4063 14.4104 16.3461C14.7121 16.2105 14.9691 15.9922 15.1518 15.7165C15.2329 15.5941 15.3052 15.4267 15.3806 15.1163L15.3899 15.0774L3.90338 10.9423Z" fill="#99A2AD"/>
</svg>
