<svg width="20" height="20" viewBox="0 0 20 20" fill="none" xmlns="http://www.w3.org/2000/svg">
<path fill-rule="evenodd" clip-rule="evenodd" d="M10 18.5C14.6944 18.5 18.5 14.6944 18.5 10C18.5 5.30558 14.6944 1.5 10 1.5C5.30558 1.5 1.5 5.30558 1.5 10C1.5 14.6944 5.30558 18.5 10 18.5ZM17 10C17 13.866 13.866 17 10 17C6.13401 17 3 13.866 3 10C3 6.13401 6.13401 3 10 3C13.866 3 17 6.13401 17 10ZM9.53033 6.46967C9.23744 6.17678 8.76256 6.17678 8.46967 6.46967C8.17678 6.76256 8.17678 7.23744 8.46967 7.53033L10.9393 10L8.46967 12.4697C8.17678 12.7626 8.17678 13.2374 8.46967 13.5303C8.76256 13.8232 9.23744 13.8232 9.53033 13.5303L12.5303 10.5303C12.8232 10.2374 12.8232 9.76256 12.5303 9.46967L9.53033 6.46967Z" fill="#99A2AD"/>
</svg>
