<svg width="20" height="20" viewBox="0 0 20 20" fill="none" xmlns="http://www.w3.org/2000/svg">
<path fill-rule="evenodd" clip-rule="evenodd" d="M6.96904 4.23919L8.65662 2.55196C9.39858 1.81017 10.6014 1.81015 11.3433 2.55193L13.031 4.23917C13.4124 4.62055 13.6935 5.44304 13.305 6.14858L15.0324 7.87603C15.5398 8.38349 15.7041 9.29363 15.1716 9.96984L17.0466 11.8889C17.5991 12.4543 17.7124 13.4619 17.0249 14.1355C16.4271 14.7214 14.7981 15.8136 11 15.9788V16.9999C11 17.5521 10.5523 17.9999 10 17.9999C9.44773 17.9999 9.00001 17.5521 9.00001 16.9999V15.9788C5.20527 15.8137 3.5758 14.7232 2.9765 14.1369C2.28235 13.4577 2.40333 12.4401 2.96699 11.8764L4.84838 9.99482C4.29181 9.3162 4.4538 8.38976 4.9675 7.87603L6.69494 6.14854C6.30656 5.44302 6.5876 4.62055 6.96904 4.23919ZM7.89809 7.06671L6.02818 8.93668C5.99211 8.97274 5.98984 9.02921 6.02751 9.0636L6.03363 9.0693C6.13694 9.16614 7.02657 10.0001 9.99997 10.0001C12.9739 10.0001 13.8633 9.16586 13.9664 9.06925L13.9724 9.0636C14.0101 9.02921 14.0078 8.97274 13.9718 8.93668L12.1019 7.06671C11.5859 7.25145 10.8995 7.36467 9.99997 7.36467C9.10048 7.36467 8.41402 7.25145 7.89809 7.06671ZM11.9705 5.29997L10.2827 3.61268C10.1266 3.45658 9.87336 3.45658 9.71716 3.61274L8.02959 5.29996C7.9927 5.33684 7.99242 5.39443 8.03281 5.42577C8.35866 5.67863 8.9838 5.86467 9.99997 5.86467C11.0161 5.86467 11.6413 5.67863 11.9671 5.42577C12.0076 5.3944 12.0073 5.33682 11.9705 5.29997ZM4.0277 12.937L6.11329 10.8512C6.93012 11.2042 8.16453 11.5001 9.99997 11.5001C11.8613 11.5001 13.1046 11.1958 13.921 10.8362L15.9737 12.9372C16.0088 12.9731 16.011 13.029 15.9751 13.0642L15.9651 13.0744C15.8237 13.2211 14.591 14.5 9.99998 14.5C5.4094 14.5 4.17513 13.2198 4.03539 13.0748L4.02557 13.0648C3.98932 13.0293 3.99183 12.9729 4.0277 12.937Z" fill="#99A2AD"/>
</svg>
