<svg width="20" height="20" viewBox="0 0 20 20" fill="none" xmlns="http://www.w3.org/2000/svg">
<path fill-rule="evenodd" clip-rule="evenodd" d="M5.25 8.25074C5.25 6.17997 6.92887 4.50116 9 4.50116C10.7844 4.50116 12.2792 5.74804 12.6575 7.41857C12.733 7.75204 13.0245 7.99223 13.3662 8.00259C15.3833 8.06377 17 9.71851 17 11.7504C17 13.8212 15.3211 15.5 13.25 15.5H13C12.5858 15.5 12.25 15.8358 12.25 16.25C12.25 16.6642 12.5858 17 13 17H13.25C16.1494 17 18.5 14.6497 18.5 11.7504C18.5 9.09463 16.5279 6.89974 13.968 6.54956C13.2611 4.48539 11.3046 3.00116 9 3.00116C6.10057 3.00116 3.75 5.35141 3.75 8.25074C3.75 8.3668 3.75378 8.48206 3.76123 8.5964C2.4109 9.37225 1.5 10.8292 1.5 12.5003C1.5 14.9855 3.51478 17 6 17H7C7.41421 17 7.75 16.6642 7.75 16.25C7.75 15.8358 7.41421 15.5 7 15.5H6C4.34308 15.5 3 14.1569 3 12.5003C3 11.2506 3.76457 10.1776 4.8545 9.72691C5.17943 9.59255 5.3674 9.2505 5.30662 8.90418C5.26947 8.69248 5.25 8.47419 5.25 8.25074ZM9.25003 17.2527C9.25003 17.6669 9.58582 18.0027 10 18.0027C10.4142 18.0027 10.75 17.6669 10.75 17.2527V10.5616L12.72 12.5316C13.0129 12.8245 13.4878 12.8245 13.7807 12.5316C14.0736 12.2387 14.0736 11.7638 13.7807 11.4709L10.5304 8.2206C10.3897 8.07995 10.1989 8.00093 10 8.00093C9.80112 8.00093 9.61035 8.07995 9.4697 8.2206L6.21936 11.4709C5.92647 11.7638 5.92647 12.2387 6.21936 12.5316C6.51225 12.8245 6.98712 12.8245 7.28002 12.5316L9.25003 10.5616V17.2527Z" fill="#99A2AD"/>
</svg>
