<svg width="20" height="20" viewBox="0 0 20 20" fill="none" xmlns="http://www.w3.org/2000/svg">
<path fill-rule="evenodd" clip-rule="evenodd" d="M9 4.50122C6.92887 4.50122 5.25 6.18003 5.25 8.2508C5.25 8.47426 5.26947 8.69255 5.30662 8.90424C5.3674 9.25056 5.17943 9.59262 4.8545 9.72697C3.76457 10.1777 3 11.2507 3 12.5004C3 14.157 4.34308 15.5001 6 15.5001H13.25C15.3211 15.5001 17 13.8213 17 11.7505C17 9.71858 15.3833 8.06384 13.3662 8.00266C13.0245 7.99229 12.733 7.7521 12.6575 7.41863C12.2792 5.7481 10.7844 4.50122 9 4.50122ZM3.75 8.2508C3.75 5.35147 6.10057 3.00122 9 3.00122C11.3046 3.00122 13.2611 4.48545 13.968 6.54962C16.5279 6.8998 18.5 9.09469 18.5 11.7505C18.5 14.6498 16.1494 17.0001 13.25 17.0001H6C3.51478 17.0001 1.5 14.9856 1.5 12.5004C1.5 10.8293 2.4109 9.37231 3.76123 8.59646C3.75378 8.48212 3.75 8.36686 3.75 8.2508Z" fill="#99A2AD"/>
</svg>
