<svg width="20" height="20" viewBox="0 0 20 20" fill="none" xmlns="http://www.w3.org/2000/svg">
<path fill-rule="evenodd" clip-rule="evenodd" d="M4.27832 3.2176C3.98542 2.9247 3.51055 2.9247 3.21766 3.21759C2.92476 3.51049 2.92476 3.98536 3.21765 4.27825L4.49434 5.55495C4.02181 6.34317 3.75 7.266 3.75 8.25077C3.75 8.36683 3.75378 8.48209 3.76123 8.59643C2.4109 9.37228 1.5 10.8292 1.5 12.5004C1.5 14.9855 3.51478 17 6 17H13.25C14.0365 17 14.784 16.8266 15.4551 16.5157L16.7183 17.7789C17.0112 18.0718 17.4861 18.0718 17.7789 17.7789C18.0718 17.4861 18.0718 17.0112 17.7789 16.7183L4.27832 3.2176ZM14.2927 15.3534L5.60186 6.66247C5.37607 7.14445 5.25 7.68239 5.25 8.25077C5.25 8.47422 5.26946 8.69251 5.30662 8.90421C5.3674 9.25053 5.17943 9.59258 4.8545 9.72694C3.76457 10.1776 3 11.2506 3 12.5004C3 14.157 4.34308 15.5 6 15.5H13.25C13.6123 15.5 13.9621 15.4488 14.2927 15.3534ZM8.20619 4.5852C8.4614 4.53026 8.72688 4.50119 9 4.50119C10.7844 4.50119 12.2792 5.74807 12.6575 7.4186C12.733 7.75207 13.0245 7.99226 13.3662 8.00263C15.3833 8.06381 17 9.71854 17 11.7504C17 12.177 16.9175 12.6133 16.7801 13.0069C16.6437 13.398 16.8501 13.8256 17.2412 13.9621C17.6323 14.0985 18.06 13.8921 18.1964 13.501C18.383 12.9661 18.5 12.3629 18.5 11.7504C18.5 9.09466 16.5279 6.89977 13.968 6.54959C13.2611 4.48542 11.3046 3.00119 9 3.00119C8.6201 3.00119 8.24881 3.04166 7.8905 3.1188C7.48557 3.20597 7.22797 3.60491 7.31514 4.00984C7.40232 4.41478 7.80125 4.67238 8.20619 4.5852Z" fill="#99A2AD"/>
</svg>
