<svg width="20" height="20" viewBox="0 0 20 20" fill="none" xmlns="http://www.w3.org/2000/svg">
<path fill-rule="evenodd" clip-rule="evenodd" d="M5.25 8.2508C5.25 6.18003 6.92887 4.50122 9 4.50122C10.7844 4.50122 12.2792 5.7481 12.6575 7.41863C12.733 7.7521 13.0245 7.99229 13.3662 8.00266C14.5315 8.038 15.5637 8.6047 16.2284 9.47189C16.4804 9.80062 16.9512 9.86283 17.28 9.61083C17.6087 9.35882 17.6709 8.88804 17.4189 8.5593C16.598 7.4885 15.3716 6.74172 13.968 6.54964C13.2611 4.48546 11.3046 3.00122 9 3.00122C6.10057 3.00122 3.75 5.35147 3.75 8.2508C3.75 8.36686 3.75378 8.48212 3.76123 8.59646C2.4109 9.37231 1.5 10.8293 1.5 12.5004C1.5 14.9856 3.51478 17.0001 6 17.0001H10.25C10.6642 17.0001 11 16.6643 11 16.2501C11 15.8358 10.6642 15.5001 10.25 15.5001H6C4.34308 15.5001 3 14.157 3 12.5004C3 11.2507 3.76457 10.1777 4.8545 9.72697C5.17943 9.59262 5.3674 9.25056 5.30662 8.90424C5.26946 8.69255 5.25 8.47426 5.25 8.2508ZM15.5019 11.0059C15.9161 11.0059 16.2519 11.3416 16.2519 11.7559V13.7559H18.2519C18.6661 13.7559 19.0019 14.0916 19.0019 14.5059C19.0019 14.9201 18.6661 15.2559 18.2519 15.2559H16.2519V17.2559C16.2519 17.6701 15.9161 18.0059 15.5019 18.0059C15.0877 18.0059 14.7519 17.6701 14.7519 17.2559V15.2559H12.7519C12.3377 15.2559 12.0019 14.9201 12.0019 14.5059C12.0019 14.0916 12.3377 13.7559 12.7519 13.7559H14.7519V11.7559C14.7519 11.3416 15.0877 11.0059 15.5019 11.0059Z" fill="#99A2AD"/>
</svg>
