<svg width="20" height="20" viewBox="0 0 20 20" fill="none" xmlns="http://www.w3.org/2000/svg">
<path fill-rule="evenodd" clip-rule="evenodd" d="M9 4.50116C6.92887 4.50116 5.25 6.17997 5.25 8.25074C5.25 8.47419 5.26947 8.69248 5.30662 8.90418C5.3674 9.2505 5.17943 9.59255 4.8545 9.72691C3.76457 10.1776 3 11.2506 3 12.5003C3 14.1569 4.34308 15.5 6 15.5H13.25C15.3211 15.5 17 13.8212 17 11.7504C17 9.71851 15.3833 8.06377 13.3662 8.00259C13.0245 7.99223 12.733 7.75204 12.6575 7.41857C12.2792 5.74804 10.7844 4.50116 9 4.50116ZM3.75 8.25074C3.75 5.35141 6.10057 3.00116 9 3.00116C11.3046 3.00116 13.2611 4.48539 13.968 6.54956C16.5279 6.89974 18.5 9.09463 18.5 11.7504C18.5 14.6497 16.1494 17 13.25 17H6C3.51478 17 1.5 14.9855 1.5 12.5003C1.5 10.8292 2.4109 9.37225 3.76123 8.5964C3.75378 8.48206 3.75 8.3668 3.75 8.25074Z" fill="#99A2AD"/>
</svg>
