<svg width="20" height="20" viewBox="0 0 20 20" fill="none" xmlns="http://www.w3.org/2000/svg">
<path fill-rule="evenodd" clip-rule="evenodd" d="M5.25 8.2508C5.25 6.18003 6.92887 4.50122 9 4.50122C10.7844 4.50122 12.2792 5.7481 12.6575 7.41863C12.733 7.7521 13.0245 7.99229 13.3662 8.00266C15.3833 8.06384 17 9.71858 17 11.7505C17 13.8213 15.3211 15.5001 13.25 15.5001H13C12.5858 15.5001 12.25 15.8358 12.25 16.2501C12.25 16.6643 12.5858 17.0001 13 17.0001H13.25C16.1494 17.0001 18.5 14.6498 18.5 11.7505C18.5 9.09469 16.5279 6.8998 13.968 6.54962C13.2611 4.48545 11.3046 3.00122 9 3.00122C6.10057 3.00122 3.75 5.35147 3.75 8.2508C3.75 8.36686 3.75378 8.48212 3.76123 8.59646C2.4109 9.37231 1.5 10.8293 1.5 12.5004C1.5 14.9856 3.51478 17.0001 6 17.0001H7C7.41421 17.0001 7.75 16.6643 7.75 16.2501C7.75 15.8358 7.41421 15.5001 7 15.5001H6C4.34308 15.5001 3 14.157 3 12.5004C3 11.2507 3.76457 10.1777 4.8545 9.72697C5.17943 9.59262 5.3674 9.25056 5.30662 8.90424C5.26947 8.69255 5.25 8.47426 5.25 8.2508ZM9.25003 17.2527C9.25003 17.667 9.58582 18.0027 10 18.0027C10.4142 18.0027 10.75 17.667 10.75 17.2527V10.5617L12.72 12.5317C13.0129 12.8246 13.4878 12.8246 13.7807 12.5317C14.0736 12.2388 14.0736 11.7639 13.7807 11.471L10.5304 8.22066C10.3897 8.08001 10.1989 8.00099 10 8.00099C9.80112 8.00099 9.61035 8.08001 9.4697 8.22066L6.21936 11.471C5.92647 11.7639 5.92647 12.2388 6.21936 12.5317C6.51225 12.8246 6.98712 12.8246 7.28002 12.5317L9.25003 10.5617V17.2527Z" fill="#99A2AD"/>
</svg>
