<svg width="20" height="20" viewBox="0 0 20 20" fill="none" xmlns="http://www.w3.org/2000/svg">
<path fill-rule="evenodd" clip-rule="evenodd" d="M13.003 2.85937C14.1456 1.7168 15.9981 1.7168 17.1406 2.85936C18.2832 4.00192 18.2832 5.85437 17.1406 6.99694L13.5991 10.5385L14.7803 11.7197C15.0732 12.0126 15.0732 12.4875 14.7803 12.7804C14.4874 13.0733 14.0126 13.0733 13.7197 12.7804L12.5384 11.5991L8.38799 15.7496C7.21027 16.9273 5.65049 17.7492 3.99473 17.981C2.84342 18.1421 1.8579 17.1566 2.01905 16.0053C2.2506 14.351 3.07095 12.7915 4.24776 11.6147L8.40087 7.46157L7.21966 6.28036C6.92677 5.98747 6.92677 5.51259 7.21966 5.2197C7.51255 4.92681 7.98743 4.92681 8.28032 5.2197L9.46152 6.4009L13.003 2.85937ZM9.46153 8.52223L5.31107 12.6727C4.3894 13.5944 3.7568 14.7684 3.53096 16.0557C3.47342 16.3837 3.64457 16.5216 3.94431 16.4691C5.23165 16.2432 6.40566 15.6106 7.32733 14.689L11.4778 10.5385L9.46153 8.52223Z" fill="#99A2AD"/>
</svg>
