<svg width="20" height="20" viewBox="0 0 20 20" fill="none" xmlns="http://www.w3.org/2000/svg">
<path fill-rule="evenodd" clip-rule="evenodd" d="M8.41825 4C8.6991 3.40891 9.30207 3 10 3C10.6979 3 11.3009 3.40891 11.5818 4H8.41825ZM6.83711 4C7.17594 2.56638 8.46305 1.5 10 1.5C11.537 1.5 12.8241 2.56638 13.1629 4H17.25C17.6642 4 18 4.33579 18 4.75C18 5.16421 17.6642 5.5 17.25 5.5H16.7046L16.5504 7.07318C16.5099 7.48542 16.143 7.78684 15.7308 7.74642C15.3185 7.70601 15.0171 7.33906 15.0575 6.92682L15.1974 5.5H4.80264L5.69877 14.6406C5.75043 15.1675 5.78569 15.5223 5.83305 15.7961C5.87897 16.0615 5.92797 16.1954 5.98029 16.2881C6.12857 16.5508 6.35777 16.7586 6.63373 16.8806C6.8109 16.9589 7.06538 16.9942 7.80574 16.999C8.21995 17.0017 8.55354 17.3397 8.55085 17.7539C8.54815 18.1681 8.21019 18.5017 7.79599 18.499C7.10545 18.4945 6.53494 18.4768 6.02751 18.2526C5.45586 18 4.9811 17.5696 4.67395 17.0253C4.50323 16.7228 4.41543 16.4011 4.35501 16.0518C4.2971 15.717 4.2569 15.3069 4.20859 14.8141L3.29544 5.5H2.75C2.33579 5.5 2 5.16421 2 4.75C2 4.33579 2.33579 4 2.75 4H6.83711ZM14 19C11.24 19 9 16.76 9 14C9 11.24 11.24 9 14 9C16.76 9 19 11.24 19 14C19 16.76 16.76 19 14 19ZM14 11C14.4142 11 14.75 11.3358 14.75 11.75V13.5986L15.6627 14.2071C16.0074 14.4369 16.1005 14.9025 15.8707 15.2472C15.641 15.5918 15.1753 15.6849 14.8307 15.4552L13.584 14.624C13.3753 14.4849 13.25 14.2508 13.25 14V11.75C13.25 11.3358 13.5858 11 14 11Z" fill="#99A2AD"/>
</svg>
