<svg width="20" height="20" viewBox="0 0 20 20" fill="none" xmlns="http://www.w3.org/2000/svg">
<path fill-rule="evenodd" clip-rule="evenodd" d="M8.41823 4C8.69908 3.40891 9.30205 3 9.99998 3C10.6979 3 11.3009 3.40891 11.5817 4H8.41823ZM6.83709 4C7.17591 2.56638 8.46303 1.5 9.99998 1.5C11.5369 1.5 12.824 2.56638 13.1629 4H17.25C17.6642 4 18 4.33579 18 4.75C18 5.16421 17.6642 5.5 17.25 5.5H16.7046L16.5503 7.07317C16.5099 7.48541 16.143 7.78683 15.7307 7.74641C15.3185 7.706 15.0171 7.33905 15.0575 6.92682L15.1974 5.5H4.80261L5.69875 14.6406C5.7504 15.1675 5.78566 15.5223 5.83303 15.7961C5.87894 16.0615 5.92794 16.1954 5.98026 16.2881C6.12854 16.5508 6.35774 16.7586 6.63371 16.8806C6.81087 16.9589 7.06535 16.9942 7.80572 16.999C8.21992 17.0017 8.55352 17.3397 8.55082 17.7539C8.54813 18.1681 8.21017 18.5017 7.79596 18.499C7.10542 18.4945 6.53491 18.4768 6.02748 18.2526C5.45583 18 4.98107 17.5695 4.67392 17.0253C4.5032 16.7227 4.4154 16.4011 4.35498 16.0518C4.29707 15.717 4.25687 15.3069 4.20857 14.8141L3.29542 5.5H2.75C2.33579 5.5 2 5.16421 2 4.75C2 4.33579 2.33579 4 2.75 4H6.83709ZM14 17.5C15.933 17.5 17.5 15.933 17.5 14C17.5 12.067 15.933 10.5 14 10.5C12.067 10.5 10.5 12.067 10.5 14C10.5 15.933 12.067 17.5 14 17.5ZM14 19C16.7614 19 19 16.7614 19 14C19 11.2386 16.7614 9 14 9C11.2386 9 9 11.2386 9 14C9 16.7614 11.2386 19 14 19ZM14.5417 12.5C14.5417 12.0858 14.2059 11.75 13.7917 11.75C13.3775 11.75 13.0417 12.0858 13.0417 12.5V14.625C13.0417 14.9536 13.2556 15.2439 13.5694 15.3413L14.7777 15.7163C15.1733 15.8391 15.5936 15.6179 15.7163 15.2223C15.8391 14.8267 15.6179 14.4065 15.2223 14.2837L14.5417 14.0725V12.5Z" fill="#99A2AD"/>
</svg>
