<svg width="20" height="20" viewBox="0 0 20 20" fill="none" xmlns="http://www.w3.org/2000/svg">
<path fill-rule="evenodd" clip-rule="evenodd" d="M7.983 2.25002H6C5.18008 2.25002 4.34513 2.61801 3.81386 3.28211L0.931698 6.8848C0.667838 7.21463 0.540545 7.6153 0.548575 8.01334C0.548621 8.01562 0.548672 8.01791 0.548727 8.0202C0.558166 8.41213 0.698827 8.8011 0.96952 9.1169L8.6713 18.1023C9.36971 18.9171 10.6303 18.9171 11.3287 18.1023L19.0305 9.1169C19.3011 8.80116 19.4418 8.41228 19.4513 8.02042C19.4513 8.01766 19.4514 8.01489 19.4514 8.01213C19.4592 7.61449 19.3319 7.2143 19.0683 6.8848L16.1861 3.28211C15.6549 2.61802 14.8199 2.25002 14 2.25002H11.9825C11.971 2.24975 11.994 2.24975 11.9825 2.25002H7.983C7.99447 2.24975 7.97149 2.24975 7.983 2.25002ZM11.4922 3.75002H8.50778L7.10778 7.25002H12.8922L11.4922 3.75002ZM13.1077 3.75002L14.5077 7.25002H17.4395L15.0148 4.21915C14.787 3.93438 14.3952 3.75002 14 3.75002H13.1077ZM17.3693 8.75002H14.4874L11.3838 15.7332L17.3693 8.75002ZM10 15.1533L12.8459 8.75002H7.15408L10 15.1533ZM5.5126 8.75002L8.61622 15.7332L2.63066 8.75002H5.5126ZM5.49223 7.25002L6.89223 3.75002H6C5.60479 3.75002 5.21298 3.93438 4.98516 4.21915L2.56046 7.25002H5.49223Z" fill="#99A2AD"/>
</svg>
