<svg width="20" height="20" viewBox="0 0 20 20" fill="none" xmlns="http://www.w3.org/2000/svg">
<path d="M10.5 11.2463C10.5 10.8321 10.8358 10.4963 11.25 10.4963H12.75C13.1642 10.4963 13.5 10.8321 13.5 11.2463C13.5 11.6605 13.1642 11.9963 12.75 11.9963H11.25C10.8358 11.9963 10.5 11.6605 10.5 11.2463Z" fill="#99A2AD"/>
<path d="M11.25 13.5008C10.8358 13.5008 10.5 13.8366 10.5 14.2508C10.5 14.665 10.8358 15.0008 11.25 15.0008H12.75C13.1642 15.0008 13.5 14.665 13.5 14.2508C13.5 13.8366 13.1642 13.5008 12.75 13.5008H11.25Z" fill="#99A2AD"/>
<path d="M6 11.2463C6 10.8321 6.33579 10.4963 6.75 10.4963H8.25C8.66421 10.4963 9 10.8321 9 11.2463C9 11.6605 8.66421 11.9963 8.25 11.9963H6.75C6.33579 11.9963 6 11.6605 6 11.2463Z" fill="#99A2AD"/>
<path d="M6.75 13.5008C6.33579 13.5008 6 13.8366 6 14.2508C6 14.665 6.33579 15.0008 6.75 15.0008H8.25C8.66421 15.0008 9 14.665 9 14.2508C9 13.8366 8.66421 13.5008 8.25 13.5008H6.75Z" fill="#99A2AD"/>
<path fill-rule="evenodd" clip-rule="evenodd" d="M10.1745 1.5H9C8.19395 1.50057 7.53458 1.50569 6.99013 1.55018C6.36012 1.60165 5.81824 1.70963 5.32054 1.96322C4.52085 2.37068 3.87068 3.02085 3.46322 3.82054C3.20963 4.31824 3.10165 4.86012 3.05018 5.49013C2.99999 6.1044 2.99999 6.86494 3 7.81739V12.1826C2.99999 13.1351 2.99999 13.8956 3.05018 14.5099C3.10165 15.1399 3.20963 15.6818 3.46322 16.1795C3.87068 16.9791 4.52085 17.6293 5.32054 18.0368C5.81824 18.2904 6.36012 18.3983 6.99013 18.4498C7.60438 18.5 8.3649 18.5 9.3173 18.5H10.6826C11.635 18.5 12.3956 18.5 13.0099 18.4498C13.6399 18.3983 14.1818 18.2904 14.6795 18.0368C15.4791 17.6293 16.1293 16.9791 16.5368 16.1795C16.7904 15.6818 16.8984 15.1399 16.9498 14.5099C17 13.8956 17 13.1351 17 12.1826V8.32548C17 7.8363 17 7.59171 16.9447 7.36154C16.8957 7.15746 16.8149 6.96237 16.7053 6.78343C16.5816 6.5816 16.4086 6.40865 16.0627 6.06275L12.4373 2.43726C12.0914 2.09137 11.9184 1.9184 11.7166 1.79472C11.5376 1.68506 11.3425 1.60425 11.1385 1.55526C10.9083 1.5 10.6637 1.5 10.1745 1.5ZM15.5 12.15C15.5 13.1425 15.4994 13.8417 15.4548 14.3877C15.4109 14.925 15.3282 15.2475 15.2003 15.4985C14.9366 16.0159 14.5159 16.4366 13.9985 16.7003C13.7475 16.8282 13.425 16.9109 12.8877 16.9548C12.3417 16.9994 11.6425 17 10.65 17H9.35C8.35753 17 7.65829 16.9994 7.11228 16.9548C6.57503 16.9109 6.25252 16.8282 6.00153 16.7003C5.48408 16.4366 5.06338 16.0159 4.79973 15.4985C4.67184 15.2475 4.58909 14.925 4.54519 14.3877C4.50058 13.8417 4.5 13.1425 4.5 12.15V7.85C4.5 6.85753 4.50058 6.15829 4.54519 5.61228C4.58909 5.07503 4.67184 4.75252 4.79973 4.50153C5.06338 3.98408 5.48408 3.56338 6.00153 3.29973C6.25252 3.17184 6.57503 3.08909 7.11228 3.04519C7.65829 3.00058 8.35753 3 9.35 3H10V5.3499C9.99999 5.75855 9.99997 6.11113 10.0245 6.40118C10.0503 6.7075 10.1074 7.01178 10.2615 7.30284C10.4726 7.70145 10.7986 8.02742 11.1972 8.23847C11.4882 8.39258 11.7925 8.4497 12.0988 8.47555C12.3889 8.50003 12.7414 8.50002 13.1501 8.5L15.5 8.5V12.15ZM14.8787 7L11.5 3.62132V5.32C11.5 5.767 11.5006 6.05564 11.5191 6.27505C11.5369 6.48525 11.5669 6.56272 11.5872 6.60095C11.6575 6.73382 11.7662 6.84247 11.8991 6.91282C11.9373 6.93307 12.0147 6.96312 12.225 6.98086C12.4444 6.99938 12.733 7 13.18 7H14.8787Z" fill="#99A2AD"/>
</svg>
