<svg width="20" height="20" viewBox="0 0 20 20" fill="none" xmlns="http://www.w3.org/2000/svg">
<path fill-rule="evenodd" clip-rule="evenodd" d="M10.1745 1.5H9C8.19395 1.50057 7.53458 1.50569 6.99013 1.55018C6.36012 1.60165 5.81824 1.70963 5.32054 1.96322C4.52085 2.37068 3.87068 3.02085 3.46322 3.82054C3.20963 4.31824 3.10165 4.86012 3.05018 5.49013C2.99999 6.1044 2.99999 6.86494 3 7.81739V12.1826C2.99999 13.1351 2.99999 13.8956 3.05018 14.5099C3.10165 15.1399 3.20963 15.6818 3.46322 16.1795C3.87068 16.9791 4.52085 17.6293 5.32054 18.0368C5.81824 18.2904 6.36012 18.3983 6.99013 18.4498C7.60438 18.5 8.3649 18.5 9.3173 18.5C9.69435 18.5 10 18.1943 10 17.8173V17.65C10 17.291 9.70899 17 9.35 17C8.35753 17 7.65829 16.9994 7.11228 16.9548C6.57503 16.9109 6.25252 16.8282 6.00153 16.7003C5.48408 16.4366 5.06338 16.0159 4.79973 15.4985C4.67184 15.2475 4.58909 14.925 4.54519 14.3877C4.50058 13.8417 4.5 13.1425 4.5 12.15V7.85C4.5 6.85753 4.50058 6.15829 4.54519 5.61228C4.58909 5.07503 4.67184 4.75252 4.79973 4.50153C5.06338 3.98408 5.48408 3.56338 6.00153 3.29973C6.25252 3.17184 6.57503 3.08909 7.11228 3.04519C7.65829 3.00058 8.35753 3 9.35 3H10V5.34995C9.99999 5.7586 9.99997 6.11113 10.0245 6.40118C10.0503 6.7075 10.1074 7.01178 10.2615 7.30284C10.4726 7.70145 10.7986 8.02742 11.1972 8.23847C11.4882 8.39258 11.7925 8.4497 12.0988 8.47555C12.3889 8.50003 12.7414 8.50002 13.1501 8.5L15.5 8.5V10.25C15.5 10.6642 15.8358 11 16.25 11C16.6642 11 17 10.6642 17 10.25V8.32548C17 7.8363 17 7.59171 16.9447 7.36154C16.8957 7.15746 16.8149 6.96237 16.7053 6.78343C16.5816 6.5816 16.4086 6.40864 16.0627 6.06274L12.4373 2.43725L12.4372 2.43725C12.0914 2.09136 11.9184 1.9184 11.7166 1.79472C11.5376 1.68506 11.3425 1.60425 11.1385 1.55526C10.9083 1.5 10.6637 1.5 10.1745 1.5ZM13.1893 5.31066L11.5 3.62132V5.32C11.5 5.767 11.5006 6.05564 11.5191 6.27505C11.5369 6.48525 11.5669 6.56272 11.5872 6.60095C11.6575 6.73382 11.7662 6.84247 11.8991 6.91282C11.9373 6.93307 12.0147 6.96312 12.225 6.98086C12.4444 6.99938 12.733 7 13.18 7H14.8787L13.1893 5.31066ZM14.5081 11.9964C14.9224 11.9964 15.2581 12.3322 15.2581 12.7464V14.7581H17.2474C17.6616 14.7581 17.9974 15.0939 17.9974 15.5081C17.9974 15.9224 17.6616 16.2581 17.2474 16.2581H15.2581V18.2467C15.2581 18.6609 14.9224 18.9967 14.5081 18.9967C14.0939 18.9967 13.7581 18.6609 13.7581 18.2467V16.2581H11.7481C11.3338 16.2581 10.9981 15.9224 10.9981 15.5081C10.9981 15.0939 11.3338 14.7581 11.7481 14.7581H13.7581V12.7464C13.7581 12.3322 14.0939 11.9964 14.5081 11.9964Z" fill="#99A2AD"/>
</svg>
