<svg width="20" height="20" viewBox="0 0 20 20" fill="none" xmlns="http://www.w3.org/2000/svg">
<path fill-rule="evenodd" clip-rule="evenodd" d="M10 1.55005C10.4143 1.55005 10.75 1.88584 10.75 2.30005V3.01654C11.9235 3.07101 12.8243 3.26125 13.5424 3.60466C14.4348 4.03145 14.9698 4.6585 15.3932 5.36413C15.6063 5.71931 15.4911 6.18001 15.1359 6.39312C14.7807 6.60623 14.32 6.49106 14.1069 6.13587C13.7803 5.5915 13.4403 5.21856 12.8952 4.95786C12.4282 4.73452 11.7638 4.57133 10.75 4.51841V9.338C12.7461 9.63332 13.9624 10.2524 14.6732 11.0582C15.4735 11.9653 15.5 12.9634 15.5 13.5C15.5 14.5963 14.8115 15.4934 13.8407 16.0796C13.0295 16.5693 11.9702 16.8821 10.75 16.9727V17.7C10.75 18.1143 10.4143 18.45 10 18.45C9.58583 18.45 9.25005 18.1143 9.25005 17.7V16.9771C6.68021 16.8156 5.19598 15.8189 4.57922 14.5854C4.39398 14.2149 4.54415 13.7644 4.91463 13.5792C5.28512 13.3939 5.73562 13.5441 5.92086 13.9146C6.21453 14.5019 7.08851 15.3198 9.25005 15.4743V10.6649C7.28844 10.3922 6.07737 9.88107 5.36023 9.16731C4.52093 8.33198 4.50004 7.3599 4.50004 6.75C4.50004 5.6217 5.10115 4.65467 6.08421 3.99974C6.89832 3.45736 7.97716 3.12096 9.25005 3.02703V2.30005C9.25005 1.88584 9.58583 1.55005 10 1.55005ZM9.25005 4.5318C8.22709 4.62155 7.44804 4.89353 6.91588 5.24807C6.27393 5.67575 6.00004 6.20874 6.00004 6.75C6.00004 7.31357 6.03982 7.72738 6.41837 8.10414C6.78499 8.46903 7.5659 8.89104 9.25005 9.14902V4.5318ZM10.75 10.8563V15.4678C11.7322 15.3813 12.5159 15.1273 13.0654 14.7955C13.751 14.3816 14 13.9037 14 13.5C14 13.0366 13.9659 12.5238 13.5484 12.0505C13.1754 11.6278 12.3995 11.1311 10.75 10.8563Z" fill="#99A2AD"/>
</svg>
