<svg width="20" height="20" viewBox="0 0 20 20" fill="none" xmlns="http://www.w3.org/2000/svg">
<path fill-rule="evenodd" clip-rule="evenodd" d="M10 1.5C7.653 1.5 5.52697 2.45222 3.98959 3.98959C2.45222 5.52697 1.5 7.653 1.5 10C1.5 12.347 2.45222 14.473 3.98959 16.0104C5.52697 17.5478 7.653 18.5 10 18.5C12.347 18.5 14.473 17.5478 16.0104 16.0104C17.5478 14.473 18.5 12.347 18.5 10C18.5 7.653 17.5478 5.52697 16.0104 3.98959C14.473 2.45222 12.347 1.5 10 1.5ZM5.05025 5.05025C6.31782 3.78268 8.0668 3 10 3C11.9332 3 13.6822 3.78268 14.9497 5.05025C16.2173 6.31782 17 8.0668 17 10C17 11.9332 16.2173 13.6822 14.9497 14.9497C13.6822 16.2173 11.9332 17 10 17C8.0668 17 6.31782 16.2173 5.05025 14.9497C3.78268 13.6822 3 11.9332 3 10C3 8.0668 3.78268 6.31782 5.05025 5.05025ZM11.0096 5.60122C10.5738 4.80204 9.42624 4.80203 8.99039 5.60122L8.05438 7.31749L6.13287 7.67733C5.23812 7.84488 4.88351 8.93626 5.50889 9.59773L6.85193 11.0183L6.60037 12.9569C6.48323 13.8597 7.41161 14.5342 8.23396 14.1438L10 13.3055L11.766 14.1438C12.5884 14.5342 13.5168 13.8597 13.3996 12.9569L13.1481 11.0183L14.4911 9.59773C15.1165 8.93625 14.7619 7.84488 13.8671 7.67733L11.9456 7.31749L11.0096 5.60122ZM9.03036 8.6608L10 6.88283L10.9697 8.6608L12.9602 9.03357L11.5689 10.5052L11.8295 12.5135L10 11.6451L8.17048 12.5135L8.43108 10.5052L7.03977 9.03357L9.03036 8.6608Z" fill="#99A2AD"/>
</svg>
