<svg width="20" height="20" viewBox="0 0 20 20" fill="none" xmlns="http://www.w3.org/2000/svg">
<path fill-rule="evenodd" clip-rule="evenodd" d="M8.31739 1.99997L9.25 1.99997C9.66421 1.99997 10 2.33576 10 2.74997C10 3.16418 9.66421 3.49997 9.25 3.49997L8.35 3.49997C7.35753 3.49997 6.65829 3.50055 6.11228 3.54516C5.57503 3.58906 5.25252 3.67181 5.00152 3.7997C4.48408 4.06335 4.06338 4.48405 3.79973 5.0015C3.67184 5.25249 3.58909 5.575 3.54519 6.11225C3.50058 6.65826 3.5 7.3575 3.5 8.34997V11.65C3.5 12.6424 3.50058 13.3417 3.54519 13.8877C3.58909 14.4249 3.67184 14.7474 3.79973 14.9984C4.06338 15.5159 4.48408 15.9366 5.00152 16.2002C5.25252 16.3281 5.57503 16.4109 6.11228 16.4548C6.65829 16.4994 7.35753 16.5 8.35 16.5H9.24536C9.65957 16.5 9.99536 16.8358 9.99536 17.25C9.99536 17.6642 9.65958 18 9.24536 18H8.31737C7.36493 18 6.60439 18 5.99013 17.9498C5.36012 17.8983 4.81824 17.7903 4.32054 17.5367C3.52085 17.1293 2.87068 16.4791 2.46322 15.6794C2.20963 15.1817 2.10165 14.6398 2.05017 14.0098C1.99999 13.3956 1.99999 12.635 2 11.6826V8.31736C1.99999 7.36491 1.99999 6.60437 2.05017 5.9901C2.10165 5.36009 2.20963 4.81821 2.46322 4.32051C2.87068 3.52082 3.52085 2.87065 4.32054 2.46319C4.81823 2.2096 5.36012 2.10162 5.99013 2.05014C6.60439 1.99996 7.36494 1.99996 8.31739 1.99997ZM14.2197 6.96964C14.5126 6.67675 14.9874 6.67675 15.2803 6.96964L17.7803 9.46962C17.921 9.61027 18 9.80104 18 9.99995C18 10.1989 17.921 10.3896 17.7803 10.5303L15.2803 13.0303C14.9874 13.3232 14.5126 13.3232 14.2197 13.0303C13.9268 12.7374 13.9268 12.2625 14.2197 11.9696L15.4393 10.75L8.75 10.75C8.33579 10.75 8 10.4142 8 9.99997C8 9.58576 8.33578 9.24997 8.75 9.24997L15.4393 9.24996L14.2197 8.0303C13.9268 7.73741 13.9268 7.26254 14.2197 6.96964Z" fill="#99A2AD"/>
</svg>
