<svg width="20" height="20" viewBox="0 0 20 20" fill="none" xmlns="http://www.w3.org/2000/svg">
<path fill-rule="evenodd" clip-rule="evenodd" d="M13.8877 3.54519C13.3417 3.50058 12.6425 3.5 11.65 3.5H10.75C10.3358 3.5 9.99999 3.16421 9.99999 2.75C9.99999 2.33579 10.3358 2 10.75 2H11.6826C12.635 1.99999 13.3956 1.99999 14.0099 2.05018C14.6399 2.10165 15.1818 2.20963 15.6795 2.46322C16.4791 2.87068 17.1293 3.52085 17.5368 4.32054C17.7904 4.81824 17.8983 5.36012 17.9498 5.99013C18 6.60439 18 7.36493 18 8.31737V11.6826C18 12.6351 18 13.3956 17.9498 14.0099C17.8983 14.6399 17.7904 15.1818 17.5368 15.6795C17.1293 16.4791 16.4791 17.1293 15.6795 17.5368C15.1818 17.7904 14.6399 17.8984 14.0099 17.9498C13.3956 18 12.6351 18 11.6826 18H10.7546C10.3404 18 10.0046 17.6642 10.0046 17.25C10.0046 16.8358 10.3404 16.5 10.7546 16.5H11.65C12.6425 16.5 13.3417 16.4994 13.8877 16.4548C14.425 16.4109 14.7475 16.3282 14.9985 16.2003C15.5159 15.9366 15.9366 15.5159 16.2003 14.9985C16.3281 14.7475 16.4109 14.425 16.4548 13.8877C16.4994 13.3417 16.5 12.6425 16.5 11.65V8.35C16.5 7.35753 16.4994 6.65829 16.4548 6.11228C16.4109 5.57503 16.3281 5.25252 16.2003 5.00153C15.9366 4.48408 15.5159 4.06338 14.9985 3.79973C14.7475 3.67184 14.425 3.58909 13.8877 3.54519ZM8.21967 6.96967C8.51256 6.67678 8.98743 6.67677 9.28033 6.96967L11.7803 9.46965C11.921 9.6103 12 9.80106 12 9.99998C12 10.1989 11.921 10.3897 11.7803 10.5303L9.28033 13.0303C8.98744 13.3232 8.51257 13.3232 8.21967 13.0303C7.92678 12.7374 7.92678 12.2626 8.21967 11.9697L9.43935 10.75L2.75 10.75C2.33579 10.75 2 10.4142 2 10C2 9.58579 2.33578 9.25 2.75 9.25L9.43933 9.24998L8.21967 8.03033C7.92678 7.73744 7.92678 7.26257 8.21967 6.96967Z" fill="#99A2AD"/>
</svg>
