<svg width="20" height="20" viewBox="0 0 20 20" fill="none" xmlns="http://www.w3.org/2000/svg">
<path fill-rule="evenodd" clip-rule="evenodd" d="M6.2047 6.07388C6.2047 4.35188 7.54624 3.00098 9.14649 3.00098C10.5181 3.00098 11.6966 3.98971 12.0085 5.35964C12.0881 5.70901 12.4037 5.95331 12.7618 5.94279C12.7872 5.94204 12.8127 5.94167 12.8383 5.94167C14.2817 5.94167 15.4961 7.16091 15.4961 8.7205C15.4961 10.1994 14.4014 11.3752 13.0584 11.49C12.6457 11.5252 12.3397 11.8884 12.375 12.3011C12.4102 12.7138 12.7734 13.0198 13.1861 12.9845C15.3415 12.8004 16.9961 10.9414 16.9961 8.7205C16.9961 6.5419 15.4013 4.70853 13.3065 4.46832C12.6787 2.747 11.0654 1.50098 9.14649 1.50098C6.6689 1.50098 4.7047 3.57322 4.7047 6.07388C4.7047 6.10501 4.705 6.13609 4.70561 6.16709C3.67656 6.82068 3.00079 7.98899 3.00079 9.30864C3.00079 11.3221 4.58357 12.9993 6.59063 12.9993H6.87462C7.28883 12.9993 7.62462 12.6635 7.62462 12.2493C7.62462 11.8351 7.28883 11.4993 6.87462 11.4993H6.59063C5.4609 11.4993 4.50079 10.5434 4.50079 9.30864C4.50079 8.38618 5.04206 7.6106 5.7889 7.28483C6.09543 7.15111 6.2764 6.8306 6.23255 6.49906C6.21422 6.36043 6.2047 6.21851 6.2047 6.07388ZM10.75 8.74997C10.75 8.33576 10.4142 7.99997 10 7.99997C9.58581 7.99997 9.25003 8.33576 9.25003 8.74997V15.9393L7.53265 14.2219C7.23976 13.929 6.76488 13.929 6.47199 14.2219C6.1791 14.5148 6.1791 14.9897 6.47199 15.2826L9.4697 18.2803C9.61035 18.421 9.80111 18.5 10 18.5C10.1989 18.5 10.3897 18.421 10.5304 18.2803L13.5315 15.2792C13.8244 14.9863 13.8244 14.5114 13.5315 14.2185C13.2386 13.9256 12.7637 13.9256 12.4708 14.2185L10.75 15.9393V8.74997Z" fill="#99A2AD"/>
</svg>
