<svg width="20" height="20" viewBox="0 0 20 20" fill="none" xmlns="http://www.w3.org/2000/svg">
<path fill-rule="evenodd" clip-rule="evenodd" d="M6.20464 6.07391C6.20464 4.35191 7.54618 3.00101 9.14643 3.00101C10.518 3.00101 11.6965 3.98974 12.0085 5.35967C12.088 5.70904 12.4036 5.95334 12.7618 5.94282C12.7872 5.94207 12.8126 5.9417 12.8382 5.9417C14.2816 5.9417 15.496 7.16094 15.496 8.72053C15.496 10.1995 14.4014 11.3753 13.0584 11.49C12.6457 11.5253 12.3397 11.8884 12.3749 12.3011C12.4102 12.7138 12.7733 13.0198 13.186 12.9846C15.3415 12.8004 16.996 10.9414 16.996 8.72053C16.996 6.54193 15.4013 4.70856 13.3064 4.46835C12.6786 2.74703 11.0653 1.50101 9.14643 1.50101C6.66884 1.50101 4.70464 3.57325 4.70464 6.07391C4.70464 6.10504 4.70494 6.13612 4.70554 6.16712C3.67649 6.82072 3.00073 7.98902 3.00073 9.30867C3.00073 11.3221 4.5835 12.9994 6.59057 12.9994H6.87456C7.28877 12.9994 7.62456 12.6636 7.62456 12.2494C7.62456 11.8351 7.28877 11.4994 6.87456 11.4994H6.59057C5.46084 11.4994 4.50073 10.5434 4.50073 9.30867C4.50073 8.38621 5.042 7.61063 5.78883 7.28486C6.09537 7.15114 6.27634 6.83063 6.23249 6.49909C6.21416 6.36046 6.20464 6.21854 6.20464 6.07391ZM10.75 8.75C10.75 8.33579 10.4142 8 9.99997 8C9.58575 8 9.24997 8.33579 9.24997 8.75V15.9393L7.53259 14.222C7.2397 13.9291 6.76482 13.9291 6.47193 14.222C6.17904 14.5148 6.17903 14.9897 6.47193 15.2826L9.46964 18.2803C9.61029 18.421 9.80105 18.5 9.99997 18.5C10.1989 18.5 10.3896 18.421 10.5303 18.2803L13.5314 15.2792C13.8243 14.9863 13.8243 14.5115 13.5314 14.2186C13.2385 13.9257 12.7636 13.9257 12.4707 14.2186L10.75 15.9393V8.75Z" fill="#99A2AD"/>
</svg>
