<svg width="20" height="20" viewBox="0 0 20 20" fill="none" xmlns="http://www.w3.org/2000/svg">
<path d="M10.601 2.15421L18.351 6.40397C18.7652 6.63109 18.9998 7.05853 19.0003 7.49973L19 7.50001V12.75C19 13.1642 18.6642 13.5 18.25 13.5C17.8357 13.5 17.5 13.1642 17.5 12.75L17.4996 9.06224L15.9996 9.88424L16 13C16 15.8005 13.2829 18 9.99995 18C6.71701 18 3.99995 15.8005 3.99995 13L3.99963 9.88424L1.64886 8.59604C1.04354 8.26411 0.821907 7.50432 1.15384 6.899C1.26832 6.69021 1.44007 6.51846 1.64886 6.40397L9.39894 2.15421C9.77332 1.94892 10.2266 1.94892 10.601 2.15421ZM14.4996 10.7072L10.601 12.8458C10.2266 13.0511 9.77332 13.0511 9.39894 12.8458L5.49963 10.7072L5.49995 13C5.49995 14.894 7.4839 16.5 9.99995 16.5C12.516 16.5 14.5 14.894 14.5 13L14.4996 10.7072ZM9.99995 3.53536L2.76983 7.50001L9.99995 11.4646L17.2301 7.50001L9.99995 3.53536Z" fill="#99A2AD"/>
</svg>
