<svg width="20" height="20" viewBox="0 0 20 20" fill="none" xmlns="http://www.w3.org/2000/svg">
<path d="M4.89996 7.75C5.81538 5.26904 8.2011 3.5 11 3.5C12.9615 3.5 14.7195 4.36795 15.9124 5.7433C16.1838 6.05621 16.6575 6.08986 16.9704 5.81845C17.2833 5.54705 17.317 5.07337 17.0456 4.76046C15.5799 3.07061 13.4145 2 11 2C7.36293 2 4.29275 4.4271 3.32075 7.75H2.25C1.83579 7.75 1.5 8.08579 1.5 8.5C1.5 8.91421 1.83579 9.25 2.25 9.25H3.03469C3.01174 9.49692 3 9.74709 3 10C3 10.2529 3.01174 10.5031 3.03469 10.75H2.25C1.83579 10.75 1.5 11.0858 1.5 11.5C1.5 11.9142 1.83579 12.25 2.25 12.25H3.32075C4.29275 15.5729 7.36293 18 11 18C13.4145 18 15.5799 16.9294 17.0456 15.2395C17.317 14.9266 17.2833 14.453 16.9704 14.1815C16.6575 13.9101 16.1838 13.9438 15.9124 14.2567C14.7195 15.6321 12.9615 16.5 11 16.5C8.2011 16.5 5.81538 14.731 4.89996 12.25L11.25 12.25C11.6642 12.25 12 11.9142 12 11.5C12 11.0858 11.6642 10.75 11.25 10.75L4.5428 10.75C4.51453 10.5039 4.5 10.2537 4.5 10C4.5 9.74634 4.51453 9.49608 4.5428 9.25L11.25 9.25C11.6642 9.25 12 8.91421 12 8.5C12 8.08579 11.6642 7.75 11.25 7.75L4.89996 7.75Z" fill="#99A2AD"/>
</svg>
