<svg width="20" height="20" viewBox="0 0 20 20" fill="none" xmlns="http://www.w3.org/2000/svg">
<path fill-rule="evenodd" clip-rule="evenodd" d="M6.65431 16.3871C5.23008 15.7532 3.5 14.5594 3.5 12.5C3.5 10.5 4.49946 9.5 6.49837 8C7.7513 7.05979 8.83791 5.8077 9.28252 4.15643C9.42058 3.64365 9.49673 3.09238 9.49673 2.5C9.49673 2.5 10.2074 2.85554 10.9171 3.64155C11.6392 4.44128 12.3603 5.68663 12.3309 7.45654C12.3206 8.07296 12.2193 8.753 11.9954 9.5C11.9954 9.5 12.8971 9.04891 13.792 8.14673C13.8747 8.06336 13.9574 7.97613 14.0393 7.88505C14.3906 7.49428 14.7276 7.0326 14.9937 6.5C14.9937 6.5 15.3906 7.1337 15.777 8.10637C16.7197 10.4799 17.5994 14.872 12.4951 17C12.4951 17 10.3929 16.6995 9.44778 14.7009C9.17375 14.1214 8.997 13.3991 8.997 12.5C8.997 12.5 7.88838 13.3319 7.94158 14.9958C7.94464 15.0914 7.95154 15.1897 7.9627 15.2908C8.01811 15.7928 8.17872 16.3625 8.49728 17C8.49728 17 7.65063 16.8306 6.65431 16.3871ZM8.49728 17L8.20295 18.4708C8.76468 18.5833 9.34139 18.3659 9.68919 17.9107C9.78638 17.7835 9.86095 17.6439 9.91237 17.4976C10.4872 17.9014 11.0519 18.1416 11.4739 18.2823C11.6917 18.3549 11.8776 18.4031 12.0161 18.4342C12.0855 18.4498 12.1436 18.4613 12.1886 18.4694C12.2111 18.4735 12.2303 18.4767 12.2461 18.4793L12.2671 18.4826L12.2757 18.4839L12.2794 18.4844L12.2812 18.4847C12.282 18.4848 12.2829 18.4849 12.4951 17L12.2829 18.4849C12.5502 18.5231 12.823 18.4884 13.0723 18.3845C15.1453 17.5203 16.5005 16.2655 17.2587 14.7732C18.0047 13.3048 18.0932 11.7635 17.9319 10.4431C17.7709 9.12508 17.3524 7.94744 16.9896 7.1178C16.8061 6.69806 16.6314 6.35507 16.5001 6.11306C16.4344 5.99179 16.3791 5.89513 16.3386 5.82608C16.3183 5.79153 16.3017 5.76383 16.2893 5.74334L16.2738 5.71804L16.2685 5.70952L16.2665 5.7063L16.2657 5.70496C16.2653 5.70436 16.265 5.70379 14.9937 6.5L16.265 5.70379C15.9771 5.24412 15.4634 4.97568 14.9217 5.00173C14.391 5.02726 13.9144 5.3314 13.6672 5.79978C13.4454 4.78554 13.0207 3.93447 12.5245 3.24708C12.0111 2.53589 11.4426 2.02671 11.0025 1.69406C10.7811 1.52665 10.5876 1.40048 10.4428 1.31278C10.3703 1.26883 10.3095 1.23425 10.263 1.20871C10.2397 1.19593 10.2199 1.18538 10.204 1.17704L10.1829 1.16615L10.1746 1.16192L10.1711 1.16012L10.1694 1.15929C10.1686 1.15889 10.1678 1.15851 9.49673 2.5L10.1678 1.15851C9.70286 0.925888 9.15058 0.950647 8.70828 1.22394C8.26597 1.49723 7.99673 1.98008 7.99673 2.5C7.99673 4.37059 7.00927 5.74125 5.59805 6.80024C4.60043 7.54886 3.68255 8.29143 3.03626 9.18056C2.33754 10.1418 2 11.2054 2 12.5C2 15.0837 3.86624 16.6012 5.27546 17.3767C6.01154 17.7817 6.73368 18.0512 7.26339 18.219C7.53094 18.3038 7.7562 18.3648 7.91856 18.4054C7.9999 18.4257 8.0659 18.4411 8.11404 18.4518C8.13812 18.4572 8.15778 18.4614 8.17269 18.4646L8.19148 18.4685L8.19814 18.4699L8.20078 18.4704L8.20192 18.4706C8.20245 18.4707 8.20295 18.4708 8.49728 17Z" fill="#99A2AD"/>
</svg>
