<svg width="20" height="20" viewBox="0 0 20 20" fill="none" xmlns="http://www.w3.org/2000/svg">
<path d="M7.13031 1.32269C7.36365 0.98058 7.83024 0.892336 8.17248 1.12559C8.92199 1.63644 9.40783 2.1379 9.65695 2.68646C9.91874 3.26292 9.86895 3.78057 9.78482 4.18591C9.76191 4.29632 9.72764 4.43415 9.69908 4.54899C9.68419 4.60886 9.6708 4.66271 9.66144 4.70293C9.6264 4.85352 9.60569 4.97312 9.60098 5.08414C9.59303 5.27125 9.62579 5.49189 9.85528 5.80545C10.0999 6.13963 10.0271 6.60873 9.69282 6.85322C9.35852 7.09771 8.88925 7.025 8.64468 6.69082C8.21571 6.1047 8.07985 5.54988 8.10233 5.02054C8.11283 4.77334 8.1571 4.54948 8.20044 4.36321C8.22265 4.26777 8.24099 4.19517 8.25742 4.13013C8.27877 4.04561 8.29689 3.97385 8.3161 3.88131C8.3697 3.62306 8.36588 3.47094 8.2911 3.30628C8.20365 3.11372 7.9704 2.80269 7.32748 2.36449C6.98524 2.13124 6.89697 1.66481 7.13031 1.32269Z" fill="#99A2AD"/>
<path d="M16.9737 6.05296C16.763 6.39097 16.4833 6.75493 16.075 7.04314C15.3546 7.55158 14.58 7.76406 13.9691 7.93163C13.9005 7.95044 13.834 7.96868 13.7699 7.98671C13.0973 8.17582 12.6554 8.34443 12.3133 8.73189C12.0391 9.04232 11.5652 9.07183 11.2547 8.79782C10.9441 8.5238 10.9146 8.05001 11.1887 7.73959C11.8457 6.99552 12.6768 6.7364 13.3638 6.54325C13.4294 6.52478 13.4939 6.50686 13.5573 6.48925C14.1923 6.31273 14.715 6.16746 15.2098 5.81821C15.3937 5.68847 15.5473 5.50597 15.7006 5.25992C15.8062 5.09065 15.8855 4.93893 15.9752 4.76734C16.0324 4.65803 16.0937 4.54063 16.1688 4.40552C16.3356 4.10514 16.559 3.74425 16.895 3.46555C17.2575 3.16488 17.7096 2.99228 18.2636 2.99874C18.6778 3.00357 19.0096 3.34313 19.0048 3.75717C19 4.17121 18.6603 4.50293 18.2461 4.4981C18.0424 4.49573 17.9372 4.5495 17.8528 4.61948C17.742 4.71144 17.629 4.86548 17.4802 5.13339C17.4413 5.2034 17.3955 5.29051 17.3449 5.38661C17.2357 5.59398 17.1044 5.84323 16.9737 6.05296Z" fill="#99A2AD"/>
<path fill-rule="evenodd" clip-rule="evenodd" d="M6.14453 7.99651C6.31313 7.99423 6.48272 8.01089 6.65013 8.04705C7.04983 8.13338 7.37657 8.35632 7.67128 8.60695C7.95827 8.85101 8.28717 9.1864 8.67839 9.58534L10.4734 11.4156C10.8603 11.8101 11.1859 12.1421 11.4222 12.4311C11.6651 12.7282 11.8798 13.0563 11.959 13.4543C11.9922 13.6208 12.0061 13.7892 12.0014 13.9562C12.001 13.9695 12.0005 13.9826 11.9999 13.9958C11.9943 14.1185 11.9787 14.2403 11.9533 14.3601C11.8966 14.6273 11.7911 14.8844 11.6396 15.1178C11.4186 15.4581 11.0976 15.6835 10.7619 15.8695C10.4353 16.0505 10.0099 16.2384 9.50431 16.4617L6.25008 17.8988C5.38909 18.2791 4.69681 18.5848 4.15287 18.7706C3.63159 18.9487 3.065 19.0865 2.54214 18.9206C1.839 18.6975 1.28993 18.1441 1.07265 17.4393C0.91107 16.9153 1.05369 16.3501 1.23618 15.8305C1.42661 15.2883 1.73825 14.5989 2.12583 13.7414L3.59708 10.4863C3.82717 9.97719 4.02062 9.54917 4.20613 9.22133C4.29347 9.06697 4.38914 8.91576 4.50046 8.7762C4.53259 8.73591 4.56597 8.6967 4.60089 8.65855C4.70884 8.54063 4.83092 8.43391 4.97235 8.3445C5.32621 8.1208 5.7324 8.00209 6.14453 7.99651ZM5.00841 11.0056L4.19921 12.7958C4.65109 14.1848 5.66034 15.3223 6.96305 15.9447L8.99492 15.0473C7.14739 14.3463 5.68423 12.8648 5.00841 11.0056ZM10.5021 13.9112C8.26675 13.5258 6.50973 11.7435 6.16311 9.49587C6.21987 9.49497 6.27697 9.50052 6.33334 9.51269C6.37317 9.52129 6.47218 9.55586 6.69932 9.74903C6.92825 9.94372 7.20961 10.2296 7.6316 10.6599L9.378 12.4406C9.79555 12.8664 10.0726 13.15 10.2608 13.3801C10.4472 13.6081 10.4799 13.7068 10.4879 13.7469C10.4987 13.8014 10.5034 13.8565 10.5021 13.9112ZM5.28279 16.6865C4.51331 16.1343 3.86372 15.4257 3.38059 14.6072C3.04142 15.359 2.79964 15.9054 2.65148 16.3272C2.56955 16.5605 2.52731 16.7258 2.51045 16.8443C2.49462 16.9556 2.5061 16.9977 2.5061 16.9977C2.57853 17.2326 2.76152 17.417 2.99587 17.4914C2.99587 17.4914 3.03709 17.5034 3.14939 17.4884C3.26807 17.4725 3.43377 17.4317 3.66782 17.3517C4.06986 17.2144 4.58508 16.9935 5.28279 16.6865Z" fill="#99A2AD"/>
<path d="M13.8813 11.984C14.6274 11.847 15.5853 11.8615 16.3162 12.1903C16.6691 12.349 16.9546 12.5737 17.1553 12.8796C17.3551 13.1843 17.5023 13.6174 17.5023 14.2453C17.5023 14.6594 17.8381 14.9951 18.2523 14.9951C18.6665 14.9951 19.0023 14.6594 19.0023 14.2453C19.0023 13.3738 18.7944 12.644 18.4097 12.0575C18.0258 11.4722 17.4972 11.0772 16.9318 10.8229C15.8261 10.3255 14.5308 10.3401 13.6102 10.5093C13.2028 10.5841 12.9332 10.9749 13.0081 11.3821C13.083 11.7894 13.4739 12.0589 13.8813 11.984Z" fill="#99A2AD"/>
<path d="M15.87 14.6814L15.3137 14.1253C15.1404 13.9521 14.8595 13.9521 14.6863 14.1253L14.1299 14.6814C13.9567 14.8546 13.9567 15.1354 14.1299 15.3086L14.6863 15.8648C14.8595 16.0379 15.1404 16.0379 15.3137 15.8648L15.87 15.3086C16.0433 15.1354 16.0433 14.8546 15.87 14.6814Z" fill="#99A2AD"/>
<path d="M5.31367 4.12883L5.87004 4.685C6.04329 4.85819 6.04329 5.13898 5.87004 5.31216L5.31367 5.86833C5.14042 6.04152 4.85953 6.04152 4.68628 5.86833L4.12991 5.31216C3.95666 5.13898 3.95666 4.85819 4.12991 4.685L4.68628 4.12883C4.85953 3.95564 5.14042 3.95564 5.31367 4.12883Z" fill="#99A2AD"/>
<path d="M13.87 3.68542L13.3137 3.12925C13.1404 2.95606 12.8595 2.95606 12.6863 3.12925L12.1299 3.68542C11.9567 3.8586 11.9567 4.13939 12.1299 4.31258L12.6863 4.86875C12.8595 5.04194 13.1404 5.04194 13.3137 4.86875L13.87 4.31258C14.0433 4.13939 14.0433 3.8586 13.87 3.68542Z" fill="#99A2AD"/>
<path d="M18.3137 8.12746L18.87 8.68363C19.0433 8.85682 19.0433 9.13761 18.87 9.3108L18.3137 9.86696C18.1404 10.0402 17.8595 10.0402 17.6863 9.86696L17.1299 9.3108C16.9567 9.13761 16.9567 8.85682 17.1299 8.68363L17.6863 8.12746C17.8595 7.95427 18.1404 7.95427 18.3137 8.12746Z" fill="#99A2AD"/>
</svg>
