<svg width="20" height="20" viewBox="0 0 20 20" fill="none" xmlns="http://www.w3.org/2000/svg">
<path d="M6.7265 3.5194C6.66224 3.50448 6.58553 3.49995 6.19541 3.49995C5.50917 3.49995 5.03795 3.50049 4.67219 3.5293C4.31471 3.55746 4.122 3.60914 3.98238 3.67729C3.63181 3.84841 3.34846 4.13175 3.17734 4.48232C3.10919 4.62195 3.05751 4.81466 3.02935 5.17214C3.00054 5.5379 3 6.00912 3 6.69536V7.49995H11.25C11.6642 7.49995 12 7.83574 12 8.24995C12 8.66416 11.6642 8.99995 11.25 8.99995H3V12.2499C3 12.9624 3.00058 13.4516 3.03157 13.8309C3.06184 14.2014 3.11735 14.4004 3.19074 14.5444C3.35852 14.8737 3.62623 15.1414 3.95552 15.3092C4.09956 15.3826 4.29858 15.4381 4.66908 15.4684C5.04833 15.4994 5.53756 15.4999 6.25 15.4999H8.75331C9.16753 15.4999 9.50331 15.8357 9.50331 16.2499C9.50331 16.6642 9.16753 16.9999 8.75331 16.9999H6.21856C5.54521 17 4.99449 17 4.54693 16.9634C4.08367 16.9255 3.66527 16.8448 3.27453 16.6457C2.66301 16.3341 2.16582 15.8369 1.85423 15.2254C1.65514 14.8347 1.5744 14.4163 1.53655 13.953C1.49999 13.5055 1.49999 12.9548 1.5 12.2814V6.66511C1.49999 6.01648 1.49999 5.48598 1.53399 5.05435C1.56916 4.60774 1.64416 4.20377 1.82935 3.82436C2.14714 3.1733 2.67335 2.64709 3.32441 2.3293C3.70382 2.14411 4.10779 2.06911 4.5544 2.03393C4.98604 1.99993 5.51653 1.99994 6.16517 1.99995L6.25598 1.99991C6.55172 1.99965 6.81239 1.99941 7.06593 2.05831C7.30983 2.11498 7.54257 2.21195 7.75454 2.34525C7.97489 2.48382 8.15826 2.66908 8.36631 2.87927L9.12387 3.64331C9.40899 3.93085 9.46844 3.98389 9.52673 4.01985C9.59407 4.06139 9.66757 4.09201 9.74448 4.11058C9.81106 4.12666 9.89058 4.13153 10.2955 4.13153H13.7814C14.4548 4.13152 15.0055 4.13151 15.4531 4.16808C15.9163 4.20593 16.3347 4.28667 16.7255 4.48576C17.337 4.79735 17.8342 5.29453 18.1458 5.90606C18.3983 6.40174 18.4634 6.9508 18.4867 7.58784C18.5019 8.00178 18.1787 8.34965 17.7647 8.36484C17.3508 8.38002 17.0029 8.05677 16.9877 7.64284C16.9658 7.04561 16.9052 6.77541 16.8093 6.58705C16.6415 6.25776 16.3738 5.99005 16.0445 5.82227C15.9004 5.74888 15.7014 5.69337 15.3309 5.6631C14.9517 5.63211 14.4624 5.63153 13.75 5.63153L10.2327 5.63157C9.92574 5.63185 9.65514 5.63211 9.39247 5.56869C9.16172 5.51298 8.94123 5.42111 8.7392 5.29648C8.50922 5.15461 8.31887 4.96229 8.10297 4.74414L7.3438 3.97847C7.06911 3.70145 7.01188 3.65017 6.95603 3.61505C6.88538 3.57062 6.8078 3.53829 6.7265 3.5194Z" fill="#99A2AD"/>
<path fill-rule="evenodd" clip-rule="evenodd" d="M12.5 11.4999V12C12.0058 12.0004 11.7468 12.0066 11.546 12.1089C11.3578 12.2048 11.2049 12.3578 11.109 12.546C11 12.7599 11 13.0399 11 13.5999V16.4C11 16.96 11 17.24 11.109 17.4539C11.2049 17.6421 11.3578 17.7951 11.546 17.891C11.7599 18 12.0399 18 12.6 18H17.4C17.9601 18 18.2401 18 18.454 17.891C18.6422 17.7951 18.7951 17.6421 18.891 17.4539C19 17.24 19 16.96 19 16.4V13.5999C19 13.0399 19 12.7599 18.891 12.546C18.7951 12.3578 18.6422 12.2048 18.454 12.1089C18.2532 12.0066 17.9942 12.0004 17.5 12V11.4999C17.5 10.1192 16.3807 8.99995 15 8.99995C13.6193 8.99995 12.5 10.1192 12.5 11.4999ZM15 10.4999C14.4477 10.4999 14 10.9477 14 11.4999V11.9999H16V11.4999C16 10.9477 15.5523 10.4999 15 10.4999Z" fill="#99A2AD"/>
</svg>
