<svg width="20" height="20" viewBox="0 0 20 20" fill="none" xmlns="http://www.w3.org/2000/svg">
<path fill-rule="evenodd" clip-rule="evenodd" d="M6.19541 3.53889C6.58553 3.53889 6.66224 3.54342 6.7265 3.55834C6.8078 3.57723 6.88538 3.60956 6.95603 3.65399C7.01188 3.68911 7.06911 3.74039 7.3438 4.01741L8.05873 4.73842L8.10296 4.78308L8.10297 4.78308C8.31887 5.00123 8.50922 5.19355 8.7392 5.33542C8.94123 5.46005 9.16172 5.55193 9.39247 5.60763C9.65514 5.67105 9.92574 5.6708 10.2327 5.67051L10.2955 5.67047H13.75C14.4624 5.67047 14.9517 5.67105 15.3309 5.70204C15.7014 5.73231 15.9004 5.78782 16.0445 5.86121C16.3738 6.02899 16.6415 6.2967 16.8093 6.62599C16.9385 6.87961 16.9912 7.31038 16.9985 8.31405C17.0015 8.72825 17.3398 9.06158 17.754 9.05856C18.1682 9.05554 18.5015 8.71731 18.4985 8.30311C18.4918 7.38208 18.4651 6.57173 18.1458 5.945C17.8342 5.33347 17.337 4.83629 16.7255 4.5247C16.3347 4.32561 15.9163 4.24487 15.4531 4.20702C15.0055 4.17045 14.4548 4.17046 13.7814 4.17047H13.7814L10.2955 4.17047C9.89058 4.17047 9.81106 4.1656 9.74448 4.14952C9.66757 4.13095 9.59407 4.10033 9.52673 4.05879C9.46844 4.02283 9.40899 3.96979 9.12387 3.68225L8.40893 2.96125L8.36631 2.91821C8.15826 2.70802 7.97489 2.52276 7.75454 2.38419C7.54257 2.2509 7.30983 2.15392 7.06593 2.09725C6.81239 2.03835 6.55171 2.03859 6.25597 2.03885L6.19541 2.03889L6.16517 2.03889C5.51653 2.03888 4.98604 2.03887 4.5544 2.07287C4.10779 2.10805 3.70382 2.18305 3.32441 2.36824C2.67335 2.68603 2.14714 3.21224 1.82935 3.8633C1.64416 4.24271 1.56916 4.64668 1.53399 5.09329C1.49999 5.52492 1.49999 6.05541 1.5 6.70404V6.70405V12.3203V12.3203C1.49999 12.9937 1.49998 13.5444 1.53655 13.992C1.5744 14.4552 1.65514 14.8736 1.85423 15.2644C2.16582 15.8759 2.663 16.3731 3.27453 16.6847C3.66527 16.8838 4.08367 16.9645 4.54693 17.0023C4.99448 17.0389 5.54518 17.0389 6.21853 17.0389H6.21856H13.0017C13.416 17.0389 13.7517 16.7031 13.7517 16.2889C13.7517 15.8747 13.416 15.5389 13.0017 15.5389H6.25C5.53756 15.5389 5.04833 15.5383 4.66908 15.5073C4.29858 15.477 4.09956 15.4215 3.95552 15.3482C3.62623 15.1804 3.35852 14.9127 3.19074 14.5834C3.11735 14.4393 3.06184 14.2403 3.03157 13.8698C3.00058 13.4906 3 13.0013 3 12.2889V6.7343C3 6.04806 3.00054 5.57684 3.02935 5.21108C3.05751 4.8536 3.10919 4.66089 3.17734 4.52126C3.34846 4.17069 3.6318 3.88735 3.98238 3.71623C4.122 3.64808 4.31471 3.5964 4.67219 3.56824C5.03795 3.53943 5.50917 3.53889 6.19541 3.53889ZM15.2534 17.25C15.2534 17.6642 15.5892 18 16.0034 18C16.4176 18 16.7534 17.6642 16.7534 17.25L16.7534 12.5578L17.7212 13.5256C18.0141 13.8185 18.489 13.8185 18.7818 13.5256C19.0747 13.2327 19.0747 12.7578 18.7818 12.4649L16.5337 10.2168C16.2408 9.92389 15.7659 9.92389 15.473 10.2168L13.2249 12.4649C12.932 12.7578 12.932 13.2327 13.2249 13.5256C13.5178 13.8185 13.9927 13.8185 14.2856 13.5256L15.2534 12.5578L15.2534 17.25Z" fill="#99A2AD"/>
</svg>
