<svg width="20" height="20" viewBox="0 0 20 20" fill="none" xmlns="http://www.w3.org/2000/svg">
<path d="M6.19541 3.49995C6.58553 3.49995 6.66224 3.50448 6.7265 3.5194C6.8078 3.53829 6.88538 3.57062 6.95603 3.61505C7.01188 3.65017 7.06911 3.70145 7.3438 3.97847L8.10296 4.74414C8.31886 4.96228 8.50922 5.15461 8.7392 5.29648C8.94123 5.42111 9.16172 5.51298 9.39247 5.56869C9.65514 5.63211 9.92574 5.63185 10.2327 5.63157L13.75 5.63153C14.4624 5.63153 14.9517 5.63211 15.3309 5.6631C15.7014 5.69337 15.9004 5.74888 16.0445 5.82227C16.3738 5.99005 16.6415 6.25776 16.8093 6.58705C16.8827 6.73108 16.9382 6.93011 16.9684 7.30061C16.9994 7.67986 17 8.16909 17 8.88153V12.2499C17 12.9624 16.9994 13.4516 16.9684 13.8309C16.9382 14.2014 16.8827 14.4004 16.8093 14.5444C16.6415 14.8737 16.3738 15.1414 16.0445 15.3092C15.9004 15.3826 15.7014 15.4381 15.3309 15.4684C14.9517 15.4994 14.4624 15.4999 13.75 15.4999H11.75C11.3358 15.4999 11 15.8357 11 16.2499C11 16.6642 11.3358 16.9999 11.75 16.9999H13.7814C14.4548 17 15.0055 17 15.4531 16.9634C15.9163 16.9255 16.3347 16.8448 16.7255 16.6457C17.337 16.3341 17.8342 15.8369 18.1458 15.2254C18.3449 14.8347 18.4256 14.4163 18.4634 13.953C18.5 13.5055 18.5 12.9548 18.5 12.2814V8.85009C18.5 8.17672 18.5 7.62602 18.4634 7.17846C18.4256 6.7152 18.3449 6.2968 18.1458 5.90606C17.8342 5.29453 17.337 4.79735 16.7255 4.48576C16.3347 4.28667 15.9163 4.20593 15.4531 4.16808C15.0055 4.13151 14.4548 4.13152 13.7814 4.13153H10.2955C9.89058 4.13153 9.81106 4.12666 9.74448 4.11058C9.66757 4.09201 9.59407 4.06139 9.52673 4.01985C9.46844 3.98389 9.40899 3.93085 9.12387 3.64331L8.36631 2.87927C8.15826 2.66908 7.97489 2.48382 7.75454 2.34525C7.54257 2.21195 7.30983 2.11498 7.06593 2.05831C6.81239 1.99941 6.55171 1.99965 6.25597 1.99991L6.16517 1.99995C5.51653 1.99994 4.98604 1.99993 4.5544 2.03393C4.10779 2.06911 3.70382 2.14411 3.32441 2.3293C2.67335 2.64709 2.14714 3.1733 1.82935 3.82436C1.64416 4.20377 1.56916 4.60774 1.53398 5.05435C1.49999 5.48598 1.49999 6.01647 1.5 6.66511V11.7499C1.5 12.1642 1.83579 12.4999 2.25 12.4999C2.66421 12.4999 3 12.1642 3 11.7499V6.69536C3 6.00912 3.00054 5.5379 3.02935 5.17214C3.05751 4.81466 3.10919 4.62195 3.17734 4.48232C3.34846 4.13175 3.6318 3.84841 3.98238 3.67729C4.122 3.60914 4.31471 3.55746 4.67219 3.5293C5.03795 3.50049 5.50917 3.49995 6.19541 3.49995Z" fill="#99A2AD"/>
<path d="M2.25 13.9999C1.83579 13.9999 1.5 14.3357 1.5 14.7499C1.5 15.1641 1.83579 15.4999 2.25 15.4999L7.43935 15.4999L5.71967 17.2196C5.42678 17.5125 5.42678 17.9874 5.71967 18.2803C6.01256 18.5732 6.48744 18.5732 6.78033 18.2803L9.78033 15.2803C10.0732 14.9874 10.0732 14.5125 9.78033 14.2196L6.78033 11.2196C6.48744 10.9267 6.01256 10.9267 5.71967 11.2196C5.42678 11.5125 5.42678 11.9874 5.71967 12.2803L7.43934 13.9999L2.25 13.9999Z" fill="#99A2AD"/>
</svg>
