<svg width="20" height="20" viewBox="0 0 20 20" fill="none" xmlns="http://www.w3.org/2000/svg">
<path fill-rule="evenodd" clip-rule="evenodd" d="M6.19541 3.53892C6.58553 3.53892 6.66224 3.54345 6.7265 3.55838C6.8078 3.57726 6.88538 3.60959 6.95603 3.65402C7.01188 3.68914 7.06911 3.74042 7.3438 4.01744L8.05873 4.73845L8.10296 4.78311L8.10297 4.78311C8.31887 5.00126 8.50922 5.19358 8.7392 5.33545C8.94123 5.46008 9.16172 5.55196 9.39247 5.60766C9.65514 5.67108 9.92574 5.67083 10.2327 5.67054L10.2955 5.6705H13.75C14.4624 5.6705 14.9517 5.67108 15.3309 5.70207C15.7014 5.73234 15.9004 5.78785 16.0445 5.86124C16.3738 6.02902 16.6415 6.29673 16.8093 6.62602C16.9385 6.87964 16.9912 7.31041 16.9985 8.31408C17.0015 8.72828 17.3398 9.06161 17.754 9.05859C18.1682 9.05557 18.5015 8.71734 18.4985 8.30314C18.4918 7.38211 18.4651 6.57176 18.1458 5.94503C17.8342 5.3335 17.337 4.83632 16.7255 4.52473C16.3347 4.32564 15.9163 4.2449 15.4531 4.20705C15.0055 4.17048 14.4548 4.17049 13.7814 4.1705H13.7814L10.2955 4.1705C9.89058 4.1705 9.81106 4.16563 9.74448 4.14955C9.66757 4.13098 9.59407 4.10036 9.52673 4.05882C9.46844 4.02286 9.40899 3.96983 9.12387 3.68228L8.40893 2.96128L8.36631 2.91824C8.15826 2.70805 7.97489 2.52279 7.75454 2.38422C7.54257 2.25093 7.30983 2.15395 7.06593 2.09728C6.81239 2.03838 6.55171 2.03862 6.25597 2.03888L6.19541 2.03892L6.16517 2.03892C5.51653 2.03891 4.98604 2.03891 4.5544 2.0729C4.10779 2.10808 3.70382 2.18308 3.32441 2.36827C2.67335 2.68606 2.14714 3.21227 1.82935 3.86333C1.64416 4.24274 1.56916 4.64671 1.53399 5.09332C1.49999 5.52495 1.49999 6.05544 1.5 6.70407V6.70408V12.3203V12.3204C1.49999 12.9937 1.49998 13.5444 1.53655 13.992C1.5744 14.4552 1.65514 14.8736 1.85423 15.2644C2.16582 15.8759 2.663 16.3731 3.27453 16.6847C3.66527 16.8838 4.08367 16.9645 4.54693 17.0024C4.99448 17.0389 5.54518 17.0389 6.21853 17.0389H6.21856H13.0017C13.416 17.0389 13.7517 16.7031 13.7517 16.2889C13.7517 15.8747 13.416 15.5389 13.0017 15.5389H6.25C5.53756 15.5389 5.04833 15.5383 4.66908 15.5073C4.29858 15.4771 4.09956 15.4216 3.95552 15.3482C3.62623 15.1804 3.35852 14.9127 3.19074 14.5834C3.11735 14.4394 3.06184 14.2403 3.03157 13.8698C3.00058 13.4906 3 13.0014 3 12.2889V6.73433C3 6.04809 3.00054 5.57687 3.02935 5.21111C3.05751 4.85363 3.10919 4.66092 3.17734 4.5213C3.34846 4.17072 3.6318 3.88738 3.98238 3.71626C4.122 3.64811 4.31471 3.59643 4.67219 3.56827C5.03795 3.53946 5.50917 3.53892 6.19541 3.53892ZM15.2534 17.25C15.2534 17.6642 15.5892 18 16.0034 18C16.4176 18 16.7534 17.6642 16.7534 17.25L16.7534 12.5578L17.7212 13.5256C18.0141 13.8185 18.489 13.8185 18.7818 13.5256C19.0747 13.2327 19.0747 12.7578 18.7818 12.465L16.5337 10.2168C16.2408 9.92392 15.7659 9.92392 15.473 10.2168L13.2249 12.465C12.932 12.7579 12.932 13.2327 13.2249 13.5256C13.5178 13.8185 13.9927 13.8185 14.2856 13.5256L15.2534 12.5578L15.2534 17.25Z" fill="#99A2AD"/>
</svg>
