<svg width="20" height="20" viewBox="0 0 20 20" fill="none" xmlns="http://www.w3.org/2000/svg">
<path fill-rule="evenodd" clip-rule="evenodd" d="M6.19541 3.49995C6.58553 3.49995 6.66224 3.50448 6.7265 3.5194C6.8078 3.53829 6.88538 3.57062 6.95603 3.61505C7.01188 3.65017 7.06911 3.70145 7.3438 3.97847L8.05873 4.69948L8.10296 4.74414L8.10297 4.74414C8.31887 4.96229 8.50922 5.15461 8.7392 5.29648C8.94123 5.42111 9.16172 5.51298 9.39247 5.56869C9.65514 5.63211 9.92574 5.63185 10.2327 5.63157L10.2955 5.63153H13.75C14.4624 5.63153 14.9517 5.63211 15.3309 5.6631C15.7014 5.69337 15.9004 5.74888 16.0445 5.82227C16.3738 5.99005 16.6415 6.25776 16.8093 6.58705C16.9281 6.8202 16.9847 7.15692 16.9965 8.01031C17 8.26399 17 8.43529 17 8.76616C17 9.18037 17.3358 9.51616 17.75 9.51616C18.1642 9.51616 18.5 9.18037 18.5 8.76616V8.76359C18.5 8.43504 18.5 8.2543 18.4963 7.98959C18.4849 7.16324 18.4433 6.48997 18.1458 5.90606C17.8342 5.29453 17.337 4.79735 16.7255 4.48576C16.3347 4.28667 15.9163 4.20593 15.4531 4.16808C15.0055 4.13151 14.4548 4.13152 13.7814 4.13153H13.7814L10.2955 4.13153C9.89058 4.13153 9.81106 4.12666 9.74448 4.11058C9.66757 4.09201 9.59407 4.06139 9.52673 4.01985C9.46844 3.98389 9.40899 3.93085 9.12387 3.64331L8.40893 2.9223L8.36631 2.87927C8.15826 2.66908 7.97489 2.48382 7.75454 2.34525C7.54257 2.21195 7.30983 2.11498 7.06593 2.05831C6.81239 1.99941 6.55171 1.99965 6.25597 1.99991L6.19541 1.99995L6.16517 1.99995C5.51653 1.99994 4.98604 1.99993 4.5544 2.03393C4.10779 2.06911 3.70382 2.14411 3.32441 2.3293C2.67335 2.64709 2.14714 3.1733 1.82935 3.82436C1.64416 4.20377 1.56916 4.60774 1.53399 5.05435C1.49999 5.48598 1.49999 6.01647 1.5 6.6651V6.66511V12.2814V12.2814C1.49999 12.9548 1.49998 13.5055 1.53655 13.953C1.5744 14.4163 1.65514 14.8347 1.85423 15.2254C2.16582 15.8369 2.663 16.3341 3.27453 16.6457C3.66527 16.8448 4.08367 16.9255 4.54693 16.9634C4.99448 17 5.54518 17 6.21853 16.9999H6.21856H8.8258C9.24002 16.9999 9.5758 16.6642 9.5758 16.2499C9.5758 15.8357 9.24002 15.4999 8.8258 15.4999H6.25C5.53756 15.4999 5.04833 15.4994 4.66908 15.4684C4.29858 15.4381 4.09956 15.3826 3.95552 15.3092C3.62623 15.1414 3.35852 14.8737 3.19074 14.5444C3.11735 14.4004 3.06184 14.2014 3.03157 13.8309C3.00058 13.4516 3 12.9624 3 12.2499V6.69536C3 6.00912 3.00054 5.5379 3.02935 5.17214C3.05751 4.81466 3.10919 4.62195 3.17734 4.48232C3.34846 4.13175 3.6318 3.84841 3.98238 3.67729C4.122 3.60914 4.31471 3.55746 4.67219 3.5293C5.03795 3.50049 5.50917 3.49995 6.19541 3.49995ZM15 9.99995C16.105 9.99995 17 10.895 17 12C17 13.105 16.105 14 15 14C13.895 14 13 13.105 13 12C13 10.895 13.895 9.99995 15 9.99995ZM11 17.4975V17C11 15.25 13.665 14.75 15 14.75C16.335 14.75 19 15.25 19 17V17.4975C19 17.775 18.775 18 18.4975 18H11.5025C11.225 18 11 17.775 11 17.4975Z" fill="#99A2AD"/>
</svg>
