<svg width="20" height="20" viewBox="0 0 20 20" fill="none" xmlns="http://www.w3.org/2000/svg">
<path fill-rule="evenodd" clip-rule="evenodd" d="M3 11.746V8.99989H17V12.2499C17 12.9623 16.9994 13.4516 16.9684 13.8308C16.9382 14.2013 16.8827 14.4003 16.8093 14.5444C16.6415 14.8737 16.3738 15.1414 16.0445 15.3091C15.9004 15.3825 15.7014 15.438 15.3309 15.4683C14.9517 15.4993 14.4624 15.4999 13.75 15.4999H11.8477C11.4334 15.4999 11.0977 15.8357 11.0977 16.2499C11.0977 16.6641 11.4334 16.9999 11.8477 16.9999H13.7814C14.4548 16.9999 15.0055 16.9999 15.4531 16.9633C15.9163 16.9255 16.3347 16.8448 16.7255 16.6457C17.337 16.3341 17.8342 15.8369 18.1458 15.2254C18.3449 14.8346 18.4256 14.4162 18.4634 13.953C18.5 13.5054 18.5 12.9547 18.5 12.2813V8.85003C18.5 8.17666 18.5 7.62596 18.4634 7.1784C18.4256 6.71514 18.3449 6.29674 18.1458 5.906C17.8342 5.29447 17.337 4.79729 16.7255 4.4857C16.3347 4.2866 15.9163 4.20587 15.4531 4.16802C15.0055 4.13145 14.4548 4.13146 13.7814 4.13147H10.2955C9.89058 4.13147 9.81106 4.12659 9.74448 4.11052C9.66757 4.09195 9.59407 4.06133 9.52673 4.01979C9.46844 3.98383 9.40899 3.93079 9.12387 3.64325L8.36631 2.87921C8.15826 2.66902 7.97489 2.48376 7.75454 2.34519C7.54257 2.21189 7.30983 2.11492 7.06593 2.05825C6.81239 1.99935 6.55172 1.99959 6.25598 1.99985L6.16517 1.99989C5.51653 1.99988 4.98604 1.99987 4.5544 2.03387C4.10779 2.06905 3.70382 2.14405 3.32441 2.32924C2.67335 2.64703 2.14714 3.17324 1.82935 3.8243C1.64416 4.20371 1.56916 4.60768 1.53399 5.05429C1.49999 5.48592 1.49999 6.01641 1.5 6.66505V11.746C1.5 12.1602 1.83579 12.496 2.25 12.496C2.66421 12.496 3 12.1602 3 11.746ZM6.7265 3.51934C6.66224 3.50442 6.58553 3.49989 6.19541 3.49989C5.50917 3.49989 5.03795 3.50043 4.67219 3.52924C4.31471 3.5574 4.122 3.60908 3.98238 3.67723C3.63181 3.84835 3.34846 4.13169 3.17734 4.48226C3.10919 4.62189 3.05751 4.8146 3.02935 5.17208C3.00054 5.53784 3 6.00906 3 6.6953V7.49989H16.9815C16.9779 7.43004 16.9736 7.36376 16.9684 7.30055C16.9382 6.93005 16.8827 6.73102 16.8093 6.58698C16.6415 6.2577 16.3738 5.98998 16.0445 5.82221C15.9004 5.74881 15.7014 5.69331 15.3309 5.66304C14.9517 5.63205 14.4624 5.63147 13.75 5.63147L10.2327 5.63151C9.92574 5.63179 9.65514 5.63205 9.39247 5.56863C9.16172 5.51292 8.94123 5.42105 8.7392 5.29642C8.50922 5.15455 8.31887 4.96222 8.10297 4.74408L7.3438 3.97841C7.06911 3.70139 7.01188 3.65011 6.95603 3.61499C6.88538 3.57056 6.8078 3.53823 6.7265 3.51934Z" fill="#99A2AD"/>
<path d="M2.25 13.9999C1.83579 13.9999 1.5 14.3357 1.5 14.7499C1.5 15.1641 1.83578 15.4999 2.25 15.4999L7.43935 15.4999L5.71967 17.2196C5.42678 17.5125 5.42678 17.9873 5.71967 18.2802C6.01257 18.5731 6.48744 18.5731 6.78033 18.2802L9.78033 15.2802C10.0732 14.9873 10.0732 14.5125 9.78033 14.2196L6.78033 11.2196C6.48744 10.9267 6.01256 10.9267 5.71967 11.2196C5.42678 11.5125 5.42678 11.9873 5.71967 12.2802L7.43934 13.9999L2.25 13.9999Z" fill="#99A2AD"/>
</svg>
