<svg width="20" height="20" viewBox="0 0 20 20" fill="none" xmlns="http://www.w3.org/2000/svg">
<path fill-rule="evenodd" clip-rule="evenodd" d="M6.19541 3.50007C6.58553 3.50007 6.66224 3.5046 6.7265 3.51953C6.8078 3.53841 6.88538 3.57074 6.95603 3.61517C7.01188 3.65029 7.06911 3.70157 7.3438 3.97859L8.05873 4.6996L8.10296 4.74426C8.31886 4.9624 8.50922 5.15473 8.7392 5.2966C8.94123 5.42123 9.16172 5.51311 9.39247 5.56882C9.65514 5.63223 9.92574 5.63198 10.2327 5.63169L10.2955 5.63165H13.75C14.4624 5.63165 14.9517 5.63223 15.3309 5.66322C15.7014 5.69349 15.9004 5.749 16.0445 5.82239C16.3738 5.99017 16.6415 6.25788 16.8093 6.58717C16.8827 6.73121 16.9382 6.93023 16.9684 7.30073C16.9994 7.67998 17 8.16921 17 8.88165V9.7662C17 10.1804 17.3358 10.5162 17.75 10.5162C18.1642 10.5162 18.5 10.1804 18.5 9.7662V8.85021C18.5 8.17684 18.5 7.62614 18.4634 7.17858C18.4256 6.71532 18.3449 6.29692 18.1458 5.90618C17.8342 5.29465 17.337 4.79747 16.7255 4.48588C16.3347 4.28679 15.9163 4.20605 15.4531 4.1682C15.0055 4.13163 14.4548 4.13164 13.7814 4.13165L10.2955 4.13165C9.89058 4.13165 9.81106 4.12678 9.74448 4.11071C9.66757 4.09214 9.59407 4.06151 9.52673 4.01997C9.46844 3.98401 9.40899 3.93098 9.12387 3.64344L8.40893 2.92243L8.36631 2.87939C8.15826 2.6692 7.97489 2.48394 7.75454 2.34537C7.54257 2.21208 7.30983 2.1151 7.06593 2.05844C6.81239 1.99953 6.55171 1.99977 6.25597 2.00004L6.19541 2.00007L6.16517 2.00007C5.51653 2.00006 4.98604 2.00006 4.5544 2.03406C4.10779 2.06923 3.70382 2.14423 3.32441 2.32942C2.67335 2.64721 2.14714 3.17342 1.82935 3.82448C1.64416 4.20389 1.56916 4.60786 1.53399 5.05447C1.49999 5.48611 1.49999 6.01659 1.5 6.66523V12.2815C1.49999 12.9549 1.49998 13.5056 1.53655 13.9531C1.5744 14.4164 1.65514 14.8348 1.85423 15.2255C2.16582 15.8371 2.663 16.3343 3.27453 16.6458C3.66527 16.8449 4.08367 16.9257 4.54693 16.9635C4.99448 17.0001 5.54518 17.0001 6.21853 17.0001H10.2493C10.6636 17.0001 10.9993 16.6643 10.9993 16.2501C10.9993 15.8359 10.6636 15.5001 10.2493 15.5001H6.25C5.53756 15.5001 5.04833 15.4995 4.66908 15.4685C4.29858 15.4382 4.09956 15.3827 3.95552 15.3093C3.62623 15.1416 3.35852 14.8738 3.19074 14.5446C3.11735 14.4005 3.06184 14.2015 3.03157 13.831C3.00058 13.4517 3 12.9625 3 12.2501V6.69548C3 6.00924 3.00054 5.53802 3.02935 5.17226C3.05751 4.81478 3.10919 4.62207 3.17734 4.48245C3.34846 4.13188 3.6318 3.84853 3.98238 3.67741C4.122 3.60926 4.31471 3.55758 4.67219 3.52942C5.03795 3.50061 5.50917 3.50007 6.19541 3.50007ZM15.5 10.9997C15.9142 10.9997 16.25 11.3355 16.25 11.7497V13.7497H18.25C18.6642 13.7497 19 14.0855 19 14.4997C19 14.9139 18.6642 15.2497 18.25 15.2497H16.25V17.2497C16.25 17.6639 15.9142 17.9997 15.5 17.9997C15.0858 17.9997 14.75 17.6639 14.75 17.2497V15.2497H12.75C12.3358 15.2497 12 14.9139 12 14.4997C12 14.0855 12.3358 13.7497 12.75 13.7497H14.75V11.7497C14.75 11.3355 15.0858 10.9997 15.5 10.9997Z" fill="#99A2AD"/>
</svg>
