<svg width="20" height="20" viewBox="0 0 20 20" fill="none" xmlns="http://www.w3.org/2000/svg">
<path fill-rule="evenodd" clip-rule="evenodd" d="M6.7265 3.5194C6.66224 3.50448 6.58553 3.49995 6.19541 3.49995C5.50917 3.49995 5.03795 3.50049 4.67219 3.5293C4.31471 3.55746 4.122 3.60914 3.98238 3.67729C3.6318 3.84841 3.34846 4.13175 3.17734 4.48232C3.10919 4.62195 3.05751 4.81466 3.02935 5.17214C3.00054 5.5379 3 6.00912 3 6.69536V12.2499C3 12.9624 3.00058 13.4516 3.03157 13.8309C3.06184 14.2014 3.11735 14.4004 3.19074 14.5444C3.35852 14.8737 3.62623 15.1414 3.95552 15.3092C4.09956 15.3826 4.29858 15.4381 4.66908 15.4684C5.04833 15.4994 5.53756 15.4999 6.25 15.4999H13.75C14.4624 15.4999 14.9517 15.4994 15.3309 15.4684C15.7014 15.4381 15.9004 15.3826 16.0445 15.3092C16.3738 15.1414 16.6415 14.8737 16.8093 14.5444C16.8827 14.4004 16.9382 14.2014 16.9684 13.8309C16.9994 13.4516 17 12.9624 17 12.2499V8.88153C17 8.16909 16.9994 7.67986 16.9684 7.30061C16.9382 6.93011 16.8827 6.73108 16.8093 6.58705C16.6415 6.25776 16.3738 5.99005 16.0445 5.82227C15.9004 5.74888 15.7014 5.69337 15.3309 5.6631C14.9517 5.63211 14.4624 5.63153 13.75 5.63153H10.2955C10.2744 5.63153 10.2534 5.63155 10.2327 5.63157C9.92574 5.63185 9.65514 5.63211 9.39247 5.56869C9.16172 5.51298 8.94123 5.42111 8.7392 5.29648C8.50922 5.15461 8.31887 4.96229 8.10297 4.74414C8.08835 4.72937 8.07361 4.71448 8.05873 4.69948L7.3438 3.97847C7.06911 3.70145 7.01188 3.65017 6.95603 3.61505C6.88538 3.57062 6.8078 3.53829 6.7265 3.5194ZM6.25597 1.99991C6.55171 1.99965 6.81239 1.99941 7.06593 2.05831C7.30983 2.11498 7.54257 2.21195 7.75454 2.34525C7.97489 2.48382 8.15826 2.66908 8.36631 2.87927C8.38039 2.8935 8.3946 2.90785 8.40893 2.9223L9.12387 3.64331C9.40899 3.93085 9.46844 3.98389 9.52673 4.01985C9.59407 4.06139 9.66757 4.09201 9.74448 4.11058C9.81106 4.12666 9.89058 4.13153 10.2955 4.13153L13.7814 4.13153C14.4548 4.13152 15.0055 4.13151 15.4531 4.16808C15.9163 4.20593 16.3347 4.28666 16.7255 4.48576C17.337 4.79735 17.8342 5.29453 18.1458 5.90606C18.3449 6.2968 18.4256 6.7152 18.4634 7.17846C18.5 7.62602 18.5 8.17672 18.5 8.85009V12.2814C18.5 12.9548 18.5 13.5055 18.4634 13.953C18.4256 14.4163 18.3449 14.8347 18.1458 15.2254C17.8342 15.8369 17.337 16.3341 16.7255 16.6457C16.3347 16.8448 15.9163 16.9255 15.4531 16.9634C15.0055 17 14.4548 17 13.7814 16.9999H6.21856C5.54519 17 4.99449 17 4.54693 16.9634C4.08367 16.9255 3.66527 16.8448 3.27453 16.6457C2.663 16.3341 2.16582 15.8369 1.85423 15.2254C1.65514 14.8347 1.5744 14.4163 1.53655 13.953C1.49998 13.5055 1.49999 12.9547 1.5 12.2814V6.66511C1.49999 6.01648 1.49999 5.48599 1.53398 5.05435C1.56916 4.60774 1.64416 4.20377 1.82935 3.82436C2.14714 3.1733 2.67335 2.64709 3.32441 2.3293C3.70382 2.14411 4.10779 2.06911 4.5544 2.03393C4.98604 1.99993 5.51653 1.99994 6.16517 1.99995L6.19541 1.99995C6.21576 1.99995 6.23595 1.99993 6.25597 1.99991Z" fill="#99A2AD"/>
</svg>
