<svg width="20" height="20" viewBox="0 0 20 20" fill="none" xmlns="http://www.w3.org/2000/svg">
<path d="M6.19541 3.50001C6.58553 3.50001 6.66224 3.50454 6.7265 3.51947C6.8078 3.53835 6.88538 3.57068 6.95603 3.61511C7.01188 3.65023 7.06911 3.70151 7.3438 3.97853L8.10296 4.7442C8.31886 4.96234 8.50922 5.15467 8.7392 5.29654C8.94123 5.42117 9.16172 5.51305 9.39247 5.56875C9.65514 5.63217 9.92574 5.63192 10.2327 5.63163L13.75 5.63159C14.4624 5.63159 14.9517 5.63217 15.3309 5.66316C15.7014 5.69343 15.9004 5.74894 16.0445 5.82233C16.3738 5.99011 16.6415 6.25782 16.8093 6.58711C16.8827 6.73114 16.9382 6.93017 16.9684 7.30067C16.9994 7.67992 17 8.16915 17 8.88159V12.25C17 12.9624 16.9994 13.4517 16.9684 13.8309C16.9382 14.2014 16.8827 14.4005 16.8093 14.5445C16.6415 14.8738 16.3738 15.1415 16.0445 15.3093C15.9004 15.3827 15.7014 15.4382 15.3309 15.4684C14.9517 15.4994 14.4624 15.5 13.75 15.5H11.75C11.3358 15.5 11 15.8358 11 16.25C11 16.6642 11.3358 17 11.75 17H13.7814C14.4548 17 15.0055 17 15.4531 16.9635C15.9163 16.9256 16.3347 16.8449 16.7255 16.6458C17.337 16.3342 17.8342 15.837 18.1458 15.2255C18.3449 14.8347 18.4256 14.4163 18.4634 13.9531C18.5 13.5055 18.5 12.9548 18.5 12.2814V8.85015C18.5 8.17678 18.5 7.62608 18.4634 7.17852C18.4256 6.71526 18.3449 6.29686 18.1458 5.90612C17.8342 5.29459 17.337 4.79741 16.7255 4.48582C16.3347 4.28673 15.9163 4.20599 15.4531 4.16814C15.0055 4.13157 14.4548 4.13158 13.7814 4.13159H10.2955C9.89058 4.13159 9.81106 4.12672 9.74448 4.11064C9.66757 4.09207 9.59407 4.06145 9.52673 4.01991C9.46844 3.98395 9.40899 3.93092 9.12387 3.64337L8.36631 2.87933C8.15826 2.66914 7.97489 2.48388 7.75454 2.34531C7.54257 2.21202 7.30983 2.11504 7.06593 2.05838C6.81239 1.99947 6.55171 1.99971 6.25597 1.99997L6.16517 2.00001C5.51653 2 4.98604 2 4.5544 2.03399C4.10779 2.06917 3.70382 2.14417 3.32441 2.32936C2.67335 2.64715 2.14714 3.17336 1.82935 3.82442C1.64416 4.20383 1.56916 4.6078 1.53398 5.05441C1.49999 5.48605 1.49999 6.01653 1.5 6.66517V11.75C1.5 12.1642 1.83579 12.5 2.25 12.5C2.66421 12.5 3 12.1642 3 11.75V6.69542C3 6.00918 3.00054 5.53796 3.02935 5.1722C3.05751 4.81472 3.10919 4.62201 3.17734 4.48239C3.34846 4.13181 3.6318 3.84847 3.98238 3.67735C4.122 3.6092 4.31471 3.55752 4.67219 3.52936C5.03795 3.50055 5.50917 3.50001 6.19541 3.50001Z" fill="#99A2AD"/>
<path d="M2.25 14C1.83579 14 1.5 14.3358 1.5 14.75C1.5 15.1642 1.83579 15.5 2.25 15.5L7.43935 15.5L5.71967 17.2197C5.42678 17.5126 5.42678 17.9874 5.71967 18.2803C6.01256 18.5732 6.48744 18.5732 6.78033 18.2803L9.78033 15.2803C10.0732 14.9874 10.0732 14.5126 9.78033 14.2197L6.78033 11.2197C6.48744 10.9268 6.01256 10.9268 5.71967 11.2197C5.42678 11.5126 5.42678 11.9874 5.71967 12.2803L7.43934 14L2.25 14Z" fill="#99A2AD"/>
</svg>
