<svg width="20" height="20" viewBox="0 0 20 20" fill="none" xmlns="http://www.w3.org/2000/svg">
<path fill-rule="evenodd" clip-rule="evenodd" d="M11.7499 3.75C11.7499 3.33579 12.0857 3 12.4999 3H16.25C16.6642 3 17 3.33579 17 3.75V7.5C17 7.91421 16.6642 8.25 16.25 8.25C15.8358 8.25 15.5 7.91421 15.5 7.5V5.5605L12.2765 8.78374C11.9836 9.07662 11.5087 9.0766 11.2158 8.78369C10.9229 8.49078 10.9229 8.01591 11.2159 7.72303L14.4392 4.5H12.4999C12.0857 4.5 11.7499 4.16421 11.7499 3.75ZM8.7833 11.2163C9.07621 11.5091 9.07622 11.984 8.78334 12.2769L5.56052 15.5H7.49994C7.91415 15.5 8.24994 15.8358 8.24994 16.25C8.24994 16.6642 7.91415 17 7.49994 17H3.74988C3.33566 17 2.99988 16.6642 2.99988 16.25L2.99988 12.5C2.99988 12.0858 3.33566 11.75 3.74988 11.75C4.16409 11.75 4.49988 12.0858 4.49988 12.5L4.49988 14.4393L7.72264 11.2163C8.01552 10.9234 8.4904 10.9234 8.7833 11.2163Z" fill="#99A2AD"/>
</svg>
