<svg width="20" height="20" viewBox="0 0 20 20" fill="none" xmlns="http://www.w3.org/2000/svg">
<path fill-rule="evenodd" clip-rule="evenodd" d="M11.8314 2.50209C11.3141 2.42252 10.8321 2.7824 10.7614 3.30092L10.3804 6.09496C10.3794 6.10205 10.3784 6.10917 10.3775 6.11631C10.3601 6.2442 10.3418 6.37792 10.3197 6.48312C10.3079 6.53932 10.2882 6.62198 10.2528 6.70789C10.2214 6.7842 10.144 6.94865 9.96886 7.0769C9.70325 7.27138 9.35264 7.30533 9.05465 7.1654C8.85814 7.07314 8.75063 6.9266 8.70517 6.85773C8.65399 6.78019 8.6188 6.70285 8.59641 6.64996C8.55451 6.55096 8.51098 6.42322 8.46936 6.30105C8.46704 6.29423 8.46472 6.28742 8.46241 6.28064L7.74395 4.17318C7.59565 3.73816 7.16064 3.46854 6.70506 3.52928C6.19832 3.59685 5.83286 4.04813 5.87205 4.55751L6.1636 8.34774C7.32974 7.96287 8.33196 8.17704 8.62895 8.25659C8.7064 8.27734 8.77494 8.30191 8.82033 8.31841C10.0467 8.76438 10.6571 9.87896 10.6318 10.9445C10.6062 12.0223 9.92395 13.093 8.61337 13.3767C8.30631 13.4432 7.98935 13.5 7.75001 13.5C7.3358 13.5 7.00001 13.1642 7.00001 12.75C7.00001 12.3358 7.3358 12 7.75001 12C7.81063 12 7.98481 11.978 8.296 11.9107C8.85148 11.7904 9.12109 11.3772 9.13221 10.9089C9.14363 10.4283 8.87563 9.93462 8.30771 9.7281C8.26778 9.71358 8.25106 9.70825 8.24082 9.70551C8.02007 9.64638 6.96683 9.42352 5.91604 10.124C5.54557 10.371 4.35504 11.451 4.73546 13.3529C5.11983 15.2745 7.05455 17.2139 10.4532 17.0014C13.8561 16.7888 15.7111 14.5644 15.5026 12.0623C15.3998 10.8289 14.7384 10.0011 14.0627 9.46064C13.724 9.18966 13.3899 8.99853 13.141 8.87576C13.0172 8.81472 12.9165 8.77156 12.8495 8.7446C12.816 8.73114 12.7911 8.72179 12.7762 8.71633L12.7615 8.71106L12.7618 8.71113L12.7623 8.7113C12.4344 8.60173 12.2239 8.28224 12.2526 7.9377L12.622 3.50517C12.6628 3.01504 12.3175 2.57688 11.8314 2.50209ZM13.7922 7.52448L14.1168 3.62974C14.2231 2.35434 13.3244 1.21414 12.0595 1.01953C10.7135 0.812462 9.45913 1.74894 9.27513 3.09826L9.18574 3.75377L9.16372 3.68917C8.78444 2.57663 7.67192 1.88709 6.50682 2.04244C5.21146 2.21515 4.27621 3.36924 4.37647 4.67255L4.72155 9.15871C3.96795 9.82471 2.80146 11.3316 3.26459 13.6471C3.80932 16.3705 6.46823 18.7534 10.5468 18.4985C14.6212 18.2439 17.2889 15.4356 16.9974 11.9377C16.8502 10.1711 15.8867 8.99883 14.9998 8.28933C14.5573 7.93531 14.1258 7.68893 13.8044 7.53046C13.8003 7.52845 13.7963 7.52646 13.7922 7.52448ZM12.7601 8.71058L12.7609 8.71086L12.7615 8.71106C12.7608 8.7108 12.7603 8.71064 12.7601 8.71058ZM12.7601 8.71057C12.76 8.71055 12.76 8.71055 12.7601 8.71058L12.7601 8.71057Z" fill="#99A2AD"/>
</svg>
