<svg width="20" height="20" viewBox="0 0 20 20" fill="none" xmlns="http://www.w3.org/2000/svg">
<path fill-rule="evenodd" clip-rule="evenodd" d="M13.5482 17.7349L14.103 17.9727C15.449 18.5496 17.0114 17.9772 17.6663 16.6674C17.8857 16.2285 18 15.7445 18 15.2538V9C18 4.58172 14.4183 1 10 1C5.58172 1 2 4.58172 2 9V15.2757C2 15.752 2.11089 16.2218 2.3239 16.6478C2.98432 17.9686 4.55986 18.5458 5.91721 17.9641L6.46927 17.7275C6.79494 17.5879 7.17138 17.6428 7.44358 17.8696L7.88768 18.2397C9.11131 19.2594 10.8887 19.2594 12.1123 18.2397L12.5418 17.8818C12.823 17.6475 13.2118 17.5908 13.5482 17.7349ZM10 2.5C6.41015 2.5 3.5 5.41015 3.5 9V15.2757C3.5 15.5192 3.55668 15.7593 3.66554 15.977C3.97078 16.5875 4.69898 16.8542 5.32633 16.5853L5.8784 16.3487C6.72255 15.987 7.69831 16.1294 8.40386 16.7173L8.84796 17.0874C9.51531 17.6435 10.4847 17.6435 11.152 17.0874L11.5816 16.7295C12.2961 16.1341 13.2842 15.9898 14.139 16.3562L14.6938 16.594C15.3099 16.858 16.0249 16.5961 16.3247 15.9966C16.44 15.766 16.5 15.5117 16.5 15.2538V9C16.5 5.41015 13.5899 2.5 10 2.5Z" fill="#99A2AD"/>
<path fill-rule="evenodd" clip-rule="evenodd" d="M7.87132 12.341C8.09719 11.9938 8.56176 11.8954 8.90897 12.1213C9.32273 12.3905 9.68508 12.4971 10.0096 12.4977C10.3324 12.4982 10.6851 12.3938 11.0819 12.1274C11.4257 11.8964 11.8917 11.988 12.1226 12.3319C12.3536 12.6757 12.262 13.1417 11.9181 13.3726C11.3222 13.7729 10.6825 13.9987 10.0072 13.9976C9.33373 13.9966 8.69241 13.7699 8.09103 13.3787C7.74381 13.1528 7.64545 12.6882 7.87132 12.341Z" fill="#99A2AD"/>
<path fill-rule="evenodd" clip-rule="evenodd" d="M14.25 9C14.25 9.69036 13.6904 10.25 13 10.25C12.3096 10.25 11.75 9.69036 11.75 9C11.75 8.30964 12.3096 7.75 13 7.75C13.6904 7.75 14.25 8.30964 14.25 9Z" fill="#99A2AD"/>
<path fill-rule="evenodd" clip-rule="evenodd" d="M7 10.25C7.69036 10.25 8.25 9.69036 8.25 9C8.25 8.30964 7.69036 7.75 7 7.75C6.30964 7.75 5.75 8.30964 5.75 9C5.75 9.69036 6.30964 10.25 7 10.25Z" fill="#99A2AD"/>
</svg>
