<svg width="20" height="20" viewBox="0 0 20 20" fill="none" xmlns="http://www.w3.org/2000/svg">
<path fill-rule="evenodd" clip-rule="evenodd" d="M14.1211 8H14.121C13.7257 8.00001 13.3846 8.00002 13.1037 7.97707C12.8072 7.95285 12.5123 7.89936 12.2285 7.75477C11.8052 7.53905 11.461 7.19484 11.2452 6.77148C11.1006 6.48769 11.0472 6.19278 11.0229 5.89627C11.01 5.73851 11.0044 5.55266 11.0019 5.35H11V5V4.99977V4.99975L11 4.92615L11 4.85V4.5H11.003C11.006 4.36405 11.0117 4.24119 11.0229 4.10373C11.0472 3.80722 11.1006 3.51231 11.2452 3.22852C11.461 2.80516 11.8052 2.46095 12.2285 2.24524C12.5123 2.10064 12.8072 2.04716 13.1037 2.02293C13.3846 1.99998 13.7257 1.99999 14.121 2H14.1211H14.1211H14.5H14.8789H14.8789H14.879C15.2743 1.99999 15.6154 1.99998 15.8963 2.02293C16.1928 2.04716 16.4877 2.10064 16.7715 2.24524C17.1948 2.46095 17.539 2.80516 17.7548 3.22852C17.8994 3.51231 17.9528 3.80722 17.9771 4.10373C17.9883 4.24119 17.994 4.36405 17.997 4.5H18V4.85L18 4.92479L18 4.99977V5V5.35H17.9981C17.9956 5.55266 17.99 5.73851 17.9771 5.89627C17.9528 6.19278 17.8994 6.48769 17.7548 6.77148C17.539 7.19484 17.1948 7.53905 16.7715 7.75477C16.4877 7.89936 16.1928 7.95285 15.8963 7.97707C15.6154 8.00003 15.2743 8.00001 14.879 8H14.8789H14.8789L14.5 8H14.1211H14.1211ZM16.4821 4.22588C16.4984 4.42557 16.4999 4.5517 16.5 4.92501C16.4999 5.31515 16.4984 5.57417 16.4821 5.77412C16.4654 5.97787 16.4371 6.05341 16.4183 6.09049C16.3463 6.23162 16.2316 6.34635 16.0905 6.41826C16.0534 6.43715 15.9779 6.46541 15.7741 6.48206C15.5616 6.49942 15.2824 6.5 14.85 6.5L14.5 6.5L14.15 6.5C13.7176 6.5 13.4384 6.49942 13.2259 6.48206C13.0221 6.46541 12.9466 6.43715 12.9095 6.41826C12.7684 6.34635 12.6537 6.23162 12.5817 6.09049C12.5629 6.05341 12.5346 5.97787 12.5179 5.77412C12.5016 5.57446 12.5001 5.31591 12.5 4.92672C12.5001 4.55209 12.5016 4.42588 12.5179 4.22588C12.5346 4.02213 12.5629 3.94659 12.5817 3.90951C12.6537 3.76839 12.7684 3.65365 12.9095 3.58175C12.9466 3.56285 13.0221 3.5346 13.2259 3.51795C13.4384 3.50059 13.7176 3.5 14.15 3.5L14.5 3.5L14.85 3.5C15.2824 3.5 15.5616 3.50059 15.7741 3.51795C15.9779 3.53459 16.0534 3.56285 16.0905 3.58175C16.2316 3.65365 16.3463 3.76839 16.4183 3.90951C16.4372 3.94659 16.4654 4.02213 16.4821 4.22588ZM11 13.1211V13.121C11 12.7257 11 12.3847 11.0229 12.1037C11.0472 11.8072 11.1006 11.5123 11.2452 11.2285C11.461 10.8052 11.8052 10.461 12.2285 10.2452C12.5123 10.1006 12.8072 10.0472 13.1037 10.0229C13.3847 9.99998 13.7546 9.99999 14.15 10H14.15H14.5H14.85H14.85C15.2454 9.99999 15.6153 9.99998 15.8963 10.0229C16.1928 10.0472 16.4877 10.1006 16.7715 10.2452C17.1948 10.461 17.5391 10.8052 17.7548 11.2285C17.8994 11.5123 17.9528 11.8072 17.9771 12.1037C18 12.3847 18 12.7257 18 13.1211V13.1211V14L18 14.8789V14.8789C18 15.2743 18 15.6154 17.9771 15.8963C17.9528 16.1928 17.8994 16.4877 17.7548 16.7715C17.5391 17.1948 17.1948 17.5391 16.7715 17.7548C16.4877 17.8994 16.1928 17.9529 15.8963 17.9771C15.6154 18 15.2454 18 14.85 18H14.85H14.5H14.15H14.15C13.7546 18 13.3847 18 13.1037 17.9771C12.8072 17.9529 12.5123 17.8994 12.2285 17.7548C11.8052 17.5391 11.461 17.1948 11.2452 16.7715C11.1006 16.4877 11.0472 16.1928 11.0229 15.8963C11 15.6154 11 15.2743 11 14.879V14.8789V14.8789V14V13.1211V13.1211ZM14.85 16.5L14.5 16.5L14.15 16.5C13.7176 16.5 13.4384 16.4994 13.2259 16.4821C13.0221 16.4654 12.9466 16.4372 12.9095 16.4183C12.7684 16.3464 12.6537 16.2316 12.5817 16.0905C12.5629 16.0534 12.5346 15.9779 12.5179 15.7741C12.5006 15.5616 12.5 15.2824 12.5 14.85L12.5 14L12.5 13.15C12.5 12.7176 12.5006 12.4384 12.5179 12.2259C12.5346 12.0221 12.5629 11.9466 12.5817 11.9095C12.6537 11.7684 12.7684 11.6537 12.9095 11.5818C12.9466 11.5629 13.0221 11.5346 13.2259 11.518C13.4384 11.5006 13.7176 11.5 14.15 11.5L14.5 11.5L14.85 11.5C15.2824 11.5 15.5616 11.5006 15.7741 11.518C15.9779 11.5346 16.0534 11.5629 16.0905 11.5818C16.2316 11.6537 16.3464 11.7684 16.4183 11.9095C16.4372 11.9466 16.4654 12.0221 16.4821 12.2259C16.4994 12.4384 16.5 12.7176 16.5 13.15L16.5 14L16.5 14.85C16.5 15.2824 16.4994 15.5616 16.4821 15.7741C16.4654 15.9779 16.4372 16.0534 16.4183 16.0905C16.3464 16.2316 16.2316 16.3464 16.0905 16.4183C16.0534 16.4372 15.9779 16.4654 15.7741 16.4821C15.5616 16.4994 15.2824 16.5 14.85 16.5ZM2 5.12104V5.12107V5.1211V6V6.87891V6.87894V6.87897C1.99999 7.2743 1.99998 7.61536 2.02293 7.89627C2.04716 8.19278 2.10064 8.4877 2.24524 8.77148C2.46095 9.19485 2.80516 9.53905 3.22852 9.75477C3.51231 9.89936 3.80722 9.95285 4.10373 9.97708C4.38465 10 4.75462 10 5.14996 10H5.15H5.5H5.85H5.85004C6.24539 10 6.61535 10 6.89627 9.97708C7.19278 9.95285 7.48769 9.89936 7.77148 9.75477C8.19484 9.53905 8.53905 9.19485 8.75476 8.77148C8.89936 8.4877 8.95285 8.19278 8.97707 7.89627C9.00002 7.61535 9.00001 7.27429 9 6.87894V6.87891L9 6V5.1211V5.12107C9.00001 4.72572 9.00003 4.38466 8.97707 4.10373C8.95285 3.80723 8.89936 3.51231 8.75476 3.22853C8.53905 2.80516 8.19484 2.46096 7.77148 2.24524C7.48769 2.10065 7.19278 2.04716 6.89627 2.02293C6.61534 1.99998 6.24537 1.99999 5.85001 2H5.85H5.5H5.15H5.14999C4.75464 1.99999 4.38466 1.99998 4.10373 2.02293C3.80722 2.04716 3.51231 2.10065 3.22852 2.24524C2.80516 2.46096 2.46095 2.80516 2.24524 3.22853C2.10064 3.51231 2.04716 3.80723 2.02293 4.10373C1.99998 4.38464 1.99999 4.72569 2 5.12102V5.12104ZM5.5 8.5L5.85 8.5C6.28241 8.5 6.56162 8.49942 6.77412 8.48206C6.97787 8.46541 7.05341 8.43715 7.09049 8.41826C7.23161 8.34635 7.34635 8.23162 7.41825 8.0905C7.43715 8.05341 7.46541 7.97787 7.48205 7.77413C7.49942 7.56162 7.5 7.28242 7.5 6.85L7.5 6L7.5 5.15001C7.5 4.71759 7.49942 4.43839 7.48205 4.22588C7.46541 4.02213 7.43715 3.9466 7.41825 3.90951C7.34635 3.76839 7.23161 3.65366 7.09049 3.58175C7.05341 3.56286 6.97787 3.5346 6.77412 3.51795C6.56162 3.50059 6.28242 3.50001 5.85 3.50001L5.5 3.5L5.15 3.50001C4.71759 3.50001 4.43838 3.50059 4.22588 3.51795C4.02213 3.5346 3.94659 3.56286 3.90951 3.58175C3.76839 3.65366 3.65365 3.76839 3.58175 3.90951C3.56285 3.9466 3.5346 4.02213 3.51795 4.22588C3.50059 4.43839 3.5 4.71759 3.5 5.15001L3.5 6L3.5 6.85C3.5 7.28242 3.50059 7.56162 3.51795 7.77413C3.53459 7.97787 3.56285 8.05341 3.58175 8.0905C3.65365 8.23162 3.76839 8.34635 3.90951 8.41826C3.94659 8.43715 4.02213 8.46541 4.22588 8.48206C4.43838 8.49942 4.71759 8.5 5.15 8.5L5.5 8.5ZM2 15.1211L2.00002 14.9999L2 14.879V14.8789V14.8789V14.5H2.00421C2.00741 14.3571 2.01304 14.2248 2.02293 14.1037C2.04715 13.8072 2.10064 13.5123 2.24524 13.2285C2.46095 12.8052 2.80516 12.461 3.22852 12.2452C3.51231 12.1006 3.80722 12.0472 4.10373 12.0229C4.38466 12 4.75463 12 5.14999 12H5.15H5.5H5.85H5.85001C6.24537 12 6.61534 12 6.89627 12.0229C7.19278 12.0472 7.48769 12.1006 7.77148 12.2452C8.19484 12.461 8.53905 12.8052 8.75476 13.2285C8.89936 13.5123 8.95285 13.8072 8.97707 14.1037C8.98696 14.2248 8.99259 14.3571 8.99579 14.5H9V14.8789V14.8789L8.99998 15.0004L9 15.1211V15.1211V15.5H8.99579C8.99259 15.643 8.98696 15.7752 8.97707 15.8963C8.95285 16.1928 8.89936 16.4877 8.75476 16.7715C8.53905 17.1948 8.19484 17.5391 7.77148 17.7548C7.48769 17.8994 7.19278 17.9529 6.89627 17.9771C6.61534 18 6.24536 18 5.85 18H5.5H5.15C4.75464 18 4.38466 18 4.10373 17.9771C3.80722 17.9529 3.51231 17.8994 3.22852 17.7548C2.80516 17.5391 2.46095 17.1948 2.24524 16.7715C2.10064 16.4877 2.04716 16.1928 2.02293 15.8963C2.01304 15.7752 2.00741 15.643 2.00421 15.5H2V15.1211V15.1211ZM7.48205 14.2259C7.49732 14.4128 7.49961 14.6513 7.49995 15.0003C7.49961 15.3489 7.49732 15.5873 7.48205 15.7741C7.46541 15.9779 7.43715 16.0534 7.41825 16.0905C7.34635 16.2316 7.23161 16.3464 7.09049 16.4183C7.05341 16.4372 6.97787 16.4654 6.77412 16.4821C6.56162 16.4994 6.28241 16.5 5.85 16.5L5.5 16.5L5.15 16.5C4.71759 16.5 4.43838 16.4994 4.22588 16.4821C4.02213 16.4654 3.94659 16.4372 3.90951 16.4183C3.76839 16.3464 3.65365 16.2316 3.58175 16.0905C3.56285 16.0534 3.53459 15.9779 3.51795 15.7741C3.50268 15.5872 3.50039 15.3487 3.50006 14.9997C3.50039 14.651 3.50268 14.4127 3.51795 14.2259C3.53459 14.0221 3.56285 13.9466 3.58175 13.9095C3.65365 13.7684 3.76839 13.6537 3.90951 13.5818C3.94659 13.5629 4.02213 13.5346 4.22588 13.518C4.43838 13.5006 4.71759 13.5 5.15 13.5L5.5 13.5L5.85 13.5C6.28241 13.5 6.56162 13.5006 6.77412 13.518C6.97787 13.5346 7.05341 13.5629 7.09049 13.5818C7.23161 13.6537 7.34635 13.7684 7.41825 13.9095C7.43715 13.9466 7.46541 14.0221 7.48205 14.2259Z" fill="#99A2AD"/>
</svg>
