<svg width="20" height="20" viewBox="0 0 20 20" fill="none" xmlns="http://www.w3.org/2000/svg">
<path d="M8.25003 2.75C8.25003 2.33579 7.91424 2 7.50003 2C7.08581 2 6.75003 2.33579 6.75003 2.75V4H2.75003C2.33581 4 2.00003 4.33579 2.00003 4.75C2.00003 5.16421 2.33581 5.5 2.75003 5.5H8.49915C8.49554 6.24501 8.4779 6.58916 8.39577 6.90558C8.29108 7.30887 8.10982 7.68826 7.86187 8.0231C7.65272 8.30554 7.37178 8.55014 6.69778 9.09698L5.35003 7.29998C5.1015 6.96861 4.6314 6.90145 4.30002 7.14998C3.96865 7.39851 3.9015 7.86861 4.15003 8.19998L5.53028 10.0403L2.27877 12.6665C1.95654 12.9268 1.9063 13.399 2.16657 13.7213C2.42684 14.0435 2.89904 14.0937 3.22128 13.8335L6.43086 11.2411L7.15003 12.2C7.39855 12.5314 7.86865 12.5985 8.20003 12.35C8.5314 12.1015 8.59855 11.6314 8.35003 11.3L7.59853 10.298C8.27767 9.74903 8.72713 9.37518 9.06733 8.91577C9.42973 8.42639 9.69464 7.87188 9.84765 7.28246C9.97837 6.77888 9.99709 6.24942 9.99966 5.5H12.25C12.6642 5.5 13 5.16421 13 4.75C13 4.33579 12.6642 4 12.25 4H8.25003V2.75Z" fill="#99A2AD"/>
<path fill-rule="evenodd" clip-rule="evenodd" d="M13.1708 7.41459C13.0438 7.1605 12.7841 7 12.5 7C12.2159 7 11.9563 7.1605 11.8292 7.41459L7.07921 16.9146C6.89396 17.2851 7.04413 17.7356 7.41462 17.9208C7.7851 18.1061 8.23561 17.9559 8.42085 17.5854L9.96355 14.5H15.0365L16.5792 17.5854C16.7644 17.9559 17.215 18.1061 17.5854 17.9208C17.9559 17.7356 18.1061 17.2851 17.9208 16.9146L13.1708 7.41459ZM12.5 9.42705L14.2865 13H10.7136L12.5 9.42705Z" fill="#99A2AD"/>
</svg>
