<svg width="20" height="20" viewBox="0 0 20 20" fill="none" xmlns="http://www.w3.org/2000/svg">
<path fill-rule="evenodd" clip-rule="evenodd" d="M10 5.75C10.4142 5.75 10.75 6.08579 10.75 6.5V9.33659C10.75 9.46554 10.7502 9.53758 10.7527 9.59213C10.7558 9.66052 10.7764 9.70734 10.8205 9.7556C10.8573 9.79591 10.9082 9.84694 10.9994 9.93806L12.5328 11.4693C12.8259 11.762 12.8263 12.2368 12.5336 12.53C12.2409 12.8231 11.766 12.8234 11.4729 12.5307C10.9504 12.009 10.4288 11.4863 9.90539 10.9655C9.76678 10.8276 9.61847 10.68 9.50835 10.5005C9.41224 10.3438 9.3414 10.173 9.29845 9.99426C9.24925 9.7895 9.24962 9.58028 9.24996 9.38475C9.25164 8.42317 9.25001 7.46158 9.25001 6.5C9.25001 6.08579 9.5858 5.75 10 5.75Z" fill="#99A2AD"/>
<path d="M8.10581 3.26116C9.49277 2.8713 10.9662 2.9189 12.3251 3.39744C13.684 3.87599 14.8622 4.76218 15.6988 5.93508C16.5354 7.10798 16.9898 8.51046 16.9998 9.95113C17.0099 11.3918 16.5752 12.8005 15.755 13.985C14.9349 15.1694 13.7692 16.072 12.4171 16.5695C11.065 17.0669 9.59235 17.1351 8.20008 16.7646C7.09923 16.4717 6.09102 15.9159 5.25941 15.1504C4.95464 14.8699 4.48017 14.8896 4.19966 15.1943C3.91914 15.4991 3.9388 15.9736 4.24356 16.2541C5.25337 17.1835 6.47761 17.8585 7.81439 18.2142C9.50499 18.664 11.2932 18.5813 12.935 17.9772C14.5769 17.3731 15.9923 16.2772 16.9882 14.8389C17.9842 13.4006 18.512 11.69 18.4998 9.94066C18.4876 8.19127 17.9359 6.48826 16.92 5.06402C15.9041 3.63979 14.4735 2.5637 12.8234 1.98261C11.1733 1.40152 9.38407 1.34372 7.69991 1.81712C6.29759 2.2113 5.02498 2.95776 4.00001 3.97919V3.00305C4.00001 2.58884 3.66423 2.25305 3.25001 2.25305C2.8358 2.25305 2.50001 2.58884 2.50001 3.00305C2.50001 3.78977 2.50057 4.5765 2.50001 5.36322C2.49997 5.4206 2.49991 5.5018 2.50591 5.57527C2.51311 5.66334 2.53253 5.8039 2.60901 5.95399C2.70488 6.14215 2.85786 6.29513 3.04602 6.39101C3.19611 6.46748 3.33667 6.48691 3.42474 6.4941C3.49821 6.50011 3.57942 6.50005 3.63679 6.50001C4.42453 6.49943 5.21227 6.5 6.00001 6.5C6.41423 6.5 6.75001 6.16421 6.75001 5.75C6.75001 5.33579 6.41423 5 6.00001 5H5.10103C5.93774 4.18019 6.97012 3.58039 8.10581 3.26116Z" fill="#99A2AD"/>
</svg>
