<svg width="20" height="20" viewBox="0 0 20 20" fill="none" xmlns="http://www.w3.org/2000/svg">
<path d="M10 6.5C10 8.16666 8.433 9 6.5 9C4.567 9 3 8.16666 3 6.5C3 4.83333 4.567 4 6.5 4C8.433 4 10 4.83333 10 6.5Z" fill="#99A2AD"/>
<path fill-rule="evenodd" clip-rule="evenodd" d="M15.7584 1.0002C16.1782 0.982177 16.6404 1.12841 17.0115 1.46299C17.3962 1.80998 17.674 2.2532 17.8345 2.69672C17.9899 3.12626 18.0607 3.62977 17.9352 4.09158L15.2368 14.7132C14.8317 16.5502 13.198 17.3505 11.6368 17.6993C10.0459 18.0546 8.23132 18.0179 6.96901 17.9694C5.69363 17.9205 4.55054 17.7175 3.80885 17.0194C3.01105 16.2685 2.8844 15.1652 3.08283 13.8851L3.08335 13.8818C3.17579 13.3027 3.4404 12.8306 3.87216 12.503C4.28321 12.1912 4.77864 12.0614 5.25289 12.0158C6.18035 11.9265 7.30894 12.1384 8.30996 12.3477C8.48678 12.3847 8.66012 12.4217 8.82959 12.4578C9.67953 12.6392 10.4323 12.7999 11.0396 12.8331C11.4023 12.853 11.6184 12.8192 11.7312 12.7739C11.7926 12.7492 11.7949 12.7397 11.8011 12.713C11.8017 12.7105 11.8023 12.7079 11.803 12.7051L11.8042 12.7002L14.5923 1.83357C14.5979 1.81185 14.6044 1.7904 14.6119 1.76926C14.8165 1.19257 15.3878 1.0161 15.7584 1.0002ZM15.9594 2.54106L13.2577 13.0709C13.1197 13.6204 12.7518 13.9802 12.2907 14.1656C11.8744 14.333 11.3973 14.355 10.9576 14.3309C10.2215 14.2906 9.32502 14.0985 8.4795 13.9173C8.31831 13.8827 8.15897 13.8486 8.00295 13.8159C6.96596 13.5991 6.06003 13.445 5.39661 13.5089C5.07541 13.5398 4.88631 13.6164 4.77876 13.698C4.69211 13.7638 4.60423 13.8718 4.56484 14.1167C4.39186 15.2345 4.58733 15.6922 4.83692 15.9271C5.14275 16.215 5.77251 16.4224 7.02655 16.4705C8.29366 16.5192 9.9302 16.5435 11.3098 16.2354C12.7152 15.9214 13.567 15.3366 13.7738 14.382C13.7757 14.3733 13.7777 14.3647 13.7799 14.3561L16.4831 3.71533L16.4874 3.69931C16.5072 3.62779 16.5126 3.45214 16.4239 3.20698C16.3393 2.97296 16.1922 2.74407 16.0069 2.57694C15.9911 2.56267 15.9751 2.55083 15.9594 2.54106Z" fill="#99A2AD"/>
</svg>
