<svg width="20" height="20" viewBox="0 0 20 20" fill="none" xmlns="http://www.w3.org/2000/svg">
<path fill-rule="evenodd" clip-rule="evenodd" d="M10.3096 3.53661C10.1064 3.48466 9.89348 3.48466 9.69032 3.53661C9.4937 3.58688 9.2908 3.71789 8.5649 4.2425L4.5149 7.16939C3.99321 7.54641 3.85773 7.65301 3.76362 7.77389C3.66658 7.89854 3.59404 8.04046 3.54986 8.19212C3.50701 8.3392 3.49996 8.51145 3.49996 9.15511V14.05C3.49996 14.6225 3.50054 15.0067 3.52472 15.3026C3.54818 15.5897 3.59006 15.727 3.6362 15.8175C3.75604 16.0527 3.94727 16.244 4.18247 16.3638C4.27303 16.4099 4.41031 16.4518 4.69744 16.4753C4.99332 16.4995 5.37753 16.5 5.94996 16.5H14.05C14.6224 16.5 15.0066 16.4995 15.3025 16.4753C15.5896 16.4518 15.7269 16.4099 15.8174 16.3638C16.0527 16.244 16.2439 16.0527 16.3637 15.8175C16.4099 15.727 16.4517 15.5897 16.4752 15.3026C16.4994 15.0067 16.5 14.6225 16.5 14.05V9.15511C16.5 8.51145 16.4929 8.3392 16.4501 8.19212C16.4059 8.04046 16.3333 7.89854 16.2363 7.77389C16.1422 7.65301 16.0067 7.54641 15.485 7.16939L11.435 4.2425C10.7091 3.71789 10.5062 3.58688 10.3096 3.53661ZM9.31875 2.08336C9.7657 1.96908 10.2342 1.96908 10.6812 2.08336C11.1906 2.21362 11.6389 2.53824 12.2108 2.95236C12.2447 2.97685 12.2789 3.00165 12.3136 3.02675L16.3636 5.95364C16.3881 5.97134 16.4123 5.9888 16.4362 6.00604C16.8511 6.30541 17.1773 6.54084 17.4199 6.85244C17.6334 7.12667 17.793 7.43888 17.8902 7.77254C18.0006 8.15167 18.0004 8.554 18 9.06558C18 9.09506 18 9.1249 18 9.15511V14.0805C18 14.6146 18 15.0605 17.9702 15.4247C17.9392 15.8046 17.8721 16.1612 17.7002 16.4985C17.4366 17.016 17.0159 17.4367 16.4984 17.7003C16.1612 17.8721 15.8045 17.9393 15.4246 17.9703C15.0604 18.0001 14.6146 18 14.0804 18H5.91951C5.38536 18 4.93952 18.0001 4.57529 17.9703C4.1954 17.9393 3.83875 17.8721 3.50149 17.7003C2.98404 17.4367 2.56334 17.016 2.29969 16.4985C2.12785 16.1612 2.06074 15.8046 2.0297 15.4247C1.99994 15.0605 1.99995 14.6146 1.99996 14.0805L1.99996 9.15511C1.99996 9.1249 1.99994 9.09506 1.99992 9.06558C1.99956 8.55399 1.99928 8.15167 2.10973 7.77254C2.20695 7.43888 2.36652 7.12667 2.58002 6.85244C2.8226 6.54085 3.14885 6.30541 3.5637 6.00605C3.5876 5.9888 3.6118 5.97134 3.63629 5.95364L7.68629 3.02675C7.72101 3.00165 7.75527 2.97685 7.78909 2.95235C8.36098 2.53824 8.80929 2.21362 9.31875 2.08336Z" fill="#99A2AD"/>
<path fill-rule="evenodd" clip-rule="evenodd" d="M9.99996 7.00003C10.4142 7.00003 10.75 7.33581 10.75 7.75003V12.4394L11.9696 11.2197C12.2625 10.9268 12.7374 10.9268 13.0303 11.2197C13.3232 11.5126 13.3232 11.9875 13.0303 12.2804L10.5303 14.7804C10.2374 15.0733 9.76252 15.0733 9.46963 14.7804L6.96963 12.2804C6.67674 11.9875 6.67674 11.5126 6.96963 11.2197C7.26252 10.9268 7.7374 10.9268 8.03029 11.2197L9.24996 12.4394V7.75003C9.24996 7.33581 9.58575 7.00003 9.99996 7.00003Z" fill="#99A2AD"/>
</svg>
