<svg width="20" height="20" viewBox="0 0 20 20" fill="none" xmlns="http://www.w3.org/2000/svg">
<path d="M2.99997 10.999L2.95921 10.9989L2.77786 10.9879C2.26208 10.9316 1.78611 10.681 1.44749 10.286C0.712571 9.42855 0.811866 8.13771 1.66928 7.40279L8.21029 1.7962C9.24014 0.913474 10.7598 0.913474 11.7896 1.7962L18.3307 7.40279C18.7839 7.79125 19.0447 8.35836 19.0447 8.95527C19.0447 10.0845 18.1292 11 17 11V15.25C17 16.4926 15.9926 17.5 14.75 17.5H11.95C11.4253 17.5 11 17.0747 11 16.55V13.5C11 12.9477 10.5523 12.5 9.99997 12.5C9.44769 12.5 8.99997 12.9477 8.99997 13.5V16.55C8.99997 17.0747 8.57464 17.5 8.04997 17.5H5.24997C4.00733 17.5 2.99997 16.4926 2.99997 15.25V10.999ZM14.75 16C15.1642 16 15.5 15.6642 15.5 15.25V10.35C15.5 9.88056 15.8805 9.5 16.35 9.5H17C17.3008 9.5 17.5447 9.25611 17.5447 8.95527C17.5447 8.79624 17.4752 8.64516 17.3545 8.54167L10.8135 2.93508C10.3453 2.53385 9.65459 2.53385 9.18648 2.93508L2.64546 8.54167C2.41704 8.73746 2.39059 9.08135 2.58638 9.30977C2.67658 9.41501 2.80341 9.48178 2.90007 9.49345L2.99997 9.5H3.64997C4.11941 9.5 4.49997 9.88056 4.49997 10.35V15.25C4.49997 15.6642 4.83576 16 5.24997 16H7.49997V13.5C7.49997 12.1193 8.61926 11 9.99997 11C11.3807 11 12.5 12.1193 12.5 13.5V16H14.75Z" fill="#99A2AD"/>
</svg>
