<svg width="20" height="20" viewBox="0 0 20 20" fill="none" xmlns="http://www.w3.org/2000/svg">
<path fill-rule="evenodd" clip-rule="evenodd" d="M5.01474 10.2367C5.21524 9.26202 6.02923 8.23283 7.35277 8.23283H9.92963C9.92963 8.23283 10.152 8.24594 10.3046 8.08984C10.441 7.95036 10.441 7.74219 10.441 7.74219L10.441 6.94606C10.441 4.80145 12.1135 3 14.3234 3C15.2378 3 15.9123 3.22099 16.4702 3.60182C16.5074 3.6272 16.5441 3.6533 16.5803 3.68009C16.6283 3.71565 16.6755 3.75243 16.7219 3.79039C16.9259 3.95716 17.1152 4.14665 17.2969 4.35527C17.684 4.7995 17.5177 5.04278 16.7981 5.08512V8.03904C16.7981 8.32693 16.5581 8.56032 16.262 8.56032H16.1676C15.9498 8.56032 15.7965 8.56032 15.5588 8.37942C15.501 8.33544 15.4382 8.28076 15.3683 8.2128L14.3463 7.38301C14.2123 7.28521 14.1825 7.24584 14.0815 7.28513C13.9858 7.32235 13.9279 7.69222 13.9352 7.83411C13.939 7.90807 13.9601 7.98256 13.9734 8.0552L15.1087 14.1954C15.1087 14.1954 15.1414 14.3741 15.2929 14.4883C15.4444 14.6025 15.6764 14.589 15.7753 14.5502C15.9457 14.4834 16.1369 14.4837 16.3064 14.5531C16.4807 14.6244 16.6267 14.7644 16.7007 14.954C16.8439 15.3206 16.6642 15.734 16.2993 15.8786C16.1942 15.9201 16.0884 15.9599 15.9823 15.9986C15.8788 16.0363 15.7744 16.0729 15.6691 16.1085C15.4019 16.1988 15.1288 16.2822 14.8499 16.3587C14.5791 16.433 14.3027 16.5009 14.0209 16.5623C13.8885 16.5911 13.755 16.6185 13.6202 16.6445C12.3888 16.8818 11.0569 17 9.62495 17C8.2351 17 6.93955 16.8887 5.73864 16.6651C5.59746 16.6388 5.45759 16.611 5.31902 16.5816C5.04072 16.5226 4.76769 16.4573 4.49995 16.3858C4.2248 16.3123 3.95524 16.2321 3.69126 16.1453C3.5484 16.0983 3.40717 16.0494 3.26758 15.9986C3.16145 15.9599 3.05571 15.9201 2.95064 15.8786C2.58572 15.734 2.40601 15.3206 2.54918 14.954C2.622 14.7676 2.76433 14.6291 2.93477 14.5567C3.10013 14.4865 3.29195 14.4785 3.47238 14.5494C3.36506 14.4995 3.86426 14.6751 4.0765 14.4985C4.21201 14.3857 4.24264 14.2346 4.24264 14.2346L5.01474 10.2367ZM6.08588 15.1172C6.17142 15.2377 6.30928 15.3175 6.44916 15.3398C7.4445 15.4989 8.48035 15.5715 9.62495 15.5715C10.8026 15.5715 11.9012 15.487 12.9209 15.3186C13.0655 15.2948 13.1646 15.2243 13.2538 15.1094C13.3377 15.0014 13.3482 14.8669 13.3447 14.8009C13.2447 12.8879 11.7119 11.29 9.74994 11.25C7.74273 11.209 6.1032 12.8919 6.00464 14.8168C6.00152 14.8777 6.01169 15.0126 6.08588 15.1172ZM11.6115 13.9781C11.255 13.2602 10.5368 12.7664 9.71934 12.7497C8.89235 12.7328 8.1278 13.253 7.74905 13.9887C8.34286 14.0435 8.96791 14.0715 9.62495 14.0715C10.323 14.0715 10.9848 14.0399 11.6115 13.9781ZM2.95141 13.0152L3.54363 9.94354C3.91652 8.13114 5.47578 6.73283 7.35277 6.73283H8.94513C9.05353 3.90014 11.3126 1.5 14.3234 1.5C15.2245 1.5 16.0203 1.67024 16.7328 2.02184C17.439 2.3704 17.9807 2.85657 18.4279 3.36994C18.5843 3.54948 18.7947 3.82786 18.9116 4.19219C19.0454 4.60891 19.0628 5.18776 18.7009 5.71728C18.5801 5.89401 18.4397 6.03063 18.2981 6.13646V8.03904C18.2981 9.19492 17.3464 10.0603 16.262 10.0603H16.1676C16.1608 10.0603 16.1528 10.0604 16.1438 10.0604C16.0877 10.0608 15.9906 10.0615 15.8679 10.051L16.4192 13.033C17.155 13.1629 17.8067 13.6627 18.0979 14.4083C18.5415 15.544 17.9841 16.8287 16.8451 17.2758C14.7254 18.1078 12.3073 18.5 9.62495 18.5C6.94257 18.5 4.52448 18.1078 2.40481 17.2758C1.26579 16.8287 0.708395 15.544 1.15197 14.4083C1.45902 13.6222 2.16684 13.1092 2.95141 13.0152Z" fill="#99A2AD"/>
</svg>
