<svg width="20" height="20" viewBox="0 0 20 20" fill="none" xmlns="http://www.w3.org/2000/svg">
<path fill-rule="evenodd" clip-rule="evenodd" d="M3.25097 4.5C2.83622 4.5 2.5 4.83579 2.5 5.25C2.5 5.66421 2.83622 6 3.25097 6H16.749C17.1638 6 17.5 5.66421 17.5 5.25C17.5 4.83579 17.1638 4.5 16.749 4.5H3.25097ZM4.76839 7.75936C5.06735 7.47227 5.54275 7.48158 5.83022 7.78016C6.11769 8.07874 6.10837 8.55352 5.8094 8.84061L4.34853 10.2435L5.82984 11.7798C6.11752 12.0781 6.10855 12.5529 5.8098 12.8402C5.51105 13.1275 5.03564 13.1186 4.74795 12.8202L2.88437 10.8875C2.51977 10.5093 2.53136 9.90756 2.91025 9.54371L4.76839 7.75936ZM3.25097 14.5C2.83622 14.5 2.5 14.8358 2.5 15.25C2.5 15.6642 2.83622 16 3.25097 16H16.749C17.1638 16 17.5 15.6642 17.5 15.25C17.5 14.8358 17.1638 14.5 16.749 14.5H3.25097ZM7.50649 10.25C7.50649 9.83579 7.84271 9.5 8.25746 9.5H16.749C17.1638 9.5 17.5 9.83579 17.5 10.25C17.5 10.6642 17.1638 11 16.749 11H8.25746C7.84271 11 7.50649 10.6642 7.50649 10.25Z" fill="#99A2AD"/>
</svg>
