<svg width="20" height="20" viewBox="0 0 20 20" fill="none" xmlns="http://www.w3.org/2000/svg">
<path fill-rule="evenodd" clip-rule="evenodd" d="M3.25097 4.5C2.83622 4.5 2.5 4.83579 2.5 5.25C2.5 5.66421 2.83622 6 3.25097 6H16.749C17.1638 6 17.5 5.66421 17.5 5.25C17.5 4.83579 17.1638 4.5 16.749 4.5H3.25097ZM3.8068 7.75936C3.50784 7.47227 3.03244 7.48158 2.74497 7.78016C2.4575 8.07874 2.46683 8.55352 2.76579 8.84061L4.22666 10.2435L2.74536 11.7798C2.45767 12.0781 2.46664 12.5529 2.76539 12.8402C3.06415 13.1275 3.53955 13.1186 3.82724 12.8202L5.69083 10.8875C6.05542 10.5093 6.04383 9.90756 5.66494 9.54371L3.8068 7.75936ZM3.25097 14.5C2.83622 14.5 2.5 14.8358 2.5 15.25C2.5 15.6642 2.83622 16 3.25097 16H16.749C17.1638 16 17.5 15.6642 17.5 15.25C17.5 14.8358 17.1638 14.5 16.749 14.5H3.25097ZM7.50649 10.25C7.50649 9.83579 7.84271 9.5 8.25746 9.5H16.749C17.1638 9.5 17.5 9.83579 17.5 10.25C17.5 10.6642 17.1638 11 16.749 11H8.25746C7.84271 11 7.50649 10.6642 7.50649 10.25Z" fill="#99A2AD"/>
</svg>
