<svg width="20" height="20" viewBox="0 0 20 20" fill="none" xmlns="http://www.w3.org/2000/svg">
<path fill-rule="evenodd" clip-rule="evenodd" d="M15.4103 0.999936C16.3048 1.01081 17.2003 1.00237 18.095 1.00001C18.1154 0.999956 18.1672 0.99982 18.2168 1.00387C18.2798 1.00902 18.4018 1.02436 18.5359 1.09266C18.6958 1.17416 18.8259 1.30419 18.9074 1.46413C18.9757 1.59817 18.991 1.72021 18.9961 1.78327C19.0002 1.83287 19.0001 1.88457 19 1.90506C18.9976 2.7167 19 3.52838 19 4.34002C19 4.35565 19.0006 4.41247 18.9961 4.46677C18.991 4.52983 18.9757 4.65187 18.9074 4.78591C18.8259 4.94585 18.6958 5.07588 18.5359 5.15738C18.4018 5.22568 18.2798 5.24101 18.2168 5.24617C18.1625 5.2506 18.1056 5.25002 18.09 5.25002H16.75V6.58659C16.75 6.60222 16.7506 6.65904 16.7461 6.71334C16.741 6.7764 16.7257 6.89844 16.6574 7.03248C16.5759 7.19242 16.4458 7.32245 16.2859 7.40395C16.1518 7.47225 16.0298 7.48759 15.9668 7.49274C15.9125 7.49717 15.8556 7.49659 15.84 7.49659H14.75C14.75 7.94605 14.7489 8.39552 14.75 8.84498C14.7501 8.86547 14.7502 8.91717 14.7461 8.96677C14.741 9.02983 14.7257 9.15187 14.6574 9.28591C14.5759 9.44585 14.4458 9.57588 14.2859 9.65738C14.1518 9.72568 14.0298 9.74101 13.9668 9.74617C13.9172 9.75022 13.8654 9.75008 13.845 9.75003C13.318 9.74874 12.791 9.75002 12.264 9.75002C12.732 10.5593 13 11.4991 13 12.5C13 15.5376 10.5376 18 7.5 18C4.46243 18 2 15.5376 2 12.5C2 9.46245 4.46243 7.00001 7.5 7.00001C7.99611 7.00001 8.47791 7.06589 8.93661 7.18973L14.5934 1.34989C14.6115 1.33126 14.7038 1.22873 14.8239 1.15325C14.9146 1.0963 15.0138 1.05427 15.1178 1.02878C15.2437 0.99791 15.3697 0.999442 15.4103 0.999936ZM15.5677 2.50002L9.87247 8.3795C9.84762 8.40515 9.71474 8.55671 9.53872 8.64634C9.40568 8.71408 9.26468 8.75019 9.11546 8.75474C8.99525 8.75841 8.8963 8.73712 8.83821 8.72264C8.78373 8.70906 8.72402 8.69031 8.68339 8.67775C8.31033 8.5624 7.91315 8.50001 7.5 8.50001C5.29086 8.50001 3.5 10.2909 3.5 12.5C3.5 14.7092 5.29086 16.5 7.5 16.5C9.70914 16.5 11.5 14.7092 11.5 12.5C11.5 11.6434 11.2219 10.7974 10.7086 10.111C10.6975 10.0962 10.6701 10.0596 10.6465 10.0226C10.6171 9.97659 10.5613 9.88224 10.5316 9.75111C10.4965 9.59598 10.5055 9.43527 10.5576 9.28499C10.6009 9.16022 10.665 9.07365 10.7006 9.02951C10.7284 8.99496 10.7598 8.96149 10.772 8.94851C10.876 8.83767 10.9795 8.7263 11.0832 8.61519C11.1013 8.59581 11.1939 8.48897 11.3158 8.41016C11.4078 8.3507 11.5089 8.30677 11.6152 8.2801C11.7439 8.24781 11.8729 8.24941 11.9144 8.24993C12.3595 8.25545 12.8049 8.25002 13.25 8.25002C13.25 7.80056 13.2511 7.35109 13.25 6.90163C13.2499 6.88114 13.2498 6.82944 13.2539 6.77984C13.259 6.71678 13.2743 6.59475 13.3426 6.4607C13.4241 6.30076 13.5542 6.17073 13.7141 6.08924C13.8482 6.02094 13.9702 6.0056 14.0332 6.00044C14.0828 5.99639 14.1346 5.99653 14.155 5.99658C14.52 5.99757 14.885 5.99659 15.25 5.99659C15.25 5.54942 15.2511 5.10223 15.25 4.65506C15.2499 4.63457 15.2498 4.58286 15.2539 4.53327C15.259 4.47021 15.2743 4.34817 15.3426 4.21413C15.4241 4.05419 15.5542 3.92416 15.7141 3.84266C15.8482 3.77436 15.9702 3.75902 16.0332 3.75387C16.0875 3.74944 16.1444 3.75002 16.16 3.75002H17.5V2.50002H15.5677Z" fill="#99A2AD"/>
<path d="M7.5 13.5C7.5 14.0523 7.05228 14.5 6.5 14.5C5.94772 14.5 5.5 14.0523 5.5 13.5C5.5 12.9477 5.94772 12.5 6.5 12.5C7.05228 12.5 7.5 12.9477 7.5 13.5Z" fill="#99A2AD"/>
</svg>
