<svg width="20" height="20" viewBox="0 0 20 20" fill="none" xmlns="http://www.w3.org/2000/svg">
<path d="M6.66667 4.91667C6.66667 4.50245 7.00245 4.16667 7.41667 4.16667H16.75C17.1642 4.16667 17.5 4.50245 17.5 4.91667C17.5 5.33088 17.1642 5.66667 16.75 5.66667H7.41667C7.00245 5.66667 6.66667 5.33088 6.66667 4.91667Z" fill="#99A2AD"/>
<path d="M6.66667 9.99998C6.66667 9.58577 7.00245 9.24998 7.41667 9.24998H16.75C17.1642 9.24998 17.5 9.58577 17.5 9.99998C17.5 10.4142 17.1642 10.75 16.75 10.75H7.41667C7.00245 10.75 6.66667 10.4142 6.66667 9.99998Z" fill="#99A2AD"/>
<path d="M6.66667 15.0833C6.66667 14.6691 7.00245 14.3333 7.41667 14.3333H16.75C17.1642 14.3333 17.5 14.6691 17.5 15.0833C17.5 15.4975 17.1642 15.8333 16.75 15.8333H7.41667C7.00245 15.8333 6.66667 15.4975 6.66667 15.0833Z" fill="#99A2AD"/>
<path d="M5 10C5 10.6904 4.44036 11.25 3.75 11.25C3.05964 11.25 2.5 10.6904 2.5 10C2.5 9.30964 3.05964 8.75 3.75 8.75C4.44036 8.75 5 9.30964 5 10Z" fill="#99A2AD"/>
<path d="M5 15C5 15.6904 4.44036 16.25 3.75 16.25C3.05964 16.25 2.5 15.6904 2.5 15C2.5 14.3096 3.05964 13.75 3.75 13.75C4.44036 13.75 5 14.3096 5 15Z" fill="#99A2AD"/>
<path d="M5 5C5 5.69036 4.44036 6.25 3.75 6.25C3.05964 6.25 2.5 5.69036 2.5 5C2.5 4.30964 3.05964 3.75 3.75 3.75C4.44036 3.75 5 4.30964 5 5Z" fill="#99A2AD"/>
</svg>
