<svg width="20" height="20" viewBox="0 0 20 20" fill="none" xmlns="http://www.w3.org/2000/svg">
<path fill-rule="evenodd" clip-rule="evenodd" d="M2 4.75C2 4.33579 2.33579 4 2.75 4L17.25 4C17.6642 4 18 4.33579 18 4.75C18 5.16421 17.6642 5.5 17.25 5.5L2.75 5.5C2.33579 5.5 2 5.16421 2 4.75ZM2 9.75C2 9.33579 2.33579 9 2.75 9L11.25 9C11.6642 9 12 9.33579 12 9.75C12 10.1642 11.6642 10.5 11.25 10.5L2.75 10.5C2.33579 10.5 2 10.1642 2 9.75ZM15.5 11C15.9142 11 16.25 11.3358 16.25 11.75V14H18.5C18.9142 14 19.25 14.3358 19.25 14.75C19.25 15.1642 18.9142 15.5 18.5 15.5H16.25V17.75C16.25 18.1642 15.9142 18.5 15.5 18.5C15.0858 18.5 14.75 18.1642 14.75 17.75V15.5H12.5C12.0858 15.5 11.75 15.1642 11.75 14.75C11.75 14.3358 12.0858 14 12.5 14H14.75V11.75C14.75 11.3358 15.0858 11 15.5 11ZM2 14.75C2 14.3358 2.33579 14 2.75 14H8C8.41421 14 8.75 14.3358 8.75 14.75C8.75 15.1642 8.41421 15.5 8 15.5H2.75C2.33579 15.5 2 15.1642 2 14.75Z" fill="#99A2AD"/>
</svg>
