<svg width="20" height="20" viewBox="0 0 20 20" fill="none" xmlns="http://www.w3.org/2000/svg">
<path fill-rule="evenodd" clip-rule="evenodd" d="M8.83939 11.3486L8.82387 11.175L8.65467 11.1601C7.68438 11.074 6.02506 10.9181 4.78604 10.7538C4.19015 10.6748 3.62897 10.5863 3.31099 10.4901C1.6335 9.98264 1.62239 7.90661 2.92338 7.21315C3.1631 7.08538 3.939 6.77837 4.89726 6.41179C5.88775 6.03289 7.14786 5.56282 8.41845 5.09644C10.9339 4.1731 13.5639 3.23677 14.1719 3.07623C15.9072 2.61802 17.3384 4.18624 16.9227 5.92189C16.7606 6.59867 15.8775 9.06877 15.0113 11.4311C14.1348 13.8217 13.2377 16.2025 13.0176 16.7536C12.3339 18.4652 10.012 18.3625 9.50742 16.6887C9.41378 16.3781 9.32653 15.8197 9.2482 15.2263C9.08506 13.9905 8.92704 12.324 8.83939 11.3486ZM3.74497 9.05431C3.92581 9.10902 4.36258 9.18458 4.98302 9.26683C5.58028 9.34602 6.28909 9.42435 6.97207 9.4938C7.65407 9.56316 8.30571 9.6232 8.78715 9.66593C9.0502 9.68927 9.31331 9.71177 9.57647 9.73378C9.94196 9.76361 10.233 10.0537 10.2634 10.4193C10.2859 10.6843 10.3089 10.9493 10.3327 11.2143C10.3762 11.6984 10.4372 12.3534 10.5072 13.0378C10.5773 13.7232 10.6559 14.4335 10.7347 15.03C10.8166 15.6505 10.8908 16.0828 10.9429 16.2556C10.9884 16.4064 11.1069 16.4868 11.2465 16.4915C11.4317 16.4979 11.5608 16.3583 11.6252 16.197C11.8362 15.6687 12.7263 13.3073 13.6036 10.9145C14.4913 8.4936 15.3288 6.13929 15.4646 5.57233C15.6447 4.82046 15.0767 4.38868 14.5545 4.52657C14.0338 4.66407 11.494 5.56529 8.93492 6.50464C7.66824 6.96959 6.4149 7.43715 5.43278 7.81285C4.41843 8.20089 3.76258 8.46547 3.62842 8.53698C3.54201 8.58303 3.48507 8.68265 3.49459 8.79847C3.506 8.93738 3.62028 9.01659 3.74497 9.05431Z" fill="#99A2AD"/>
</svg>
