<svg width="20" height="20" viewBox="0 0 20 20" fill="none" xmlns="http://www.w3.org/2000/svg">
<path d="M11.5008 6.50164C11.5008 7.33097 10.8285 8.00326 9.99917 8.00326C9.16985 8.00326 8.49755 7.33097 8.49755 6.50164C8.49755 5.67232 9.16985 5.00003 9.99917 5.00003C10.8285 5.00003 11.5008 5.67232 11.5008 6.50164Z" fill="#99A2AD"/>
<path fill-rule="evenodd" clip-rule="evenodd" d="M6.52293 2.98894C7.42735 2.10055 8.67195 1.5 10.003 1.5C11.3343 1.5 12.5785 2.1011 13.4824 2.98994C14.3858 3.87828 15.002 5.1066 15.002 6.42527C15.002 9.14084 13.2167 11.5678 11.9597 12.9567L11.914 13.0073C11.5876 13.3688 11.2871 13.7016 10.7408 13.8913C10.5026 13.974 10.2303 14.0006 10.0031 14.0006C9.77587 14.0006 9.50351 13.974 9.26535 13.8914C8.71899 13.7018 8.4184 13.369 8.09202 13.0075L8.04628 12.9569C6.78863 11.5677 5.002 9.1399 5.002 6.42386C5.002 5.1049 5.61901 3.87685 6.52293 2.98894ZM7.57407 4.05904C6.90516 4.7161 6.502 5.57498 6.502 6.42386C6.502 8.54158 7.93869 10.603 9.15829 11.9502C9.54195 12.374 9.60352 12.421 9.75707 12.4743C9.7793 12.482 9.86857 12.5006 10.003 12.5006C10.1374 12.5006 10.2267 12.482 10.2489 12.4743C10.4024 12.4209 10.464 12.374 10.8475 11.9502C12.0664 10.6034 13.502 8.54276 13.502 6.42527C13.502 5.5761 13.0991 4.71678 12.4306 4.05946C11.7627 3.40262 10.8824 3 10.003 3C9.1234 3 8.2425 3.40246 7.57407 4.05904Z" fill="#99A2AD"/>
<path d="M5.20153 12.9048C5.52212 12.6425 5.56938 12.17 5.30709 11.8494C5.0448 11.5288 4.57229 11.4816 4.2517 11.7439C3.45577 12.395 2.99829 13.4908 2.99829 14.3485C2.99829 15.7437 4.00689 16.796 5.25093 17.457C6.51759 18.13 8.19854 18.5046 9.96644 18.5046C11.7335 18.5046 13.4334 18.1305 14.7194 17.4353C15.9928 16.7469 17 15.6526 17 14.1931C17 13.2811 16.5306 12.3839 15.7467 11.755C15.4236 11.4958 14.9516 11.5476 14.6924 11.8706C14.4332 12.1937 14.485 12.6658 14.8081 12.925C15.2886 13.3105 15.5 13.7982 15.5 14.1931C15.5 14.8714 15.0382 15.5578 14.0061 16.1157C12.9867 16.6668 11.5447 17.0046 9.96644 17.0046C8.38893 17.0046 6.96081 16.6669 5.95475 16.1324C4.92607 15.5858 4.49829 14.935 4.49829 14.3485C4.49829 13.9199 4.7696 13.2582 5.20153 12.9048Z" fill="#99A2AD"/>
</svg>
