<svg width="20" height="20" viewBox="0 0 20 20" fill="none" xmlns="http://www.w3.org/2000/svg">
<path fill-rule="evenodd" clip-rule="evenodd" d="M6.95799 3.93214C7.77441 3.29902 8.83752 3 9.89222 3C11.6719 3 13.3908 3.80885 13.9696 5.40582C14.1112 5.79654 13.8998 6.22476 13.4975 6.36228C13.0952 6.49979 12.6542 6.29453 12.5126 5.90381C12.2253 5.111 11.2709 4.5 9.89222 4.5C9.12044 4.5 8.41619 4.7209 7.92184 5.10427C7.44625 5.47309 7.12977 6.01565 7.12977 6.77612C7.12977 7.56841 7.44584 8.00113 7.94278 8.32866C8.51063 8.70294 9.29894 8.92806 10.255 9.1936C10.2715 9.19819 10.2881 9.2028 10.3048 9.20743C11.1831 9.45129 12.2141 9.7375 13.0143 10.2731C13.8994 10.8654 14.5 11.7564 14.5 13.0952C14.5 14.4349 13.8655 15.4431 12.9383 16.0919C12.0372 16.7225 10.8869 17 9.801 17C8.01785 17 6.48193 16.3365 5.62081 15.0222C5.39184 14.6727 5.49796 14.2091 5.85782 13.9868C6.21769 13.7644 6.69503 13.8675 6.924 14.217C7.43342 14.9945 8.40504 15.5 9.801 15.5C10.6417 15.5 11.4547 15.2812 12.0353 14.8749C12.5898 14.4869 12.9554 13.9176 12.9554 13.0952C12.9554 12.2841 12.6347 11.8407 12.1379 11.5082C11.5714 11.1291 10.7838 10.9006 9.83021 10.6358C9.80438 10.6286 9.77841 10.6214 9.75231 10.6141C8.88245 10.3728 7.86571 10.0907 7.07536 9.5698C6.19037 8.98649 5.58517 8.10582 5.58517 6.77612C5.58517 5.55031 6.12283 4.57981 6.95799 3.93214Z" fill="#99A2AD"/>
</svg>
