<svg width="20" height="20" viewBox="0 0 20 20" fill="none" xmlns="http://www.w3.org/2000/svg">
<path fill-rule="evenodd" clip-rule="evenodd" d="M2.00298 8.21376C2.02147 5.53605 2.15466 4.07325 3.11395 3.11395C4.22791 2 6.02079 2 9.60656 2H10.3934C13.9792 2 15.7721 2 16.886 3.11395C17.83 4.05794 17.9741 5.48946 17.996 8.08643C17.9961 8.08738 17.9961 8.08835 17.9961 8.0893C17.9961 8.0989 17.9962 8.10851 17.9963 8.11813C17.9963 8.11864 17.9963 8.11914 17.9963 8.11964C17.9996 8.52988 18 8.96904 18 9.43978C18 9.4949 18 9.55045 18 9.60643V10.3933C18 10.3933 18 10.3934 18 10.3933C18 11.2898 18 12.0743 17.9826 12.764C17.9304 14.8332 17.7215 16.0506 16.886 16.886C15.7721 18 13.9792 18 10.3934 18H9.60656C6.02079 18 4.22791 18 3.11395 16.886C2 15.7721 2 13.9792 2 10.3934V9.60656C2 9.60651 2 9.6066 2 9.60656C2 9.43852 2 9.27429 2.00011 9.11401C2.00034 8.7995 2.00101 8.4997 2.00298 8.21376ZM10.3934 3.5H9.60656C7.77127 3.5 6.5457 3.50319 5.6332 3.62587C4.76384 3.74275 4.40644 3.94279 4.17461 4.17461C3.94279 4.40644 3.74275 4.76384 3.62587 5.6332C3.50991 6.49568 3.50071 7.63785 3.50005 9.3102L5.00001 10.1762L5 8.70526C4.99995 8.27244 4.99991 7.87561 5.04331 7.5528C5.0911 7.19732 5.20355 6.82159 5.51257 6.51257C5.82159 6.20355 6.19732 6.0911 6.5528 6.04331C6.87561 5.99991 7.27243 5.99995 7.70525 6H12.2948C12.7276 5.99995 13.1244 5.99991 13.4472 6.04331C13.8027 6.0911 14.1784 6.20355 14.4874 6.51257C14.7965 6.82159 14.9089 7.19732 14.9567 7.5528C15.0001 7.87561 15.0001 8.27243 15 8.70524L15 10.13L16.4999 9.26395C16.4991 7.61676 16.489 6.48771 16.3741 5.6332C16.2572 4.76385 16.0572 4.40644 15.8254 4.17461C15.5936 3.94279 15.2362 3.74275 14.3668 3.62587C13.4543 3.50319 12.2287 3.5 10.3934 3.5ZM16.4997 10.9962L12.5798 13.2594C12.1547 13.5049 11.7474 13.7401 11.3805 13.9063C10.9691 14.0927 10.5051 14.2428 9.96 14.2428C9.4149 14.2428 8.9509 14.0927 8.53951 13.9063C8.17262 13.7401 7.76536 13.5049 7.34027 13.2594L3.50036 11.0424C3.50037 11.0462 3.50037 11.0499 3.50038 11.0537C3.50188 12.0251 3.50926 12.8067 3.5447 13.4552C3.56313 13.7924 3.58915 14.0936 3.62587 14.3667C3.74275 15.236 3.94279 15.5934 4.17461 15.8253C4.40644 16.0571 4.76385 16.2571 5.6332 16.374C6.5457 16.4967 7.77127 16.4999 9.60656 16.4999H10.3934C12.2287 16.4999 13.4543 16.4967 14.3668 16.374C15.2362 16.2571 15.5936 16.0571 15.8254 15.8253C16.0572 15.5934 16.2572 15.236 16.3741 14.3667C16.4086 14.1101 16.4337 13.8287 16.4519 13.516C16.491 12.8431 16.4984 12.0251 16.4997 10.9962ZM13.5 10.996V8.75001C13.5 8.2574 13.4984 7.96339 13.4701 7.75267C13.4571 7.65611 13.4418 7.60775 13.4328 7.58597C13.4308 7.58093 13.4292 7.57761 13.4281 7.57568L13.4268 7.57324L13.4243 7.57187L13.42 7.56977L13.414 7.56717C13.3923 7.55821 13.3439 7.54291 13.2473 7.52993C13.0366 7.5016 12.7426 7.50001 12.25 7.50001H7.75001C7.2574 7.50001 6.96339 7.5016 6.75267 7.52993C6.65611 7.54291 6.60775 7.55821 6.58597 7.56717C6.58093 7.56924 6.57761 7.57086 6.57568 7.57187L6.57324 7.57324L6.57187 7.57568C6.57086 7.57761 6.56924 7.58093 6.56717 7.58597C6.55821 7.60775 6.54291 7.65611 6.52993 7.75267C6.5016 7.96339 6.50001 8.2574 6.50001 8.75001V11.0422L8.04 11.9314C8.97703 12.4724 9.44554 12.7428 9.96 12.7428C10.4745 12.7428 10.943 12.4724 11.88 11.9314L13.5 10.996Z" fill="#99A2AD"/>
</svg>
