<svg width="20" height="20" viewBox="0 0 20 20" fill="none" xmlns="http://www.w3.org/2000/svg">
<path d="M9.40991 5.40504C9.63266 5.37883 9.84035 5.45766 10.0129 5.58694C10.1851 5.71599 10.3274 5.89872 10.4248 6.0937L10.6303 6.50513C10.8901 7.02508 10.7035 7.65759 10.2031 7.95295C10.1828 7.96499 10.1579 7.99004 10.1437 8.01653C10.1364 8.03019 10.1349 8.03788 10.1347 8.04121C10.4267 8.47831 10.7494 8.85926 11.1369 9.24716C11.5211 9.63167 11.9662 9.96837 12.4056 10.2625C12.4056 10.2625 12.4067 10.2624 12.4082 10.2623C12.4093 10.2622 12.4106 10.2621 12.4117 10.262C12.4246 10.2603 12.4433 10.2547 12.4652 10.2441C12.4866 10.2338 12.5075 10.2205 12.5245 10.2068C12.5425 10.1923 12.5512 10.1813 12.5536 10.1772C12.8525 9.66999 13.4532 9.54437 13.9658 9.80093L14.3769 10.0066C14.7745 10.2057 15.0445 10.6331 14.9939 11.0638C14.9813 11.1716 14.9611 11.2667 14.9203 11.3573C14.8793 11.4486 14.82 11.5299 14.7358 11.6142C14.3023 12.0482 13.562 12.1005 12.7421 11.8513C11.9201 11.6015 10.9686 11.0469 10.1536 10.2312C9.3398 9.41661 8.79903 8.53126 8.54905 7.70707C8.30014 6.88645 8.3524 6.14553 8.78591 5.7116C8.95702 5.54033 9.18237 5.43181 9.40991 5.40504Z" fill="#99A2AD"/>
<path fill-rule="evenodd" clip-rule="evenodd" d="M8.31739 2H11.6826C12.6351 1.99999 13.3956 1.99999 14.0099 2.05018C14.6399 2.10165 15.1818 2.20963 15.6795 2.46322C16.4791 2.87068 17.1293 3.52085 17.5368 4.32054C17.7904 4.81824 17.8984 5.36012 17.9498 5.99013C18 6.60439 18 7.36493 18 8.31737V11.6826C18 12.6351 18 13.3956 17.9498 14.0099C17.8984 14.6399 17.7904 15.1818 17.5368 15.6795C17.1293 16.4791 16.4791 17.1293 15.6795 17.5368C15.1818 17.7904 14.6399 17.8984 14.0099 17.9498C13.3956 18 12.6351 18 11.6826 18H8.31737C7.36493 18 6.60439 18 5.99013 17.9498C5.36012 17.8984 4.81824 17.7904 4.32054 17.5368C3.52085 17.1293 2.87068 16.4791 2.46322 15.6795C2.20963 15.1818 2.10165 14.6399 2.05018 14.0099C1.99999 13.3956 1.99999 12.6351 2 11.6826V8.31739C1.99999 7.36494 1.99999 6.6044 2.05018 5.99013C2.10165 5.36012 2.20963 4.81824 2.46322 4.32054C2.87068 3.52085 3.52085 2.87068 4.32054 2.46322C4.81824 2.20963 5.36012 2.10165 5.99013 2.05018C6.60439 1.99999 7.36495 1.99999 8.31739 2ZM5.83972 3.57302C5.54794 7.02647 6.77221 9.16992 7.45733 10.112C7.57738 10.277 7.62497 10.4839 7.58911 10.6848C7.4843 11.2722 7.21617 12.3437 6.75453 13.3894C7.26915 13.2861 7.63322 13.1828 7.93681 13.0729C8.30794 12.9386 8.60111 12.7911 9.00618 12.5873C9.07262 12.5539 9.14207 12.5189 9.21536 12.4823C9.4376 12.3711 9.70044 12.3773 9.91723 12.4987C11.0324 13.1232 12.3808 13.5512 13.6384 13.7448C14.8345 13.929 15.8462 13.8859 16.4692 13.6815C16.4995 13.1673 16.5 12.5218 16.5 11.65V8.35C16.5 7.35753 16.4994 6.65829 16.4548 6.11228C16.4109 5.57503 16.3282 5.25252 16.2003 5.00153C15.9366 4.48408 15.5159 4.06338 14.9985 3.79973C14.7475 3.67184 14.425 3.58909 13.8877 3.54519C13.3417 3.50058 12.6425 3.5 11.65 3.5H8.35C7.35753 3.5 6.65829 3.50058 6.11228 3.54519C6.01462 3.55317 5.92405 3.56244 5.83972 3.57302ZM16.0177 15.3056C15.2246 15.4057 14.3162 15.3669 13.4101 15.2274C12.129 15.0301 10.7522 14.6161 9.5404 13.9978C9.19158 14.1728 8.85127 14.3372 8.44734 14.4834C7.90448 14.6799 7.26252 14.8395 6.30027 14.9942C6.26841 14.9993 6.23624 15.0024 6.20399 15.0034C6.00171 15.0095 5.80132 14.963 5.62248 14.8683C5.05296 14.5667 4.83573 13.8606 5.13726 13.2911C5.60571 12.4063 5.90747 11.3772 6.05241 10.7199C5.28017 9.57103 4.22961 7.44838 4.29866 4.31227C4.09882 4.51352 3.93008 4.7457 3.79973 5.00153C3.67184 5.25252 3.58909 5.57503 3.54519 6.11228C3.50058 6.65829 3.5 7.35753 3.5 8.35V11.65C3.5 12.6425 3.50058 13.3417 3.54519 13.8877C3.58909 14.425 3.67184 14.7475 3.79973 14.9985C4.06338 15.5159 4.48408 15.9366 5.00153 16.2003C5.25252 16.3282 5.57503 16.4109 6.11228 16.4548C6.65829 16.4994 7.35753 16.5 8.35 16.5H11.65C12.6425 16.5 13.3417 16.4994 13.8877 16.4548C14.425 16.4109 14.7475 16.3282 14.9985 16.2003C15.4093 15.991 15.7591 15.6827 16.0177 15.3056Z" fill="#99A2AD"/>
</svg>
