<svg width="20" height="20" viewBox="0 0 20 20" fill="none" xmlns="http://www.w3.org/2000/svg">
<path fill-rule="evenodd" clip-rule="evenodd" d="M10 7C8.34315 7 7 8.34315 7 10C7 11.6569 8.34315 13 10 13C11.6569 13 13 11.6569 13 10C13 8.34315 11.6569 7 10 7ZM8.5 10C8.5 9.17157 9.17157 8.5 10 8.5C10.8284 8.5 11.5 9.17157 11.5 10C11.5 10.8284 10.8284 11.5 10 11.5C9.17157 11.5 8.5 10.8284 8.5 10Z" fill="#99A2AD"/>
<path fill-rule="evenodd" clip-rule="evenodd" d="M3.58679 5.70331C3.5844 5.70948 3.58211 5.71569 3.57993 5.72193C3.57789 5.72778 3.57577 5.73284 3.56239 5.76474L3.56097 5.76813C3.5488 5.79716 3.52866 5.84555 3.51047 5.9034C3.50787 5.91168 3.50545 5.92002 3.50322 5.92839C3.38303 6.26836 3.29605 6.61965 3.24185 6.98164C3.23971 6.99595 3.2381 7.01033 3.23703 7.02474C3.08799 7.85373 3 8.88661 3 10C3 11.1124 3.08784 12.1467 3.24364 12.9783C3.2447 12.9917 3.24622 13.0051 3.24821 13.0184C3.30242 13.3803 3.3894 13.7316 3.50959 14.0716C3.51339 14.0859 3.51775 14.1001 3.52266 14.1141L3.52435 14.119C3.53752 14.1567 3.55314 14.2014 3.5697 14.2459C3.57474 14.2635 3.58062 14.2809 3.58732 14.2981C4.5437 16.747 7.0435 18.5 9.97455 18.5C13.1847 18.5 15.8831 16.4037 16.587 13.5773C16.5918 13.563 16.5968 13.5465 16.6012 13.5282C16.8464 12.654 17 11.3968 17 10C17 8.60185 16.8462 7.34688 16.6087 6.47029C16.6038 6.44969 16.5983 6.43131 16.593 6.41552C15.8825 3.59622 13.1849 1.5 9.97455 1.5C7.04455 1.5 4.53698 3.25224 3.58679 5.70331ZM4.94573 6.34473C4.94811 6.33917 4.96991 6.28842 4.98917 6.23572C5.70943 4.39043 7.64219 3 9.97455 3C12.5406 3 14.6062 4.66997 15.1385 6.78207L15.1531 6.84026L15.1618 6.86575C15.3549 7.58054 15.5 8.69563 15.5 10C15.5 11.3074 15.3542 12.4198 15.157 13.1231L15.156 13.1266L15.1461 13.156L15.1314 13.2148C14.6046 15.3305 12.5406 17 9.97455 17C7.65568 17 5.73488 15.6249 4.99959 13.7904L4.99578 13.7771L4.9753 13.7221C4.96747 13.7011 4.95949 13.6787 4.95011 13.6519L4.94372 13.628L4.92381 13.5716C4.83951 13.3332 4.77686 13.085 4.73628 12.8263L4.73264 12.7804L4.71799 12.7022C4.58281 11.9805 4.5 11.0413 4.5 10C4.5 8.95876 4.58279 8.0164 4.71336 7.29018L4.72718 7.21332L4.73028 7.17138C4.77087 6.91348 4.83339 6.66611 4.91745 6.42836L4.93736 6.37202L4.94267 6.35208L4.9443 6.34812L4.94573 6.34473Z" fill="#99A2AD"/>
</svg>
