<svg width="20" height="20" viewBox="0 0 20 20" fill="none" xmlns="http://www.w3.org/2000/svg">
<path fill-rule="evenodd" clip-rule="evenodd" d="M8.31739 2H8.35H11.65H11.6826C12.6351 1.99999 13.3956 1.99999 14.0099 2.05018C14.6399 2.10165 15.1818 2.20963 15.6795 2.46322C16.4791 2.87068 17.1293 3.52085 17.5368 4.32054C17.7904 4.81824 17.8984 5.36012 17.9498 5.99013C18 6.60439 18 7.36493 18 8.31737V8.35V10.1683C18 10.3073 18.0003 10.4448 18.0005 10.5801V10.5814C18.001 10.845 18.0015 11.1008 18 11.3425V11.65V11.6826C18 12.6351 18 13.3956 17.9498 14.0099C17.8984 14.6399 17.7904 15.1818 17.5368 15.6795C17.1293 16.4791 16.4791 17.1293 15.6795 17.5368C15.1818 17.7904 14.6399 17.8984 14.0099 17.9498C13.3956 18 12.6351 18 11.6826 18H11.65H8.35H8.31737C7.36493 18 6.60439 18 5.99013 17.9498C5.36012 17.8984 4.81824 17.7904 4.32054 17.5368C3.52085 17.1293 2.87068 16.4791 2.46322 15.6795C2.20963 15.1818 2.10165 14.6399 2.05018 14.0099C1.99999 13.3956 1.99999 12.6351 2 11.6826V11.65V8.35V8.31739C1.99999 7.36495 1.99999 6.60439 2.05018 5.99013C2.10165 5.36012 2.20963 4.81824 2.46322 4.32054C2.87068 3.52085 3.52085 2.87068 4.32054 2.46322C4.81824 2.20963 5.36012 2.10165 5.99013 2.05018C6.60439 1.99999 7.36495 1.99999 8.31739 2ZM16.5 8.35V10.1683V11.0899C15.3865 12.5311 13.8287 13.6027 12.029 14.0955V12.9636V12.2887L11.3578 12.2177C8.18511 11.8823 5.71249 9.19687 5.71249 5.93489C5.71249 5.08576 5.8796 4.27748 6.18205 3.53979C6.71767 3.50054 7.39931 3.5 8.35 3.5H11.65C12.6425 3.5 13.3417 3.50058 13.8877 3.54519C14.425 3.58909 14.7475 3.67184 14.9985 3.79973C15.5159 4.06338 15.9366 4.48408 16.2003 5.00153C16.3282 5.25252 16.4109 5.57503 16.4548 6.11228C16.4994 6.65829 16.5 7.35753 16.5 8.35ZM11.3995 15.7654C13.3443 15.4488 15.0936 14.572 16.4857 13.3079C16.479 13.5202 16.4692 13.7119 16.4548 13.8877C16.4109 14.425 16.3282 14.7475 16.2003 14.9985C15.9366 15.5159 15.5159 15.9366 14.9985 16.2003C14.7475 16.3282 14.425 16.4109 13.8877 16.4548C13.3417 16.4994 12.6425 16.5 11.65 16.5H8.35C7.35753 16.5 6.65829 16.4994 6.11228 16.4548C5.57503 16.4109 5.25252 16.3282 5.00153 16.2003C4.48408 15.9366 4.06338 15.5159 3.79973 14.9985C3.67184 14.7475 3.58909 14.425 3.54519 13.8877C3.50058 13.3417 3.5 12.6425 3.5 11.65V8.35C3.5 7.35753 3.50058 6.65829 3.54519 6.11228C3.58909 5.57503 3.67184 5.25252 3.79973 5.00153C3.95219 4.70231 4.15716 4.43544 4.40299 4.21259C4.27826 4.76714 4.21249 5.34362 4.21249 5.93489C4.21249 9.73929 6.92929 12.9083 10.529 13.6088V15.0251V15.907L11.3995 15.7654ZM8.00516 8.01031C8.56029 8.01031 9.01031 7.56029 9.01031 7.00516C9.01031 6.45002 8.56029 6 8.00516 6C7.45002 6 7 6.45002 7 7.00516C7 7.56029 7.45002 8.01031 8.00516 8.01031ZM12.0103 7.00516C12.0103 7.56029 11.5603 8.01031 11.0052 8.01031C10.45 8.01031 10 7.56029 10 7.00516C10 6.45002 10.45 6 11.0052 6C11.5603 6 12.0103 6.45002 12.0103 7.00516ZM14.0052 8.01031C14.5603 8.01031 15.0103 7.56029 15.0103 7.00516C15.0103 6.45002 14.5603 6 14.0052 6C13.45 6 13 6.45002 13 7.00516C13 7.56029 13.45 8.01031 14.0052 8.01031Z" fill="#99A2AD"/>
</svg>
