<svg width="20" height="20" viewBox="0 0 20 20" fill="none" xmlns="http://www.w3.org/2000/svg">
<path fill-rule="evenodd" clip-rule="evenodd" d="M8.31739 2H8.35H11.65H11.6826C12.6351 1.99999 13.3956 1.99999 14.0099 2.05018C14.6399 2.10165 15.1818 2.20963 15.6795 2.46322C16.4791 2.87068 17.1293 3.52085 17.5368 4.32054C17.7904 4.81824 17.8984 5.36012 17.9498 5.99013C18 6.60439 18 7.36493 18 8.31737V8.35V11.65V11.6826C18 12.6351 18 13.3956 17.9498 14.0099C17.8984 14.6399 17.7904 15.1818 17.5368 15.6795C17.1293 16.4791 16.4791 17.1293 15.6795 17.5368C15.1818 17.7904 14.6399 17.8984 14.0099 17.9498C13.3956 18 12.6351 18 11.6826 18H11.65H8.35H8.31737C7.36493 18 6.60439 18 5.99013 17.9498C5.36012 17.8984 4.81824 17.7904 4.32054 17.5368C3.52085 17.1293 2.87068 16.4791 2.46322 15.6795C2.20963 15.1818 2.10165 14.6399 2.05018 14.0099C1.99999 13.3956 1.99999 12.6351 2 11.6826V11.65V8.35V8.31739C1.99999 7.36495 1.99999 6.60439 2.05018 5.99013C2.10165 5.36012 2.20963 4.81824 2.46322 4.32054C2.87068 3.52085 3.52085 2.87068 4.32054 2.46322C4.81824 2.20963 5.36012 2.10165 5.99013 2.05018C6.60439 1.99999 7.36495 1.99999 8.31739 2ZM6.11228 3.54519C5.57503 3.58909 5.25252 3.67184 5.00153 3.79973C4.48408 4.06338 4.06338 4.48408 3.79973 5.00153C3.67184 5.25252 3.58909 5.57503 3.54519 6.11228C3.50058 6.65829 3.5 7.35753 3.5 8.35V11.65C3.5 12.6425 3.50058 13.3417 3.54519 13.8877C3.58909 14.425 3.67184 14.7475 3.79973 14.9985C4.06338 15.5159 4.48408 15.9366 5.00153 16.2003C5.25252 16.3282 5.57503 16.4109 6.11228 16.4548C6.65829 16.4994 7.35753 16.5 8.35 16.5H11.65C12.6425 16.5 13.3417 16.4994 13.8877 16.4548C14.425 16.4109 14.7475 16.3282 14.9985 16.2003C15.5143 15.9374 15.934 15.5185 16.1978 15.0033H13.0284L12.9677 15.0033C12.019 15.0033 11.2227 15.0033 10.6157 14.9132C9.98401 14.8195 9.3601 14.6017 8.98022 13.9972C8.77729 13.6743 8.704 13.3365 8.70865 12.9989C8.35221 12.9838 8.0308 12.9558 7.74968 12.9034C7.24262 12.8088 6.74485 12.6132 6.40191 12.1539C6.30076 12.0184 6.21594 11.8715 6.1492 11.7162C5.88925 11.1111 6.03186 10.5033 6.2593 9.95199C6.48162 9.41312 6.85898 8.75957 7.31137 7.97607L7.33868 7.92875L7.366 7.88143C7.81834 7.0979 8.19565 6.44432 8.55117 5.98236C8.91489 5.50974 9.36999 5.08231 10.024 5.0049C10.1919 4.98503 10.3615 4.98503 10.5294 5.0049C10.9996 5.06056 11.3697 5.29901 11.6738 5.60361C11.7252 5.65509 11.7759 5.70962 11.826 5.76695L12.8052 3.73285L12.8103 3.72237L12.9147 3.50554C12.5526 3.50014 12.1365 3.5 11.65 3.5H8.35C7.35753 3.5 6.65829 3.50058 6.11228 3.54519ZM11.0906 7.29439C10.8968 6.99582 10.7442 6.79557 10.6123 6.66337C10.4624 6.51329 10.3866 6.49848 10.3531 6.49451C10.3023 6.4885 10.251 6.4885 10.2003 6.49451C10.1573 6.49959 10.0261 6.52533 9.73991 6.89719C9.45267 7.27043 9.12452 7.83559 8.63772 8.67875C8.15093 9.52191 7.82555 10.0887 7.64594 10.5241C7.46699 10.9578 7.5103 11.0843 7.52739 11.1241C7.54756 11.171 7.57321 11.2155 7.60379 11.2564C7.62624 11.2865 7.69502 11.3673 8.02483 11.4288C8.28335 11.4771 8.62489 11.4999 9.09155 11.51C9.27907 11.0571 9.52627 10.5437 9.80345 9.96802L9.82977 9.91335L11.0906 7.29439ZM16.5 11.65C16.5 12.4239 16.4996 13.0196 16.4783 13.5033H13.0284C12.0029 13.5033 11.3195 13.5013 10.8359 13.4295C10.3642 13.3595 10.282 13.2497 10.2503 13.1991C10.2185 13.1485 10.1552 13.0269 10.2967 12.5715C10.4418 12.1047 10.7365 11.488 11.1813 10.564L14.1568 4.38351C14.2877 4.11152 14.4077 3.86233 14.5197 3.63391C14.7133 3.67721 14.8659 3.73217 14.9985 3.79973C15.5159 4.06338 15.9366 4.48408 16.2003 5.00153C16.3282 5.25252 16.4109 5.57503 16.4548 6.11228C16.4994 6.65829 16.5 7.35753 16.5 8.35V11.65Z" fill="#99A2AD"/>
</svg>
