<svg width="20" height="20" viewBox="0 0 20 20" fill="none" xmlns="http://www.w3.org/2000/svg">
<path fill-rule="evenodd" clip-rule="evenodd" d="M8.35 2H8.31739H8.31738C7.36494 1.99999 6.60439 1.99999 5.99013 2.05018C5.36012 2.10165 4.81824 2.20963 4.32054 2.46322C3.52085 2.87068 2.87068 3.52085 2.46322 4.32054C2.20963 4.81824 2.10165 5.36012 2.05018 5.99013C1.99999 6.60439 1.99999 7.36494 2 8.31738V8.31739V8.35V11.65V11.6826V11.6826C1.99999 12.6351 1.99999 13.3956 2.05018 14.0099C2.10165 14.6399 2.20963 15.1818 2.46322 15.6795C2.87068 16.4791 3.52085 17.1293 4.32054 17.5368C4.81824 17.7904 5.36012 17.8984 5.99013 17.9498C6.60439 18 7.36493 18 8.31737 18H8.35H11.65H11.6826C12.6351 18 13.3956 18 14.0099 17.9498C14.6399 17.8984 15.1818 17.7904 15.6795 17.5368C16.4791 17.1293 17.1293 16.4791 17.5368 15.6795C17.7904 15.1818 17.8984 14.6399 17.9498 14.0099C18 13.3956 18 12.6351 18 11.6826V11.65V8.35V8.31737C18 7.36493 18 6.60439 17.9498 5.99013C17.8984 5.36012 17.7904 4.81824 17.5368 4.32054C17.1293 3.52085 16.4791 2.87068 15.6795 2.46322C15.1818 2.20963 14.6399 2.10165 14.0099 2.05018C13.3956 1.99999 12.6351 1.99999 11.6826 2H11.6826H11.65H8.35ZM5.00153 3.79973C5.25252 3.67184 5.57503 3.58909 6.11228 3.54519C6.65829 3.50058 7.35753 3.5 8.35 3.5H11.65C12.6425 3.5 13.3417 3.50058 13.8877 3.54519C14.425 3.58909 14.7475 3.67184 14.9985 3.79973C15.5159 4.06338 15.9366 4.48408 16.2003 5.00153C16.3282 5.25252 16.4109 5.57503 16.4548 6.11228C16.4883 6.52196 16.497 7.0179 16.4992 7.65925L14.6755 9.08307C14.6062 7.577 13.3505 6.39285 11.8415 6.39285C11.1419 6.39285 10.5242 6.62822 9.99665 7.05211C9.46764 6.62973 8.85271 6.39285 8.15847 6.39285C6.64945 6.39285 5.39379 7.577 5.32444 9.08307L3.50079 7.65927C3.50304 7.01791 3.51172 6.52196 3.54519 6.11228C3.58909 5.57503 3.67184 5.25252 3.79973 5.00153C4.06338 4.48408 4.48408 4.06338 5.00153 3.79973ZM3.5 9.56168V11.65C3.5 12.6425 3.50058 13.3417 3.54519 13.8877C3.58909 14.425 3.67184 14.7475 3.79973 14.9985C4.06338 15.5159 4.48408 15.9366 5.00153 16.2003C5.25252 16.3282 5.57503 16.4109 6.11228 16.4548C6.65829 16.4994 7.35753 16.5 8.35 16.5H11.65C12.6425 16.5 13.3417 16.4994 13.8877 16.4548C14.425 16.4109 14.7475 16.3282 14.9985 16.2003C15.5159 15.9366 15.9366 15.5159 16.2003 14.9985C16.3282 14.7475 16.4109 14.425 16.4548 13.8877C16.4994 13.3417 16.5 12.6425 16.5 11.65V9.56166L11.7317 13.2845L11.731 13.2851L11.7293 13.2863L10.7087 14.0787C10.2918 14.4023 9.70817 14.4023 9.29127 14.0787L8.27064 13.2863L8.26902 13.2851L8.26831 13.2845L3.5 9.56168ZM9.99999 12.7299L9.19282 12.1033L9.19211 12.1027L9.19162 12.1023C8.17392 11.3058 7.58296 10.8109 7.2328 10.3773C6.92765 9.99951 6.82142 9.68864 6.82142 9.21444C6.82142 8.48962 7.41944 7.89285 8.15847 7.89285C8.58866 7.89285 9.00343 8.07721 9.42071 8.58463C9.56402 8.7589 9.77818 8.85939 10.0038 8.85824C10.2294 8.85709 10.4426 8.75442 10.5841 8.57869C10.9864 8.07919 11.398 7.89285 11.8415 7.89285C12.5805 7.89285 13.1786 8.48962 13.1786 9.21444C13.1786 9.68864 13.0723 9.99951 12.7672 10.3773C12.417 10.8109 11.826 11.3058 10.8083 12.1024L10.8079 12.1027L10.8072 12.1033L9.99999 12.7299Z" fill="#99A2AD"/>
</svg>
