<svg width="20" height="20" viewBox="0 0 20 20" fill="none" xmlns="http://www.w3.org/2000/svg">
<path fill-rule="evenodd" clip-rule="evenodd" d="M3.11395 3.11395C2 4.22791 2 6.02079 2 9.60656V10.3934C2 13.9792 2 15.7721 3.11395 16.886C4.22791 18 6.02079 18 9.60656 18H10.3934C13.9792 18 15.7721 18 16.886 16.886C18 15.7721 18 13.9792 18 10.3934V9.60656C18 6.02079 18 4.22791 16.886 3.11395C15.7721 2 13.9792 2 10.3934 2H9.60656C6.02079 2 4.22791 2 3.11395 3.11395ZM10.3934 3.5H9.60656C7.77127 3.5 6.5457 3.50319 5.6332 3.62587C4.76385 3.74275 4.40644 3.94279 4.17461 4.17461C3.94279 4.40644 3.74275 4.76385 3.62587 5.6332C3.61015 5.75012 3.59639 5.87218 3.58435 6H4.57476C5.627 6 6.58935 6.57955 7.08452 7.5H11C11.9319 7.5 12.3978 7.5 12.7654 7.65224C13.2554 7.85523 13.6448 8.24458 13.8478 8.73463C13.9647 9.01703 13.9918 9.35751 13.9981 9.9228C14.3903 10.0595 14.7436 10.2633 15.0514 10.5714C15.5784 11.099 15.7999 11.7598 15.9022 12.5215C16 13.2502 16 14.1731 16 15.3024V15.6106C16.1562 15.3713 16.2878 15.0086 16.3741 14.3668C16.4968 13.4543 16.5 12.2287 16.5 10.3934V9.60656C16.5 7.77127 16.4968 6.5457 16.3741 5.6332C16.2572 4.76385 16.0572 4.40644 15.8254 4.17461C15.5936 3.94279 15.2362 3.74275 14.3668 3.62587C13.4543 3.50319 12.2287 3.5 10.3934 3.5ZM14.5 16.355C14.5 16.3057 14.5 16.2469 14.5 16.1752V15.356C14.5 14.16 14.4984 13.3383 14.4155 12.7212C14.3355 12.1255 14.1924 11.8339 13.9902 11.6315C13.7881 11.4293 13.4971 11.2861 12.9025 11.2061C12.2862 11.1231 11.4656 11.1215 10.2707 11.1215H8.65385C7.74109 11.1215 6.90969 10.5975 6.51508 9.7746L5.79226 8.26714C5.56729 7.79796 5.09377 7.5 4.57476 7.5H3.512C3.50063 8.09966 3.5 8.79324 3.5 9.60656V10.3934C3.5 12.2287 3.50319 13.4543 3.62587 14.3668C3.74275 15.2362 3.94279 15.5936 4.17461 15.8254C4.40644 16.0572 4.76385 16.2572 5.6332 16.3741C6.5457 16.4968 7.77127 16.5 9.60656 16.5H10.3934C12.2287 16.5 13.4543 16.4968 14.3668 16.3741C14.4126 16.368 14.457 16.3616 14.5 16.355Z" fill="#99A2AD"/>
</svg>
