<svg width="20" height="20" viewBox="0 0 20 20" fill="none" xmlns="http://www.w3.org/2000/svg">
<path fill-rule="evenodd" clip-rule="evenodd" d="M8.35 2H8.31739C7.36495 1.99999 6.60439 1.99999 5.99013 2.05018C5.36012 2.10165 4.81824 2.20963 4.32054 2.46322C3.52085 2.87068 2.87068 3.52085 2.46322 4.32054C2.20963 4.81824 2.10165 5.36012 2.05018 5.99013C1.99999 6.6044 1.99999 7.36494 2 8.31739V8.35V11.65V11.6826C1.99999 12.6351 1.99999 13.3956 2.05018 14.0099C2.10165 14.6399 2.20963 15.1818 2.46322 15.6795C2.87068 16.4791 3.52085 17.1293 4.32054 17.5368C4.81824 17.7904 5.36012 17.8984 5.99013 17.9498C6.60439 18 7.36493 18 8.31737 18H8.35H11.65H11.6826C12.6351 18 13.3956 18 14.0099 17.9498C14.6399 17.8984 15.1818 17.7904 15.6795 17.5368C16.4791 17.1293 17.1293 16.4791 17.5368 15.6795C17.7904 15.1818 17.8984 14.6399 17.9498 14.0099C18 13.3956 18 12.6351 18 11.6826V11.65V8.35V8.31737C18 7.36493 18 6.60439 17.9498 5.99013C17.8984 5.36012 17.7904 4.81824 17.5368 4.32054C17.1293 3.52085 16.4791 2.87068 15.6795 2.46322C15.1818 2.20963 14.6399 2.10165 14.0099 2.05018C13.3956 1.99999 12.6351 1.99999 11.6826 2H11.65H8.35ZM5.00153 3.79973C5.25252 3.67184 5.57503 3.58909 6.11228 3.54519C6.65829 3.50058 7.35753 3.5 8.35 3.5H11.65C12.6425 3.5 13.3417 3.50058 13.8877 3.54519C14.425 3.58909 14.7475 3.67184 14.9985 3.79973C15.5159 4.06338 15.9366 4.48408 16.2003 5.00153C16.3282 5.25252 16.4109 5.57503 16.4548 6.11228C16.4994 6.65829 16.5 7.35753 16.5 8.35V11.65C16.5 12.6425 16.4994 13.3417 16.4548 13.8877C16.4109 14.425 16.3282 14.7475 16.2003 14.9985C15.9366 15.5159 15.5159 15.9366 14.9985 16.2003C14.7475 16.3282 14.425 16.4109 13.8877 16.4548C13.3417 16.4994 12.6425 16.5 11.65 16.5H8.35C7.35753 16.5 6.65829 16.4994 6.11228 16.4548C5.57503 16.4109 5.25252 16.3282 5.00153 16.2003C4.48408 15.9366 4.06338 15.5159 3.79973 14.9985C3.67184 14.7475 3.58909 14.425 3.54519 13.8877C3.50058 13.3417 3.5 12.6425 3.5 11.65V8.35C3.5 7.35753 3.50058 6.65829 3.54519 6.11228C3.58909 5.57503 3.67184 5.25252 3.79973 5.00153C4.06338 4.48408 4.48408 4.06338 5.00153 3.79973ZM12.461 11.8701L13.2746 12.0838C13.6429 12.1805 14 11.8891 14 11.4919V7.37112C14 7.02137 13.7726 6.71641 13.4483 6.63124L11.1158 6.01867C10.7474 5.92194 10.3903 6.21331 10.3903 6.61059V7.35344L8.92061 6.96746C8.55228 6.87073 8.1952 7.1621 8.1952 7.55936V8.30221L6.72543 7.91621C6.35709 7.81951 6 8.11084 6 8.50814V12.6289C6 12.9786 6.22738 13.2836 6.55167 13.3688L8.88425 13.9813C9.25261 14.0781 9.60969 13.7867 9.60969 13.3894L9.61031 9.27425C9.61031 8.92662 9.40097 8.72556 9.32509 8.66379C9.3106 8.65202 9.30658 8.63005 9.31697 8.6142C9.32719 8.59858 9.3456 8.5912 9.36285 8.59668C9.6702 8.69423 9.96428 9.02547 9.99362 9.44198L10.0951 12.589C10.0985 12.6923 10.162 12.7819 10.2535 12.8156L11.0794 13.0326C11.4478 13.1293 11.8049 12.8379 11.8049 12.4406L11.8055 8.32636C11.8055 7.97873 11.5966 7.77719 11.5207 7.71542C11.5062 7.70365 11.5022 7.68168 11.5126 7.66583C11.5228 7.65022 11.5413 7.64283 11.5585 7.64831C11.8658 7.74587 12.1599 8.07714 12.1893 8.49361L12.2908 11.6404C12.2942 11.7479 12.3633 11.8405 12.461 11.8701Z" fill="#99A2AD"/>
</svg>
