<svg width="20" height="20" viewBox="0 0 20 20" fill="none" xmlns="http://www.w3.org/2000/svg">
<path fill-rule="evenodd" clip-rule="evenodd" d="M13.7644 3.96935C14.3902 3.34355 15.4049 3.34355 16.0307 3.96935C16.6564 4.59515 16.6564 5.60976 16.0307 6.23556L14.4317 7.83453C13.8059 8.46033 12.7913 8.46033 12.1655 7.83453C11.5397 7.20873 11.5397 6.19411 12.1655 5.56832L13.7644 3.96935ZM17.0913 2.90869C15.8797 1.6971 13.9154 1.6971 12.7038 2.90869L11.1048 4.50766C9.89323 5.71924 9.89323 7.6836 11.1048 8.89519C12.3164 10.1068 14.2808 10.1068 15.4923 8.89519L17.0913 7.29622C18.3029 6.08464 18.3029 4.12027 17.0913 2.90869ZM3.96935 3.96935C4.59514 3.34355 5.60976 3.34355 6.23556 3.96935L7.83453 5.56832C8.46033 6.19411 8.46033 7.20873 7.83453 7.83453C7.20873 8.46033 6.19411 8.46033 5.56832 7.83453L3.96935 6.23556C3.34355 5.60976 3.34355 4.59515 3.96935 3.96935ZM7.29622 2.90869C6.08463 1.6971 4.12027 1.6971 2.90869 2.90869C1.6971 4.12027 1.6971 6.08464 2.90869 7.29622L4.50766 8.89519C5.71924 10.1068 7.68361 10.1068 8.89519 8.89519C10.1068 7.6836 10.1068 5.71924 8.89519 4.50766L7.29622 2.90869ZM12.1655 12.1654C12.7913 11.5396 13.8059 11.5396 14.4317 12.1654L16.0307 13.7644C16.6564 14.3902 16.6564 15.4048 16.0307 16.0306C15.4049 16.6564 14.3902 16.6564 13.7644 16.0306L12.1655 14.4316C11.5397 13.8058 11.5397 12.7912 12.1655 12.1654ZM15.4923 11.1047C14.2808 9.89317 12.3164 9.89317 11.1048 11.1048C9.89323 12.3163 9.89323 14.2807 11.1048 15.4923L12.7038 17.0913C13.9154 18.3028 15.8797 18.3028 17.0913 17.0912C18.3029 15.8797 18.3029 13.9153 17.0913 12.7037L15.4923 11.1047ZM8.89519 11.1048C7.68361 9.89317 5.71924 9.89317 4.50766 11.1047L2.90869 12.7037C1.6971 13.9153 1.6971 15.8797 2.90868 17.0912C4.12027 18.3028 6.08463 18.3028 7.29622 17.0913L8.89519 15.4923C10.1068 14.2807 10.1068 12.3163 8.89519 11.1048ZM5.56832 12.1654C6.19411 11.5396 7.20873 11.5396 7.83453 12.1654C8.46033 12.7912 8.46033 13.8058 7.83453 14.4316L6.23556 16.0306C5.60976 16.6564 4.59514 16.6564 3.96935 16.0306C3.34355 15.4048 3.34355 14.3902 3.96935 13.7644L5.56832 12.1654Z" fill="#99A2AD"/>
</svg>
