<svg width="20" height="20" viewBox="0 0 20 20" fill="none" xmlns="http://www.w3.org/2000/svg">
<path fill-rule="evenodd" clip-rule="evenodd" d="M13.3727 4.37783L15.1375 2.71394C15.1459 2.70617 15.1515 2.70312 15.1533 2.70221C15.1554 2.7012 15.1573 2.70066 15.1595 2.70032C15.1648 2.69954 15.1764 2.69969 15.1911 2.70605C15.2057 2.71242 15.2141 2.72094 15.2174 2.72572C15.2188 2.72777 15.2197 2.72966 15.2205 2.73204C15.2212 2.7342 15.2228 2.74018 15.2228 2.75173V4.00393C15.2228 4.41814 15.5586 4.75393 15.9728 4.75393H17.2075C17.2196 4.75393 17.226 4.75565 17.2282 4.75636C17.2307 4.75713 17.2324 4.75804 17.2342 4.75928C17.2384 4.76221 17.2462 4.76978 17.252 4.78331C17.2577 4.79685 17.2576 4.80719 17.257 4.81134C17.257 4.81134 17.2567 4.81257 17.2563 4.81395C17.256 4.81477 17.2557 4.81564 17.2553 4.81633C17.2553 4.81633 17.2516 4.8234 17.2434 4.83193L17.2414 4.83402L15.5498 6.60027L15.5463 6.60402C15.5463 6.60402 15.5415 6.60837 15.5353 6.61104C15.5288 6.61377 15.5219 6.61509 15.5159 6.61509H13.9166C13.7081 6.61509 13.5089 6.70193 13.367 6.85475L11.7106 8.63861C11.5109 8.85369 11.455 9.1655 11.5676 9.43656C11.6515 9.63874 11.6991 9.85764 11.6991 10.0804C11.6991 10.9887 10.9628 11.7249 10.0545 11.7249C9.14628 11.7249 8.41 10.9887 8.41 10.0804C8.41 9.17208 9.14626 8.43582 10.0545 8.43582C10.2104 8.43582 10.3629 8.45728 10.5049 8.49655C10.7747 8.57119 11.0636 8.48932 11.2542 8.28422L13.1567 6.23677C13.2856 6.09803 13.3573 5.91564 13.3573 5.72625V4.41254C13.3573 4.40769 13.3583 4.40135 13.3614 4.39437C13.3644 4.38731 13.3686 4.38166 13.3727 4.37783ZM16.7228 2.75173C16.7228 1.39868 15.1007 0.690279 14.1104 1.62081L13.4602 2.23382C12.4032 1.76218 11.2322 1.49998 10 1.49998C5.30558 1.49998 1.5 5.30556 1.5 9.99998C1.5 14.6944 5.30558 18.5 10 18.5C14.6944 18.5 18.5 14.6944 18.5 9.99998C18.5 8.74525 18.2281 7.55401 17.7401 6.48196L18.3227 5.87363L18.3239 5.87238C19.2727 4.88736 18.5669 3.25393 17.2075 3.25393H16.7228V2.75173ZM16.6025 7.66905C16.3104 7.95903 15.9158 8.11509 15.5159 8.11509H14.2437L13.1089 9.33714C13.1668 9.57403 13.1991 9.82329 13.1991 10.0804C13.1991 11.8171 11.7913 13.2249 10.0545 13.2249C8.31781 13.2249 6.91 11.8171 6.91 10.0804C6.91 8.34365 8.31783 6.93582 10.0545 6.93582C10.1838 6.93582 10.3119 6.94365 10.4381 6.95886L11.8573 5.43158V4.41254C11.8573 4.02494 12.0038 3.65422 12.2592 3.37257C11.5504 3.13103 10.7905 2.99998 10 2.99998C6.13401 2.99998 3 6.13399 3 9.99998C3 13.866 6.13401 17 10 17C13.866 17 17 13.866 17 9.99998C17 9.18273 16.8599 8.39819 16.6025 7.66905Z" fill="#99A2AD"/>
</svg>
