<svg width="20" height="20" viewBox="0 0 20 20" fill="none" xmlns="http://www.w3.org/2000/svg">
<path fill-rule="evenodd" clip-rule="evenodd" d="M5.36704 7.26966C5.18963 7.44686 4.93803 7.60411 4.70346 7.6538C4.5113 7.69452 4.32778 7.67095 4.12623 7.46964C3.97644 7.32002 3.89932 7.10455 3.97978 6.73925C4.06496 6.35253 4.32118 5.8679 4.75403 5.36256C5.62173 4.34956 7.02066 3.45888 8.41675 3.241C8.82648 3.17705 9.10673 2.79345 9.04271 2.3842C8.97869 1.97496 8.59464 1.69503 8.18491 1.75898C6.37722 2.0411 4.67249 3.15041 3.61292 4.38741C3.08214 5.00707 2.66882 5.70994 2.51309 6.41696C2.41508 6.86194 2.41821 7.32784 2.5725 7.7599C2.37432 7.79247 2.18965 7.90388 2.06946 8.08396C1.0342 9.63502 1.64544 11.2807 2.06946 11.916C2.17252 12.0704 2.32299 12.1743 2.48874 12.2214C2.33948 12.7109 2.35281 13.2171 2.47947 13.6991C2.66945 14.4222 3.11111 15.0958 3.62939 15.6618C4.15299 16.2336 4.79232 16.7368 5.44082 17.1134C6.0804 17.4847 6.77997 17.7624 7.42515 17.8269C8.62988 17.9472 9.48443 17.584 10.0457 17.0234C10.5763 16.4934 10.7727 15.8596 10.8392 15.5277C11.0112 14.669 11.0115 13.9001 10.9542 13.3109C10.8991 12.7442 10.7853 12.292 10.6888 12.0755C10.67 12.0335 10.6506 11.9861 10.6293 11.9342C10.4763 11.561 10.2267 10.9523 9.43808 10.3897C9.30095 10.2919 9.14212 10.2467 8.98568 10.2501C8.99618 10.1849 9.00163 10.1181 9.00163 10.05C9.00163 9.35962 8.44133 8.79997 7.75016 8.79997C7.05899 8.79997 6.49869 9.35962 6.49869 10.05C6.49869 10.7403 7.05899 11.3 7.75016 11.3C7.93722 11.3 8.11469 11.259 8.27407 11.1855C8.3163 11.3511 8.41509 11.5032 8.56519 11.6103C8.83175 11.8005 8.96806 11.9714 9.05618 12.1176C9.12893 12.2382 9.16706 12.3305 9.21981 12.458C9.24636 12.5222 9.27662 12.5954 9.31686 12.6857C9.3158 12.6833 9.31613 12.6843 9.31766 12.6889C9.32324 12.7056 9.34466 12.77 9.37168 12.8902C9.40321 13.0306 9.43679 13.2226 9.45946 13.4559C9.50485 13.923 9.50514 14.5417 9.36662 15.2335C9.33297 15.4016 9.22904 15.7178 8.98377 15.9627C8.7691 16.1772 8.37218 16.414 7.57457 16.3343C7.21858 16.2987 6.72925 16.1264 6.19558 15.8166C5.67083 15.5119 5.15254 15.1026 4.73754 14.6494C4.31722 14.1904 4.03929 13.7265 3.93205 13.3183C3.83159 12.936 3.88 12.6181 4.09587 12.3306C4.09856 12.3276 4.11478 12.3094 4.15028 12.2818C4.18941 12.2513 4.23881 12.2194 4.29265 12.1917C4.34698 12.1638 4.39534 12.1454 4.43111 12.1356C4.44262 12.1325 4.45084 12.1307 4.45593 12.1298C4.61915 12.1447 4.70377 12.1878 4.77346 12.237C4.85615 12.2953 4.91715 12.3575 5.02793 12.4705C5.06698 12.5103 5.11223 12.5564 5.16679 12.6109C5.30436 12.7483 5.48204 12.8213 5.6622 12.8298C5.55741 13.0125 5.49751 13.2243 5.49751 13.45C5.49751 14.1404 6.05782 14.7 6.74898 14.7C7.44015 14.7 8.00046 14.1404 8.00046 13.45C8.00046 12.7596 7.44015 12.2 6.74898 12.2C6.63926 12.2 6.53284 12.2141 6.43143 12.2406C6.48389 11.9995 6.41631 11.7377 6.22869 11.5503C6.20002 11.5216 6.16978 11.4902 6.13762 11.4568C5.84945 11.1575 5.40709 10.6981 4.55367 10.6328C4.19392 10.6053 3.84472 10.7348 3.60483 10.8583C3.5035 10.9104 3.39784 10.9738 3.29558 11.0474C3.05592 10.6587 2.77039 9.73796 3.319 8.91601C3.34428 8.87814 3.36565 8.83881 3.38321 8.79849C3.90819 9.16479 4.49033 9.23233 5.01507 9.12116C5.60648 8.99586 6.10577 8.65311 6.42894 8.33032C6.57657 8.18286 6.64988 7.98929 6.64886 7.79603C6.68189 7.79864 6.71528 7.79997 6.74898 7.79997C7.44015 7.79997 8.00046 7.24033 8.00046 6.54997C8.00046 5.85962 7.44015 5.29997 6.74898 5.29997C6.05782 5.29997 5.49751 5.85962 5.49751 6.54997C5.49751 6.74772 5.54349 6.93475 5.62534 7.10097C5.53123 7.13753 5.44302 7.19376 5.36704 7.26966ZM10.6334 4.76647C10.667 4.59841 10.771 4.28219 11.0162 4.03722C11.2309 3.82281 11.6278 3.586 12.4254 3.66566C12.7814 3.70122 13.2707 3.87352 13.8044 4.1834C14.3292 4.48809 14.8475 4.89736 15.2625 5.35055C15.6828 5.80957 15.9607 6.27345 16.068 6.68162C16.1684 7.06398 16.12 7.3819 15.9041 7.66938C15.9014 7.6724 15.8852 7.69052 15.8497 7.7182C15.8106 7.7487 15.7612 7.78054 15.7073 7.80825C15.653 7.83621 15.6047 7.85456 15.5689 7.86435C15.5574 7.8675 15.5492 7.86923 15.5441 7.87015C15.3809 7.8553 15.2962 7.81216 15.2265 7.76299C15.1439 7.70467 15.0829 7.64247 14.9721 7.5295C14.933 7.48968 14.8878 7.44354 14.8332 7.38905C14.6956 7.25163 14.518 7.17869 14.3378 7.17021C14.4426 6.98743 14.5025 6.77569 14.5025 6.54997C14.5025 5.85962 13.9422 5.29997 13.251 5.29997C12.5598 5.29997 11.9995 5.85962 11.9995 6.54997C11.9995 7.24033 12.5598 7.79997 13.251 7.79997C13.3607 7.79997 13.4672 7.78586 13.5686 7.75937C13.5161 8.00043 13.5837 8.26232 13.7713 8.44971C13.8 8.47834 13.8302 8.50973 13.8623 8.54311C14.1505 8.84241 14.5929 9.30191 15.4463 9.36719C15.8061 9.39471 16.1553 9.26512 16.3952 9.14167C16.4965 9.08952 16.6022 9.02615 16.7044 8.95256C16.9441 9.3413 17.2296 10.262 16.681 11.084C16.6557 11.1218 16.6344 11.1611 16.6168 11.2015C16.0918 10.8352 15.5097 10.7676 14.985 10.8788C14.3936 11.0041 13.8943 11.3469 13.5711 11.6697C13.4235 11.8171 13.3502 12.0107 13.3512 12.2039C13.3181 12.2013 13.2847 12.2 13.251 12.2C12.5598 12.2 11.9995 12.7596 11.9995 13.45C11.9995 14.1404 12.5598 14.7 13.251 14.7C13.9422 14.7 14.5025 14.1404 14.5025 13.45C14.5025 13.2522 14.4565 13.0652 14.3747 12.899C14.4688 12.8624 14.557 12.8062 14.633 12.7303C14.8104 12.5531 15.062 12.3959 15.2966 12.3462C15.4887 12.3055 15.6723 12.329 15.8738 12.5303C16.0236 12.6799 16.1007 12.8954 16.0203 13.2607C15.9351 13.6474 15.6789 14.1321 15.246 14.6374C14.3783 15.6504 12.9794 16.5411 11.5833 16.759C11.1736 16.8229 10.8933 17.2065 10.9573 17.6158C11.0213 18.025 11.4054 18.3049 11.8151 18.241C13.6228 17.9589 15.3275 16.8496 16.3871 15.6126C16.9179 14.9929 17.3312 14.29 17.4869 13.583C17.585 13.138 17.5818 12.6721 17.4275 12.2401C17.6257 12.2075 17.8104 12.0961 17.9305 11.916C18.9658 10.3649 18.3546 8.71923 17.9305 8.08396C17.8275 7.92954 17.677 7.82562 17.5113 7.7786C17.6605 7.28907 17.6472 6.78292 17.5205 6.30087C17.3306 5.57779 16.8889 4.90417 16.3706 4.33819C15.847 3.76639 15.2077 3.26315 14.5592 2.8866C13.9196 2.51523 13.22 2.23754 12.5749 2.17311C11.3701 2.05279 10.5156 2.41597 9.95433 2.97655C9.42368 3.50657 9.22725 4.14034 9.16078 4.47229C8.98884 5.33095 8.98855 6.09988 9.0458 6.68902C9.10087 7.25577 9.21474 7.708 9.31123 7.92446C9.32996 7.96647 9.34936 8.01378 9.37063 8.06565C9.52368 8.43887 9.77332 9.04766 10.5619 9.61028C10.699 9.70811 10.8579 9.7533 11.0143 9.74986C11.0038 9.81502 10.9984 9.88187 10.9984 9.95C10.9984 10.6404 11.5587 11.2 12.2498 11.2C12.941 11.2 13.5013 10.6404 13.5013 9.95C13.5013 9.25964 12.941 8.7 12.2498 8.7C12.0628 8.7 11.8853 8.74099 11.7259 8.81447C11.6837 8.6489 11.5849 8.49677 11.4348 8.38968C11.1683 8.19951 11.0319 8.02858 10.9438 7.8824C10.8711 7.76174 10.8329 7.66952 10.7802 7.54196C10.7537 7.47786 10.7233 7.40433 10.6831 7.3143C10.6842 7.31668 10.6839 7.31567 10.6823 7.31107C10.6768 7.29431 10.6553 7.22999 10.6283 7.10972C10.5968 6.96938 10.5632 6.77739 10.5405 6.54411C10.4951 6.077 10.4949 5.45824 10.6334 4.76647Z" fill="#99A2AD"/>
</svg>
