<svg width="20" height="20" viewBox="0 0 20 20" fill="none" xmlns="http://www.w3.org/2000/svg">
<path fill-rule="evenodd" clip-rule="evenodd" d="M7.19425 1.50198C7.66268 1.47121 8.06737 1.82601 8.09813 2.29444L8.34772 6.09442C8.37849 6.56285 8.02369 6.96753 7.55526 6.9983C7.08683 7.02907 6.68215 6.67427 6.65138 6.20584L6.40179 2.40586C6.37102 1.93743 6.72582 1.53275 7.19425 1.50198ZM13.0869 1.68323C13.5378 1.8141 13.7972 2.28566 13.6663 2.73649L12.3163 7.38718C12.1854 7.83801 11.7139 8.09739 11.263 7.96653C10.8122 7.83566 10.5528 7.3641 10.6837 6.91327L12.0337 2.26258C12.1645 1.81175 12.6361 1.55237 13.0869 1.68323Z" fill="#99A2AD"/>
<path fill-rule="evenodd" clip-rule="evenodd" d="M13.6757 8.76213C13.9452 8.44764 14.4187 8.41122 14.7332 8.68078C16.2129 9.94911 16.5 11.5616 16.5 12.7516C16.5 15.4285 14.1913 18.5015 9.99951 18.5015C6.8818 18.5015 3.49555 16.2824 3.49561 12.7516C3.49562 12.0742 3.71357 11.163 4.27218 10.4022C4.85422 9.60939 5.7959 9.0003 7.14244 9.0003C7.52928 9.0003 9.03384 9.12998 9.92611 10.9145C10.1114 11.2849 9.96119 11.7354 9.59071 11.9207C9.22023 12.1059 8.76972 11.9558 8.58448 11.5853C8.04817 10.5127 7.23177 10.5003 7.14244 10.5003C6.30954 10.5003 5.80281 10.852 5.4813 11.2899C5.13636 11.7597 4.99561 12.3491 4.99561 12.7516C4.99556 15.1767 7.40271 17.0015 9.99951 17.0015C13.3607 17.0015 15 14.6022 15 12.7516C15 11.7988 14.7773 10.6942 13.757 9.81967C13.4425 9.5501 13.4061 9.07663 13.6757 8.76213Z" fill="#99A2AD"/>
</svg>
