<svg width="20" height="20" viewBox="0 0 20 20" fill="none" xmlns="http://www.w3.org/2000/svg">
<path d="M8.42946 11.2176C8.15141 11.0635 7.98314 10.9703 7.76288 11.1695C7.2965 11.5918 8.13636 13.4223 10.0027 13.4223C11.8691 13.4223 12.7089 11.5918 12.2425 11.1695C12.0223 10.9703 11.854 11.0635 11.576 11.2176C11.2647 11.3901 10.8159 11.6388 10.0027 11.6388C9.18949 11.6388 8.7407 11.3901 8.42946 11.2176Z" fill="#99A2AD"/>
<path d="M8.86883 8.22516C8.91218 7.74167 8.41177 7.304 7.75114 7.2476C7.09051 7.1912 6.51983 7.53742 6.47648 8.02092C6.43313 8.50441 6.93354 8.94208 7.59417 8.99848C8.25479 9.05488 8.82548 8.70866 8.86883 8.22516Z" fill="#99A2AD"/>
<path d="M12.2483 7.2476C12.9089 7.1912 13.4796 7.53742 13.5229 8.02092C13.5663 8.50441 13.0659 8.94208 12.4053 8.99848C11.7446 9.05488 11.1739 8.70866 11.1306 8.22516C11.0872 7.74167 11.5876 7.304 12.2483 7.2476Z" fill="#99A2AD"/>
<path fill-rule="evenodd" clip-rule="evenodd" d="M2.5991 4.7699C2.81788 3.14555 4.28814 1.98925 5.9183 2.15951C6.23096 2.19216 6.54055 2.26183 6.85093 2.31072C8.9377 2.63943 11.0631 2.63941 13.1498 2.31066C13.4599 2.2618 13.769 2.19226 14.0813 2.1596C15.7118 1.9891 17.1823 3.14563 17.401 4.77029C18.0698 9.74045 16.3548 17.8227 10 17.8227C3.64537 17.8227 1.92968 9.74018 2.5991 4.7699ZM4.08568 4.97012C4.1962 4.14952 4.93896 3.56538 5.76249 3.65139C6.04886 3.6813 6.33316 3.74766 6.61752 3.79245C8.85895 4.14552 11.1418 4.1455 13.3833 3.79238C13.6675 3.74761 13.9511 3.68139 14.2373 3.65146C15.061 3.56533 15.8039 4.14959 15.9144 4.97035C16.4545 8.98456 15.3531 16.3227 10 16.3227C4.6471 16.3227 3.54501 8.98438 4.08568 4.97012Z" fill="#99A2AD"/>
</svg>
