<svg width="20" height="20" viewBox="0 0 20 20" fill="none" xmlns="http://www.w3.org/2000/svg">
<path fill-rule="evenodd" clip-rule="evenodd" d="M8.00002 2C4.43942 2 1.50002 4.51795 1.50002 7.75401C1.50002 8.83804 1.83621 9.87454 2.45357 10.768C2.35958 11.1753 2.09272 11.8064 1.6334 12.6452C1.33386 13.1923 1.56076 13.8552 2.09433 14.1284C2.26101 14.2138 2.4461 14.255 2.63183 14.2495C4.05849 14.2076 5.19537 13.8845 5.99814 13.2338C6.63788 13.4148 7.3111 13.508 8.00002 13.508C11.5606 13.508 14.5 10.9901 14.5 7.75401C14.5 4.51795 11.5606 2 8.00002 2ZM8.00002 3.5C5.08263 3.5 3.00002 5.52019 3.00002 7.75401C3.00002 8.54205 3.24946 9.30318 3.72584 9.96963L3.86049 10.158C3.97884 10.3236 4.02482 10.5301 3.98789 10.7303L3.94628 10.9557C3.85563 11.4469 3.62174 12.0428 3.29777 12.6982C4.17062 12.591 4.73643 12.3406 5.09254 12.0361L5.33383 11.8297C5.52695 11.6646 5.79056 11.6085 6.03421 11.6806L6.3422 11.7718C6.86505 11.9266 7.42274 12.008 8.00002 12.008C10.9174 12.008 13 9.98784 13 7.75401C13 5.52019 10.9174 3.5 8.00002 3.5Z" fill="#99A2AD"/>
<path d="M16.1565 8.57546C15.9034 8.24762 15.9639 7.77662 16.2917 7.52346C16.6196 7.27029 17.0906 7.33083 17.3437 7.65867C18.0715 8.60104 18.5 9.75865 18.5 11.004C18.5 12.0833 18.1792 13.118 17.586 14.0125C17.6743 14.4233 17.9315 15.0608 18.375 15.9074C18.6501 16.4327 18.4552 17.0887 17.9259 17.3721C17.7594 17.4612 17.5722 17.5053 17.3829 17.4995C16.0197 17.4576 14.9267 17.1365 14.1518 16.4902C13.5436 16.667 12.9042 16.758 12.25 16.758C11.3317 16.758 10.4626 16.5797 9.68011 16.2572C9.29716 16.0993 9.11469 15.6609 9.27256 15.2779C9.43042 14.895 9.86884 14.7125 10.2518 14.8704C10.852 15.1178 11.5267 15.258 12.25 15.258C12.7958 15.258 13.3231 15.1776 13.8176 15.0245L14.1123 14.9333C14.3637 14.8554 14.6376 14.9151 14.8339 15.0906L15.0647 15.2969C15.3934 15.5908 15.9132 15.8348 16.7162 15.9435C16.4049 15.2859 16.1808 14.6896 16.0944 14.2L16.0546 13.9745C16.0205 13.7814 16.0634 13.5827 16.1741 13.4208L16.3029 13.2325C16.7588 12.5656 17 11.8 17 11.004C17 10.1104 16.694 9.27147 16.1565 8.57546Z" fill="#99A2AD"/>
</svg>
