<svg width="20" height="20" viewBox="0 0 20 20" fill="none" xmlns="http://www.w3.org/2000/svg">
<path fill-rule="evenodd" clip-rule="evenodd" d="M6.61945 2.49996C5.62923 2.49966 4.96954 2.49946 4.40903 2.66404C3.0866 3.05235 2.05241 4.08654 1.6641 5.40897C1.49952 5.96948 1.49972 6.62917 1.50003 7.61939L1.50005 10.0024C1.50004 10.899 1.50004 11.6176 1.5475 12.1985C1.59625 12.7952 1.69879 13.3123 1.94148 13.7887C2.32976 14.5507 2.94933 15.1703 3.71139 15.5586C4.1877 15.8013 4.70488 15.9038 5.30154 15.9525C5.88246 16 6.60102 16 7.49759 16H15.9394L14.7197 17.2197C14.4268 17.5126 14.4268 17.9874 14.7197 18.2803C15.0126 18.5732 15.4875 18.5732 15.7804 18.2803L18.2804 15.7803C18.5733 15.4874 18.5733 15.0126 18.2804 14.7197L15.7804 12.2197C15.4875 11.9268 15.0126 11.9268 14.7197 12.2197C14.4268 12.5126 14.4268 12.9874 14.7197 13.2803L15.9394 14.5H7.53005C6.59359 14.5 5.93635 14.4994 5.42369 14.4575C4.91979 14.4164 4.62198 14.339 4.39238 14.2221C3.91256 13.9776 3.52246 13.5875 3.27798 13.1077C3.161 12.8781 3.08369 12.5803 3.04252 12.0764C3.00064 11.5637 3.00005 10.9065 3.00005 9.96999V8.49999H17.0001V10.7917C17.0001 11.2059 17.3358 11.5417 17.7501 11.5417C18.1643 11.5417 18.5001 11.2059 18.5001 10.7917L18.5001 7.61939C18.5004 6.62917 18.5006 5.96948 18.336 5.40897C17.9477 4.08654 16.9135 3.05235 15.5911 2.66404C15.0306 2.49946 14.3709 2.49966 13.3806 2.49996H6.61945ZM16.9973 6.99999H3.00277C3.00945 6.37428 3.03173 6.07548 3.10334 5.83157C3.34783 4.99893 3.99899 4.34777 4.83163 4.10328C5.15734 4.00765 5.58089 3.99999 6.75005 3.99999H13.2501C14.4192 3.99999 14.8428 4.00765 15.1685 4.10328C16.0011 4.34777 16.6523 4.99893 16.8968 5.83157C16.9684 6.07548 16.9907 6.37428 16.9973 6.99999Z" fill="#99A2AD"/>
</svg>
