<svg width="20" height="20" viewBox="0 0 20 20" fill="none" xmlns="http://www.w3.org/2000/svg">
<path fill-rule="evenodd" clip-rule="evenodd" d="M6.61951 2.49996C5.62929 2.49966 4.96961 2.49946 4.4091 2.66404C3.08666 3.05235 2.05247 4.08654 1.66417 5.40897C1.49959 5.96948 1.49979 6.62917 1.50009 7.61939L1.50011 10.0024C1.50011 10.899 1.5001 11.6176 1.54756 12.1985C1.59631 12.7952 1.69885 13.3123 1.94154 13.7887C2.32982 14.5507 2.94939 15.1703 3.71145 15.5586C4.18776 15.8013 4.70494 15.9038 5.30161 15.9525C5.88252 16 6.60108 16 7.49765 16H15.9395L14.7198 17.2197C14.4269 17.5126 14.4269 17.9874 14.7198 18.2803C15.0127 18.5732 15.4875 18.5732 15.7804 18.2803L18.2804 15.7803C18.5733 15.4874 18.5733 15.0126 18.2804 14.7197L15.7804 12.2197C15.4875 11.9268 15.0127 11.9268 14.7198 12.2197C14.4269 12.5126 14.4269 12.9874 14.7198 13.2803L15.9395 14.5H7.53011C6.59365 14.5 5.93641 14.4994 5.42375 14.4575C4.91985 14.4164 4.62204 14.339 4.39244 14.2221C3.91262 13.9776 3.52252 13.5875 3.27805 13.1077C3.16106 12.8781 3.08375 12.5803 3.04258 12.0764C3.0007 11.5637 3.00011 10.9065 3.00011 9.96999V8.49999H17.0001V10.7917C17.0001 11.2059 17.3359 11.5417 17.7501 11.5417C18.1643 11.5417 18.5001 11.2059 18.5001 10.7917L18.5001 7.61939C18.5004 6.62917 18.5006 5.96948 18.3361 5.40897C17.9478 4.08654 16.9136 3.05235 15.5911 2.66404C15.0306 2.49946 14.3709 2.49966 13.3807 2.49996H6.61951ZM16.9974 6.99999H3.00283C3.00951 6.37428 3.03179 6.07548 3.10341 5.83157C3.34789 4.99893 3.99905 4.34777 4.8317 4.10328C5.1574 4.00765 5.58096 3.99999 6.75011 3.99999H13.2501C14.4193 3.99999 14.8428 4.00765 15.1685 4.10328C16.0012 4.34777 16.6523 4.99893 16.8968 5.83157C16.9684 6.07548 16.9907 6.37428 16.9974 6.99999Z" fill="#99A2AD"/>
</svg>
