<svg width="20" height="20" viewBox="0 0 20 20" fill="none" xmlns="http://www.w3.org/2000/svg">
<path fill-rule="evenodd" clip-rule="evenodd" d="M10.6062 1.98739C10.717 2.28364 10.63 2.61752 10.3887 2.82206C9.1337 3.88615 8.3391 5.47196 8.3391 7.24411C8.3391 10.4444 10.9335 13.0388 14.1338 13.0388C15.0871 13.0388 15.9846 12.8092 16.7761 12.4029C17.0577 12.2583 17.3998 12.3061 17.631 12.5224C17.8622 12.7387 17.9327 13.0768 17.8072 13.3675C16.5036 16.3855 13.4998 18.5 10.0003 18.5C5.30571 18.5 1.5 14.6943 1.5 9.99971C1.5 5.34044 5.24858 1.5568 9.89454 1.50006C10.2108 1.49619 10.4955 1.69114 10.6062 1.98739ZM8.00407 3.28813C5.11053 4.14746 3 6.82715 3 9.99971C3 13.8659 6.13414 17 10.0003 17C12.1873 17 14.1409 15.9971 15.4251 14.4248C15.0058 14.4997 14.5742 14.5388 14.1338 14.5388C10.105 14.5388 6.8391 11.2729 6.8391 7.24411C6.8391 5.786 7.2673 4.42757 8.00407 3.28813Z" fill="#99A2AD"/>
</svg>
