<svg width="20" height="20" viewBox="0 0 20 20" fill="none" xmlns="http://www.w3.org/2000/svg">
<path fill-rule="evenodd" clip-rule="evenodd" d="M16.4999 6.5C16.4999 8.15685 15.1568 9.5 13.4999 9.5C11.8431 9.5 10.4999 8.15685 10.4999 6.5C10.4999 4.84315 11.8431 3.5 13.4999 3.5C15.1568 3.5 16.4999 4.84315 16.4999 6.5ZM17.9999 6.5C17.9999 8.98528 15.9852 11 13.4999 11C11.0147 11 8.99994 8.98528 8.99994 6.5C8.99994 4.01472 11.0147 2 13.4999 2C15.9852 2 17.9999 4.01472 17.9999 6.5ZM10.7237 13.3516C11.0437 13.09 11.0955 12.6131 10.8393 12.2864C10.5832 11.9597 10.1161 11.9068 9.79616 12.1684L4.74888 16.2938C4.42437 16.559 3.97935 16.5433 3.69627 16.2851C3.44508 16.056 3.42551 15.6871 3.61644 15.4513L7.83364 10.2428C8.0948 9.92029 8.05044 9.44263 7.73455 9.17596C7.41865 8.90929 6.95086 8.95459 6.68969 9.27714L2.47249 14.4856C1.74977 15.3782 1.8893 16.6693 2.70754 17.4155C3.55783 18.1909 4.81462 18.1813 5.67644 17.4769L10.7237 13.3516Z" fill="#99A2AD"/>
</svg>
