<svg width="20" height="20" viewBox="0 0 20 20" fill="none" xmlns="http://www.w3.org/2000/svg">
<path d="M14.7332 2.0484C15.9662 1.79151 17.1741 2.58286 17.431 3.81593C17.4629 3.96893 17.4789 4.12479 17.4789 4.28107V12.2664C17.4789 15.8412 13.9877 17.6787 12.0922 15.7832C10.1967 13.8877 12.0342 10.3965 15.609 10.3965L15.9788 10.396V6.765L8.00377 8.434L8.00389 14.2489C8.00389 17.7536 4.64823 19.5884 2.73046 17.8729L2.61715 17.7657C0.72164 15.8701 2.55913 12.3789 6.13396 12.3789L6.50376 12.378L6.50389 6.23075C6.50389 5.59093 6.55117 5.22705 6.68707 4.87393L6.74226 4.7415C6.91103 4.3644 7.16752 4.04897 7.50227 3.80683C7.85637 3.5507 8.20694 3.41653 8.91058 3.26994L14.7332 2.0484ZM6.50389 13.8789H6.13396C3.81443 13.8789 2.79281 15.82 3.67781 16.705C4.56281 17.59 6.50389 16.5684 6.50389 14.2489V13.8789ZM15.9789 11.8965H15.609C13.2895 11.8965 12.2678 13.8375 13.1528 14.7225C14.0378 15.6075 15.9789 14.5859 15.9789 12.2664V11.8965ZM15.9625 4.12186C15.8746 3.6998 15.4612 3.42894 15.0401 3.51665L9.05834 4.77245C8.66611 4.86004 8.52198 4.92052 8.3814 5.02221C8.26006 5.10998 8.17257 5.21757 8.11139 5.35426C8.03165 5.53243 8.00389 5.70434 8.00389 6.23075L8.00377 6.901L15.9788 5.233L15.9789 4.28107C15.9789 4.25433 15.9775 4.22762 15.9748 4.20105L15.9625 4.12186Z" fill="#99A2AD"/>
</svg>
