<svg width="20" height="20" viewBox="0 0 20 20" fill="none" xmlns="http://www.w3.org/2000/svg">
<path d="M4.88633 3.55304C5.17923 3.26015 5.6541 3.26015 5.947 3.55304L16.1137 13.7197C16.4066 14.0126 16.4066 14.4875 16.1137 14.7804C15.8207 15.0733 15.3459 15.0733 15.053 14.7804L13 12.7274V15.2593C13 16.0883 12.2934 16.6667 11.5417 16.6667C10.9065 16.6667 10.2872 16.433 9.82227 16.0015L6.28892 12.7223H4.78298C3.85195 12.7223 3 12.009 3 11.0135V8.98654C3 7.99112 3.85195 7.27782 4.78298 7.27782H6.28892L6.94321 6.67057L4.88633 4.61371C4.59344 4.32081 4.59344 3.84594 4.88633 3.55304ZM8.01273 7.7401C7.7055 8.01917 7.39657 8.29629 7.09353 8.57754C6.95482 8.70627 6.77257 8.77782 6.58333 8.77782H4.78298C4.68698 8.77782 4.61098 8.81358 4.56276 8.85834C4.51547 8.90222 4.5 8.94783 4.5 8.98654V11.0135C4.5 11.0522 4.51547 11.0979 4.56276 11.1417C4.61098 11.1865 4.68698 11.2223 4.78298 11.2223H6.58333C6.77257 11.2223 6.95482 11.2938 7.09353 11.4225L10.8427 14.9021C11.0101 15.0575 11.2442 15.1562 11.5 15.166V11.2274L8.01273 7.7401ZM11.5417 3.33337C12.2934 3.33337 13 3.91178 13 4.74078V6.67572C13 7.08993 12.6642 7.42572 12.25 7.42572C11.8357 7.42572 11.5 7.08993 11.5 6.67572V4.83417C11.2442 4.84387 11.0101 4.94256 10.8427 5.09796L10.7338 5.19902C10.4302 5.48079 9.95563 5.4631 9.67385 5.15949C9.39207 4.85589 9.40977 4.38135 9.71337 4.09957L9.82227 3.99851C10.2872 3.56702 10.9065 3.33337 11.5417 3.33337Z" fill="#99A2AD"/>
</svg>
