<svg width="20" height="20" viewBox="0 0 20 20" fill="none" xmlns="http://www.w3.org/2000/svg">
<path d="M10.535 1.50789C11.2192 1.6676 11.8203 2.01461 12.3007 2.52732C12.8273 3.0893 13.1182 3.68762 13.4631 4.97467L13.7663 6.10645C13.8735 6.50655 13.6361 6.9178 13.236 7.025C12.8359 7.13221 12.4247 6.89477 12.3174 6.49467L12.0142 5.3629C11.7279 4.29458 11.5412 3.91053 11.2062 3.55296C10.9284 3.25656 10.5896 3.06096 10.1941 2.96863C9.75096 2.86521 9.35202 2.88395 8.44194 3.11635L8.22259 3.17382L5.9929 3.77126C5.10959 4.00794 4.68141 4.18594 4.39179 4.40168L4.32209 4.45646L4.18297 4.5793C3.88657 4.85704 3.69096 5.19583 3.59864 5.59139C3.50317 6.00041 3.5118 6.37179 3.69648 7.14231L3.80382 7.56286L5.69536 14.6222L5.81267 15.0401C6.03799 15.7997 6.21621 16.1256 6.5034 16.4321C6.78114 16.7285 7.11993 16.9241 7.51549 17.0164C7.99268 17.1278 8.41864 17.0975 9.4865 16.8114L10.0537 16.659C10.4538 16.5515 10.8652 16.7887 10.9726 17.1887C11.0801 17.5888 10.8429 18.0002 10.4429 18.1076L9.87519 18.2601C8.58814 18.605 7.92452 18.6522 7.17454 18.4772C6.4903 18.3175 5.88927 17.9705 5.40884 17.4578C4.91736 16.9332 4.63117 16.3771 4.31481 15.2588L4.24647 15.0104L2.35493 7.95109C2.01007 6.66404 1.96285 6.00042 2.1379 5.25044C2.27986 4.64223 2.56981 4.09976 3.00349 3.63936L3.17285 3.4706L3.34564 3.31805C3.8113 2.93135 4.36437 2.67216 5.34926 2.39273L5.60467 2.32237L7.83436 1.72493C9.12141 1.38006 9.78503 1.33284 10.535 1.50789ZM16.1316 8.25003C17.865 8.25003 19.25 9.72724 19.25 11.5262C19.25 13.2845 18.5875 14.1688 15.9329 16.371L14.7829 17.325C14.3289 17.7017 13.6711 17.7017 13.2171 17.325L11.8082 16.1551C9.36911 14.1089 8.75002 13.2259 8.75002 11.5262C8.75002 9.72724 10.135 8.25003 11.8684 8.25003C12.5968 8.25003 13.2671 8.46338 13.8651 8.87782L14 8.97703L14.135 8.87782C14.6732 8.50482 15.2699 8.29471 15.9148 8.25641L16.1316 8.25003ZM16.1316 9.75003C15.54 9.75003 15.0248 9.98784 14.547 10.4971L14.3647 10.6915C14.3574 10.6993 14.3499 10.7068 14.3421 10.7141C14.1407 10.903 13.8243 10.8929 13.6354 10.6915L13.453 10.4971C12.9753 9.98784 12.4601 9.75003 11.8684 9.75003C10.9858 9.75003 10.25 10.5348 10.25 11.5262C10.25 12.6902 10.6943 13.2832 13.0248 15.2165L14 16.025L14.9752 15.2165C17.2281 13.3476 17.7183 12.7312 17.7485 11.6408L17.75 11.5262C17.75 10.5348 17.0142 9.75003 16.1316 9.75003Z" fill="#99A2AD"/>
</svg>
