<svg width="20" height="20" viewBox="0 0 20 20" fill="none" xmlns="http://www.w3.org/2000/svg">
<path d="M7.5 12.5308C7.5 13.1615 7.82437 13.5 8.42064 13.5H10.0568C11.9744 13.5 13 12.2795 13 9.99744C13 7.72051 11.9744 6.5 10.0568 6.5H8.42064C7.82437 6.5 7.5 6.83846 7.5 7.46923V12.5308ZM9.07892 12.1513V7.84359H9.81353C10.8964 7.84359 11.3877 8.51538 11.3877 9.99744C11.3877 11.4846 10.8964 12.1513 9.81353 12.1513H9.07892Z" fill="#99A2AD"/>
<path d="M14.2519 13.5C14.6871 13.5 14.9196 13.2727 15.0829 12.6869L15.345 11.8636H17.6154L17.8726 12.6869C18.0359 13.2576 18.2881 13.5 18.7234 13.5C19.1933 13.5 19.5 13.2172 19.5 12.7778C19.5 12.601 19.4555 12.399 19.3664 12.1162L17.8776 7.64646C17.6055 6.82323 17.2296 6.5 16.5173 6.5C15.805 6.5 15.4192 6.82828 15.1521 7.64646L13.6583 12.1162C13.5445 12.4545 13.5 12.6465 13.5 12.8131C13.5 13.2172 13.8067 13.5 14.2519 13.5ZM15.6814 10.6566L16.4481 8.04545H16.5272L17.284 10.6566H15.6814Z" fill="#99A2AD"/>
<path d="M2.496 12.6307V9.32527H2.55956L4.828 12.8379C5.16044 13.3433 5.38044 13.5 5.74222 13.5C6.236 13.5 6.5 13.1765 6.5 12.57V7.36931C6.5 6.82347 6.21644 6.5 5.74222 6.5C5.27289 6.5 4.99911 6.82347 4.99911 7.36931V10.6343H4.93556L2.68667 7.16715C2.364 6.68195 2.15867 6.5 1.80178 6.5C1.26889 6.5 1 6.83357 1 7.48051V12.6307C1 13.1715 1.27867 13.5 1.75289 13.5C2.22711 13.5 2.496 13.1765 2.496 12.6307Z" fill="#99A2AD"/>
</svg>
