<svg width="20" height="20" viewBox="0 0 20 20" fill="none" xmlns="http://www.w3.org/2000/svg">
<path d="M13.5303 8.78034C13.8232 8.48745 13.8232 8.01258 13.5303 7.71968C13.2375 7.42679 12.7626 7.42679 12.4697 7.71968L9.00001 11.1894L7.78034 9.96968C7.48745 9.67679 7.01258 9.67679 6.71968 9.96968C6.42679 10.2626 6.42679 10.7375 6.71968 11.0303L8.46968 12.7803C8.76258 13.0732 9.23745 13.0732 9.53034 12.7803L13.5303 8.78034Z" fill="#99A2AD"/>
<path fill-rule="evenodd" clip-rule="evenodd" d="M8.47893 1.55005C7.82277 1.39863 7.13488 1.59592 6.65871 2.07209L2.07208 6.65871C1.59591 7.13488 1.39863 7.82277 1.55005 8.47893L3.14514 15.391C3.31308 16.1187 3.88132 16.6869 4.60905 16.8549L11.5211 18.45C12.1773 18.6014 12.8651 18.4041 13.3413 17.9279L17.9279 13.3413C18.4041 12.8651 18.6014 12.1773 18.45 11.5211L16.8549 4.60905C16.6869 3.88132 16.1187 3.31308 15.391 3.14514L8.47893 1.55005ZM7.71937 3.13275C7.82984 3.02228 7.98942 2.97651 8.14164 3.01164L15.0537 4.60673C15.2225 4.64569 15.3543 4.77751 15.3933 4.94634L16.9884 11.8584C17.0235 12.0106 16.9777 12.1702 16.8673 12.2807L12.2807 16.8673C12.1702 16.9777 12.0106 17.0235 11.8584 16.9884L4.94634 15.3933C4.77751 15.3543 4.64569 15.2225 4.60673 15.0537L3.01164 8.14164C2.97651 7.98942 3.02228 7.82984 3.13275 7.71937L7.71937 3.13275Z" fill="#99A2AD"/>
</svg>
