<svg width="20" height="20" viewBox="0 0 20 20" fill="none" xmlns="http://www.w3.org/2000/svg">
<path fill-rule="evenodd" clip-rule="evenodd" d="M7.70782 4.87632C7.6174 4.39216 7.4018 4.00574 7.16169 3.76735C6.9184 3.5258 6.70931 3.48389 6.58083 3.50527C6.45722 3.52585 6.28624 3.62549 6.15057 3.91923C6.01537 4.21196 5.95167 4.63918 6.04215 5.12369C6.13257 5.60785 6.34817 5.99427 6.58827 6.23266C6.83157 6.47422 7.04066 6.51613 7.16914 6.49474C7.29274 6.47416 7.46373 6.37453 7.5994 6.08078C7.7346 5.78806 7.7983 5.36084 7.70782 4.87632ZM6.33451 2.02564C7.07317 1.90267 7.74254 2.2303 8.21854 2.70289C8.69773 3.17866 9.04227 3.851 9.18232 4.60095C9.32231 5.35054 9.2432 6.09911 8.96117 6.70973C8.67962 7.31933 8.15899 7.8506 7.41546 7.97438C6.6768 8.09734 6.00743 7.76971 5.53143 7.29712C5.05224 6.82136 4.7077 6.14902 4.56764 5.39906C4.42765 4.64947 4.50677 3.90091 4.78879 3.29028C5.07035 2.68068 5.59098 2.14941 6.33451 2.02564ZM12.8383 3.76735C12.5982 4.00574 12.3826 4.39216 12.2922 4.87632C12.2017 5.36084 12.2654 5.78806 12.4006 6.08078C12.5363 6.37453 12.7073 6.47416 12.8309 6.49474C12.9593 6.51613 13.1684 6.47422 13.4117 6.23266C13.6518 5.99427 13.8674 5.60785 13.9579 5.12369C14.0483 4.63918 13.9846 4.21196 13.8494 3.91923C13.7138 3.62549 13.5428 3.52585 13.4192 3.50527C13.2907 3.48389 13.0816 3.5258 12.8383 3.76735ZM11.7815 2.70289C12.2575 2.2303 12.9268 1.90267 13.6655 2.02564C14.409 2.14941 14.9297 2.68068 15.2112 3.29028C15.4932 3.90091 15.5724 4.64947 15.4324 5.39906C15.2923 6.14902 14.9478 6.82136 14.4686 7.29712C13.9926 7.76971 13.3232 8.09734 12.5846 7.97438C11.841 7.8506 11.3204 7.31933 11.0388 6.70973C10.7568 6.09911 10.6777 5.35054 10.8177 4.60095C10.9577 3.851 11.3023 3.17866 11.7815 2.70289ZM10 10.5C9.52954 10.5 9.2147 10.6957 8.89844 11.1137C8.61468 11.4887 8.38814 11.9615 8.1102 12.5417C8.03779 12.6928 7.96189 12.8512 7.88059 13.0171C7.59447 13.6008 7.29882 14.0912 7.06323 14.482C6.98616 14.6098 6.91552 14.727 6.85374 14.8333C6.57958 15.305 6.49997 15.5322 6.5 15.7093C6.50005 15.9783 6.56 16.1163 6.60677 16.1873C6.6536 16.2584 6.7247 16.3189 6.84186 16.3701C7.11559 16.4896 7.48614 16.5 7.875 16.5C8.13469 16.5 8.38735 16.4498 8.64143 16.4022C8.97007 16.3413 9.36811 16.2794 10 16.2794C10.6319 16.2794 11.0299 16.3413 11.3586 16.4022C11.6127 16.4498 11.8653 16.5 12.125 16.5C12.5139 16.5 12.8844 16.4896 13.1581 16.3701C13.2753 16.3189 13.3464 16.2584 13.3932 16.1873C13.44 16.1163 13.5 15.9783 13.5 15.7093C13.5 15.5322 13.4204 15.305 13.1463 14.8333C13.0845 14.727 13.0138 14.6098 12.9368 14.482C12.7012 14.0912 12.4055 13.6008 12.1194 13.0171C12.0381 12.8512 11.9622 12.6928 11.8898 12.5417C11.6119 11.9615 11.3853 11.4887 11.1016 11.1137C10.7853 10.6957 10.4705 10.5 10 10.5ZM10 9C11.0667 9 11.784 9.52962 12.2977 10.2086C12.6825 10.7171 12.9935 11.369 13.2767 11.9629C13.3412 12.098 13.4042 12.2301 13.4663 12.3568C13.721 12.8765 13.9668 13.2843 14.1961 13.6647C14.2808 13.8052 14.3634 13.9423 14.4431 14.0795C14.7154 14.5481 15.0001 15.0889 15 15.7096C14.9999 16.2109 14.8845 16.6505 14.6457 17.0128C14.4069 17.375 14.0823 17.6033 13.7585 17.7447C13.1716 18.001 12.5067 18.0003 12.1611 18C11.7956 17.9997 11.4433 17.9435 11.0852 17.8771C10.8188 17.8277 10.5156 17.7794 10 17.7794C9.48439 17.7794 9.18119 17.8277 8.91483 17.8771C8.55671 17.9435 8.2044 17.9997 7.83889 18C7.49332 18.0003 6.8284 18.001 6.24149 17.7447C5.91775 17.6033 5.59308 17.375 5.35434 17.0128C5.11554 16.6505 5.0001 16.2109 5 15.7096C4.99989 15.0889 5.28456 14.5481 5.55687 14.0795C5.63662 13.9423 5.71901 13.8056 5.80366 13.6652C6.03293 13.2847 6.27899 12.8765 6.53371 12.3568C6.59782 12.2261 6.66016 12.0948 6.72303 11.9634C7.00628 11.3696 7.31751 10.7171 7.70228 10.2086C8.21602 9.52962 8.93333 9 10 9ZM16.7362 8.8826C16.47 9.04707 16.1798 9.36133 15.9751 9.80724C15.7705 10.2529 15.7187 10.6835 15.7666 11.0019C15.8157 11.3284 15.9457 11.4432 16.0147 11.4758C16.0804 11.507 16.2424 11.535 16.5137 11.3674C16.7799 11.2029 17.0701 10.8886 17.2748 10.4427C17.4794 9.99707 17.5313 9.56643 17.4834 9.24804C17.4342 8.92154 17.3042 8.8068 17.2352 8.77413C17.1695 8.74299 17.0076 8.71497 16.7362 8.8826ZM15.9478 7.60651C16.4955 7.26816 17.2077 7.10134 17.8773 7.4185C18.5437 7.73414 18.871 8.38885 18.9667 9.02484C19.0636 9.66893 18.9478 10.3938 18.6381 11.0685C18.3284 11.743 17.8549 12.3019 17.3021 12.6435C16.7545 12.9818 16.0422 13.1486 15.3726 12.8315C14.7062 12.5158 14.379 11.8611 14.2833 11.2251C14.1864 10.581 14.3021 9.85616 14.6119 9.18142C14.9215 8.50692 15.3951 7.94802 15.9478 7.60651ZM4.0249 9.80724C3.82019 9.36133 3.52999 9.04707 3.26378 8.8826C2.99246 8.71497 2.83049 8.74299 2.76476 8.77413C2.69579 8.8068 2.56578 8.92154 2.51665 9.24804C2.46874 9.56643 2.52057 9.99707 2.72516 10.4427C2.92987 10.8886 3.22008 11.2029 3.48628 11.3674C3.75761 11.535 3.91957 11.507 3.9853 11.4758C4.05427 11.4432 4.18429 11.3284 4.23341 11.0019C4.28133 10.6835 4.22949 10.2529 4.0249 9.80724ZM2.12267 7.4185C2.79229 7.10134 3.50455 7.26816 4.05219 7.60651C4.60496 7.94802 5.07847 8.50692 5.38811 9.18142C5.69787 9.85616 5.81363 10.581 5.71672 11.2251C5.62102 11.8611 5.29378 12.5158 4.62739 12.8315C3.95777 13.1486 3.24551 12.9818 2.69787 12.6435C2.14511 12.3019 1.6716 11.743 1.36195 11.0685C1.05219 10.3938 0.93643 9.66893 1.03335 9.02484C1.12905 8.38885 1.45629 7.73414 2.12267 7.4185Z" fill="#99A2AD"/>
</svg>
