<svg width="20" height="20" viewBox="0 0 20 20" fill="none" xmlns="http://www.w3.org/2000/svg">
<path d="M5 12C5 11.7239 5.22386 11.5 5.5 11.5H6.5C6.77614 11.5 7 11.7239 7 12V13C7 13.2761 6.77614 13.5 6.5 13.5H5.5C5.22386 13.5 5 13.2761 5 13V12Z" fill="#99A2AD"/>
<path fill-rule="evenodd" clip-rule="evenodd" d="M7.81739 3H12.1826C13.1351 2.99999 13.8956 2.99999 14.5099 3.05018C15.1399 3.10165 15.6818 3.20963 16.1795 3.46322C16.9791 3.87068 17.6293 4.52085 18.0368 5.32054C18.2904 5.81824 18.3983 6.36012 18.4498 6.99013C18.5 7.60439 18.5 8.36493 18.5 9.31737V10.6826C18.5 11.6351 18.5 12.3956 18.4498 13.0099C18.3983 13.6399 18.2904 14.1818 18.0368 14.6795C17.6293 15.4791 16.9791 16.1293 16.1795 16.5368C15.6818 16.7904 15.1399 16.8984 14.5099 16.9498C13.8956 17 13.1351 17 12.1826 17H7.81737C6.86493 17 6.10439 17 5.49013 16.9498C4.86012 16.8984 4.31824 16.7904 3.82054 16.5368C3.02085 16.1293 2.37068 15.4791 1.96322 14.6795C1.70963 14.1818 1.60165 13.6399 1.55018 13.0099C1.49999 12.3956 1.49999 11.6351 1.5 10.6826V9.31739C1.49999 8.36494 1.49999 7.6044 1.55018 6.99013C1.60165 6.36012 1.70963 5.81824 1.96322 5.32054C2.37068 4.52085 3.02085 3.87068 3.82054 3.46322C4.31824 3.20963 4.86012 3.10165 5.49013 3.05018C6.1044 2.99999 6.86494 2.99999 7.81739 3ZM4.50153 4.79973C4.75252 4.67184 5.07503 4.58909 5.61228 4.54519C6.15829 4.50058 6.85753 4.5 7.85 4.5H12.15C13.1425 4.5 13.8417 4.50058 14.3877 4.54519C14.925 4.58909 15.2475 4.67184 15.4985 4.79973C16.0159 5.06338 16.4366 5.48408 16.7003 6.00153C16.8282 6.25252 16.9109 6.57503 16.9548 7.11228L16.9785 7.5H3.02152L3.04519 7.11228C3.08909 6.57503 3.17184 6.25252 3.29973 6.00153C3.56338 5.48408 3.98408 5.06338 4.50153 4.79973ZM3 9.35V10.65C3 11.6425 3.00058 12.3417 3.04519 12.8877C3.08909 13.425 3.17184 13.7475 3.29973 13.9985C3.56338 14.5159 3.98408 14.9366 4.50153 15.2003C4.75252 15.3282 5.07503 15.4109 5.61228 15.4548C6.15829 15.4994 6.85753 15.5 7.85 15.5H12.15C13.1425 15.5 13.8417 15.4994 14.3877 15.4548C14.925 15.4109 15.2475 15.3282 15.4985 15.2003C16.0159 14.9366 16.4366 14.5159 16.7003 13.9985C16.8282 13.7475 16.9109 13.425 16.9548 12.8877C16.9994 12.3417 17 11.6425 17 10.65V9.35L16.9999 9H3.0001L3 9.35ZM5.5 11.5H6.5C6.77614 11.5 7 11.7239 7 12V13C7 13.2761 6.77614 13.5 6.5 13.5H5.5C5.22386 13.5 5 13.2761 5 13V12C5 11.7239 5.22386 11.5 5.5 11.5Z" fill="#99A2AD"/>
</svg>
