<svg width="20" height="20" viewBox="0 0 20 20" fill="none" xmlns="http://www.w3.org/2000/svg">
<path fill-rule="evenodd" clip-rule="evenodd" d="M19.5013 10.8191V10.8608C19.5013 11.8446 19.1387 12.7574 18.3505 13.3596C17.6105 13.925 16.71 14.0513 15.927 13.9796C15.6708 13.9561 15.4868 13.9456 15.3069 13.9352C15.2343 13.9311 15.1624 13.9269 15.0867 13.922C14.8293 13.9053 14.5474 13.8798 14.2143 13.7981L14.1602 13.7849L14.1073 13.7676C13.337 13.5169 12.7298 13.151 12.281 12.6751C11.8261 12.1927 11.6115 11.6796 11.5048 11.2632C11.3854 10.7977 11.3691 10.3805 11.3715 9.96175C11.3025 9.94556 11.1107 9.91188 10.8322 9.88165C10.5554 9.8516 10.2636 9.83263 10.031 9.83263H10.0297L10.0258 9.83262C9.94855 9.83253 9.2316 9.83478 8.62248 9.96012C8.62289 9.98946 8.62325 10.0203 8.62351 10.0531C8.62573 10.3283 8.61731 10.6636 8.53813 11.0595C8.16318 12.9343 6.52897 13.5653 5.89337 13.762C5.56738 13.8628 5.27861 13.8928 5.00452 13.9135C4.90361 13.9211 4.78685 13.9285 4.66256 13.9364C4.62321 13.9388 4.5831 13.9414 4.54251 13.944C4.36735 13.9552 4.16122 13.9691 3.91 13.989L3.8703 13.9921L3.8305 13.9931C2.73618 14.0214 1.79523 13.6677 1.17472 12.9033C0.609769 12.2073 0.499023 11.3967 0.499023 10.8655C0.499023 10.2556 0.702995 9.37518 1.07665 8.71976C1.50942 7.96063 2.12866 7.38878 2.7406 6.90149L2.74989 6.89409L2.7593 6.88684C3.58469 6.25067 4.53964 5.87092 5.22735 5.65257C5.58199 5.53997 5.89126 5.46237 6.11501 5.4123C6.22733 5.38716 6.31934 5.36868 6.38618 5.35602C6.41963 5.34968 6.44688 5.34478 6.46732 5.34121L6.48222 5.33866C8.26655 5.0044 9.78436 4.99567 10.0748 5.00083C10.9412 5.01621 11.6542 5.07614 12.1568 5.13334C12.4083 5.16197 12.6078 5.18999 12.7483 5.21158C12.8186 5.22237 12.8741 5.23157 12.9141 5.23844L12.9289 5.24106C12.9494 5.24364 12.9748 5.24695 13.0046 5.25108C13.0793 5.2614 13.1826 5.27687 13.3089 5.29876C13.5608 5.34237 13.9095 5.41235 14.3101 5.51978C15.0884 5.7285 16.165 6.10521 17.099 6.78057C17.2602 6.89718 18.1609 7.57241 18.7304 8.41778C19.1007 8.96738 19.4388 9.69689 19.499 10.7774L19.5013 10.8191ZM12.7075 6.72521C12.7075 6.72521 11.673 6.52944 10.0481 6.50059C9.82387 6.49661 8.40653 6.50296 6.74587 6.81537C6.74587 6.81537 4.93054 7.10719 3.675 8.0749C3.11281 8.52258 2.67083 8.95209 2.37976 9.46266C2.14148 9.88063 1.99902 10.503 1.99902 10.8655C1.99902 11.5695 2.309 12.532 3.79175 12.4936C4.11893 12.4678 4.37216 12.4517 4.57558 12.4389C5.02189 12.4106 5.2284 12.3975 5.45007 12.329C5.99304 12.161 6.86663 11.7685 7.06726 10.7654C7.13174 10.443 7.12644 10.1732 7.12045 9.86891C7.11709 9.6982 7.11352 9.51663 7.12195 9.30884C7.25452 8.74602 7.70972 8.62586 8.23706 8.50867C9.03474 8.33141 9.94341 8.33252 10.0271 8.33262L10.031 8.33263C10.6341 8.33263 11.4238 8.42769 11.7481 8.50969C11.7834 8.51862 11.8197 8.52738 11.8567 8.53632C12.2654 8.63504 12.7568 8.75373 12.8786 9.32329C12.8786 9.50396 12.8767 9.6589 12.8751 9.79559C12.8692 10.278 12.8662 10.5332 12.9578 10.8907C13.0754 11.3495 13.4075 11.9624 14.5716 12.3413C14.8334 12.4055 15.0525 12.4181 15.3731 12.4365C15.5596 12.4472 15.7804 12.4599 16.0638 12.4858C17.1499 12.5853 18.0013 12.0796 18.0013 10.8608C17.9583 10.0893 17.7292 9.61627 17.4864 9.25588C17.0739 8.64362 16.3595 8.09689 16.22 7.99608C14.7742 6.95058 12.7075 6.72521 12.7075 6.72521Z" fill="#99A2AD"/>
</svg>
