<svg width="20" height="20" viewBox="0 0 20 20" fill="none" xmlns="http://www.w3.org/2000/svg">
<path d="M7.78007 2.7008L8.48035 3.53321C9.85253 5.16068 9.70873 7.58671 8.18101 9.11463L7.88399 9.41129C8.10961 9.79033 8.51731 10.2892 9.11432 10.8863C9.6443 11.4164 10.0975 11.7977 10.4581 12.0348L10.5889 12.1169L10.886 11.8198C12.4125 10.2931 14.8367 10.1479 16.4667 11.5183L17.2994 12.2198C18.7593 13.4485 18.9011 15.639 17.6449 17.114C17.0436 17.8097 16.2144 18.267 15.3547 18.4026L14.8486 18.4634C11.844 18.755 8.81168 17.3034 5.75466 14.2459C2.69922 11.1901 1.2453 8.15691 1.5291 5.22063L1.58962 4.7057C1.62361 4.47723 1.67688 4.25605 1.7508 4.03756C1.97332 3.38459 2.36653 2.80243 2.88938 2.3518L3.0568 2.217C4.51873 1.11011 6.59667 1.29316 7.78007 2.7008ZM3.86866 3.48803C3.54801 3.76439 3.30695 4.12137 3.17062 4.52141C3.11178 4.69534 3.07377 4.87564 3.0558 5.07287C2.71256 7.62097 3.9541 10.3237 6.81539 13.1853C9.67655 16.0469 12.3781 17.2879 14.9392 16.9432C15.5483 16.885 16.1115 16.5942 16.5101 16.1331C17.2287 15.2893 17.1461 14.0514 16.3335 13.3675L15.5003 12.6655L15.3576 12.554C14.3375 11.815 12.8868 11.9403 11.9467 12.8804L11.3496 13.4777L11.2624 13.5544C11.0192 13.7422 10.6939 13.7949 10.4001 13.6872C9.75217 13.4489 8.97532 12.8688 8.05359 11.9469C7.13095 11.0241 6.55121 10.2477 6.31431 9.60006C6.19304 9.27008 6.27436 8.89971 6.52306 8.65054L7.12099 8.05333L7.24972 7.91565C8.11195 6.92895 8.15627 5.47587 7.33357 4.5001L6.63223 3.66645L6.51986 3.54418C5.81972 2.84708 4.66751 2.80876 3.86866 3.48803Z" fill="#99A2AD"/>
</svg>
