<svg width="20" height="20" viewBox="0 0 20 20" fill="none" xmlns="http://www.w3.org/2000/svg">
<path fill-rule="evenodd" clip-rule="evenodd" d="M7.08218 3.5C5.42212 3.5 5.05884 3.66876 4.71909 3.85046C4.34075 4.0528 4.0528 4.34075 3.85046 4.71909C3.66876 5.05884 3.5 5.42212 3.5 7.08218V10V12.9178C3.5 13.6578 3.53353 14.1401 3.58679 14.4775L5.79306 12.2713L5.79306 12.2713L5.79314 12.2712L5.79317 12.2712C6.07267 11.9916 6.3138 11.7505 6.52865 11.5681C6.75544 11.3756 7.0018 11.2048 7.30471 11.1064C7.75661 10.9596 8.24339 10.9596 8.69529 11.1064C8.9982 11.2048 9.24456 11.3756 9.47135 11.5681C9.63126 11.7038 9.80572 11.8721 9.99974 12.0646L11.9849 10.0794C12.1828 9.88147 12.3533 9.71103 12.5031 9.57851C12.8133 9.30407 13.2873 9.3331 13.5618 9.64335C13.8362 9.9536 13.8072 10.4276 13.4969 10.702C13.3857 10.8004 13.2479 10.9377 13.0303 11.1553L10.5303 13.6553C10.3897 13.796 10.1989 13.875 10 13.875C9.80109 13.875 9.61032 13.796 9.46967 13.6553L9.16673 13.3524C8.86096 13.0466 8.66312 12.8496 8.50058 12.7116C8.34474 12.5793 8.27135 12.5459 8.23176 12.533C8.08113 12.4841 7.91887 12.4841 7.76824 12.533C7.72865 12.5459 7.65526 12.5793 7.49942 12.7116C7.33688 12.8496 7.13904 13.0466 6.83327 13.3524L4.53033 15.6553C4.45263 15.733 4.36212 15.7901 4.26561 15.8266C4.399 15.9516 4.55002 16.0591 4.71909 16.1495C5.05884 16.3312 5.42212 16.5 7.08218 16.5H10.25C10.6642 16.5 11 16.8358 11 17.25C11 17.6642 10.6642 18 10.25 18H7.08218C5.3068 18 4.66122 17.8196 4.01169 17.4723C3.37195 17.1301 2.86988 16.6281 2.52774 15.9883C2.18037 15.3388 2 14.6932 2 12.9178V7.08218C2 5.3068 2.18037 4.66122 2.52774 4.01169C2.86988 3.37195 3.37195 2.86988 4.01169 2.52774C4.66122 2.18037 5.3068 2 7.08218 2H12.9178C14.6932 2 15.3388 2.18037 15.9883 2.52774C16.6281 2.86988 17.1301 3.37195 17.4723 4.01169C17.8196 4.66122 18 5.3068 18 7.08218V10.25C18 10.6642 17.6642 11 17.25 11C16.8358 11 16.5 10.6642 16.5 10.25V7.08218C16.5 5.42212 16.3312 5.05884 16.1495 4.71909C15.9472 4.34075 15.6593 4.0528 15.2809 3.85046C14.9412 3.66876 14.5779 3.5 12.9178 3.5H10H7.08218ZM6 7.25C6 6.55964 6.55964 6 7.25 6C7.94036 6 8.5 6.55964 8.5 7.25C8.5 7.94036 7.94036 8.5 7.25 8.5C6.55964 8.5 6 7.94036 6 7.25ZM15.5012 11.9984C15.9155 11.9984 16.2512 12.3342 16.2512 12.7484V14.7501H18.2489C18.6631 14.7501 18.9989 15.0858 18.9989 15.5001C18.9989 15.9143 18.6631 16.2501 18.2489 16.2501H16.2512V18.2517C16.2512 18.6659 15.9155 19.0017 15.5012 19.0017C15.087 19.0017 14.7512 18.6659 14.7512 18.2517V16.2501H12.7537C12.3394 16.2501 12.0037 15.9143 12.0037 15.5001C12.0037 15.0858 12.3394 14.7501 12.7537 14.7501H14.7512V12.7484C14.7512 12.3342 15.087 11.9984 15.5012 11.9984Z" fill="#99A2AD"/>
</svg>
