<svg width="20" height="20" viewBox="0 0 20 20" fill="none" xmlns="http://www.w3.org/2000/svg">
<path d="M7.5 2C6.67157 2 6 2.67157 6 3.5H14C14 2.67157 13.3284 2 12.5 2H7.5Z" fill="#99A2AD"/>
<path d="M5.75 8C5.05964 8 4.5 8.55964 4.5 9.25C4.5 9.94036 5.05964 10.5 5.75 10.5C6.44036 10.5 7 9.94036 7 9.25C7 8.55964 6.44036 8 5.75 8Z" fill="#99A2AD"/>
<path fill-rule="evenodd" clip-rule="evenodd" d="M1.82698 6.63803C1.5 7.27976 1.5 8.11984 1.5 9.8V12.7C1.5 14.3802 1.5 15.2202 1.82698 15.862C2.1146 16.4265 2.57354 16.8854 3.13803 17.173C3.77976 17.5 4.61984 17.5 6.3 17.5H13.7C15.3802 17.5 16.2202 17.5 16.862 17.173C17.4265 16.8854 17.8854 16.4265 18.173 15.862C18.5 15.2202 18.5 14.3802 18.5 12.7V9.8C18.5 8.11984 18.5 7.27976 18.173 6.63803C17.8854 6.07354 17.4265 5.6146 16.862 5.32698C16.2202 5 15.3802 5 13.7 5H6.3C4.61984 5 3.77976 5 3.13803 5.32698C2.57354 5.6146 2.1146 6.07354 1.82698 6.63803ZM13.7 6.5H6.3C5.43517 6.5 4.87676 6.50117 4.45175 6.53589C4.04426 6.56918 3.89318 6.6257 3.81901 6.66349C3.53677 6.8073 3.3073 7.03677 3.16349 7.31901C3.1257 7.39318 3.06918 7.54426 3.03589 7.95175C3.00117 8.37676 3 8.93517 3 9.8V12.7C3 13.5648 3.00117 14.1232 3.03589 14.5482C3.06918 14.9557 3.1257 15.1068 3.16349 15.181C3.26231 15.3749 3.40157 15.544 3.57061 15.6774C3.59517 15.6432 3.62296 15.6106 3.65396 15.58L6.73366 12.5448C6.81793 12.4617 6.90972 12.3712 6.99571 12.2991C7.09341 12.2172 7.23008 12.118 7.41385 12.0577C7.65916 11.9772 7.92338 11.9746 8.1702 12.0504C8.35511 12.1071 8.49368 12.2036 8.59294 12.2836C8.68031 12.354 8.77383 12.4427 8.85969 12.5242L9.78931 13.4055L13.1707 10.0538C13.2571 9.96815 13.3508 9.87522 13.4385 9.80139C13.5379 9.71778 13.6776 9.61606 13.8659 9.55552C14.1165 9.47495 14.3861 9.47555 14.6363 9.55722C14.8244 9.61859 14.9637 9.72093 15.0626 9.80497C15.15 9.87919 15.2433 9.97253 15.3293 10.0586L17 11.7293V9.8C17 8.93517 16.9988 8.37676 16.9641 7.95175C16.9308 7.54426 16.8743 7.39318 16.8365 7.31901C16.6927 7.03677 16.4632 6.8073 16.181 6.66349C16.1068 6.6257 15.9557 6.56918 15.5482 6.53589C15.1232 6.50117 14.5648 6.5 13.7 6.5ZM16.9942 13.8447L14.2477 11.0983L10.8657 14.4506C10.7814 14.5342 10.6897 14.6252 10.6037 14.6977C10.506 14.78 10.3693 14.8798 10.1853 14.9406C9.93967 15.0217 9.67493 15.0247 9.42758 14.949C9.24222 14.8923 9.10333 14.7956 9.00388 14.7155C8.91631 14.6449 8.82256 14.556 8.73646 14.4743L7.80695 13.5931L5.36773 15.9971C5.63381 15.9998 5.94042 16 6.3 16H13.7C14.5648 16 15.1232 15.9988 15.5482 15.9641C15.9557 15.9308 16.1068 15.8743 16.181 15.8365C16.4632 15.6927 16.6927 15.4632 16.8365 15.181C16.8743 15.1068 16.9308 14.9557 16.9641 14.5482C16.9804 14.349 16.9893 14.1204 16.9942 13.8447Z" fill="#99A2AD"/>
</svg>
