<svg width="20" height="20" viewBox="0 0 20 20" fill="none" xmlns="http://www.w3.org/2000/svg">
<path fill-rule="evenodd" clip-rule="evenodd" d="M17.9647 8.15047C17.8848 8.41515 17.6657 8.61438 17.3947 8.66891L15.8277 8.98414C15.7762 8.99449 15.7293 9.02077 15.6937 9.05925C15.4701 9.30032 15.2367 9.53107 15.0043 9.76361C14.7115 10.0566 14.2366 10.0567 13.9436 9.76395C13.6506 9.47115 13.6505 8.99627 13.9433 8.70329L14.5938 8.03934C14.8435 7.76998 15.1717 7.58605 15.5318 7.5136L15.7263 7.47448L12.5256 4.27571L12.4899 4.45804C12.4231 4.79951 12.256 5.1133 12.0099 5.35933L11.3023 6.06527C11.0085 6.35725 10.5336 6.35578 10.2416 6.06198C9.94965 5.76818 9.95113 5.29331 10.2449 5.00132L10.9493 4.29867C10.9844 4.26353 11.0083 4.2187 11.0178 4.16992L11.3239 2.60599C11.3772 2.33404 11.576 2.1136 11.8411 2.03271C12.1061 1.95183 12.3941 2.02367 12.5901 2.21956L17.7769 7.40315C17.9725 7.5986 18.0447 7.88579 17.9647 8.15047Z" fill="#99A2AD"/>
<path fill-rule="evenodd" clip-rule="evenodd" d="M7.996 13.065L11.135 16.2043C11.7417 16.8109 12.751 16.4348 12.8539 15.6186C12.9375 14.7845 12.9837 13.9449 13.0484 13.1091L14.7197 14.7803C15.0126 15.0732 15.4874 15.0732 15.7803 14.7803C16.0732 14.4874 16.0732 14.0126 15.7803 13.7197L6.28033 4.21968C5.98744 3.92678 5.51256 3.92678 5.21967 4.21968C4.92678 4.51257 4.92678 4.98744 5.21967 5.28034L6.88953 6.9502C6.04497 7.01733 5.17192 7.02649 4.33482 7.1562C3.52493 7.31283 3.21863 8.28791 3.79633 8.86561L6.935 12.004L2.14705 16.8044C1.9292 17.098 1.9534 17.5147 2.21967 17.781C2.51256 18.0739 2.98744 18.0739 3.28033 17.781L7.996 13.065ZM11.4444 14.3944L11.652 11.7126L8.28347 8.34414L5.6121 8.55646L11.4444 14.3944Z" fill="#99A2AD"/>
</svg>
