<svg width="20" height="20" viewBox="0 0 20 20" fill="none" xmlns="http://www.w3.org/2000/svg">
<path fill-rule="evenodd" clip-rule="evenodd" d="M11.6826 2H8.31739C7.36494 1.99999 6.6044 1.99999 5.99013 2.05018C5.36012 2.10165 4.81824 2.20963 4.32054 2.46322C3.52085 2.87068 2.87068 3.52085 2.46322 4.32054C2.20963 4.81824 2.10165 5.36012 2.05018 5.99013C1.99999 6.6044 1.99999 7.36494 2 8.31739V11.6826C1.99999 12.6351 1.99999 13.3956 2.05018 14.0099C2.10165 14.6399 2.20963 15.1818 2.46322 15.6795C2.87068 16.4791 3.52085 17.1293 4.32054 17.5368C4.81824 17.7904 5.36012 17.8984 5.99013 17.9498C6.60438 18 7.3649 18 8.3173 18H11.6826C12.635 18 13.3956 18 14.0099 17.9498C14.6399 17.8984 15.1818 17.7904 15.6795 17.5368C16.4791 17.1293 17.1293 16.4791 17.5368 15.6795C17.7904 15.1818 17.8984 14.6399 17.9498 14.0099C18 13.3956 18 12.6351 18 11.6827V8.31737C18 7.36496 18 6.60438 17.9498 5.99013C17.8984 5.36012 17.7904 4.81824 17.5368 4.32054C17.1293 3.52085 16.4791 2.87068 15.6795 2.46322C15.1818 2.20963 14.6399 2.10165 14.0099 2.05018C13.3956 1.99999 12.6351 1.99999 11.6826 2ZM5.00153 3.79973C5.25252 3.67184 5.57503 3.58909 6.11228 3.54519C6.65829 3.50058 7.35753 3.5 8.35 3.5H9.25V11.5H3.5V8.35C3.5 7.35753 3.50058 6.65829 3.54519 6.11228C3.58909 5.57503 3.67184 5.25252 3.79973 5.00153C4.06338 4.48408 4.48408 4.06338 5.00153 3.79973ZM3.50693 13H9.25V16.5H8.35C7.35753 16.5 6.65829 16.4994 6.11228 16.4548C5.57503 16.4109 5.25252 16.3282 5.00153 16.2003C4.48408 15.9366 4.06338 15.5159 3.79973 14.9985C3.67184 14.7475 3.58909 14.425 3.54519 13.8877C3.52419 13.6307 3.51295 13.3396 3.50693 13ZM10.75 16.5H11.65C12.6425 16.5 13.3417 16.4994 13.8877 16.4548C14.425 16.4109 14.7475 16.3282 14.9985 16.2003C15.5159 15.9366 15.9366 15.5159 16.2003 14.9985C16.3282 14.7475 16.4109 14.425 16.4548 13.8877C16.4994 13.3417 16.5 12.6425 16.5 11.65V8.49597H10.75V16.5ZM10.75 6.99597V3.5H11.65C12.6425 3.5 13.3417 3.50058 13.8877 3.54519C14.425 3.58909 14.7475 3.67184 14.9985 3.79973C15.5159 4.06338 15.9366 4.48408 16.2003 5.00153C16.3282 5.25252 16.4109 5.57503 16.4548 6.11228C16.4757 6.36833 16.487 6.65808 16.493 6.99597H10.75Z" fill="#99A2AD"/>
</svg>
