<svg width="20" height="20" viewBox="0 0 20 20" fill="none" xmlns="http://www.w3.org/2000/svg">
<path fill-rule="evenodd" clip-rule="evenodd" d="M7.81739 3H12.1826C13.1351 2.99999 13.8956 2.99999 14.5099 3.05018C15.1399 3.10165 15.6818 3.20963 16.1795 3.46322C16.9791 3.87068 17.6293 4.52085 18.0368 5.32054C18.2904 5.81824 18.3983 6.36012 18.4498 6.99013C18.5 7.60439 18.5 8.36493 18.5 9.31737V10.6826C18.5 11.6351 18.5 12.3956 18.4498 13.0099C18.3983 13.6399 18.2904 14.1818 18.0368 14.6795C17.6293 15.4791 16.9791 16.1293 16.1795 16.5368C15.6818 16.7904 15.1399 16.8984 14.5099 16.9498C13.8956 17 13.1351 17 12.1826 17H7.81737C6.86493 17 6.10439 17 5.49013 16.9498C4.86012 16.8984 4.31824 16.7904 3.82054 16.5368C3.02085 16.1293 2.37068 15.4791 1.96322 14.6795C1.71394 14.1902 1.60543 13.6585 1.55289 13.0424C1.5011 12.4351 1.50006 11.6859 1.5 10.75L1.5 9.31739C1.49999 8.36495 1.49999 7.6044 1.55018 6.99013C1.60165 6.36012 1.70963 5.81824 1.96322 5.32054C2.37068 4.52085 3.02085 3.87068 3.82054 3.46322C4.31824 3.20963 4.86012 3.10165 5.49013 3.05018C6.1044 2.99999 6.86494 2.99999 7.81739 3ZM5.61228 4.54519C5.07503 4.58909 4.75252 4.67184 4.50153 4.79973C3.98408 5.06338 3.56338 5.48408 3.29973 6.00153C3.17184 6.25252 3.08909 6.57503 3.04519 7.11228C3.00058 7.65829 3 8.35753 3 9.35V10H6.28141C6.95479 9.99999 7.5055 9.99998 7.95307 10.0366C8.41633 10.0744 8.83473 10.1551 9.22547 10.3542C9.837 10.6658 10.3342 11.163 10.6458 11.7745C10.8449 12.1653 10.9256 12.5837 10.9634 13.0469C11 13.4945 11 14.0452 11 14.7186V15.5H12.15C13.1425 15.5 13.8417 15.4994 14.3877 15.4548C14.925 15.4109 15.2475 15.3282 15.4985 15.2003C16.0159 14.9366 16.4366 14.5159 16.7003 13.9985C16.8282 13.7475 16.9109 13.425 16.9548 12.8877C16.9994 12.3417 17 11.6425 17 10.65V9.35C17 8.35753 16.9994 7.65829 16.9548 7.11228C16.9109 6.57503 16.8282 6.25252 16.7003 6.00153C16.4366 5.48408 16.0159 5.06338 15.4985 4.79973C15.2475 4.67184 14.925 4.58909 14.3877 4.54519C13.8417 4.50058 13.1425 4.5 12.15 4.5H7.85C6.85753 4.5 6.15829 4.50058 5.61228 4.54519ZM9.5 15.5V14.75C9.5 14.0376 9.49942 13.5483 9.46843 13.1691C9.43816 12.7986 9.38265 12.5996 9.30926 12.4555C9.14148 12.1262 8.87377 11.8585 8.54448 11.6907C8.40044 11.6173 8.20142 11.5618 7.83092 11.5316C7.45167 11.5006 6.96244 11.5 6.25 11.5H3.0015C3.00477 12.08 3.01509 12.5354 3.04747 12.915C3.0919 13.436 3.17408 13.7519 3.29973 13.9985C3.56338 14.5159 3.98408 14.9366 4.50153 15.2003C4.75252 15.3282 5.07503 15.4109 5.61228 15.4548C6.15829 15.4994 6.85753 15.5 7.85 15.5H9.5Z" fill="#99A2AD"/>
</svg>
