<svg width="20" height="20" viewBox="0 0 20 20" fill="none" xmlns="http://www.w3.org/2000/svg">
<path fill-rule="evenodd" clip-rule="evenodd" d="M18 5.12097C18 4.72566 18 4.38463 17.9771 4.10373C17.9528 3.80722 17.8994 3.51231 17.7548 3.22852C17.5391 2.80516 17.1948 2.46095 16.7715 2.24524C16.4877 2.10064 16.1928 2.04716 15.8963 2.02293C15.6153 1.99998 15.2454 1.99999 14.85 2H14.85H10H5.15H5.14999C4.75463 1.99999 4.38466 1.99998 4.10373 2.02293C3.80722 2.04716 3.51231 2.10064 3.22852 2.24524C2.80516 2.46095 2.46095 2.80516 2.24524 3.22852C2.10064 3.51231 2.04716 3.80722 2.02293 4.10373C1.99998 4.38465 1.99999 4.7257 2 5.12104V5.12107V5.12109V5.5V5.87891V5.87894V5.87896C1.99999 6.2743 1.99998 6.61536 2.02293 6.89627C2.04716 7.19278 2.10064 7.48769 2.24524 7.77148C2.46095 8.19484 2.80516 8.53905 3.22852 8.75476C3.51231 8.89936 3.80722 8.95285 4.10373 8.97707C4.38466 9.00003 4.75464 9.00001 5.15 9H10H14.85C15.2454 9.00001 15.6153 9.00003 15.8963 8.97707C16.1928 8.95285 16.4877 8.89936 16.7715 8.75476C17.1948 8.53905 17.5391 8.19484 17.7548 7.77148C17.8994 7.48769 17.9528 7.19278 17.9771 6.89627C18 6.61537 18 6.27434 18 5.87903V5.87894V5.87891V5.5V5.12109V5.12107V5.12097ZM5.15 3.5L10 3.5L14.85 3.5C15.2824 3.5 15.5616 3.50059 15.7741 3.51795C15.9779 3.53459 16.0534 3.56285 16.0905 3.58175C16.2316 3.65365 16.3464 3.76839 16.4183 3.90951C16.4372 3.94659 16.4654 4.02213 16.4821 4.22588C16.4994 4.43838 16.5 4.71759 16.5 5.15L16.5 5.5L16.5 5.85C16.5 6.28241 16.4994 6.56162 16.4821 6.77412C16.4654 6.97787 16.4372 7.05341 16.4183 7.09049C16.3464 7.23161 16.2316 7.34635 16.0905 7.41825C16.0534 7.43715 15.9779 7.46541 15.7741 7.48205C15.5616 7.49942 15.2824 7.5 14.85 7.5L10 7.5L5.15 7.5C4.71759 7.5 4.43838 7.49942 4.22588 7.48205C4.02213 7.46541 3.94659 7.43715 3.90951 7.41825C3.76839 7.34635 3.65365 7.23161 3.58175 7.09049C3.56285 7.05341 3.53459 6.97787 3.51795 6.77412C3.50059 6.56162 3.5 6.28241 3.5 5.85L3.5 5.5L3.5 5.15C3.5 4.71759 3.50059 4.43838 3.51795 4.22588C3.53459 4.02213 3.56285 3.94659 3.58175 3.90951C3.65365 3.76839 3.76839 3.65365 3.90951 3.58175C3.94659 3.56285 4.02213 3.53459 4.22588 3.51795C4.43838 3.50059 4.71759 3.5 5.15 3.5ZM18 14.121C18 13.7257 18 13.3846 17.9771 13.1037C17.9528 12.8072 17.8994 12.5123 17.7548 12.2285C17.5391 11.8052 17.1948 11.461 16.7715 11.2452C16.4877 11.1006 16.1928 11.0472 15.8963 11.0229C15.6153 11 15.2454 11 14.85 11H14.85H10H5.15H5.14999C4.75464 11 4.38466 11 4.10373 11.0229C3.80722 11.0472 3.51231 11.1006 3.22852 11.2452C2.80516 11.461 2.46095 11.8052 2.24524 12.2285C2.10064 12.5123 2.04716 12.8072 2.02293 13.1037C1.99998 13.3846 1.99999 13.7257 2 14.121V14.121V14.1211V14.1211V14.5V14.8789V14.8789V14.879V14.879C1.99999 15.2743 1.99998 15.6154 2.02293 15.8963C2.04716 16.1928 2.10064 16.4877 2.24524 16.7715C2.46095 17.1948 2.80516 17.5391 3.22852 17.7548C3.51231 17.8994 3.80722 17.9528 4.10373 17.9771C4.38466 18 4.75464 18 5.15 18H10H14.85C15.2454 18 15.6153 18 15.8963 17.9771C16.1928 17.9528 16.4877 17.8994 16.7715 17.7548C17.1948 17.5391 17.5391 17.1948 17.7548 16.7715C17.8994 16.4877 17.9528 16.1928 17.9771 15.8963C18 15.6154 18 15.2743 18 14.879V14.8789V14.8789V14.5V14.1211V14.1211V14.121ZM5.15 12.5L10 12.5L14.85 12.5C15.2824 12.5 15.5616 12.5006 15.7741 12.5179C15.9779 12.5346 16.0534 12.5629 16.0905 12.5817C16.2316 12.6537 16.3464 12.7684 16.4183 12.9095C16.4372 12.9466 16.4654 13.0221 16.4821 13.2259C16.4994 13.4384 16.5 13.7176 16.5 14.15L16.5 14.5L16.5 14.85C16.5 15.2824 16.4994 15.5616 16.4821 15.7741C16.4654 15.9779 16.4372 16.0534 16.4183 16.0905C16.3464 16.2316 16.2316 16.3464 16.0905 16.4183C16.0534 16.4372 15.9779 16.4654 15.7741 16.4821C15.5616 16.4994 15.2824 16.5 14.85 16.5L10 16.5L5.15 16.5C4.71759 16.5 4.43838 16.4994 4.22588 16.4821C4.02213 16.4654 3.94659 16.4372 3.90951 16.4183C3.76839 16.3464 3.65365 16.2316 3.58175 16.0905C3.56285 16.0534 3.5346 15.9779 3.51795 15.7741C3.50059 15.5616 3.5 15.2824 3.5 14.85L3.5 14.5L3.5 14.15C3.5 13.7176 3.50059 13.4384 3.51795 13.2259C3.5346 13.0221 3.56285 12.9466 3.58175 12.9095C3.65365 12.7684 3.76839 12.6537 3.90951 12.5817C3.94659 12.5629 4.02213 12.5346 4.22588 12.5179C4.43838 12.5006 4.71759 12.5 5.15 12.5Z" fill="#99A2AD"/>
</svg>
