<svg width="20" height="20" viewBox="0 0 20 20" fill="none" xmlns="http://www.w3.org/2000/svg">
<path fill-rule="evenodd" clip-rule="evenodd" d="M8.35638 6.70926C8.06349 7.0023 8.06349 7.4774 8.35638 7.77044C8.64927 8.06348 9.12415 8.06347 9.41704 7.77044L11.5559 5.63057L11.5668 5.61963C11.6185 5.56792 11.6849 5.50159 11.7392 5.43758C11.8031 5.36227 11.893 5.24246 11.9474 5.07509C12.0167 4.86167 12.0167 4.63178 11.9474 4.41836C11.893 4.25099 11.8031 4.13118 11.7392 4.05587C11.6849 3.99187 11.6185 3.92554 11.5668 3.87384L11.5668 3.87382L11.5559 3.86288L9.41704 1.72301C9.12415 1.42998 8.64927 1.42998 8.35638 1.72301C8.06349 2.01605 8.06349 2.49116 8.35638 2.78419L9.58055 4.00897C8.51941 4.07271 7.47923 4.37792 6.5424 4.91037C5.12606 5.71536 4.03466 6.98934 3.45622 8.51284C2.87778 10.0363 2.84851 11.714 3.37345 13.2568C3.8984 14.7995 4.94469 16.1109 6.33209 16.9648C7.71949 17.8188 9.36113 18.1619 10.9742 17.9351C12.5873 17.7083 14.0708 16.9257 15.1692 15.7222C16.2676 14.5187 16.912 12.9697 16.9916 11.3419C17.0681 9.77738 16.6181 8.23427 15.7166 6.95802C15.4776 6.61958 15.0095 6.53911 14.6713 6.77829C14.333 7.01746 14.2526 7.4857 14.4916 7.82413C15.1999 8.82689 15.5535 10.0393 15.4934 11.2686C15.4309 12.5476 14.9245 13.7647 14.0615 14.7103C13.1985 15.6559 12.0329 16.2707 10.7654 16.4489C9.49802 16.6271 8.20817 16.3575 7.11807 15.6866C6.02797 15.0156 5.20589 13.9853 4.79343 12.7731C4.38097 11.561 4.40397 10.2428 4.85846 9.04576C5.31295 7.84872 6.17047 6.84774 7.28331 6.21525C7.98373 5.81716 8.7577 5.58073 9.54944 5.51561L8.35638 6.70926Z" fill="#99A2AD"/>
</svg>
