<svg width="20" height="20" viewBox="0 0 20 20" fill="none" xmlns="http://www.w3.org/2000/svg">
<path fill-rule="evenodd" clip-rule="evenodd" d="M12.1071 5.71427C12.1071 4.11659 13.4023 2.82141 15 2.82141C16.5977 2.82141 17.8928 4.11659 17.8928 5.71427C17.8928 7.31195 16.5977 8.60713 15 8.60713C14.753 8.60713 14.5132 8.57616 14.2843 8.5179L11.8458 9.99999L14.2843 11.4821C14.5132 11.4238 14.753 11.3929 15 11.3929C16.5977 11.3929 17.8928 12.688 17.8928 14.2857C17.8928 15.8834 16.5977 17.1786 15 17.1786C13.4023 17.1786 12.1071 15.8834 12.1071 14.2857C12.1071 13.5521 12.3802 12.8823 12.8302 12.3723L10.3622 11.4776L3.96191 14.5786C3.6037 14.7865 2.88026 14.8975 2.26171 14.3945C2.00145 14.1829 1.92186 13.9961 2.48053 13.6372L8.87864 9.99999L2.48053 6.36283C1.92186 6.00391 2.00145 5.81709 2.26171 5.60547C2.88025 5.10252 3.6037 5.21344 3.96191 5.42143L10.3622 8.52243L12.8302 7.62765C12.3802 7.1177 12.1071 6.44787 12.1071 5.71427ZM15 4.32141C14.2307 4.32141 13.6071 4.94501 13.6071 5.71427C13.6071 6.48352 14.2307 7.10713 15 7.10713C15.7692 7.10713 16.3928 6.48352 16.3928 5.71427C16.3928 4.94501 15.7692 4.32141 15 4.32141ZM15 15.6786C14.2307 15.6786 13.6071 15.055 13.6071 14.2857C13.6071 13.5165 14.2307 12.8929 15 12.8929C15.7692 12.8929 16.3928 13.5165 16.3928 14.2857C16.3928 15.055 15.7692 15.6786 15 15.6786Z" fill="#99A2AD"/>
</svg>
