<svg width="20" height="20" viewBox="0 0 20 20" fill="none" xmlns="http://www.w3.org/2000/svg">
<path fill-rule="evenodd" clip-rule="evenodd" d="M11.7572 7.70687L11.7572 7.70685L11.7572 7.70684L11.7571 7.70683C11.4776 7.4273 11.2364 7.18615 11.054 6.97129C10.8615 6.7445 10.6908 6.49814 10.5924 6.19523C10.4455 5.74333 10.4455 5.25655 10.5924 4.80465C10.6908 4.50174 10.8615 4.25539 11.054 4.02859C11.2365 3.81372 11.4981 3.55212 11.7776 3.27257L11.7776 3.27256L11.7777 3.27255L12.0251 3.02507L12.2726 2.77758L12.2726 2.77758C12.5522 2.49801 12.8138 2.23639 13.0287 2.05397C13.2555 1.86144 13.5018 1.69072 13.8047 1.5923C14.2566 1.44547 14.7434 1.44547 15.1953 1.5923C15.4982 1.69072 15.7446 1.86144 15.9714 2.05397C16.1862 2.23636 16.4273 2.47749 16.7068 2.757L16.7069 2.75705L16.7069 2.75711L16.7069 2.75712L16.707 2.75714L16.9749 3.02507L17.2428 3.293L17.2428 3.29302L17.2428 3.29303L17.2429 3.29306L17.2429 3.29309C17.5224 3.5726 17.7636 3.81374 17.946 4.02859C18.1385 4.25539 18.3092 4.50174 18.4077 4.80465C18.5545 5.25655 18.5545 5.74333 18.4077 6.19523C18.3092 6.49814 18.1385 6.7445 17.946 6.97129C17.7636 7.18617 17.5019 7.44778 17.2224 7.72733L16.9749 7.97482L16.7274 8.2223C16.4478 8.50187 16.1862 8.7635 15.9714 8.94592C15.7446 9.13845 15.4982 9.30916 15.1953 9.40758C14.7434 9.55442 14.2566 9.55442 13.8047 9.40758C13.5018 9.30916 13.2555 9.13845 13.0287 8.94592C12.8138 8.76351 12.5726 8.52234 12.2931 8.24278L12.2931 8.24276L12.2931 8.24274L12.0251 7.97482L11.7572 7.70689L11.7572 7.70687ZM16.1617 6.66667L15.9142 6.91416L15.6667 7.16164C15.361 7.46741 15.1631 7.66442 15.0006 7.80241C14.8448 7.93471 14.7714 7.96814 14.7318 7.981C14.5811 8.02994 14.4189 8.02994 14.2682 7.981C14.2287 7.96814 14.1553 7.93471 13.9994 7.80241C13.8369 7.66442 13.639 7.46741 13.3333 7.16164L13.0858 6.91416L12.8383 6.66667C12.5325 6.36091 12.3355 6.16306 12.1975 6.00053C12.0652 5.84468 12.0318 5.77129 12.019 5.73171C11.97 5.58107 11.97 5.41881 12.019 5.26818C12.0318 5.2286 12.0652 5.1552 12.1975 4.99936C12.3355 4.83682 12.5325 4.63898 12.8383 4.33322L13.0858 4.08573L13.3333 3.83824C13.639 3.53248 13.8369 3.33546 13.9994 3.19748C14.1553 3.06518 14.2287 3.03175 14.2682 3.01889C14.4189 2.96994 14.5811 2.96994 14.7318 3.01889C14.7714 3.03175 14.8448 3.06518 15.0006 3.19748C15.1631 3.33546 15.361 3.53248 15.6667 3.83824L15.9142 4.08573L16.1617 4.33322C16.4675 4.63898 16.6645 4.83682 16.8025 4.99936C16.9348 5.1552 16.9682 5.2286 16.9811 5.26818C17.03 5.41881 17.03 5.58107 16.9811 5.73171C16.9682 5.77129 16.9348 5.84468 16.8025 6.00053C16.6645 6.16306 16.4675 6.36091 16.1617 6.66667ZM11 14.121V14.121C11 13.7256 11 13.3846 11.0229 13.1037C11.0472 12.8072 11.1006 12.5123 11.2452 12.2285C11.461 11.8051 11.8052 11.4609 12.2285 11.2452C12.5123 11.1006 12.8072 11.0471 13.1037 11.0229C13.3847 10.9999 13.7546 10.9999 14.15 10.9999H14.15H14.5H14.85H14.85C15.2454 10.9999 15.6153 10.9999 15.8963 11.0229C16.1928 11.0471 16.4877 11.1006 16.7715 11.2452C17.1948 11.4609 17.5391 11.8051 17.7548 12.2285C17.8994 12.5123 17.9528 12.8072 17.9771 13.1037C18 13.3846 18 13.7256 18 14.1209V14.121V14.121V14.4999V14.8788V14.8789V14.879C18 15.2743 18 15.6153 17.9771 15.8962C17.9528 16.1927 17.8994 16.4876 17.7548 16.7714C17.5391 17.1948 17.1948 17.539 16.7715 17.7547C16.4877 17.8993 16.1928 17.9528 15.8963 17.977C15.6154 18 15.2454 18 14.8501 17.9999H14.8501H14.85H14.85H14.5H14.15H14.15H14.1499H14.1499C13.7546 18 13.3846 18 13.1037 17.977C12.8072 17.9528 12.5123 17.8993 12.2285 17.7547C11.8052 17.539 11.461 17.1948 11.2452 16.7714C11.1006 16.4876 11.0472 16.1927 11.0229 15.8962C11 15.6153 11 15.2742 11 14.8789V14.8789V14.8788V14.4999V14.121V14.121ZM14.85 16.4999L14.5 16.4999L14.15 16.4999C13.7176 16.4999 13.4384 16.4994 13.2259 16.482C13.0221 16.4654 12.9466 16.4371 12.9095 16.4182C12.7684 16.3463 12.6537 16.2316 12.5817 16.0904C12.5629 16.0534 12.5346 15.9778 12.5179 15.7741C12.5006 15.5616 12.5 15.2824 12.5 14.8499L12.5 14.4999L12.5 14.1499C12.5 13.7175 12.5006 13.4383 12.5179 13.2258C12.5346 13.0221 12.5629 12.9465 12.5817 12.9095C12.6537 12.7683 12.7684 12.6536 12.9095 12.5817C12.9466 12.5628 13.0221 12.5345 13.2259 12.5179C13.4384 12.5005 13.7176 12.4999 14.15 12.4999L14.5 12.4999L14.85 12.4999C15.2824 12.4999 15.5616 12.5005 15.7741 12.5179C15.9779 12.5345 16.0534 12.5628 16.0905 12.5817C16.2316 12.6536 16.3464 12.7683 16.4183 12.9095C16.4372 12.9465 16.4654 13.0221 16.4821 13.2258C16.4994 13.4383 16.5 13.7175 16.5 14.1499L16.5 14.4999L16.5 14.8499C16.5 15.2824 16.4994 15.5616 16.4821 15.7741C16.4654 15.9778 16.4372 16.0534 16.4183 16.0904C16.3464 16.2316 16.2316 16.3463 16.0905 16.4182C16.0534 16.4371 15.9779 16.4654 15.7741 16.482C15.5616 16.4994 15.2824 16.4999 14.85 16.4999ZM2 5.12098V5.12101V5.12104V5.49994V5.87885V5.87888V5.8789V5.87893C1.99999 6.27426 1.99998 6.6153 2.02293 6.89621C2.04716 7.19272 2.10064 7.48764 2.24524 7.77142C2.46095 8.19479 2.80516 8.53899 3.22852 8.75471C3.51231 8.8993 3.80722 8.95279 4.10373 8.97702C4.38466 8.99997 4.75464 8.99996 5.15 8.99994H5.5H5.85C6.24536 8.99996 6.61534 8.99997 6.89627 8.97702C7.19278 8.95279 7.48769 8.8993 7.77148 8.75471C8.19484 8.53899 8.53905 8.19479 8.75476 7.77142C8.89936 7.48764 8.95285 7.19272 8.97707 6.89621C9.00003 6.61529 9.00001 6.27423 9 5.87888V5.87885V5.49994V5.12104V5.12101C9.00001 4.72566 9.00003 4.3846 8.97707 4.10367C8.95285 3.80716 8.89936 3.51225 8.75476 3.22847C8.53905 2.8051 8.19484 2.4609 7.77148 2.24518C7.48769 2.10058 7.19278 2.0471 6.89627 2.02287C6.61535 1.99992 6.24537 1.99993 5.85001 1.99994H5.85001H5.85H5.5H5.15H5.14999H5.14999C4.75463 1.99993 4.38466 1.99992 4.10373 2.02287C3.80722 2.0471 3.51231 2.10058 3.22852 2.24518C2.80516 2.4609 2.46095 2.8051 2.24524 3.22847C2.10064 3.51225 2.04716 3.80716 2.02293 4.10367C1.99998 4.38458 1.99999 4.72563 2 5.12095V5.12098ZM5.5 7.49994L5.85 7.49994C6.28242 7.49994 6.56162 7.49936 6.77412 7.482C6.97787 7.46535 7.05341 7.43709 7.09049 7.4182C7.23161 7.34629 7.34635 7.23156 7.41825 7.09044C7.43715 7.05335 7.46541 6.97781 7.48205 6.77407C7.49942 6.56156 7.5 6.28236 7.5 5.84994L7.5 5.49994L7.5 5.14994C7.5 4.71753 7.49942 4.43832 7.48205 4.22582C7.46541 4.02207 7.43715 3.94653 7.41825 3.90945C7.34635 3.76833 7.23161 3.65359 7.09049 3.58169C7.05341 3.5628 6.97787 3.53454 6.77412 3.51789C6.56162 3.50053 6.28242 3.49994 5.85 3.49994L5.5 3.49994L5.15 3.49994C4.71759 3.49994 4.43838 3.50053 4.22588 3.51789C4.02213 3.53454 3.94659 3.5628 3.90951 3.58169C3.76839 3.65359 3.65365 3.76833 3.58175 3.90945C3.56285 3.94653 3.5346 4.02207 3.51795 4.22582C3.50059 4.43832 3.5 4.71753 3.5 5.14994L3.5 5.49994L3.5 5.84994C3.5 6.28236 3.50059 6.56156 3.51795 6.77407C3.5346 6.97781 3.56285 7.05335 3.58175 7.09044C3.65365 7.23156 3.76839 7.34629 3.90951 7.4182C3.94659 7.43709 4.02213 7.46535 4.22588 7.482C4.43838 7.49936 4.71759 7.49994 5.15 7.49994L5.5 7.49994ZM2 14.121V14.121V14.121C1.99999 13.7256 1.99998 13.3846 2.02293 13.1037C2.04716 12.8072 2.10064 12.5123 2.24524 12.2285C2.46095 11.8051 2.80516 11.4609 3.22852 11.2452C3.51231 11.1006 3.80722 11.0471 4.10373 11.0229C4.38466 10.9999 4.75464 10.9999 5.14999 10.9999H5.15H5.5H5.85H5.85001C6.24537 10.9999 6.61534 10.9999 6.89627 11.0229C7.19278 11.0471 7.48769 11.1006 7.77148 11.2452C8.19484 11.4609 8.53905 11.8051 8.75476 12.2285C8.89936 12.5123 8.95285 12.8072 8.97707 13.1037C9.00003 13.3846 9.00001 13.7257 9 14.121V14.121V14.4999V14.8788V14.8789C9.00001 15.2742 9.00003 15.6153 8.97707 15.8962C8.95285 16.1927 8.89936 16.4876 8.75476 16.7714C8.53905 17.1948 8.19484 17.539 7.77148 17.7547C7.48769 17.8993 7.19278 17.9528 6.89627 17.977C6.61535 18 6.24539 18 5.85004 17.9999H5.85H5.5H5.15H5.14997C4.75462 18 4.38465 18 4.10373 17.977C3.80722 17.9528 3.51231 17.8993 3.22852 17.7547C2.80516 17.539 2.46095 17.1948 2.24524 16.7714C2.10064 16.4876 2.04716 16.1927 2.02293 15.8962C1.99998 15.6153 1.99999 15.2743 2 14.8789V14.8789V14.8789V14.8788V14.4999V14.121V14.121ZM5.85 16.4999L5.5 16.4999L5.15 16.4999C4.71759 16.4999 4.43838 16.4994 4.22588 16.482C4.02213 16.4654 3.94659 16.4371 3.90951 16.4182C3.76839 16.3463 3.65365 16.2316 3.58175 16.0904C3.56285 16.0534 3.5346 15.9778 3.51795 15.7741C3.50059 15.5616 3.5 15.2824 3.5 14.8499L3.5 14.4999L3.5 14.1499C3.5 13.7175 3.50059 13.4383 3.51795 13.2258C3.5346 13.0221 3.56285 12.9465 3.58175 12.9095C3.65365 12.7683 3.76839 12.6536 3.90951 12.5817C3.94659 12.5628 4.02213 12.5345 4.22588 12.5179C4.43838 12.5005 4.71759 12.4999 5.15 12.4999L5.5 12.4999L5.85 12.4999C6.28242 12.4999 6.56162 12.5005 6.77412 12.5179C6.97787 12.5345 7.05341 12.5628 7.09049 12.5817C7.23161 12.6536 7.34635 12.7683 7.41825 12.9095C7.43715 12.9465 7.46541 13.0221 7.48205 13.2258C7.49942 13.4383 7.5 13.7175 7.5 14.1499L7.5 14.4999L7.5 14.8499C7.5 15.2824 7.49942 15.5616 7.48205 15.7741C7.46541 15.9778 7.43715 16.0534 7.41825 16.0904C7.34635 16.2316 7.23161 16.3463 7.09049 16.4182C7.05341 16.4371 6.97787 16.4654 6.77412 16.482C6.56162 16.4994 6.28242 16.4999 5.85 16.4999Z" fill="#99A2AD"/>
</svg>
