<svg width="20" height="20" viewBox="0 0 20 20" fill="none" xmlns="http://www.w3.org/2000/svg">
<path fill-rule="evenodd" clip-rule="evenodd" d="M5.47064 6.78124C5.76354 7.07413 6.23841 7.07414 6.5313 6.78124L9.25 4.06257L9.25 12.2549C9.25 12.6692 9.58579 13.0049 10 13.0049C10.4142 13.0049 10.75 12.6692 10.75 12.2549L10.75 4.06227L13.4685 6.78075C13.7614 7.07365 14.2363 7.07365 14.5291 6.78075C14.822 6.48786 14.822 6.01299 14.5291 5.72009L10.5305 1.72144C10.2376 1.42855 9.76272 1.42855 9.46983 1.72144L5.47065 5.72058C5.17776 6.01347 5.17775 6.48834 5.47064 6.78124ZM4.50134 11.75C4.50134 11.3358 4.16556 11 3.75134 11C3.33713 11 3.00134 11.3358 3.00134 11.75V12.8045C3.00134 13.5615 3.00133 14.1751 3.04198 14.6727C3.08392 15.186 3.17283 15.6414 3.38827 16.0643C3.72862 16.7322 4.2717 17.2753 4.93968 17.6157C5.3625 17.8311 5.81795 17.92 6.33123 17.962C6.82881 18.0026 7.44246 18.0026 8.19949 18.0026H11.8033C12.5604 18.0026 13.174 18.0026 13.6716 17.962C14.1849 17.92 14.6403 17.8311 15.0631 17.6157C15.7311 17.2753 16.2742 16.7322 16.6145 16.0643C16.83 15.6414 16.9189 15.186 16.9608 14.6727C17.0015 14.1751 17.0015 13.5615 17.0015 12.8045V11.75C17.0015 11.3358 16.6657 11 16.2515 11C15.8373 11 15.5015 11.3358 15.5015 11.75V12.7726C15.5015 13.569 15.5009 14.1213 15.4658 14.5506C15.4314 14.9711 15.3678 15.2072 15.278 15.3833C15.0815 15.769 14.7679 16.0826 14.3821 16.2792C14.206 16.3689 13.97 16.4326 13.5494 16.4669C13.1201 16.502 12.5679 16.5026 11.7715 16.5026H8.23134C7.43489 16.5026 6.88266 16.502 6.45338 16.4669C6.03286 16.4326 5.79679 16.3689 5.62066 16.2792C5.23493 16.0826 4.92132 15.769 4.72478 15.3833C4.63504 15.2072 4.57136 14.9711 4.537 14.5506C4.50193 14.1213 4.50134 13.569 4.50134 12.7726V11.75Z" fill="#99A2AD"/>
</svg>
