<svg width="20" height="20" viewBox="0 0 20 20" fill="none" xmlns="http://www.w3.org/2000/svg">
<path fill-rule="evenodd" clip-rule="evenodd" d="M10.75 2.67582V17.1761C11.5603 16.7728 12.7149 16.105 13.7379 15.171C15.0071 14.0122 16 12.515 16 10.6583V4.96821C16 4.74783 15.9995 4.62053 15.9929 4.52523C15.9888 4.46678 15.9835 4.44238 15.9818 4.43593C15.9662 4.39746 15.9414 4.36347 15.9095 4.33701C15.9038 4.33341 15.8822 4.32092 15.8277 4.29932C15.7389 4.26409 15.6177 4.22508 15.4077 4.15825L10.75 2.67582ZM15.911 4.3381C15.911 4.33809 15.9105 4.33776 15.9096 4.33712L15.911 4.3381ZM15.9812 4.43408C15.9812 4.43404 15.9814 4.43454 15.9817 4.4357L15.9812 4.43408ZM9.24996 17.1761C8.4396 16.7728 7.28503 16.105 6.26204 15.171C4.99285 14.0122 3.99996 12.515 3.99996 10.6583V4.96821C3.99996 4.74783 4.00038 4.62053 4.00701 4.52523C4.01108 4.46677 4.01641 4.44237 4.01814 4.43592C4.03367 4.39746 4.05852 4.36347 4.09046 4.33701C4.09608 4.3334 4.11771 4.32092 4.17219 4.29932C4.26099 4.26409 4.38217 4.22508 4.59217 4.15825L9.24996 2.67582L9.24996 17.1761ZM4.08888 4.3381C4.08884 4.3381 4.08926 4.33778 4.09027 4.33713L4.08888 4.3381ZM4.01871 4.43408C4.01872 4.43412 4.01856 4.4347 4.0182 4.4357L4.01871 4.43408ZM9.66187 1.01976C9.8864 0.991948 10.1135 0.991948 10.338 1.01976C10.5926 1.05129 10.8359 1.12887 11.1449 1.22736C11.1624 1.23293 11.18 1.23856 11.1979 1.24425L15.8627 2.72889C15.8893 2.73739 15.9162 2.74586 15.9433 2.75438C16.2593 2.85399 16.596 2.96007 16.8598 3.17643C17.0888 3.36427 17.2664 3.60716 17.3759 3.88236C17.5021 4.19934 17.5011 4.55228 17.5001 4.88368C17.5 4.91203 17.5 4.94022 17.5 4.96821V10.6583C17.5 13.0978 16.1863 14.9667 14.7493 16.2788C13.312 17.591 11.6774 18.4176 10.8442 18.7904C10.8359 18.7941 10.8277 18.7978 10.8193 18.8015C10.6736 18.8669 10.5135 18.9388 10.293 18.9762C10.1173 19.006 9.88257 19.006 9.7069 18.9762C9.4864 18.9388 9.32627 18.8669 9.18058 18.8015C9.17225 18.7978 9.16397 18.7941 9.15573 18.7904C8.32248 18.4176 6.68794 17.591 5.25066 16.2788C3.81359 14.9667 2.49996 13.0978 2.49996 10.6583V4.96821C2.49996 4.94022 2.49988 4.91203 2.4998 4.88368C2.49886 4.55228 2.49785 4.19934 2.62402 3.88236C2.73355 3.60716 2.91115 3.36427 3.14017 3.17643C3.40395 2.96007 3.74057 2.85399 4.05665 2.75438C4.08369 2.74586 4.11057 2.73739 4.13725 2.72889L8.80201 1.24425C8.81989 1.23856 8.83756 1.23293 8.85501 1.22736C9.16398 1.12887 9.40736 1.05129 9.66187 1.01976Z" fill="#99A2AD"/>
</svg>
