<svg width="20" height="20" viewBox="0 0 20 20" fill="none" xmlns="http://www.w3.org/2000/svg">
<path fill-rule="evenodd" clip-rule="evenodd" d="M3.54497 4.03927C3.43417 4.00728 3.28428 4.00001 2.67454 4.00001H2.25C1.83579 4.00001 1.5 3.66423 1.5 3.25001C1.5 2.8358 1.83579 2.50001 2.25 2.50001C2.42245 2.50001 2.5949 2.50011 2.76736 2.49996C3.23574 2.49955 3.61848 2.49921 3.96113 2.59816C4.67421 2.80408 5.26714 3.31132 5.55823 4.00002L16.2514 4.00002C16.4713 4.00001 16.6683 4 16.8312 4.00972C17.0013 4.01987 17.1934 4.04286 17.3862 4.11719C18.0029 4.35496 18.433 4.91985 18.4981 5.57753C18.5185 5.78313 18.4895 5.97446 18.454 6.14109C18.4201 6.30066 18.3677 6.49057 18.3092 6.70246C17.9154 8.12905 17.5203 9.55525 17.128 10.9822C17.0329 11.3283 16.95 11.6301 16.7997 11.8868C16.5 12.3987 16.0102 12.7716 15.437 12.9243C15.1496 13.0009 14.8366 13.0005 14.4777 13.0002C12.2997 12.9979 10.1217 12.9977 7.94371 13.0002C7.54881 13.0006 7.20544 13.001 6.89645 12.9118C6.27957 12.7336 5.76819 12.3004 5.49106 11.7212C5.35225 11.4311 5.29618 11.0923 5.2317 10.7028C4.94025 8.94169 4.64486 7.18127 4.35141 5.42054C4.25116 4.81909 4.21936 4.67243 4.16959 4.5684C4.04642 4.31098 3.81913 4.11845 3.54497 4.03927ZM5.88534 5.50002L6.69734 10.372C6.78442 10.8945 6.80964 11.0017 6.84415 11.0738C6.93652 11.2669 7.10699 11.4113 7.31261 11.4707C7.38942 11.4928 7.49928 11.5001 8.02897 11.5001H14.4011C14.8807 11.5001 14.9792 11.494 15.0509 11.4748C15.242 11.4239 15.4053 11.2997 15.5052 11.129C15.5427 11.0649 15.5748 10.9717 15.7024 10.5093L16.8578 6.32295C16.9234 6.08551 16.9634 5.93929 16.9869 5.82884C17.0018 5.75906 17.0043 5.72778 17.0048 5.71982C16.9939 5.6301 16.9353 5.55321 16.8518 5.51883C16.8439 5.51717 16.8131 5.51131 16.7419 5.50706C16.6292 5.50033 16.4776 5.50002 16.2313 5.50002H5.88534Z" fill="#99A2AD"/>
<path d="M6.5 16.25C6.5 15.5597 7.05964 15 7.75 15C8.44036 15 9 15.5597 9 16.25C9 16.9404 8.44036 17.5 7.75 17.5C7.05964 17.5 6.5 16.9404 6.5 16.25Z" fill="#99A2AD"/>
<path d="M13 16.25C13 15.5597 13.5596 15 14.25 15C14.9404 15 15.5 15.5597 15.5 16.25C15.5 16.9404 14.9404 17.5 14.25 17.5C13.5596 17.5 13 16.9404 13 16.25Z" fill="#99A2AD"/>
</svg>
