<svg width="20" height="20" viewBox="0 0 20 20" fill="none" xmlns="http://www.w3.org/2000/svg">
<path fill-rule="evenodd" clip-rule="evenodd" d="M10 1.5C7.653 1.5 5.52697 2.45222 3.98959 3.98959C2.45222 5.52697 1.5 7.653 1.5 10C1.5 12.347 2.45222 14.473 3.98959 16.0104C5.52697 17.5478 7.653 18.5 10 18.5C10.4142 18.5 10.75 18.1642 10.75 17.75C10.75 17.3358 10.4142 17 10 17C8.0668 17 6.31782 16.2173 5.05025 14.9497C3.78268 13.6822 3 11.9332 3 10C3 8.0668 3.78268 6.31782 5.05025 5.05025C6.31782 3.78268 8.0668 3 10 3C11.9332 3 13.6822 3.78268 14.9497 5.05025C16.2173 6.31782 17 8.0668 17 10C17 10.4142 17.3358 10.75 17.75 10.75C18.1642 10.75 18.5 10.4142 18.5 10C18.5 7.653 17.5478 5.52697 16.0104 3.98959C14.473 2.45222 12.347 1.5 10 1.5ZM8.75 8.37317C8.75 8.99449 8.24632 9.49817 7.625 9.49817C7.00368 9.49817 6.5 8.99449 6.5 8.37317C6.5 7.75185 7.00368 7.24817 7.625 7.24817C8.24632 7.24817 8.75 7.75185 8.75 8.37317ZM12.375 9.49817C12.9963 9.49817 13.5 8.99449 13.5 8.37317C13.5 7.75185 12.9963 7.24817 12.375 7.24817C11.7537 7.24817 11.25 7.75185 11.25 8.37317C11.25 8.99449 11.7537 9.49817 12.375 9.49817ZM18.25 16.25C18.6642 16.25 19 15.9142 19 15.5C19 15.0858 18.6642 14.75 18.25 14.75H16.25V12.75C16.25 12.3358 15.9142 12 15.5 12C15.0858 12 14.75 12.3358 14.75 12.75V14.75H12.7547C12.3405 14.75 12.0047 15.0858 12.0047 15.5C12.0047 15.9142 12.3405 16.25 12.7547 16.25H14.75V18.2533C14.75 18.6675 15.0858 19.0033 15.5 19.0033C15.9142 19.0033 16.25 18.6675 16.25 18.2533V16.25H18.25ZM8.31498 11.7527C8.04034 11.4427 7.56633 11.4139 7.25626 11.6886C6.94619 11.9632 6.91747 12.4372 7.19212 12.7473C7.88273 13.527 8.8892 14 10 14C11.1109 14 12.1174 13.527 12.808 12.7473C13.0826 12.4372 13.0539 11.9632 12.7438 11.6886C12.4338 11.4139 11.9597 11.4427 11.6851 11.7527C11.2765 12.2141 10.6774 12.5 10 12.5C9.32265 12.5 8.72361 12.2141 8.31498 11.7527Z" fill="#99A2AD"/>
</svg>
