<svg width="20" height="20" viewBox="0 0 20 20" fill="none" xmlns="http://www.w3.org/2000/svg">
<path fill-rule="evenodd" clip-rule="evenodd" d="M15.2352 1.67815C15.0675 1.53581 14.8457 1.47429 14.6286 1.50989C14.4959 1.53253 14.3633 1.55599 14.231 1.58074C13.9872 1.62631 13.6475 1.69321 13.2624 1.77876C12.5037 1.94732 11.5259 2.19752 10.7621 2.51299C9.46733 3.04778 9.24864 4.41063 9.24789 5.34679L9.24697 6.49942C9.24541 8.51777 9.24374 11.2253 9.2459 12.5246C7.26727 12.6573 5.88281 13.3179 5.12455 14.268C4.25494 15.3577 4.29505 16.7669 5.21179 17.6836C6.08849 18.5603 7.51119 18.755 8.68621 18.1497C9.90635 17.5212 10.75 16.1146 10.75 14L10.747 13.0009C10.7465 12.8696 10.7461 12.6909 10.7458 12.4739C10.7451 12.04 10.7449 11.4547 10.7449 10.7926C10.7449 9.65386 10.7457 8.28876 10.7465 7.07771L13.3056 6.40164C14.2957 6.14007 15.219 5.37542 15.3729 4.20293C15.4375 3.71033 15.469 3.22293 15.4845 2.86253C15.4962 2.59063 15.4991 2.38621 15.4998 2.29762C15.5011 2.06104 15.4193 1.83432 15.2352 1.67815ZM10.7477 5.52593L12.9225 4.95139C13.4847 4.80287 13.8306 4.42715 13.8856 4.00772C13.9237 3.71756 13.9493 3.4245 13.9663 3.16178C13.8473 3.18647 13.7203 3.21361 13.5877 3.24306C12.8462 3.4078 11.9732 3.63569 11.3347 3.89939C10.9677 4.05101 10.7486 4.48611 10.7479 5.348L10.7477 5.52593ZM9.24993 14.0279C7.59933 14.1556 6.69855 14.7004 6.29698 15.2037C5.85695 15.755 5.94706 16.2975 6.27245 16.6229C6.65361 17.0041 7.35985 17.1456 7.9993 16.8162C8.5904 16.5117 9.24284 15.7198 9.24993 14.0279Z" fill="#99A2AD"/>
</svg>
