<svg width="20" height="20" viewBox="0 0 20 20" fill="none" xmlns="http://www.w3.org/2000/svg">
<path fill-rule="evenodd" clip-rule="evenodd" d="M9.21768 3.01113C8.74646 4.54884 8.06038 6.24765 7.15401 7.15401C6.24765 8.06038 4.54884 8.74646 3.01112 9.21768C2.91218 9.248 2.8139 9.27743 2.71654 9.30597C2.48077 9.3751 2.2504 9.43901 2.02904 9.49774C1.94731 9.51942 1.8668 9.5404 1.78771 9.56067C1.40638 9.65839 1.40638 10.3417 1.78771 10.4394C1.8668 10.4597 1.94731 10.4807 2.02904 10.5024C2.2504 10.5611 2.48077 10.625 2.71654 10.6941C2.8139 10.7227 2.91218 10.7521 3.01112 10.7824C4.54884 11.2536 6.24765 11.9397 7.15401 12.8461C8.06038 13.7525 8.74646 15.4513 9.21768 16.989C9.248 17.0879 9.27743 17.1862 9.30597 17.2836C9.3751 17.5193 9.43901 17.7497 9.49774 17.9711C9.51942 18.0528 9.5404 18.1333 9.56067 18.2124C9.65839 18.5937 10.3417 18.5937 10.4394 18.2124C10.4597 18.1333 10.4807 18.0528 10.5024 17.9711C10.5611 17.7497 10.625 17.5193 10.6941 17.2836C10.7227 17.1862 10.7521 17.0879 10.7824 16.989C11.2536 15.4513 11.9397 13.7525 12.8461 12.8461C13.7525 11.9397 15.4513 11.2536 16.989 10.7824C17.0879 10.7521 17.1862 10.7227 17.2836 10.6941C17.5193 10.625 17.7497 10.5611 17.9711 10.5024C18.0528 10.4807 18.1333 10.4597 18.2124 10.4394C18.5937 10.3417 18.5937 9.65839 18.2124 9.56067C18.1333 9.5404 18.0528 9.51942 17.9711 9.49774C17.7497 9.43901 17.5193 9.3751 17.2836 9.30597C17.1862 9.27743 17.0879 9.248 16.989 9.21768C15.4513 8.74646 13.7525 8.06038 12.8461 7.15401C11.9397 6.24765 11.2536 4.54884 10.7824 3.01112C10.7521 2.91218 10.7227 2.8139 10.6941 2.71654C10.625 2.48077 10.5611 2.2504 10.5024 2.02904C10.4807 1.94731 10.4597 1.8668 10.4394 1.78771C10.3417 1.40638 9.65839 1.40638 9.56067 1.78771C9.5404 1.8668 9.51942 1.94731 9.49774 2.02904C9.43901 2.2504 9.3751 2.48077 9.30597 2.71654C9.27743 2.8139 9.248 2.91218 9.21768 3.01113ZM10 5.29019C9.57803 6.31476 9.00099 7.42836 8.21467 8.21467C7.42836 9.00099 6.31476 9.57803 5.29019 10C6.31476 10.4221 7.42836 10.9991 8.21467 11.7854C9.00099 12.5717 9.57803 13.6853 10 14.7099C10.4221 13.6853 10.9991 12.5717 11.7854 11.7854C12.5717 10.9991 13.6853 10.4221 14.7099 10C13.6853 9.57803 12.5717 9.00099 11.7854 8.21467C10.9991 7.42836 10.4221 6.31476 10 5.29019Z" fill="#99A2AD"/>
</svg>
