<svg width="20" height="20" viewBox="0 0 20 20" fill="none" xmlns="http://www.w3.org/2000/svg">
<path fill-rule="evenodd" clip-rule="evenodd" d="M13.7712 4.10271C12.4959 3.28717 10.9906 2.90703 9.48094 3.01928C7.97133 3.13153 6.53878 3.73012 5.3981 4.7253C4.25743 5.72049 3.47009 7.05862 3.15416 8.53907C2.83822 10.0195 3.01071 11.5625 3.64577 12.9366C3.81954 13.3126 3.6556 13.7583 3.27959 13.9321C2.90359 14.1058 2.45792 13.9419 2.28415 13.5659C1.51301 11.8973 1.30355 10.0237 1.68719 8.22601C2.07082 6.42833 3.02687 4.80344 4.41198 3.59501C5.79709 2.38658 7.53661 1.65971 9.36972 1.52341C11.2028 1.3871 13.0307 1.84871 14.5793 2.839C16.1279 3.8293 17.3138 5.29491 17.959 7.01609C18.6043 8.73727 18.6743 10.6212 18.1584 12.3855C17.6425 14.1498 16.5686 15.6993 15.0977 16.8017C13.6268 17.9041 11.8382 18.5 10 18.5C9.58579 18.5 9.25001 18.1642 9.25001 17.75C9.25001 17.3358 9.58579 17 10 17C11.5138 17 12.9868 16.5093 14.1981 15.6014C15.4094 14.6936 16.2938 13.4175 16.7187 11.9646C17.1435 10.5116 17.0859 8.9601 16.5545 7.54266C16.0231 6.12522 15.0465 4.91825 13.7712 4.10271Z" fill="#99A2AD"/>
</svg>
