<svg width="20" height="20" viewBox="0 0 20 20" fill="none" xmlns="http://www.w3.org/2000/svg">
<path fill-rule="evenodd" clip-rule="evenodd" d="M2.46867 4.34784C2 5.26766 2 6.47177 2 8.88V11.12C2 13.5282 2 14.7323 2.46867 15.6522C2.88093 16.4613 3.53874 17.1191 4.34784 17.5313C5.26766 18 6.47177 18 8.88 18H11.12C13.5282 18 14.7323 18 15.6522 17.5313C16.4613 17.1191 17.1191 16.4613 17.5313 15.6522C18 14.7323 18 13.5282 18 11.12V8.88C18 6.47177 18 5.26766 17.5313 4.34784C17.1191 3.53874 16.4613 2.88093 15.6522 2.46867C14.7323 2 13.5282 2 11.12 2H8.88C6.47177 2 5.26766 2 4.34784 2.46867C3.53874 2.88093 2.88093 3.53874 2.46867 4.34784ZM11.12 3.5H8.88C7.65114 3.5 6.8197 3.50117 6.17792 3.5536C5.55364 3.60461 5.24204 3.69655 5.02883 3.80518C4.50197 4.07363 4.07363 4.50197 3.80518 5.02883C3.69655 5.24204 3.60461 5.55364 3.5536 6.17792C3.53929 6.35308 3.5288 6.54236 3.52111 6.75H16.4789C16.4712 6.54236 16.4607 6.35308 16.4464 6.17792C16.3954 5.55364 16.3035 5.24204 16.1948 5.02883C15.9264 4.50197 15.498 4.07363 14.9712 3.80518C14.758 3.69655 14.4464 3.60461 13.8221 3.5536C13.1803 3.50117 12.3489 3.5 11.12 3.5ZM3.5 8.88C3.5 8.65737 3.50004 8.44778 3.50041 8.25H16.4996C16.5 8.44778 16.5 8.65737 16.5 8.88V11.12C16.5 11.3426 16.5 11.5522 16.4996 11.75H3.50041C3.50004 11.5522 3.5 11.3426 3.5 11.12V8.88ZM3.52111 13.25C3.5288 13.4576 3.53929 13.6469 3.5536 13.8221C3.60461 14.4464 3.69655 14.758 3.80518 14.9712C4.07363 15.498 4.50197 15.9264 5.02883 16.1948C5.24204 16.3035 5.55364 16.3954 6.17792 16.4464C6.8197 16.4988 7.65114 16.5 8.88 16.5H11.12C12.3489 16.5 13.1803 16.4988 13.8221 16.4464C14.4464 16.3954 14.758 16.3035 14.9712 16.1948C15.498 15.9264 15.9264 15.498 16.1948 14.9712C16.3035 14.758 16.3954 14.4464 16.4464 13.8221C16.4607 13.6469 16.4712 13.4576 16.4789 13.25H3.52111Z" fill="#99A2AD"/>
</svg>
