<svg width="20" height="20" viewBox="0 0 20 20" fill="none" xmlns="http://www.w3.org/2000/svg">
<path d="M7.88655 9.40472C8.4937 9.40472 8.98811 8.91194 8.99084 8.30406C8.99358 7.69619 8.5036 7.2034 7.89645 7.2034C7.2893 7.2034 6.7949 7.69619 6.79216 8.30406C6.78943 8.91194 7.2794 9.40472 7.88655 9.40472Z" fill="#99A2AD"/>
<path d="M13.788 7.60364C13.7853 8.21151 13.2908 8.7043 12.6837 8.7043C12.0765 8.7043 11.5866 8.21151 11.5893 7.60364C11.592 6.99576 12.0864 6.50298 12.6936 6.50298C13.3007 6.50298 13.7907 6.99576 13.788 7.60364Z" fill="#99A2AD"/>
<path fill-rule="evenodd" clip-rule="evenodd" d="M2.04164 7.41615C1.71607 5.09024 3.33518 2.93901 5.65803 2.61124L13.2033 1.54654C15.5261 1.21877 17.6731 2.83858 17.9987 5.16448C18.1372 6.15415 18.2757 7.14381 18.4143 8.13348C19.0812 12.8978 15.7848 17.3062 11.0414 18.0154C10.7672 18.0636 10.4893 18.0941 10.2136 18.1325L7.87679 18.4622C5.55394 18.79 3.40698 17.1702 3.0814 14.8443L2.04164 7.41615ZM16.5143 5.37395L16.851 7.77963C16.9146 8.43709 16.4541 9.03588 15.7958 9.13683L14.7268 9.30076C13.0479 9.55821 11.7978 10.8949 11.578 12.5016C11.049 12.6179 10.4758 12.6322 9.95643 12.5612C9.40135 12.4853 8.97773 12.322 8.74323 12.1505C8.40897 11.9061 7.94006 11.9793 7.69588 12.314C7.45171 12.6488 7.52474 13.1183 7.859 13.3627C8.36441 13.7323 9.05544 13.9529 9.75332 14.0484C10.3531 14.1304 11.0096 14.1272 11.6478 14.0169L11.8037 15.1306C11.8967 15.795 11.4501 16.4109 10.7987 16.5341L7.66873 16.9759C6.16571 17.188 4.7765 16.1398 4.56583 14.6348L3.52607 7.20668C3.3154 5.70168 4.36307 4.30971 5.86608 4.09762L13.4114 3.03292C14.9144 2.82084 16.3036 3.86895 16.5143 5.37395ZM16.9384 10.3079C16.6372 12.5831 15.2675 14.5799 13.2883 15.6889C13.3234 15.4401 13.3247 15.1823 13.2882 14.9211L13.0646 13.3244C12.8937 12.1034 13.7354 10.9712 14.9526 10.7845L16.0216 10.6206C16.3528 10.5698 16.6613 10.4617 16.9384 10.3079Z" fill="#99A2AD"/>
</svg>
