<svg width="20" height="20" viewBox="0 0 20 20" fill="none" xmlns="http://www.w3.org/2000/svg">
<path fill-rule="evenodd" clip-rule="evenodd" d="M1.21967 1.21967C1.51256 0.926777 1.98744 0.926777 2.28033 1.21967L18.7803 17.7197C19.0732 18.0126 19.0732 18.4874 18.7803 18.7803C18.4874 19.0732 18.0126 19.0732 17.7197 18.7803L16.1777 17.2384C16.0193 17.3486 15.8529 17.4484 15.6795 17.5368C15.1818 17.7904 14.6399 17.8983 14.0099 17.9498C13.3956 18 12.6351 18 11.6826 18H8.31737C7.36493 18 6.60439 18 5.99013 17.9498C5.36012 17.8983 4.81824 17.7904 4.32054 17.5368C3.52085 17.1293 2.87068 16.4791 2.46322 15.6795C2.20963 15.1818 2.10165 14.6399 2.05018 14.0099C1.99999 13.3956 1.99999 12.6351 2 11.6826V8.31739C1.99999 7.36494 1.99999 6.6044 2.05018 5.99013C2.10165 5.36012 2.20963 4.81824 2.46322 4.32054C2.55159 4.14711 2.65138 3.98071 2.76163 3.82229L1.21967 2.28033C0.926777 1.98744 0.926777 1.51256 1.21967 1.21967ZM3.84884 4.9095C3.83192 4.93982 3.81554 4.9705 3.79973 5.00153C3.67184 5.25252 3.58909 5.57503 3.54519 6.11228C3.50058 6.65829 3.5 7.35753 3.5 8.35V11.65C3.5 12.6425 3.50058 13.3417 3.54519 13.8877C3.58909 14.425 3.67184 14.7475 3.79973 14.9985C4.06338 15.5159 4.48408 15.9366 5.00153 16.2003C5.25252 16.3282 5.57503 16.4109 6.11228 16.4548C6.65829 16.4994 7.35753 16.5 8.35 16.5H11.65C12.6425 16.5 13.3417 16.4994 13.8877 16.4548C14.425 16.4109 14.7475 16.3282 14.9985 16.2003C15.0295 16.1845 15.0602 16.1681 15.0905 16.1512L12.2482 13.3088C11.6074 13.7448 10.8328 14 10 14C7.79086 14 6 12.2091 6 10C6 9.16699 6.25527 8.39248 6.69119 7.75185L3.84884 4.9095ZM7.78282 8.84348C7.60201 9.18923 7.5 9.58234 7.5 10C7.5 11.3807 8.61929 12.5 10 12.5C10.4178 12.5 10.8109 12.398 11.1565 12.2172L7.78282 8.84348ZM13.8877 3.54519C13.3417 3.50058 12.6425 3.5 11.65 3.5H7C6.58579 3.5 6.25 3.16421 6.25 2.75C6.25 2.33579 6.58579 2 7 2L11.6826 2C12.6351 1.99999 13.3956 1.99999 14.0099 2.05018C14.6399 2.10165 15.1818 2.20963 15.6795 2.46322C16.4791 2.87068 17.1293 3.52085 17.5368 4.32054C17.7904 4.81824 17.8983 5.36012 17.9498 5.99013C18 6.60439 18 7.36493 18 8.31737V13C18 13.4142 17.6642 13.75 17.25 13.75C16.8358 13.75 16.5 13.4142 16.5 13V8.35C16.5 7.35753 16.4994 6.65829 16.4548 6.11228C16.4109 5.57503 16.3282 5.25252 16.2003 5.00153C15.9366 4.48408 15.5159 4.06338 14.9985 3.79973C14.7475 3.67184 14.425 3.58909 13.8877 3.54519ZM10.5602 6.71082C10.7199 6.32864 11.1592 6.14829 11.5414 6.30801C12.5114 6.71334 13.2867 7.48868 13.692 8.45862C13.8517 8.8408 13.6714 9.2801 13.2892 9.43981C12.907 9.59952 12.4677 9.41917 12.308 9.03698C12.0548 8.4311 11.5689 7.94521 10.963 7.69202C10.5809 7.5323 10.4005 7.09301 10.5602 6.71082Z" fill="#99A2AD"/>
</svg>
