<svg width="20" height="20" viewBox="0 0 20 20" fill="none" xmlns="http://www.w3.org/2000/svg">
<path fill-rule="evenodd" clip-rule="evenodd" d="M8.31739 2H11.6826C12.6351 1.99999 13.3956 1.99999 14.0099 2.05018C14.6399 2.10165 15.1818 2.20963 15.6795 2.46322C16.4791 2.87068 17.1293 3.52085 17.5368 4.32054C17.7904 4.81824 17.8984 5.36012 17.9498 5.99013C18 6.60439 18 7.36493 18 8.31737V11.6826C18 12.6351 18 13.3956 17.9498 14.0099C17.8984 14.6399 17.7904 15.1818 17.5368 15.6795C17.1293 16.4791 16.4791 17.1293 15.6795 17.5368C15.1818 17.7904 14.6399 17.8984 14.0099 17.9498C13.3956 18 12.6351 18 11.6826 18H8.31737C7.36493 18 6.60439 18 5.99013 17.9498C5.36012 17.8984 4.81824 17.7904 4.32054 17.5368C3.52085 17.1293 2.87068 16.4791 2.46322 15.6795C2.20963 15.1818 2.10165 14.6399 2.05018 14.0099C1.99999 13.3956 1.99999 12.6351 2 11.6826V8.31739C1.99999 7.36494 1.99999 6.6044 2.05018 5.99013C2.10165 5.36012 2.20963 4.81824 2.46322 4.32054C2.87068 3.52085 3.52085 2.87068 4.32054 2.46322C4.81824 2.20963 5.36012 2.10165 5.99013 2.05018C6.6044 1.99999 7.36494 1.99999 8.31739 2ZM6.11228 3.54519C5.57503 3.58909 5.25252 3.67184 5.00153 3.79973C4.48408 4.06338 4.06338 4.48408 3.79973 5.00153C3.67184 5.25252 3.58909 5.57503 3.54519 6.11228C3.50058 6.65829 3.5 7.35753 3.5 8.35V11.65C3.5 12.6425 3.50058 13.3417 3.54519 13.8877C3.58909 14.425 3.67184 14.7475 3.79973 14.9985C4.06338 15.5159 4.48408 15.9366 5.00153 16.2003C5.25252 16.3282 5.57503 16.4109 6.11228 16.4548C6.65829 16.4994 7.35753 16.5 8.35 16.5H11.65C12.6425 16.5 13.3417 16.4994 13.8877 16.4548C14.425 16.4109 14.7475 16.3282 14.9985 16.2003C15.5159 15.9366 15.9366 15.5159 16.2003 14.9985C16.3282 14.7475 16.4109 14.425 16.4548 13.8877C16.4994 13.3417 16.5 12.6425 16.5 11.65V8.35C16.5 7.35753 16.4994 6.65829 16.4548 6.11228C16.4109 5.57503 16.3282 5.25252 16.2003 5.00153C15.9366 4.48408 15.5159 4.06338 14.9985 3.79973C14.7475 3.67184 14.425 3.58909 13.8877 3.54519C13.3417 3.50058 12.6425 3.5 11.65 3.5H8.35C7.35753 3.5 6.65829 3.50058 6.11228 3.54519ZM10 7.5C8.61929 7.5 7.5 8.61929 7.5 10C7.5 11.3807 8.61929 12.5 10 12.5C11.3807 12.5 12.5 11.3807 12.5 10C12.5 8.61929 11.3807 7.5 10 7.5ZM6 10C6 7.79086 7.79086 6 10 6C12.2091 6 14 7.79086 14 10C14 12.2091 12.2091 14 10 14C7.79086 14 6 12.2091 6 10Z" fill="#99A2AD"/>
</svg>
