<svg width="20" height="20" viewBox="0 0 20 20" fill="none" xmlns="http://www.w3.org/2000/svg">
<path fill-rule="evenodd" clip-rule="evenodd" d="M10.752 1.75C10.752 1.33579 10.4162 1 10.002 1C9.58776 1 9.25197 1.33579 9.25197 1.75V3.58333C9.25197 3.99755 9.58776 4.33333 10.002 4.33333C10.4162 4.33333 10.752 3.99755 10.752 3.58333V1.75ZM10 7.5C9.30925 7.5 8.68631 7.77818 8.23225 8.23223C7.7782 8.68629 7.50002 9.30923 7.50002 10C7.50002 10.6908 7.7782 11.3137 8.23225 11.7678C8.68631 12.2218 9.30925 12.5 10 12.5C10.6908 12.5 11.3137 12.2218 11.7678 11.7678C12.2218 11.3137 12.5 10.6908 12.5 10C12.5 9.30923 12.2218 8.68629 11.7678 8.23223C11.3137 7.77818 10.6908 7.5 10 7.5ZM7.17159 7.17157C7.89545 6.44772 8.89545 6 10 6C11.1046 6 12.1046 6.44772 12.8284 7.17157C13.5523 7.89543 14 8.89543 14 10C14 11.1046 13.5523 12.1046 12.8284 12.8284C12.1046 13.5523 11.1046 14 10 14C8.89545 14 7.89545 13.5523 7.17159 12.8284C6.44774 12.1046 6.00002 11.1046 6.00002 10C6.00002 8.89543 6.44774 7.89543 7.17159 7.17157ZM9.99856 15.6699C10.4128 15.6699 10.7486 16.0057 10.7486 16.4199V18.2533C10.7486 18.6675 10.4128 19.0033 9.99856 19.0033C9.58434 19.0033 9.24856 18.6675 9.24856 18.2533V16.4199C9.24856 16.0057 9.58434 15.6699 9.99856 15.6699ZM2.09159 5.39088C2.28993 5.02724 2.7455 4.89323 3.10914 5.09157L4.94256 6.09155C5.3062 6.28989 5.4402 6.74546 5.24187 7.1091C5.04353 7.47274 4.58795 7.60675 4.22431 7.40841L2.3909 6.40843C2.02726 6.21009 1.89325 5.75452 2.09159 5.39088ZM16.8909 5.09157C17.2545 4.89323 17.7101 5.02724 17.9085 5.39088C18.1068 5.75452 17.9728 6.21009 17.6091 6.40843L15.7757 7.40841C15.4121 7.60675 14.9565 7.47274 14.7582 7.1091C14.5598 6.74546 14.6938 6.28989 15.0575 6.09155L16.8909 5.09157ZM5.24187 12.8909C5.4402 13.2545 5.3062 13.7101 4.94256 13.9084L3.10914 14.9084C2.7455 15.1067 2.28993 14.9727 2.09159 14.6091C1.89325 14.2455 2.02726 13.7899 2.3909 13.5915L4.22431 12.5916C4.58795 12.3932 5.04353 12.5272 5.24187 12.8909ZM15.0575 13.9084C14.6938 13.7101 14.5598 13.2545 14.7582 12.8909C14.9565 12.5272 15.4121 12.3932 15.7757 12.5916L17.6091 13.5915C17.9728 13.7899 18.1068 14.2455 17.9085 14.6091C17.7101 14.9727 17.2545 15.1067 16.8909 14.9084L15.0575 13.9084Z" fill="#99A2AD"/>
</svg>
