<svg width="20" height="20" viewBox="0 0 20 20" fill="none" xmlns="http://www.w3.org/2000/svg">
<path d="M16.2501 1.5C16.6643 1.5 17.0001 1.83579 17.0001 2.25V5.25C17.0001 5.66421 16.6643 6 16.2501 6H13.2501C12.8358 6 12.5001 5.66421 12.5001 5.25C12.5001 4.83579 12.8358 4.5 13.2501 4.5H14.3314C13.065 3.49991 11.5335 3 10.0001 3C8.2075 3 6.41736 3.68327 5.05037 5.05025C3.68339 6.41724 3.00012 8.20739 3.00012 10C3.00012 10.3498 3.02614 10.6996 3.07819 11.0461C3.15067 11.5287 2.80033 12 2.31234 12C1.97521 12 1.67864 11.7695 1.6219 11.4372C1.54072 10.9618 1.50012 10.4808 1.50012 10C1.50012 7.82582 2.33013 5.64918 3.98971 3.98959C5.6493 2.33001 7.82594 1.5 10.0001 1.5C11.9579 1.5 13.9176 2.17299 15.5001 3.51865V2.25C15.5001 1.83579 15.8358 1.5 16.2501 1.5Z" fill="#99A2AD"/>
<path d="M3.00006 14.75C3.00006 14.3358 3.33585 14 3.75006 14H6.75006C7.16427 14 7.50006 14.3358 7.50006 14.75C7.50006 15.1642 7.16427 15.5 6.75006 15.5H5.66882C6.93526 16.5001 8.46679 17 10.0001 17C11.7927 17 13.5829 16.3167 14.9499 14.9497C16.3169 13.5828 17.0001 11.7926 17.0001 10C17.0001 9.65017 16.9741 9.30043 16.9221 8.9539C16.8496 8.47133 17.1999 8 17.6879 8C18.025 8 18.3216 8.23048 18.3783 8.56279C18.4595 9.03824 18.5001 9.51918 18.5001 10C18.5001 12.1742 17.6701 14.3508 16.0105 16.0104C14.3509 17.67 12.1743 18.5 10.0001 18.5C8.04232 18.5 6.08252 17.827 4.50006 16.4813V17.75C4.50006 18.1642 4.16427 18.5 3.75006 18.5C3.33585 18.5 3.00006 18.1642 3.00006 17.75V14.75Z" fill="#99A2AD"/>
</svg>
