<svg width="20" height="20" viewBox="0 0 20 20" fill="none" xmlns="http://www.w3.org/2000/svg">
<path fill-rule="evenodd" clip-rule="evenodd" d="M8.3 3C5.91978 3 4.72967 3 3.82054 3.46322C3.52687 3.61285 3.25162 3.79684 3 4.00963C2.5735 4.37159 2.22012 4.81635 1.96322 5.32054C1.5 6.22967 1.5 7.41978 1.5 9.8V10.2C1.5 12.5802 1.5 13.7703 1.96322 14.6795C2.37068 15.4791 3.02085 16.1293 3.82054 16.5368C4.72967 17 5.91978 17 8.3 17H11.7C14.0802 17 15.2703 17 16.1795 16.5368C16.9791 16.1293 17.6293 15.4791 18.0368 14.6795C18.5 13.7703 18.5 12.5802 18.5 10.2V9.8C18.5 7.41978 18.5 6.22967 18.0368 5.32054C17.7799 4.81635 17.4265 4.37159 17 4.00963C16.7484 3.79684 16.4731 3.61285 16.1795 3.46322C15.2703 3 14.0802 3 11.7 3H8.3ZM9.25 7H3.06465C3.06053 7.04197 3.05662 7.08552 3.05292 7.13076C3.00117 7.7642 3 8.58514 3 9.8L3.00005 10.5H9.25V7ZM10.75 7V10.5H16.9999L17 9.8C17 8.58514 16.9988 7.7642 16.9471 7.13076C16.9434 7.08552 16.9395 7.04197 16.9354 7H10.75ZM9.25 12H3.0118C3.01946 12.3291 3.03209 12.6143 3.05292 12.8692C3.10325 13.4852 3.19382 13.7906 3.29973 13.9985C3.56338 14.5159 3.98408 14.9366 4.50153 15.2003C4.70939 15.3062 5.01482 15.3968 5.63076 15.4471C6.2642 15.4988 7.08514 15.5 8.3 15.5H9.25V12ZM10.75 15.5V12H16.9882C16.9805 12.3291 16.9679 12.6143 16.9471 12.8692C16.8968 13.4852 16.8062 13.7906 16.7003 13.9985C16.4366 14.5159 16.0159 14.9366 15.4985 15.2003C15.2906 15.3062 14.9852 15.3968 14.3692 15.4471C13.7358 15.4988 12.9149 15.5 11.7 15.5H10.75Z" fill="#99A2AD"/>
</svg>
