<svg width="20" height="20" viewBox="0 0 20 20" fill="none" xmlns="http://www.w3.org/2000/svg">
<path d="M9.99155 16C10.9124 16 11.4868 15.3863 11.4868 14.4112V10.7798H11.5375L15.2883 15.3863C15.6008 15.7814 15.9725 16 16.5301 16C17.358 16 18 15.3695 18 14.5457C18 14.1843 17.924 13.8228 17.6199 13.4613L14.1816 9.40955L17.5354 5.64358C17.7719 5.37458 17.8479 5.10558 17.8479 4.81137C17.8479 4.0464 17.2566 3.5 16.4541 3.5C16.0317 3.5 15.7191 3.6345 15.4234 3.99597L11.5459 8.58574H11.4868V5.08877C11.4868 4.11365 10.9124 3.5 9.99155 3.5C9.07075 3.5 8.4963 4.11365 8.4963 5.08877V8.58574H8.43717L4.57656 3.99597C4.28933 3.64291 3.96832 3.5 3.53749 3.5C2.73495 3.5 2.14361 4.0464 2.14361 4.80296C2.14361 5.10558 2.21964 5.4082 2.45618 5.6772L5.79303 9.45999L2.3717 13.4697C2.07603 13.8396 2 14.1927 2 14.5541C2 15.3779 2.62513 16 3.46146 16C4.01056 16 4.39071 15.7814 4.70327 15.3863L8.44562 10.7798H8.4963V14.4112C8.4963 15.3863 9.07075 16 9.99155 16Z" fill="#99A2AD"/>
</svg>
