<svg width="20" height="20" viewBox="0 0 20 20" fill="none" xmlns="http://www.w3.org/2000/svg">
<path d="M5.10494 4.31752C5.41864 4.04703 5.45366 3.57344 5.18316 3.25975C4.91267 2.94605 4.43909 2.91103 4.12539 3.18153L4.07029 3.22943C3.92109 3.36019 3.77626 3.49581 3.63604 3.63603C2.00818 5.26389 1 7.51492 1 9.99999C1 12.4851 2.00818 14.7361 3.63604 16.364C3.79346 16.5214 3.95669 16.673 4.12539 16.8185C4.43909 17.089 4.91267 17.0539 5.18316 16.7402C5.45366 16.4265 5.41864 15.953 5.10494 15.6825C4.96422 15.5611 4.82804 15.4346 4.6967 15.3033C3.33864 13.9452 2.5 12.0713 2.5 9.99999C2.5 7.92872 3.33864 6.05475 4.6967 4.69669C4.81369 4.57971 4.93452 4.46657 5.05898 4.35748L5.10494 4.31752Z" fill="#99A2AD"/>
<path d="M15.8746 3.18153C15.5609 2.91103 15.0873 2.94605 14.8168 3.25975C14.5463 3.57344 14.5814 4.04703 14.8951 4.31752C15.0358 4.43887 15.172 4.56536 15.3033 4.69669C16.6614 6.05475 17.5 7.92872 17.5 9.99999C17.5 12.0713 16.6614 13.9452 15.3033 15.3033C15.172 15.4346 15.0358 15.5611 14.8951 15.6825C14.5814 15.953 14.5463 16.4265 14.8168 16.7402C15.0873 17.0539 15.5609 17.089 15.8746 16.8185C16.0433 16.673 16.2065 16.5214 16.364 16.364C17.9918 14.7361 19 12.4851 19 9.99999C19 7.51492 17.9918 5.26389 16.364 3.63603C16.2065 3.47861 16.0433 3.32699 15.8746 3.18153Z" fill="#99A2AD"/>
<path d="M6.78806 6.84821C7.07819 6.55258 7.07373 6.07773 6.7781 5.7876C6.48247 5.49747 6.00761 5.50193 5.71748 5.79756C4.65593 6.87925 4 8.36375 4 9.99995C4 11.6362 4.65593 13.1207 5.71748 14.2023C6.00761 14.498 6.48247 14.5024 6.7781 14.2123C7.07373 13.9222 7.07819 13.4473 6.78806 13.1517C5.99057 12.3391 5.5 11.2276 5.5 9.99995C5.5 8.77235 5.99057 7.66083 6.78806 6.84821Z" fill="#99A2AD"/>
<path d="M14.2825 5.79756C13.9924 5.50193 13.5175 5.49747 13.2219 5.7876C12.9263 6.07773 12.9218 6.55258 13.2119 6.84821C14.0094 7.66083 14.5 8.77235 14.5 9.99995C14.5 11.2276 14.0094 12.3391 13.2119 13.1517C12.9218 13.4473 12.9263 13.9222 13.2219 14.2123C13.5175 14.5024 13.9924 14.498 14.2825 14.2023C15.3441 13.1207 16 11.6362 16 9.99995C16 8.36375 15.3441 6.87925 14.2825 5.79756Z" fill="#99A2AD"/>
<path d="M7.5 8.25001C7.5 7.8358 7.83579 7.50001 8.25 7.50001H11.75C12.1642 7.50001 12.5 7.8358 12.5 8.25001C12.5 8.66423 12.1642 9.00001 11.75 9.00001H10.75V12.25C10.75 12.6642 10.4142 13 10 13C9.58579 13 9.25 12.6642 9.25 12.25V9.00001H8.25C7.83579 9.00001 7.5 8.66423 7.5 8.25001Z" fill="#99A2AD"/>
</svg>
