<svg width="20" height="20" viewBox="0 0 20 20" fill="none" xmlns="http://www.w3.org/2000/svg">
<path d="M9.79411 15.4777C10.316 15.4777 10.6918 15.1135 10.6918 14.5932C10.6918 14.4223 10.657 14.2514 10.5735 14.0061L7.65073 5.53311C7.40021 4.81216 6.99658 4.5 6.33548 4.5C5.68133 4.5 5.2777 4.82703 5.03414 5.54054L2.1183 14.0061C2.0348 14.2365 2 14.4446 2 14.5932C2 15.1358 2.35491 15.4777 2.90467 15.4777C3.37093 15.4777 3.63537 15.2324 3.80239 14.6527L4.4635 12.6162H8.21441L8.87552 14.6676C9.03558 15.2399 9.30698 15.4777 9.79411 15.4777ZM7.74609 11.0117H4.91797L6.30068 6.52162H6.34939L7.74609 11.0117ZM17.158 15.5C17.6451 15.5 18 15.1655 18 14.5709V9.63743C18 8.05432 16.81 7.02121 14.9798 7.02121C13.5671 7.02121 12.4941 7.60094 12.1183 8.51513C12.0418 8.68607 12 8.84959 12 9.02053C12 9.46648 12.3062 9.76378 12.7307 9.76378C13.023 9.76378 13.2526 9.64486 13.4336 9.39216C13.865 8.7158 14.2352 8.47053 14.9102 8.47053C15.7662 8.47053 16.2881 8.94621 16.2881 9.77121V10.6243L14.3326 10.7432C12.5372 10.8622 11.5281 11.702 11.5281 13.0993C11.5281 14.5189 12.565 15.4777 13.9916 15.4777C14.945 15.4777 15.8705 14.95 16.295 14.0953H16.3298V14.6453C16.3577 15.1953 16.6847 15.5 17.158 15.5ZM14.5205 14.0804C13.7689 14.0804 13.2609 13.6716 13.2609 13.025C13.2609 12.4007 13.7411 11.9993 14.5762 11.9399L16.2881 11.8284V12.4304C16.2881 13.3818 15.4947 14.0804 14.5205 14.0804Z" fill="#99A2AD"/>
</svg>
