<svg width="20" height="20" viewBox="0 0 20 20" fill="none" xmlns="http://www.w3.org/2000/svg">
<path d="M2.5 4.75C2.5 4.33579 2.84148 4 3.24385 4H16.7561C17.167 4 17.5 4.3329 17.5 4.75C17.5 5.16421 17.1585 5.5 16.7561 5.5H3.24385C2.83303 5.5 2.5 5.1671 2.5 4.75ZM2.5 9.75C2.5 9.33579 2.84148 9 3.24385 9H16.7561C17.167 9 17.5 9.3329 17.5 9.75C17.5 10.1642 17.1585 10.5 16.7561 10.5H3.24385C2.83303 10.5 2.5 10.1671 2.5 9.75ZM17.5 14.75C17.5 15.1642 17.1625 15.5 16.7449 15.5H7.75513C7.33808 15.5 7 15.1671 7 14.75C7 14.3358 7.33746 14 7.75513 14H16.7449C17.1619 14 17.5 14.3329 17.5 14.75Z" fill="#99A2AD"/>
</svg>
