<svg width="20" height="20" viewBox="0 0 20 20" fill="none" xmlns="http://www.w3.org/2000/svg">
<path fill-rule="evenodd" clip-rule="evenodd" d="M5 17.25C5 16.8358 5.33579 16.5 5.75 16.5H14.25C14.6642 16.5 15 16.8358 15 17.25C15 17.6642 14.6642 18 14.25 18H5.75C5.33579 18 5 17.6642 5 17.25Z" fill="#99A2AD"/>
<path fill-rule="evenodd" clip-rule="evenodd" d="M12.1044 9.97898C11.4752 10.4546 10.4956 10.8054 9.3885 10.8054C6.52124 10.8054 5 9.00441 5 6.65763V4.40441C5 3.85085 5.34248 3.5 5.89204 3.5C6.43363 3.5 6.78407 3.85085 6.78407 4.40441V6.59525C6.78407 8.24034 7.75575 9.2461 9.53982 9.2461C10.6947 9.2461 11.6504 8.84068 12.2159 8.28712V4.40441C12.2159 3.85085 12.5664 3.5 13.108 3.5C13.6575 3.5 14 3.85085 14 4.40441V14.0956C14 14.6492 13.6575 15 13.108 15C12.5664 15 12.2159 14.6492 12.2159 14.0956V9.97898H12.1044Z" fill="#99A2AD"/>
</svg>
