<svg width="20" height="20" viewBox="0 0 20 20" fill="none" xmlns="http://www.w3.org/2000/svg">
<path fill-rule="evenodd" clip-rule="evenodd" d="M8.86276 4.53626C8.95349 4.05869 8.62252 3.60116 8.12351 3.51433C7.62451 3.4275 7.14644 3.74425 7.05572 4.22182L5.01497 14.9637C4.92424 15.4413 5.25522 15.8988 5.75422 15.9857C6.25322 16.0725 6.73129 15.7557 6.82202 15.2782L7.67237 10.8021L11.8404 15.6775C12.1615 16.0532 12.7401 16.1085 13.1326 15.8012C13.5252 15.4938 13.583 14.9401 13.2619 14.5644L9.2199 9.83644L14.7022 5.02688C15.0761 4.69889 15.1013 4.14294 14.7586 3.78513C14.4159 3.42731 13.835 3.40314 13.4611 3.73114L8.12664 8.41102L8.86276 4.53626Z" fill="#99A2AD"/>
</svg>
