<svg width="20" height="20" viewBox="0 0 20 20" fill="none" xmlns="http://www.w3.org/2000/svg">
<path d="M2.75 4C2.33579 4 2 4.33579 2 4.75C2 5.16421 2.33579 5.5 2.75 5.5H6V15.25C6 15.6642 6.33579 16 6.75 16C7.16421 16 7.5 15.6642 7.5 15.25V5.5H10.75C11.1642 5.5 11.5 5.16421 11.5 4.75C11.5 4.33579 11.1642 4 10.75 4H2.75Z" fill="#99A2AD"/>
<path d="M10.75 7.5C10.3358 7.5 10 7.83579 10 8.25C10 8.66421 10.3358 9 10.75 9H13.25V15.25C13.25 15.6642 13.5858 16 14 16C14.4142 16 14.75 15.6642 14.75 15.25V9H17.25C17.6642 9 18 8.66421 18 8.25C18 7.83579 17.6642 7.5 17.25 7.5H10.75Z" fill="#99A2AD"/>
</svg>
