<svg width="20" height="20" viewBox="0 0 20 20" fill="none" xmlns="http://www.w3.org/2000/svg">
<path d="M17.5 5.25C17.5 4.83579 17.1585 4.5 16.7561 4.5H3.24385C2.83303 4.5 2.5 4.8329 2.5 5.25C2.5 5.66421 2.84148 6 3.24385 6H16.7561C17.167 6 17.5 5.6671 17.5 5.25ZM17.5 15.25C17.5 14.8358 17.1585 14.5 16.7561 14.5H3.24385C2.83303 14.5 2.5 14.8329 2.5 15.25C2.5 15.6642 2.84148 16 3.24385 16H16.7561C17.167 16 17.5 15.6671 17.5 15.25ZM5.02083 10.25C5.02083 10.6642 5.3583 11 5.77597 11H14.2449C14.6619 11 15 10.6671 15 10.25C15 9.83579 14.6625 9.5 14.2449 9.5H5.77597C5.35892 9.5 5.02083 9.8329 5.02083 10.25Z" fill="#99A2AD"/>
</svg>
