<svg width="20" height="20" viewBox="0 0 20 20" fill="none" xmlns="http://www.w3.org/2000/svg">
<path fill-rule="evenodd" clip-rule="evenodd" d="M17.4079 5.3774C17.1538 5.12059 16.7528 5.08121 16.4536 5.28368C15.9672 5.61278 15.2997 5.561 14.8693 5.13061C14.439 4.70023 14.3872 4.03273 14.7163 3.54637C14.9188 3.24715 14.8794 2.84615 14.6226 2.59204C13.9276 1.9044 13.3734 1.38137 12.6897 1.15921C12.0364 0.946929 11.3326 0.946929 10.6792 1.15921C10.2618 1.29485 9.90851 1.53384 9.55384 1.83493C9.2112 2.12581 8.82144 2.51557 8.34487 2.99216L2.99218 8.34485C2.5156 8.82142 2.12581 9.2112 1.83493 9.55384C1.53384 9.90851 1.29485 10.2618 1.15921 10.6792C0.946929 11.3326 0.946929 12.0364 1.15921 12.6897C1.38137 13.3734 1.90441 13.9276 2.59205 14.6226C2.84616 14.8794 3.24714 14.9188 3.54636 14.7163C4.03272 14.3872 4.7002 14.439 5.13059 14.8694C5.56097 15.2998 5.61275 15.9672 5.28366 16.4536C5.0812 16.7528 5.12059 17.1538 5.37739 17.4079C6.07237 18.0956 6.62657 18.6186 7.3103 18.8408C7.96364 19.0531 8.66742 19.0531 9.32076 18.8408C9.73822 18.7051 10.0915 18.4662 10.4462 18.1651C10.7888 17.8742 11.1785 17.4844 11.6551 17.0079L17.0078 11.6551C17.4844 11.1786 17.8742 10.7888 18.1651 10.4462C18.4662 10.0915 18.7051 9.73822 18.8408 9.32077C19.0531 8.66742 19.0531 7.96364 18.8408 7.3103C18.6186 6.62657 18.0956 6.07237 17.4079 5.3774ZM13.8077 6.19225C14.5953 6.97986 15.7404 7.19004 16.7194 6.8241C17.1703 7.30231 17.3384 7.54495 17.4129 7.77425C17.5272 8.12606 17.5272 8.50501 17.4129 8.85681C17.3629 9.0107 17.2613 9.19085 17.0205 9.47449C16.774 9.76485 16.4282 10.1115 15.9239 10.6158L15.0746 11.465L14.2819 10.6724C13.9888 10.3792 13.5135 10.3792 13.2203 10.6724C12.9271 10.9655 12.9271 11.4408 13.2203 11.734L14.013 12.5267L10.6158 15.9239C10.1115 16.4282 9.76485 16.774 9.47449 17.0205C9.19085 17.2613 9.0107 17.3629 8.85681 17.4129C8.50501 17.5272 8.12605 17.5272 7.77425 17.4129C7.54495 17.3384 7.30231 17.1703 6.82409 16.7194C7.19001 15.7404 6.97982 14.5953 6.19222 13.8077C5.40463 13.0201 4.25957 12.81 3.28057 13.1759C2.82965 12.6977 2.66162 12.455 2.58711 12.2257C2.47281 11.8739 2.47281 11.495 2.58711 11.1432C2.63711 10.9893 2.73869 10.8092 2.97949 10.5255C3.22598 10.2352 3.57182 9.88849 4.07606 9.38425L7.47331 5.987L8.26596 6.77965C8.55913 7.07281 9.03444 7.07281 9.3276 6.77965C9.62077 6.48648 9.62076 6.01117 9.3276 5.71801L8.53495 4.92536L9.38425 4.07606C9.88849 3.57182 10.2352 3.22598 10.5255 2.97949C10.8092 2.73869 10.9893 2.63711 11.1432 2.58711C11.495 2.47281 11.8739 2.47281 12.2257 2.58711C12.455 2.66162 12.6977 2.82965 13.1759 3.28055C12.8099 4.25956 13.0201 5.40465 13.8077 6.19225ZM11.4509 7.84132C11.1578 7.54816 10.6824 7.54816 10.3893 7.84132C10.0961 8.13448 10.0961 8.6098 10.3893 8.90296L11.097 9.61072C11.3902 9.90388 11.8655 9.90388 12.1587 9.61072C12.4518 9.31755 12.4518 8.84224 12.1587 8.54908L11.4509 7.84132Z" fill="#99A2AD"/>
</svg>
