<svg width="20" height="20" viewBox="0 0 20 20" fill="none" xmlns="http://www.w3.org/2000/svg">
<path d="M14.5777 12.745H14.4767L12.1529 5.96542C11.9352 5.30259 11.5933 5 11.0492 5C10.443 5 10 5.36023 10 5.87896C10 6.08069 10.0622 6.36167 10.171 6.65706L12.7902 13.6455C13.1321 14.5893 13.6373 15 14.5155 15C15.3782 15 15.8679 14.5965 16.2098 13.6455L18.8368 6.65706C18.9301 6.39049 19 6.06628 19 5.87176C19 5.35303 18.5648 5 17.9663 5C17.4067 5 17.0881 5.28098 16.8705 5.96542L14.5777 12.745Z" fill="#99A2AD"/>
<path d="M4.9963 15.002C5.61055 15.002 5.99537 14.602 5.99537 13.9547V6.65286H8.14154C8.64477 6.65286 9 6.31104 9 5.83104C9 5.34377 8.64477 5.00195 8.14154 5.00195H1.85846C1.36263 5.00195 1 5.35104 1 5.83104C1 6.30377 1.36263 6.65286 1.85846 6.65286H3.99722V13.9547C3.99722 14.6092 4.37465 15.002 4.9963 15.002Z" fill="#99A2AD"/>
</svg>
