<svg width="20" height="20" viewBox="0 0 20 20" fill="none" xmlns="http://www.w3.org/2000/svg">
<path d="M10.75 11.5607L11.7197 12.5303C12.0126 12.8232 12.4874 12.8232 12.7803 12.5303C13.0732 12.2374 13.0732 11.7626 12.7803 11.4697L10.5303 9.21967C10.2374 8.92678 9.76257 8.92678 9.46968 9.21967L7.21968 11.4697C6.92678 11.7626 6.92678 12.2374 7.21968 12.5303C7.51257 12.8232 7.98744 12.8232 8.28034 12.5303L9.25001 11.5607V14.25C9.25001 14.6642 9.58579 15 10 15C10.4142 15 10.75 14.6642 10.75 14.25V11.5607Z" fill="#99A2AD"/>
<path fill-rule="evenodd" clip-rule="evenodd" d="M14.5804 2H5.41957C4.88542 1.99999 4.43957 1.99998 4.07534 2.02974C3.69545 2.06078 3.3388 2.12789 3.00153 2.29973C2.48409 2.56339 2.06339 2.98408 1.79974 3.50153C1.62789 3.83879 1.56078 4.19545 1.52975 4.57533C1.49999 4.93956 1.5 5.38541 1.50001 5.91957L1.5 5.97022C1.49997 6.09238 1.49994 6.22483 1.50931 6.33947C1.51991 6.46923 1.54615 6.64066 1.63625 6.81749C1.75609 7.05269 1.94732 7.24392 2.18252 7.36376C2.35935 7.45386 2.53078 7.4801 2.66053 7.4907C2.76592 7.49931 2.88635 7.49998 3.00001 7.50001L3.00001 12.4821C3 13.2949 2.99999 13.9506 3.04337 14.4815C3.08803 15.0281 3.18239 15.5082 3.40873 15.9525C3.76826 16.6581 4.34194 17.2317 5.04754 17.5913C5.49176 17.8176 5.9719 17.912 6.51854 17.9566C7.04945 18 7.70505 18 8.51788 18H11.4821C12.295 18 12.9506 18 13.4815 17.9566C14.0281 17.912 14.5083 17.8176 14.9525 17.5913C15.6581 17.2317 16.2318 16.6581 16.5913 15.9525C16.8176 15.5082 16.912 15.0281 16.9566 14.4815C17 13.9506 17 13.2949 17 12.4821V7.50001C17.1137 7.49998 17.2341 7.49931 17.3395 7.4907C17.4692 7.4801 17.6407 7.45386 17.8175 7.36376C18.0527 7.24392 18.2439 7.05269 18.3638 6.81749C18.4539 6.64066 18.4801 6.46923 18.4907 6.33947C18.5001 6.22485 18.5 6.09242 18.5 5.97028L18.5 5.91955C18.5 5.3854 18.5 4.93956 18.4703 4.57533C18.4392 4.19545 18.3721 3.83879 18.2003 3.50153C17.9366 2.98408 17.5159 2.56339 16.9985 2.29973C16.6612 2.12789 16.3046 2.06078 15.9247 2.02974C15.5604 1.99998 15.1146 1.99999 14.5804 2ZM15.5 7.5H4.50001V12.45C4.50001 13.3025 4.50059 13.8967 4.53839 14.3593C4.57547 14.8132 4.6446 15.074 4.74524 15.2715C4.96096 15.6948 5.30516 16.039 5.72853 16.2548C5.92605 16.3554 6.18681 16.4245 6.64069 16.4616C7.10332 16.4994 7.69755 16.5 8.55001 16.5H11.45C12.3025 16.5 12.8967 16.4994 13.3593 16.4616C13.8132 16.4245 14.074 16.3554 14.2715 16.2548C14.6949 16.039 15.0391 15.6948 15.2548 15.2715C15.3554 15.074 15.4245 14.8132 15.4616 14.3593C15.4994 13.8967 15.5 13.3025 15.5 12.45V7.5ZM17 5.99999L17 5.95C17 5.37757 16.9994 4.99336 16.9752 4.69748C16.9518 4.41036 16.9099 4.27307 16.8638 4.18251C16.7439 3.94731 16.5527 3.75608 16.3175 3.63624C16.2269 3.5901 16.0897 3.54822 15.8025 3.52476C15.5066 3.50058 15.1224 3.5 14.55 3.5H5.45001C4.87758 3.5 4.49336 3.50058 4.19748 3.52476C3.91036 3.54822 3.77308 3.5901 3.68252 3.63624C3.44732 3.75608 3.25609 3.94731 3.13625 4.18251C3.09011 4.27307 3.04822 4.41036 3.02476 4.69748C3.00059 4.99336 3.00001 5.37757 3.00001 5.95L3.00002 5.99999H17Z" fill="#99A2AD"/>
</svg>
