<svg width="20" height="20" viewBox="0 0 20 20" fill="none" xmlns="http://www.w3.org/2000/svg">
<path d="M10.75 11.5C10.75 11.0858 10.4142 10.75 10 10.75C9.58579 10.75 9.25 11.0858 9.25 11.5V13.5C9.25 13.9142 9.58579 14.25 10 14.25C10.4142 14.25 10.75 13.9142 10.75 13.5V11.5Z" fill="#99A2AD"/>
<path fill-rule="evenodd" clip-rule="evenodd" d="M6 4.95C6 2.75756 7.80187 1 10 1C11.9035 1 13.4989 2.30163 13.8961 4.08289C13.9862 4.48717 13.7316 4.88798 13.3273 4.97812C12.923 5.06826 12.5222 4.81359 12.432 4.4093C12.1888 3.31853 11.2057 2.5 10 2.5C8.60829 2.5 7.5 3.60782 7.5 4.95L7.5 7H12.7609C13.3507 6.99999 13.8385 6.99998 14.236 7.03246C14.6493 7.06623 15.0306 7.13879 15.3893 7.32153C15.9444 7.60436 16.3956 8.05565 16.6785 8.61073C16.8612 8.96938 16.9338 9.35074 16.9675 9.76397C17 10.1615 17 10.6493 17 11.2391V13.7609C17 14.3507 17 14.8385 16.9675 15.236C16.9338 15.6493 16.8612 16.0306 16.6785 16.3893C16.3956 16.9444 15.9444 17.3956 15.3893 17.6785C15.0306 17.8612 14.6493 17.9338 14.236 17.9675C13.8385 18 13.3507 18 12.7609 18H7.23911C6.64931 18 6.16153 18 5.76397 17.9675C5.35074 17.9338 4.96938 17.8612 4.61073 17.6785C4.05565 17.3956 3.60436 16.9444 3.32153 16.3893C3.13879 16.0306 3.06623 15.6493 3.03247 15.236C2.99998 14.8385 2.99999 14.3507 3 13.7609V11.2391C2.99999 10.6493 2.99998 10.1615 3.03247 9.76397C3.06623 9.35074 3.13879 8.96938 3.32153 8.61073C3.60436 8.05565 4.05565 7.60436 4.61073 7.32153C4.96938 7.13879 5.35074 7.06623 5.76397 7.03246C5.83938 7.0263 5.91803 7.02131 6 7.01727L6 4.95ZM5.88612 8.52748C5.56565 8.55367 5.40367 8.601 5.29171 8.65804C5.01888 8.79706 4.79706 9.01888 4.65804 9.29171C4.601 9.40367 4.55367 9.56565 4.52748 9.88612C4.50058 10.2153 4.5 10.6416 4.5 11.27V13.73C4.5 14.3584 4.50058 14.7847 4.52748 15.1139C4.55367 15.4344 4.601 15.5963 4.65804 15.7083C4.79706 15.9811 5.01888 16.2029 5.29171 16.342C5.40367 16.399 5.56565 16.4463 5.88612 16.4725C6.21535 16.4994 6.64157 16.5 7.27 16.5H12.73C13.3584 16.5 13.7847 16.4994 14.1139 16.4725C14.4344 16.4463 14.5963 16.399 14.7083 16.342C14.9811 16.2029 15.2029 15.9811 15.342 15.7083C15.399 15.5963 15.4463 15.4344 15.4725 15.1139C15.4994 14.7847 15.5 14.3584 15.5 13.73V11.27C15.5 10.6416 15.4994 10.2153 15.4725 9.88612C15.4463 9.56565 15.399 9.40367 15.342 9.29171C15.2029 9.01888 14.9811 8.79706 14.7083 8.65804C14.5963 8.601 14.4344 8.55367 14.1139 8.52748C13.7847 8.50058 13.3584 8.5 12.73 8.5H7.27C6.64157 8.5 6.21535 8.50058 5.88612 8.52748Z" fill="#99A2AD"/>
</svg>
