<svg width="20" height="20" viewBox="0 0 20 20" fill="none" xmlns="http://www.w3.org/2000/svg">
<path d="M12.5 7.5C12.5 6.67125 11.8287 6 11 6C10.1713 6 9.5 6.67125 9.5 7.5C9.5 8.32875 10.1713 9 11 9C11.8287 9 12.5 8.32875 12.5 7.5ZM8 11.25V11.6231C8 11.8313 8.16873 12 8.37687 12H13.6231C13.8313 12 14 11.8313 14 11.6231V11.25C14 9.9375 12.0013 9.5625 11 9.5625C9.99875 9.5625 8 9.9375 8 11.25Z" fill="#99A2AD"/>
<path fill-rule="evenodd" clip-rule="evenodd" d="M7.32378 3C7.3325 3 7.34124 3 7.35 3L14.6762 3C14.9337 2.99998 15.1702 2.99997 15.3679 3.01612C15.581 3.03353 15.8142 3.07339 16.0445 3.19074C16.3738 3.35852 16.6415 3.62624 16.8093 3.95552C16.9266 4.18583 16.9665 4.419 16.9839 4.63213C17 4.82981 17 5.06629 17 5.32377V12.6762C17 12.9337 17 13.1702 16.9839 13.3679C16.9665 13.581 16.9266 13.8142 16.8093 14.0445C16.6415 14.3738 16.3738 14.6415 16.0445 14.8093C15.8142 14.9266 15.581 14.9665 15.3679 14.9839C15.1702 15 14.9337 15 14.6762 15H7.32377C7.06629 15 6.82981 15 6.63213 14.9839C6.419 14.9665 6.18582 14.9266 5.95552 14.8093C5.62623 14.6415 5.35852 14.3738 5.19074 14.0445C5.07339 13.8142 5.03353 13.581 5.01611 13.3679C4.99996 13.1702 4.99998 12.9337 5 12.6762L5 5.35C5 5.34124 5 5.3325 5 5.32379C4.99998 5.0663 4.99996 4.82982 5.01611 4.63213C5.03353 4.419 5.07339 4.18583 5.19074 3.95552C5.35852 3.62624 5.62623 3.35852 5.95552 3.19074C6.18582 3.07339 6.419 3.03353 6.63213 3.01612C6.82981 2.99997 7.0663 2.99998 7.32378 3ZM6.63087 4.52973C6.63085 4.52972 6.63132 4.52952 6.63239 4.52917L6.63087 4.52973ZM6.63346 4.52883C6.64234 4.52607 6.67547 4.51757 6.75428 4.51114C6.8834 4.50059 7.0576 4.5 7.35 4.5H14.65C14.9424 4.5 15.1166 4.50059 15.2457 4.51114C15.3245 4.51757 15.3577 4.52607 15.3665 4.52883C15.4112 4.55235 15.4477 4.58883 15.4712 4.63347C15.4739 4.64234 15.4824 4.67547 15.4889 4.75428C15.4994 4.88341 15.5 5.0576 15.5 5.35V12.65C15.5 12.9424 15.4994 13.1166 15.4889 13.2457C15.4824 13.3245 15.4739 13.3577 15.4712 13.3665C15.4477 13.4112 15.4112 13.4477 15.3665 13.4712C15.3577 13.4739 15.3245 13.4824 15.2457 13.4889C15.1166 13.4994 14.9424 13.5 14.65 13.5H7.35C7.0576 13.5 6.8834 13.4994 6.75428 13.4889C6.67547 13.4824 6.64234 13.4739 6.63346 13.4712C6.58882 13.4477 6.55234 13.4112 6.52882 13.3665C6.52607 13.3577 6.51757 13.3245 6.51113 13.2457C6.50058 13.1166 6.5 12.9424 6.5 12.65V5.35C6.5 5.0576 6.50058 4.88341 6.51113 4.75428C6.51757 4.67547 6.52607 4.64234 6.52882 4.63347C6.55234 4.58883 6.58882 4.55235 6.63346 4.52883ZM6.52973 4.63088C6.52974 4.63091 6.52956 4.63144 6.52917 4.63239L6.52973 4.63088ZM6.52973 13.3691C6.52972 13.3692 6.52952 13.3687 6.52918 13.3676L6.52973 13.3691ZM6.63088 13.4703C6.63091 13.4703 6.63143 13.4704 6.63236 13.4708L6.63088 13.4703ZM15.3691 13.4703C15.3692 13.4703 15.3687 13.4705 15.3676 13.4708L15.3691 13.4703ZM15.4703 13.3691C15.4703 13.3691 15.4704 13.3686 15.4708 13.3676L15.4703 13.3691ZM15.4703 4.63088C15.4703 4.63085 15.4705 4.63132 15.4708 4.63236L15.4703 4.63088ZM15.3676 4.52918C15.3687 4.52952 15.3692 4.52972 15.3691 4.52973L15.3676 4.52918Z" fill="#99A2AD"/>
<path fill-rule="evenodd" clip-rule="evenodd" d="M3.5 6.25V11.65C3.5 12.6425 3.50058 13.3417 3.54519 13.8877C3.58909 14.425 3.67184 14.7475 3.79973 14.9985C4.06338 15.5159 4.48408 15.9366 5.00153 16.2003C5.25252 16.3282 5.57503 16.4109 6.11228 16.4548C6.65829 16.4994 7.35753 16.5 8.35 16.5H13.75C13.75 17.3284 13.0784 18 12.25 18H8.31737C7.36493 18 6.60439 18 5.99013 17.9498C5.36012 17.8984 4.81824 17.7904 4.32054 17.5368C3.52085 17.1293 2.87068 16.4791 2.46322 15.6795C2.20963 15.1818 2.10165 14.6399 2.05018 14.0099C1.99999 13.3956 1.99999 12.6351 2 11.6826L2 7.75C2 6.92158 2.67157 6.25 3.5 6.25Z" fill="#99A2AD"/>
</svg>
