<svg width="20" height="20" viewBox="0 0 20 20" fill="none" xmlns="http://www.w3.org/2000/svg">
<path fill-rule="evenodd" clip-rule="evenodd" d="M6.81739 3C5.86494 2.99999 5.1044 2.99999 4.49013 3.05018C3.86012 3.10165 3.31824 3.20963 2.82054 3.46322C2.02085 3.87068 1.37068 4.52085 0.963223 5.32054C0.709634 5.81824 0.601651 6.36012 0.550177 6.99013C0.49999 7.60439 0.499994 8.36494 0.5 9.31738V10.6826C0.499994 11.6351 0.49999 12.3956 0.550177 13.0099C0.601651 13.6399 0.709634 14.1818 0.963223 14.6795C1.37068 15.4791 2.02085 16.1293 2.82054 16.5368C3.31824 16.7904 3.86012 16.8984 4.49013 16.9498C5.10439 17 5.86493 17 6.81737 17H9.18263C10.1351 17 10.8956 17 11.5099 16.9498C12.1399 16.8984 12.6818 16.7904 13.1795 16.5368C13.9791 16.1293 14.6293 15.4791 15.0368 14.6795C15.1916 14.3756 15.2921 14.0553 15.3587 13.7086L16.8906 14.7298C18.2197 15.6159 20 14.6631 20 13.0657V6.93426C20 5.33687 18.2197 4.38408 16.8906 5.27016L15.3587 6.29143C15.2921 5.94467 15.1916 5.62437 15.0368 5.32054C14.6293 4.52085 13.9791 3.87068 13.1795 3.46322C12.6818 3.20963 12.1399 3.10165 11.5099 3.05018C10.8956 2.99999 10.1351 2.99999 9.18261 3H6.81739ZM15.5 9.26068C15.5 9.2795 15.5 9.2984 15.5 9.31737V10.6826C15.5 10.7016 15.5 10.7205 15.5 10.7393V12L17.7227 13.4818C18.0549 13.7033 18.5 13.4651 18.5 13.0657V6.93426C18.5 6.53491 18.0549 6.29672 17.7227 6.51823L15.5 8V9.26068ZM14 9.35C14 8.35753 13.9994 7.65829 13.9548 7.11228C13.9109 6.57503 13.8282 6.25252 13.7003 6.00153C13.4366 5.48408 13.0159 5.06338 12.4985 4.79973C12.2475 4.67184 11.925 4.58909 11.3877 4.54519C10.8417 4.50058 10.1425 4.5 9.15 4.5H6.85C5.85753 4.5 5.15829 4.50058 4.61228 4.54519C4.07503 4.58909 3.75252 4.67184 3.50153 4.79973C2.98408 5.06338 2.56338 5.48408 2.29973 6.00153C2.17184 6.25252 2.08909 6.57503 2.04519 7.11228C2.00058 7.65829 2 8.35753 2 9.35V10.65C2 11.6425 2.00058 12.3417 2.04519 12.8877C2.08909 13.425 2.17184 13.7475 2.29973 13.9985C2.56338 14.5159 2.98408 14.9366 3.50153 15.2003C3.75252 15.3282 4.07503 15.4109 4.61228 15.4548C5.15829 15.4994 5.85753 15.5 6.85 15.5H9.15C10.1425 15.5 10.8417 15.4994 11.3877 15.4548C11.925 15.4109 12.2475 15.3282 12.4985 15.2003C13.0159 14.9366 13.4366 14.5159 13.7003 13.9985C13.8282 13.7475 13.9109 13.425 13.9548 12.8877C13.9994 12.3417 14 11.6425 14 10.65V9.35Z" fill="#99A2AD"/>
</svg>
