<svg width="20" height="20" viewBox="0 0 20 20" fill="none" xmlns="http://www.w3.org/2000/svg">
<path fill-rule="evenodd" clip-rule="evenodd" d="M15.6916 12.4799C16.0259 12.7245 16.0985 13.1938 15.8539 13.528C14.6749 15.1388 12.8447 16.2463 10.75 16.4617V18.25C10.75 18.6642 10.4142 19 10 19C9.58579 19 9.25 18.6642 9.25 18.25V16.4613C7.15978 16.2442 5.32909 15.1314 4.14957 13.5298C3.90394 13.1963 3.97518 12.7268 4.3087 12.4812C4.64222 12.2356 5.11172 12.3068 5.35736 12.6403C6.4085 14.0675 8.10256 15 10 15C11.9063 15 13.5961 14.0731 14.6434 12.6421C14.8881 12.3079 15.3574 12.2352 15.6916 12.4799Z" fill="#99A2AD"/>
<path fill-rule="evenodd" clip-rule="evenodd" d="M5.75 5.75C5.75 3.40279 7.65279 1.5 10 1.5C12.3472 1.5 14.25 3.40279 14.25 5.75V9.25C14.25 11.5972 12.3472 13.5 10 13.5C7.65279 13.5 5.75 11.5972 5.75 9.25V5.75ZM10 3C8.48122 3 7.25 4.23122 7.25 5.75V9.25C7.25 10.7688 8.48122 12 10 12C11.5188 12 12.75 10.7688 12.75 9.25V5.75C12.75 4.23122 11.5188 3 10 3Z" fill="#99A2AD"/>
</svg>
