<svg width="20" height="20" viewBox="0 0 20 20" fill="none" xmlns="http://www.w3.org/2000/svg">
<path d="M11.0001 14C11.0001 14.5523 10.5523 15 10.0001 15C9.44778 15 9.00006 14.5523 9.00006 14C9.00006 13.4477 9.44778 13 10.0001 13C10.5523 13 11.0001 13.4477 11.0001 14Z" fill="#99A2AD"/>
<path fill-rule="evenodd" clip-rule="evenodd" d="M12.3757 3.36324C12.2182 3.0923 11.4897 2.00098 9.9993 2.00098C8.50885 2.00098 7.79034 3.07791 7.62437 3.36324L1.52317 13.852C1.11219 14.5585 1.03554 15.4106 1.31384 16.179C1.70988 17.2725 2.74918 18.001 3.91322 18.001H16.0869C17.2509 18.001 18.2902 17.2725 18.6863 16.179C18.9646 15.4106 18.8879 14.5585 18.477 13.852L12.3757 3.36324ZM16.0869 16.5025C16.6193 16.5025 17.0946 16.1693 17.2758 15.6692C17.4031 15.3178 17.368 14.928 17.18 14.6049L11.0788 4.11612C11.0788 4.11612 10.75 3.49484 9.99927 3.49484C9.24854 3.49484 8.9213 4.11612 8.9213 4.11612L2.82009 14.6049C2.63213 14.928 2.59707 15.3178 2.72435 15.6692C2.90549 16.1693 3.38083 16.5025 3.91322 16.5025H16.0869Z" fill="#99A2AD"/>
<path fill-rule="evenodd" clip-rule="evenodd" d="M10 6C10.4142 6 10.75 6.33579 10.75 6.75V11.25C10.75 11.6642 10.4142 12 10 12C9.58579 12 9.25 11.6642 9.25 11.25V6.75C9.25 6.33579 9.58579 6 10 6Z" fill="#99A2AD"/>
</svg>
