<svg width="20" height="20" viewBox="0 0 20 20" fill="none" xmlns="http://www.w3.org/2000/svg">
<path fill-rule="evenodd" clip-rule="evenodd" d="M17.7036 6.4077C19.6876 10.6623 17.8469 15.7196 13.5923 17.7036C9.33768 19.6875 4.28035 17.8468 2.2964 13.5922C0.31245 9.33762 2.15317 4.28028 6.40776 2.29634C10.6623 0.312389 15.7197 2.15311 17.7036 6.4077ZM12.2618 16.6251L9.63725 10.9966L4.00881 13.6212C5.70485 16.435 9.15393 17.6904 12.2618 16.6251ZM3.37488 12.2618L9.00332 9.63719L6.37874 4.00875C3.56497 5.70479 2.3096 9.15387 3.37488 12.2618ZM16.6251 7.73814C17.6904 10.846 16.4351 14.2951 13.6213 15.9912L10.9967 10.3627L16.6251 7.73814ZM15.9912 6.37868L10.3628 9.00326L7.7382 3.37482C10.8461 2.30954 14.2952 3.5649 15.9912 6.37868Z" fill="#99A2AD"/>
</svg>
