<svg width="20" height="20" viewBox="0 0 20 20" fill="none" xmlns="http://www.w3.org/2000/svg">
<path fill-rule="evenodd" clip-rule="evenodd" d="M9.87467 2C9.33126 2 8.98071 2.09872 8.65212 2.27446C8.27567 2.47579 7.97576 2.77573 7.77444 3.15218C7.70331 3.28518 7.62346 3.45233 7.5703 3.71142C7.5219 3.94728 7.5 4.23693 7.5 4.62526C7.5 5.16868 7.59871 5.51922 7.77444 5.84782C7.97576 6.22427 8.27567 6.52421 8.65212 6.72554C8.78511 6.79667 8.95227 6.87653 9.21135 6.9297C9.44721 6.9781 9.73686 7 10.1252 7C10.6686 7 11.0191 6.90128 11.3477 6.72554C11.7242 6.52421 12.0241 6.22427 12.2254 5.84782C12.2965 5.71482 12.3764 5.54767 12.4295 5.28859C12.4779 5.05272 12.4998 4.76307 12.4998 4.37474C12.4998 3.83132 12.4011 3.48077 12.2254 3.15218C12.0241 2.77573 11.7242 2.47579 11.3477 2.27446C11.2147 2.20333 11.0476 2.12347 10.7885 2.0703C10.5526 2.0219 10.263 2 9.87467 2ZM9.35954 3.59717C9.41989 3.56489 9.46799 3.54532 9.52919 3.53079C9.59564 3.51502 9.70024 3.5 9.87467 3.5C10.2178 3.5 10.3933 3.52045 10.487 3.53968C10.5574 3.55414 10.5842 3.56719 10.6403 3.59717C10.7553 3.65869 10.8411 3.7445 10.9027 3.85955C10.9349 3.91991 10.9545 3.96801 10.969 4.02922C10.9848 4.09568 10.9998 4.2003 10.9998 4.37474C10.9998 4.71785 10.9794 4.89336 10.9602 4.98708C10.9457 5.05757 10.9326 5.08439 10.9027 5.14045C10.8411 5.2555 10.7553 5.34131 10.6403 5.40283C10.5799 5.43511 10.5319 5.45468 10.4707 5.46921C10.4042 5.48498 10.2996 5.5 10.1252 5.5C9.78209 5.5 9.60658 5.47955 9.51289 5.46032C9.44241 5.44586 9.41559 5.43281 9.35954 5.40283C9.2445 5.34131 9.1587 5.2555 9.09717 5.14045C9.06489 5.08009 9.04532 5.03199 9.03079 4.97078C9.01502 4.90432 9 4.7997 9 4.62526C9 4.28215 9.02045 4.10664 9.03968 4.01292C9.05415 3.94243 9.06719 3.9156 9.09717 3.85955C9.1587 3.7445 9.2445 3.65869 9.35954 3.59717Z" fill="#99A2AD"/>
<path fill-rule="evenodd" clip-rule="evenodd" d="M3.15212 7.77446C3.48071 7.59872 3.83126 7.5 4.37467 7.5C4.76298 7.5 5.05263 7.5219 5.28849 7.5703C5.54757 7.62347 5.71473 7.70333 5.84772 7.77446C6.22417 7.97579 6.52408 8.27573 6.7254 8.65218C6.90113 8.98077 6.99984 9.33132 6.99984 9.87474C6.99984 10.2631 6.97794 10.5527 6.92954 10.7886C6.87638 11.0477 6.79653 11.2148 6.7254 11.3478C6.52408 11.7243 6.22417 12.0242 5.84772 12.2255C5.51913 12.4013 5.16858 12.5 4.62517 12.5C4.23686 12.5 3.94721 12.4781 3.71135 12.4297C3.45227 12.3765 3.28511 12.2967 3.15212 12.2255C2.77567 12.0242 2.47576 11.7243 2.27444 11.3478C2.09871 11.0192 2 10.6687 2 10.1253C2 9.73693 2.0219 9.44728 2.0703 9.21141C2.12346 8.95233 2.20331 8.78518 2.27444 8.65218C2.47576 8.27573 2.77567 7.97579 3.15212 7.77446ZM4.02919 9.03079C3.96799 9.04532 3.91989 9.06489 3.85954 9.09717C3.7445 9.15869 3.6587 9.2445 3.59717 9.35955C3.56719 9.4156 3.55415 9.44243 3.53968 9.51292C3.52045 9.60664 3.5 9.78215 3.5 10.1253C3.5 10.2997 3.51502 10.4043 3.53079 10.4708C3.54532 10.532 3.56489 10.5801 3.59717 10.6404C3.6587 10.7555 3.7445 10.8413 3.85954 10.9028C3.91559 10.9328 3.94241 10.9459 4.01289 10.9603C4.10658 10.9795 4.28209 11 4.62517 11C4.7996 11 4.9042 10.985 4.97065 10.9692C5.03185 10.9547 5.07995 10.9351 5.1403 10.9028C5.25533 10.8413 5.34114 10.7555 5.40267 10.6404C5.43264 10.5844 5.44569 10.5576 5.46016 10.4871C5.47939 10.3934 5.49984 10.2178 5.49984 9.87474C5.49984 9.7003 5.48481 9.59568 5.46904 9.52922C5.45452 9.46801 5.43494 9.41991 5.40267 9.35955C5.34114 9.2445 5.25533 9.15869 5.1403 9.09717C5.08425 9.06719 5.05743 9.05414 4.98695 9.03968C4.89325 9.02045 4.71775 9 4.37467 9C4.20024 9 4.09564 9.01502 4.02919 9.03079Z" fill="#99A2AD"/>
<path fill-rule="evenodd" clip-rule="evenodd" d="M14.1521 7.77446C14.4807 7.59872 14.8313 7.5 15.3747 7.5C15.763 7.5 16.0526 7.5219 16.2885 7.5703C16.5476 7.62347 16.7147 7.70333 16.8477 7.77446C17.2242 7.97579 17.5241 8.27573 17.7254 8.65218C17.9011 8.98077 17.9998 9.33132 17.9998 9.87474C17.9998 10.2631 17.9779 10.5527 17.9295 10.7886C17.8764 11.0477 17.7965 11.2148 17.7254 11.3478C17.5241 11.7243 17.2242 12.0242 16.8477 12.2255C16.5191 12.4013 16.1686 12.5 15.6252 12.5C15.2369 12.5 14.9472 12.4781 14.7113 12.4297C14.4523 12.3765 14.2851 12.2967 14.1521 12.2255C13.7757 12.0242 13.4758 11.7243 13.2744 11.3478C13.0987 11.0192 13 10.6687 13 10.1253C13 9.73693 13.0219 9.44728 13.0703 9.21141C13.1235 8.95233 13.2033 8.78518 13.2744 8.65218C13.4758 8.27573 13.7757 7.97579 14.1521 7.77446ZM15.0292 9.03079C14.968 9.04532 14.9199 9.06489 14.8595 9.09717C14.7445 9.15869 14.6587 9.2445 14.5972 9.35955C14.5672 9.4156 14.5541 9.44243 14.5397 9.51292C14.5205 9.60664 14.5 9.78215 14.5 10.1253C14.5 10.2997 14.515 10.4043 14.5308 10.4708C14.5453 10.532 14.5649 10.5801 14.5972 10.6404C14.6587 10.7555 14.7445 10.8413 14.8595 10.9028C14.9156 10.9328 14.9424 10.9459 15.0129 10.9603C15.1066 10.9795 15.2821 11 15.6252 11C15.7996 11 15.9042 10.985 15.9707 10.9692C16.0319 10.9547 16.0799 10.9351 16.1403 10.9028C16.2553 10.8413 16.3411 10.7555 16.4027 10.6404C16.4326 10.5844 16.4457 10.5576 16.4602 10.4871C16.4794 10.3934 16.4998 10.2178 16.4998 9.87474C16.4998 9.7003 16.4848 9.59568 16.469 9.52922C16.4545 9.46801 16.4349 9.41991 16.4027 9.35955C16.3411 9.2445 16.2553 9.15869 16.1403 9.09717C16.0842 9.06719 16.0574 9.05414 15.987 9.03968C15.8933 9.02045 15.7178 9 15.3747 9C15.2002 9 15.0956 9.01502 15.0292 9.03079Z" fill="#99A2AD"/>
<path fill-rule="evenodd" clip-rule="evenodd" d="M8.65212 13.2745C8.98071 13.0987 9.33126 13 9.87467 13C10.263 13 10.5526 13.0219 10.7885 13.0703C11.0476 13.1235 11.2147 13.2033 11.3477 13.2745C11.7242 13.4758 12.0241 13.7757 12.2254 14.1522C12.4011 14.4808 12.4998 14.8313 12.4998 15.3747C12.4998 15.7631 12.4779 16.0527 12.4295 16.2886C12.3764 16.5477 12.2965 16.7148 12.2254 16.8478C12.0241 17.2243 11.7242 17.5242 11.3477 17.7255C11.0191 17.9013 10.6686 18 10.1252 18C9.73686 18 9.44721 17.9781 9.21135 17.9297C8.95227 17.8765 8.78511 17.7967 8.65212 17.7255C8.27567 17.5242 7.97576 17.2243 7.77444 16.8478C7.59871 16.5192 7.5 16.1687 7.5 15.6253C7.5 15.2369 7.5219 14.9473 7.5703 14.7114C7.62346 14.4523 7.70331 14.2852 7.77444 14.1522C7.97576 13.7757 8.27567 13.4758 8.65212 13.2745ZM9.52919 14.5308C9.46799 14.5453 9.41989 14.5649 9.35954 14.5972C9.2445 14.6587 9.1587 14.7445 9.09717 14.8596C9.06719 14.9156 9.05415 14.9424 9.03968 15.0129C9.02045 15.1066 9 15.2822 9 15.6253C9 15.7997 9.01502 15.9043 9.03079 15.9708C9.04532 16.032 9.06489 16.0801 9.09717 16.1404C9.1587 16.2555 9.2445 16.3413 9.35954 16.4028C9.41559 16.4328 9.44241 16.4459 9.51289 16.4603C9.60658 16.4795 9.78209 16.5 10.1252 16.5C10.2996 16.5 10.4042 16.485 10.4707 16.4692C10.5319 16.4547 10.5799 16.4351 10.6403 16.4028C10.7553 16.3413 10.8411 16.2555 10.9027 16.1404C10.9326 16.0844 10.9457 16.0576 10.9602 15.9871C10.9794 15.8934 10.9998 15.7178 10.9998 15.3747C10.9998 15.2003 10.9848 15.0957 10.969 15.0292C10.9545 14.968 10.9349 14.9199 10.9027 14.8596C10.8411 14.7445 10.7553 14.6587 10.6403 14.5972C10.5842 14.5672 10.5574 14.5541 10.487 14.5397C10.3933 14.5205 10.2178 14.5 9.87467 14.5C9.70024 14.5 9.59564 14.515 9.52919 14.5308Z" fill="#99A2AD"/>
<path d="M10.1104 8.5H9.88957C9.53317 8.5 9.30945 8.5557 9.11389 8.66029C8.91834 8.76488 8.76486 8.91836 8.66028 9.11392C8.5557 9.30949 8.5 9.53322 8.5 9.88964V10.1105C8.5 10.4669 8.5557 10.6907 8.66028 10.8862C8.76486 11.0818 8.91834 11.2353 9.11389 11.3399C9.30945 11.4444 9.53317 11.5001 9.88957 11.5001H10.1104C10.4668 11.5001 10.6906 11.4444 10.8861 11.3399C11.0817 11.2353 11.2351 11.0818 11.3397 10.8862C11.4443 10.6907 11.5 10.4669 11.5 10.1105V9.88964C11.5 9.53322 11.4443 9.30949 11.3397 9.11392C11.2351 8.91836 11.0817 8.76488 10.8861 8.66029C10.6906 8.5557 10.4668 8.5 10.1104 8.5Z" fill="#99A2AD"/>
<path d="M14.9264 4H15.0736C15.3112 4 15.4604 4.03713 15.5907 4.10685C15.7211 4.17658 15.8234 4.27889 15.8931 4.40926C15.9629 4.53963 16 4.68878 16 4.92638V5.07362C16 5.31122 15.9629 5.46037 15.8931 5.59074C15.8234 5.72111 15.7211 5.82342 15.5907 5.89315C15.4604 5.96287 15.3112 6 15.0736 6H14.9264C14.6888 6 14.5396 5.96287 14.4093 5.89315C14.2789 5.82342 14.1766 5.72111 14.1069 5.59074C14.0371 5.46037 14 5.31122 14 5.07362V4.92638C14 4.68878 14.0371 4.53963 14.1069 4.40926C14.1766 4.27889 14.2789 4.17658 14.4093 4.10685C14.5396 4.03713 14.6888 4 14.9264 4Z" fill="#99A2AD"/>
<path d="M5.07362 4H4.92638C4.68878 4 4.53963 4.03713 4.40926 4.10685C4.27889 4.17658 4.17658 4.27889 4.10685 4.40926C4.03713 4.53963 4 4.68878 4 4.92638V5.07362C4 5.31122 4.03713 5.46037 4.10685 5.59074C4.17658 5.72111 4.27889 5.82342 4.40926 5.89315C4.53963 5.96287 4.68878 6 4.92638 6H5.07362C5.31122 6 5.46037 5.96287 5.59074 5.89315C5.72111 5.82342 5.82342 5.72111 5.89315 5.59074C5.96287 5.46037 6 5.31122 6 5.07362V4.92638C6 4.68878 5.96287 4.53963 5.89315 4.40926C5.82342 4.27889 5.72111 4.17658 5.59074 4.10685C5.46037 4.03713 5.31122 4 5.07362 4Z" fill="#99A2AD"/>
<path d="M4.92638 14H5.07362C5.31122 14 5.46037 14.0371 5.59074 14.1069C5.72111 14.1766 5.82342 14.2789 5.89315 14.4093C5.96287 14.5396 6 14.6888 6 14.9264V15.0736C6 15.3112 5.96287 15.4604 5.89315 15.5907C5.82342 15.7211 5.72111 15.8234 5.59074 15.8931C5.46037 15.9629 5.31122 16 5.07362 16H4.92638C4.68878 16 4.53963 15.9629 4.40926 15.8931C4.27889 15.8234 4.17658 15.7211 4.10685 15.5907C4.03713 15.4604 4 15.3112 4 15.0736V14.9264C4 14.6888 4.03713 14.5396 4.10685 14.4093C4.17658 14.2789 4.27889 14.1766 4.40926 14.1069C4.53963 14.0371 4.68878 14 4.92638 14Z" fill="#99A2AD"/>
<path d="M15.0736 14H14.9264C14.6888 14 14.5396 14.0371 14.4093 14.1069C14.2789 14.1766 14.1766 14.2789 14.1069 14.4093C14.0371 14.5396 14 14.6888 14 14.9264V15.0736C14 15.3112 14.0371 15.4604 14.1069 15.5907C14.1766 15.7211 14.2789 15.8234 14.4093 15.8931C14.5396 15.9629 14.6888 16 14.9264 16H15.0736C15.3112 16 15.4604 15.9629 15.5907 15.8931C15.7211 15.8234 15.8234 15.7211 15.8931 15.5907C15.9629 15.4604 16 15.3112 16 15.0736V14.9264C16 14.6888 15.9629 14.5396 15.8931 14.4093C15.8234 14.2789 15.7211 14.1766 15.5907 14.1069C15.4604 14.0371 15.3112 14 15.0736 14Z" fill="#99A2AD"/>
</svg>
