<svg width="20" height="20" viewBox="0 0 20 20" fill="none" xmlns="http://www.w3.org/2000/svg">
<path fill-rule="evenodd" clip-rule="evenodd" d="M2.87957 16.7664C1.70746 15.5954 1.70746 13.6968 2.87957 12.5257L5.01814 10.3891C5.17328 10.2341 5.22935 10.0073 5.1791 9.79381C5.06194 9.29616 4.99997 8.77724 4.99997 8.24386C4.99997 4.51933 8.02204 1.5 11.75 1.5C12.578 1.5 13.3712 1.64896 14.1042 1.92151C14.4842 2.0628 14.5606 2.5452 14.2746 2.83251L11.6747 5.4442C11.5628 5.55664 11.5 5.70884 11.5 5.8675V7.9C11.5 8.23137 11.7686 8.5 12.1 8.5H14.1288C14.2874 8.5 14.4396 8.43718 14.552 8.32528L17.1676 5.72232C17.4548 5.43648 17.9369 5.51274 18.0783 5.89247C18.351 6.62461 18.5 7.41685 18.5 8.24386C18.5 11.9684 15.4779 14.9877 11.75 14.9877C11.2238 14.9877 10.7116 14.9276 10.2201 14.8138C10.0075 14.7645 9.78202 14.8207 9.62765 14.9749L7.47932 17.1213C6.30721 18.2923 4.40685 18.2923 3.23475 17.1213L2.87957 16.7664ZM11.75 13.4877C14.6507 13.4877 17 11.1387 17 8.24386C17 8.16558 16.9983 8.08774 16.9949 8.01039L15.6101 9.3885C15.2166 9.78014 14.684 10 14.1288 10H12.1C10.9402 10 9.99996 9.0598 9.99996 7.9V5.8675C9.99996 5.3122 10.2199 4.7795 10.6117 4.38595L11.9862 3.00519C11.9079 3.00174 11.8292 3 11.75 3C8.84918 3 6.49997 5.34904 6.49997 8.24386C6.49997 8.66067 6.54836 9.06427 6.63918 9.4501C6.79828 10.1259 6.63177 10.8973 6.07832 11.4502L3.93975 13.5869C3.35407 14.172 3.35407 15.1201 3.93974 15.7053L4.29493 16.0601C4.88136 16.646 5.83271 16.646 6.41914 16.0601L8.56747 13.9138C9.11814 13.3636 9.88506 13.1965 10.5584 13.3524C10.9398 13.4407 11.3384 13.4877 11.75 13.4877Z" fill="#99A2AD"/>
</svg>
