<svg width="77" height="64" viewBox="0 0 77 64" fill="none" xmlns="http://www.w3.org/2000/svg">
<path d="M8 52.2C6.61333 52.2 5.37333 51.8933 4.28 51.28C3.18667 50.6533 2.33333 49.7933 1.72 48.7C1.10667 47.5933 0.8 46.34 0.8 44.94C0.8 43.54 1.10667 42.2933 1.72 41.2C2.33333 40.0933 3.18667 39.2333 4.28 38.62C5.37333 38.0067 6.61333 37.7 8 37.7C9.38667 37.7 10.6267 38.0067 11.72 38.62C12.8133 39.2333 13.6667 40.0933 14.28 41.2C14.8933 42.2933 15.2 43.54 15.2 44.94C15.2 46.34 14.8933 47.5933 14.28 48.7C13.6667 49.7933 12.8133 50.6533 11.72 51.28C10.6267 51.8933 9.38667 52.2 8 52.2ZM8 50C8.92 50 9.73333 49.7867 10.44 49.36C11.16 48.9333 11.7133 48.34 12.1 47.58C12.5 46.8067 12.7 45.9267 12.7 44.94C12.7 43.9533 12.5 43.08 12.1 42.32C11.7133 41.56 11.16 40.9667 10.44 40.54C9.73333 40.1133 8.92 39.9 8 39.9C7.08 39.9 6.26 40.1133 5.54 40.54C4.83333 40.9667 4.28 41.56 3.88 42.32C3.49333 43.08 3.3 43.9533 3.3 44.94C3.3 45.9267 3.49333 46.8067 3.88 47.58C4.28 48.34 4.83333 48.9333 5.54 49.36C6.26 49.7867 7.08 50 8 50ZM23.6361 52.2C22.7694 52.2 22.0028 52.02 21.3361 51.66C20.6694 51.2867 20.1228 50.84 19.6961 50.32L19.2161 52H17.4961V37.9H19.7961V43.18C20.2094 42.6733 20.7428 42.2533 21.3961 41.92C22.0494 41.5733 22.7961 41.4 23.6361 41.4C24.6094 41.4 25.4828 41.6333 26.2561 42.1C27.0294 42.5533 27.6294 43.1933 28.0561 44.02C28.4961 44.8333 28.7161 45.76 28.7161 46.8C28.7161 47.84 28.4961 48.7733 28.0561 49.6C27.6294 50.4133 27.0294 51.0533 26.2561 51.52C25.4828 51.9733 24.6094 52.2 23.6361 52.2ZM23.0761 50.14C24.0361 50.14 24.8161 49.8333 25.4161 49.22C26.0161 48.5933 26.3161 47.7867 26.3161 46.8C26.3161 45.8133 26.0161 45.0133 25.4161 44.4C24.8161 43.7733 24.0361 43.46 23.0761 43.46C22.1028 43.46 21.3094 43.7733 20.6961 44.4C20.0961 45.0133 19.7961 45.8133 19.7961 46.8C19.7961 47.7867 20.0961 48.5933 20.6961 49.22C21.3094 49.8333 22.1028 50.14 23.0761 50.14ZM28.2164 56.1L28.0164 54H29.9564C30.7297 54 31.1164 53.6133 31.1164 52.84V41.6H33.4164V52.94C33.4164 53.9667 33.1231 54.7467 32.5364 55.28C31.9497 55.8267 31.0897 56.1 29.9564 56.1H28.2164ZM32.2764 40.12C31.8497 40.12 31.5031 39.9933 31.2364 39.74C30.9697 39.4733 30.8364 39.1333 30.8364 38.72C30.8364 38.3067 30.9697 37.9667 31.2364 37.7C31.5164 37.4333 31.8631 37.3 32.2764 37.3C32.6897 37.3 33.0297 37.4333 33.2964 37.7C33.5631 37.9667 33.6964 38.3067 33.6964 38.72C33.6964 39.1333 33.5631 39.4733 33.2964 39.74C33.0297 39.9933 32.6897 40.12 32.2764 40.12ZM46.3117 46.68C46.3117 46.88 46.2984 47.1267 46.2717 47.42H37.9117C38.0184 48.2333 38.3517 48.8867 38.9117 49.38C39.4717 49.86 40.1851 50.1 41.0517 50.1C41.6384 50.1 42.1651 49.9867 42.6317 49.76C43.1117 49.5333 43.4784 49.2267 43.7317 48.84L45.8917 49.2C45.5184 50.16 44.8717 50.9 43.9517 51.42C43.0451 51.94 42.0317 52.2 40.9117 52.2C39.8717 52.2 38.9384 51.9733 38.1117 51.52C37.2984 51.0533 36.6584 50.4133 36.1917 49.6C35.7384 48.7733 35.5117 47.84 35.5117 46.8C35.5117 45.76 35.7384 44.8333 36.1917 44.02C36.6584 43.1933 37.2984 42.5533 38.1117 42.1C38.9384 41.6333 39.8717 41.4 40.9117 41.4C41.9517 41.4 42.8784 41.6333 43.6917 42.1C44.5184 42.5533 45.1584 43.1867 45.6117 44C46.0784 44.8 46.3117 45.6933 46.3117 46.68ZM40.9117 43.4C40.2184 43.4 39.6117 43.6 39.0917 44C38.5851 44.4 38.2384 44.94 38.0517 45.62H43.8117C43.6117 44.9533 43.2517 44.42 42.7317 44.02C42.2251 43.6067 41.6184 43.4 40.9117 43.4ZM53.0239 52.2C51.9839 52.2 51.0506 51.9733 50.2239 51.52C49.3972 51.0533 48.7506 50.4133 48.2839 49.6C47.8306 48.7733 47.6039 47.84 47.6039 46.8C47.6039 45.76 47.8306 44.8333 48.2839 44.02C48.7506 43.1933 49.3972 42.5533 50.2239 42.1C51.0506 41.6333 51.9839 41.4 53.0239 41.4C54.1706 41.4 55.1839 41.6867 56.0639 42.26C56.9572 42.82 57.5906 43.62 57.9639 44.66L55.8039 45.02C55.5772 44.5667 55.2239 44.2 54.7439 43.92C54.2772 43.64 53.7506 43.5 53.1639 43.5C52.2306 43.5 51.4706 43.8067 50.8839 44.42C50.2972 45.0333 50.0039 45.8267 50.0039 46.8C50.0039 47.7733 50.2972 48.5667 50.8839 49.18C51.4706 49.7933 52.2306 50.1 53.1639 50.1C53.7772 50.1 54.3239 49.96 54.8039 49.68C55.2839 49.3867 55.6439 49.0067 55.8839 48.54L58.0439 48.9C57.6706 49.9533 57.0239 50.7667 56.1039 51.34C55.1839 51.9133 54.1572 52.2 53.0239 52.2ZM65.9492 50L65.7492 52H63.8092C62.6759 52 61.8159 51.7333 61.2292 51.2C60.6426 50.6533 60.3492 49.8667 60.3492 48.84V43.6H58.6492V41.6H60.3492L60.9292 38.6H62.6492V41.6H65.7492V43.6H62.6492V48.84C62.6492 49.6133 63.0359 50 63.8092 50H65.9492ZM71.4017 52.2C70.2284 52.2 69.2484 51.9267 68.4617 51.38C67.6884 50.82 67.1884 50.0533 66.9617 49.08L69.1817 48.7C69.3551 49.1933 69.6484 49.5733 70.0617 49.84C70.4884 50.1067 70.9951 50.24 71.5817 50.24C72.0884 50.24 72.5151 50.1467 72.8617 49.96C73.2084 49.7733 73.3817 49.4867 73.3817 49.1C73.3817 48.74 73.2017 48.4667 72.8417 48.28C72.4817 48.08 71.9284 47.88 71.1817 47.68C70.4351 47.4667 69.8151 47.2533 69.3217 47.04C68.8284 46.8267 68.4017 46.5133 68.0417 46.1C67.6951 45.6867 67.5217 45.14 67.5217 44.46C67.5217 43.4733 67.9017 42.72 68.6617 42.2C69.4217 41.6667 70.3684 41.4 71.5017 41.4C72.5284 41.4 73.4151 41.6667 74.1617 42.2C74.9084 42.72 75.4284 43.44 75.7217 44.36L73.5817 44.72C73.3951 44.28 73.1217 43.9467 72.7617 43.72C72.4151 43.48 72.0017 43.36 71.5217 43.36C71.0684 43.36 70.6817 43.4533 70.3617 43.64C70.0551 43.8267 69.9017 44.08 69.9017 44.4C69.9017 44.7733 70.0884 45.0667 70.4617 45.28C70.8351 45.48 71.4084 45.6867 72.1817 45.9C72.9017 46.1 73.5017 46.3133 73.9817 46.54C74.4751 46.7533 74.8884 47.0667 75.2217 47.48C75.5684 47.88 75.7417 48.4 75.7417 49.04C75.7417 49.6267 75.5817 50.16 75.2617 50.64C74.9417 51.1067 74.4551 51.4867 73.8017 51.78C73.1617 52.06 72.3617 52.2 71.4017 52.2Z" fill="black"/>
</svg>
