<svg width="68" height="64" viewBox="0 0 68 64" fill="none" xmlns="http://www.w3.org/2000/svg">
<path d="M14.14 52H11.58L10.5 48.98H3.82L2.7 52H0.2L5.6 37.9H8.9L14.14 52ZM7.02 40.38L4.64 46.78H9.72L7.42 40.38H7.02ZM15.7359 52V41.6H17.4559L17.8959 43.1C18.2293 42.5533 18.6226 42.1667 19.0759 41.94C19.5426 41.7133 20.1026 41.6 20.7559 41.6H21.1959L21.3959 43.8H20.0759C18.7159 43.8 18.0359 44.4867 18.0359 45.86V52H15.7359ZM23.0039 52V41.6H24.7239L25.1639 43.1C25.4972 42.5533 25.8906 42.1667 26.3439 41.94C26.8106 41.7133 27.3706 41.6 28.0239 41.6H28.4639L28.6639 43.8H27.3439C25.9839 43.8 25.3039 44.4867 25.3039 45.86V52H23.0039ZM34.8412 52.2C33.7746 52.2 32.8146 51.9733 31.9612 51.52C31.1212 51.0533 30.4612 50.4133 29.9812 49.6C29.5146 48.7733 29.2812 47.84 29.2812 46.8C29.2812 45.76 29.5146 44.8333 29.9812 44.02C30.4612 43.1933 31.1212 42.5533 31.9612 42.1C32.8146 41.6333 33.7746 41.4 34.8412 41.4C35.9079 41.4 36.8612 41.6333 37.7012 42.1C38.5546 42.5533 39.2146 43.1933 39.6812 44.02C40.1612 44.8333 40.4012 45.76 40.4012 46.8C40.4012 47.84 40.1612 48.7733 39.6812 49.6C39.2146 50.4133 38.5546 51.0533 37.7012 51.52C36.8612 51.9733 35.9079 52.2 34.8412 52.2ZM34.8412 50.1C35.7746 50.1 36.5346 49.8 37.1212 49.2C37.7079 48.5867 38.0012 47.7867 38.0012 46.8C38.0012 45.8133 37.7079 45.02 37.1212 44.42C36.5346 43.8067 35.7746 43.5 34.8412 43.5C33.9079 43.5 33.1479 43.8067 32.5612 44.42C31.9746 45.02 31.6812 45.8133 31.6812 46.8C31.6812 47.7867 31.9746 48.5867 32.5612 49.2C33.1479 49.8 33.9079 50.1 34.8412 50.1ZM47.3655 52H44.0055L41.2055 41.6H43.5655L45.6655 49.7H45.9855L48.1255 41.6H50.4855L52.6255 49.7H52.9455L55.0255 41.6H57.3055L54.5455 52H51.2055L49.4455 45.2H49.1255L47.3655 52ZM62.4541 52.2C61.2807 52.2 60.3007 51.9267 59.5141 51.38C58.7407 50.82 58.2407 50.0533 58.0141 49.08L60.2341 48.7C60.4074 49.1933 60.7007 49.5733 61.1141 49.84C61.5407 50.1067 62.0474 50.24 62.6341 50.24C63.1407 50.24 63.5674 50.1467 63.9141 49.96C64.2607 49.7733 64.4341 49.4867 64.4341 49.1C64.4341 48.74 64.2541 48.4667 63.8941 48.28C63.5341 48.08 62.9807 47.88 62.2341 47.68C61.4874 47.4667 60.8674 47.2533 60.3741 47.04C59.8807 46.8267 59.4541 46.5133 59.0941 46.1C58.7474 45.6867 58.5741 45.14 58.5741 44.46C58.5741 43.4733 58.9541 42.72 59.7141 42.2C60.4741 41.6667 61.4207 41.4 62.5541 41.4C63.5807 41.4 64.4674 41.6667 65.2141 42.2C65.9607 42.72 66.4807 43.44 66.7741 44.36L64.6341 44.72C64.4474 44.28 64.1741 43.9467 63.8141 43.72C63.4674 43.48 63.0541 43.36 62.5741 43.36C62.1207 43.36 61.7341 43.4533 61.4141 43.64C61.1074 43.8267 60.9541 44.08 60.9541 44.4C60.9541 44.7733 61.1407 45.0667 61.5141 45.28C61.8874 45.48 62.4607 45.6867 63.2341 45.9C63.9541 46.1 64.5541 46.3133 65.0341 46.54C65.5274 46.7533 65.9407 47.0667 66.2741 47.48C66.6207 47.88 66.7941 48.4 66.7941 49.04C66.7941 49.6267 66.6341 50.16 66.3141 50.64C65.9941 51.1067 65.5074 51.4867 64.8541 51.78C64.2141 52.06 63.4141 52.2 62.4541 52.2Z" fill="black"/>
</svg>
