<svg width="74" height="64" viewBox="0 0 74 64" fill="none" xmlns="http://www.w3.org/2000/svg">
<path d="M14.14 52H11.58L10.5 48.98H3.82L2.7 52H0.2L5.6 37.9H8.9L14.14 52ZM7.02 40.38L4.64 46.78H9.72L7.42 40.38H7.02ZM20.1653 52.2C19.1253 52.2 18.192 51.9733 17.3653 51.52C16.5386 51.0533 15.892 50.4133 15.4253 49.6C14.972 48.7733 14.7453 47.84 14.7453 46.8C14.7453 45.76 14.972 44.8333 15.4253 44.02C15.892 43.1933 16.5386 42.5533 17.3653 42.1C18.192 41.6333 19.1253 41.4 20.1653 41.4C21.312 41.4 22.3253 41.6867 23.2053 42.26C24.0986 42.82 24.732 43.62 25.1053 44.66L22.9453 45.02C22.7186 44.5667 22.3653 44.2 21.8853 43.92C21.4186 43.64 20.892 43.5 20.3053 43.5C19.372 43.5 18.612 43.8067 18.0253 44.42C17.4386 45.0333 17.1453 45.8267 17.1453 46.8C17.1453 47.7733 17.4386 48.5667 18.0253 49.18C18.612 49.7933 19.372 50.1 20.3053 50.1C20.9186 50.1 21.4653 49.96 21.9453 49.68C22.4253 49.3867 22.7853 49.0067 23.0253 48.54L25.1853 48.9C24.812 49.9533 24.1653 50.7667 23.2453 51.34C22.3253 51.9133 21.2986 52.2 20.1653 52.2ZM33.0906 50L32.8906 52H30.9506C29.8173 52 28.9573 51.7333 28.3706 51.2C27.784 50.6533 27.4906 49.8667 27.4906 48.84V43.6H25.7906V41.6H27.4906L28.0706 38.6H29.7906V41.6H32.8906V43.6H29.7906V48.84C29.7906 49.6133 30.1773 50 30.9506 50H33.0906ZM37.3984 52H35.0984V41.6H37.3984V52ZM36.2584 40.12C35.8318 40.12 35.4851 39.9933 35.2184 39.74C34.9518 39.4733 34.8184 39.1333 34.8184 38.72C34.8184 38.3067 34.9518 37.9667 35.2184 37.7C35.4984 37.4333 35.8451 37.3 36.2584 37.3C36.6718 37.3 37.0118 37.4333 37.2784 37.7C37.5451 37.9667 37.6784 38.3067 37.6784 38.72C37.6784 39.1333 37.5451 39.4733 37.2784 39.74C37.0118 39.9933 36.6718 40.12 36.2584 40.12ZM45.1561 52.2C44.0894 52.2 43.1294 51.9733 42.2761 51.52C41.4361 51.0533 40.7761 50.4133 40.2961 49.6C39.8294 48.7733 39.5961 47.84 39.5961 46.8C39.5961 45.76 39.8294 44.8333 40.2961 44.02C40.7761 43.1933 41.4361 42.5533 42.2761 42.1C43.1294 41.6333 44.0894 41.4 45.1561 41.4C46.2228 41.4 47.1761 41.6333 48.0161 42.1C48.8694 42.5533 49.5294 43.1933 49.9961 44.02C50.4761 44.8333 50.7161 45.76 50.7161 46.8C50.7161 47.84 50.4761 48.7733 49.9961 49.6C49.5294 50.4133 48.8694 51.0533 48.0161 51.52C47.1761 51.9733 46.2228 52.2 45.1561 52.2ZM45.1561 50.1C46.0894 50.1 46.8494 49.8 47.4361 49.2C48.0228 48.5867 48.3161 47.7867 48.3161 46.8C48.3161 45.8133 48.0228 45.02 47.4361 44.42C46.8494 43.8067 46.0894 43.5 45.1561 43.5C44.2228 43.5 43.4628 43.8067 42.8761 44.42C42.2894 45.02 41.9961 45.8133 41.9961 46.8C41.9961 47.7867 42.2894 48.5867 42.8761 49.2C43.4628 49.8 44.2228 50.1 45.1561 50.1ZM52.8156 52V41.6H54.5356L54.9956 43.16C55.329 42.6133 55.769 42.1867 56.3156 41.88C56.8756 41.56 57.4756 41.4 58.1156 41.4C58.8623 41.4 59.5356 41.5867 60.1356 41.96C60.7356 42.3333 61.209 42.8467 61.5556 43.5C61.9023 44.1533 62.0756 44.8933 62.0756 45.72V52H59.7756V45.98C59.7756 45.2333 59.5623 44.6267 59.1356 44.16C58.709 43.6933 58.1623 43.46 57.4956 43.46C56.8023 43.46 56.229 43.7 55.7756 44.18C55.3356 44.6467 55.1156 45.2467 55.1156 45.98V52H52.8156ZM68.4134 52.2C67.2401 52.2 66.2601 51.9267 65.4734 51.38C64.7001 50.82 64.2001 50.0533 63.9734 49.08L66.1934 48.7C66.3668 49.1933 66.6601 49.5733 67.0734 49.84C67.5001 50.1067 68.0068 50.24 68.5934 50.24C69.1001 50.24 69.5268 50.1467 69.8734 49.96C70.2201 49.7733 70.3934 49.4867 70.3934 49.1C70.3934 48.74 70.2134 48.4667 69.8534 48.28C69.4934 48.08 68.9401 47.88 68.1934 47.68C67.4468 47.4667 66.8268 47.2533 66.3334 47.04C65.8401 46.8267 65.4134 46.5133 65.0534 46.1C64.7068 45.6867 64.5334 45.14 64.5334 44.46C64.5334 43.4733 64.9134 42.72 65.6734 42.2C66.4334 41.6667 67.3801 41.4 68.5134 41.4C69.5401 41.4 70.4268 41.6667 71.1734 42.2C71.9201 42.72 72.4401 43.44 72.7334 44.36L70.5934 44.72C70.4068 44.28 70.1334 43.9467 69.7734 43.72C69.4268 43.48 69.0134 43.36 68.5334 43.36C68.0801 43.36 67.6934 43.4533 67.3734 43.64C67.0668 43.8267 66.9134 44.08 66.9134 44.4C66.9134 44.7733 67.1001 45.0667 67.4734 45.28C67.8468 45.48 68.4201 45.6867 69.1934 45.9C69.9134 46.1 70.5134 46.3133 70.9934 46.54C71.4868 46.7533 71.9001 47.0667 72.2334 47.48C72.5801 47.88 72.7534 48.4 72.7534 49.04C72.7534 49.6267 72.5934 50.16 72.2734 50.64C71.9534 51.1067 71.4668 51.4867 70.8134 51.78C70.1734 52.06 69.3734 52.2 68.4134 52.2Z" fill="black"/>
</svg>
