<svg width="135" height="64" viewBox="0 0 135 64" fill="none" xmlns="http://www.w3.org/2000/svg">
<path d="M7.4 52H5V40.1H0.2V37.9H12.2V40.1H7.4V52ZM22.0102 46.68C22.0102 46.88 21.9968 47.1267 21.9702 47.42H13.6102C13.7168 48.2333 14.0502 48.8867 14.6102 49.38C15.1702 49.86 15.8835 50.1 16.7502 50.1C17.3368 50.1 17.8635 49.9867 18.3302 49.76C18.8102 49.5333 19.1768 49.2267 19.4302 48.84L21.5902 49.2C21.2168 50.16 20.5702 50.9 19.6502 51.42C18.7435 51.94 17.7302 52.2 16.6102 52.2C15.5702 52.2 14.6368 51.9733 13.8102 51.52C12.9968 51.0533 12.3568 50.4133 11.8902 49.6C11.4368 48.7733 11.2102 47.84 11.2102 46.8C11.2102 45.76 11.4368 44.8333 11.8902 44.02C12.3568 43.1933 12.9968 42.5533 13.8102 42.1C14.6368 41.6333 15.5702 41.4 16.6102 41.4C17.6502 41.4 18.5768 41.6333 19.3902 42.1C20.2168 42.5533 20.8568 43.1867 21.3102 44C21.7768 44.8 22.0102 45.6933 22.0102 46.68ZM16.6102 43.4C15.9168 43.4 15.3102 43.6 14.7902 44C14.2835 44.4 13.9368 44.94 13.7502 45.62H19.5102C19.3102 44.9533 18.9502 44.42 18.4302 44.02C17.9235 43.6067 17.3168 43.4 16.6102 43.4ZM25.067 52H22.467L25.767 46.68L22.847 41.6H25.447L27.387 45.1H27.767L29.807 41.6H32.347L29.427 46.54L32.727 52H30.047L27.827 48.06H27.447L25.067 52ZM40.5734 50L40.3734 52H38.4334C37.3001 52 36.4401 51.7333 35.8534 51.2C35.2668 50.6533 34.9734 49.8667 34.9734 48.84V43.6H33.2734V41.6H34.9734L35.5534 38.6H37.2734V41.6H40.3734V43.6H37.2734V48.84C37.2734 49.6133 37.6601 50 38.4334 50H40.5734ZM60.4659 51.98H57.4259L55.5859 50.12C54.7859 50.8267 54.0193 51.3467 53.2859 51.68C52.5526 52.0133 51.8193 52.18 51.0859 52.18C50.3126 52.18 49.6126 52.02 48.9859 51.7C48.3593 51.38 47.8659 50.94 47.5059 50.38C47.1593 49.8067 46.9859 49.16 46.9859 48.44C46.9859 47.7467 47.1993 47.1067 47.6259 46.52C48.0526 45.92 48.8326 45.2867 49.9659 44.62L50.0659 44.56L50.0459 44.54C49.4326 43.9267 48.9859 43.3733 48.7059 42.88C48.4393 42.3733 48.3059 41.8333 48.3059 41.26C48.3059 40.6067 48.4659 40.0133 48.7859 39.48C49.1193 38.9467 49.5726 38.5333 50.1459 38.24C50.7326 37.9333 51.3926 37.78 52.1259 37.78C52.8459 37.78 53.4926 37.9267 54.0659 38.22C54.6393 38.5133 55.0859 38.92 55.4059 39.44C55.7393 39.96 55.9059 40.5467 55.9059 41.2C55.9059 41.7867 55.7193 42.3533 55.3459 42.9C54.9859 43.4333 54.3126 44.0133 53.3259 44.64L53.2059 44.72L55.7059 47.2C56.0259 46.8267 56.6259 46.0867 57.5059 44.98H60.0859C59.0059 46.42 58.0126 47.6333 57.1059 48.62L60.4659 51.98ZM52.1059 39.68C51.6126 39.68 51.2059 39.82 50.8859 40.1C50.5659 40.38 50.4059 40.74 50.4059 41.18C50.4059 41.4867 50.4926 41.7733 50.6659 42.04C50.8393 42.2933 51.1393 42.6333 51.5659 43.06L51.9459 43.44C52.5859 43.04 53.0526 42.6733 53.3459 42.34C53.6526 42.0067 53.8059 41.6333 53.8059 41.22C53.8059 40.7667 53.6459 40.4 53.3259 40.12C53.0059 39.8267 52.5993 39.68 52.1059 39.68ZM51.4459 50.08C51.8993 50.08 52.3459 49.98 52.7859 49.78C53.2259 49.5667 53.7059 49.22 54.2259 48.74L51.3659 45.88L51.2059 45.98C50.5259 46.4067 50.0459 46.8133 49.7659 47.2C49.4859 47.5867 49.3459 47.9667 49.3459 48.34C49.3459 48.8467 49.5393 49.2667 49.9259 49.6C50.3259 49.92 50.8326 50.08 51.4459 50.08ZM76.6981 52H67.2781V37.9H76.4981V40.1H69.6781V43.84H75.8581V45.94H69.6781V49.8H76.6981V52ZM83.2792 52.2C82.3059 52.2 81.4326 51.9733 80.6592 51.52C79.8859 51.0533 79.2792 50.4133 78.8392 49.6C78.4126 48.7733 78.1992 47.84 78.1992 46.8C78.1992 45.76 78.4126 44.8333 78.8392 44.02C79.2792 43.1933 79.8859 42.5533 80.6592 42.1C81.4326 41.6333 82.3059 41.4 83.2792 41.4C84.1192 41.4 84.8659 41.5733 85.5192 41.92C86.1726 42.2533 86.7059 42.6733 87.1192 43.18V37.9H89.4192V52H87.6992L87.2192 50.32C86.7926 50.84 86.2459 51.2867 85.5792 51.66C84.9126 52.02 84.1459 52.2 83.2792 52.2ZM83.8392 50.14C84.8126 50.14 85.5992 49.8333 86.1992 49.22C86.8126 48.5933 87.1192 47.7867 87.1192 46.8C87.1192 45.8133 86.8126 45.0133 86.1992 44.4C85.5992 43.7733 84.8126 43.46 83.8392 43.46C82.8792 43.46 82.0992 43.7733 81.4992 44.4C80.8992 45.0133 80.5992 45.8133 80.5992 46.8C80.5992 47.7867 80.8992 48.5933 81.4992 49.22C82.0992 49.8333 82.8792 50.14 83.8392 50.14ZM94.6195 52H92.3195V41.6H94.6195V52ZM93.4795 40.12C93.0529 40.12 92.7062 39.9933 92.4395 39.74C92.1729 39.4733 92.0395 39.1333 92.0395 38.72C92.0395 38.3067 92.1729 37.9667 92.4395 37.7C92.7195 37.4333 93.0662 37.3 93.4795 37.3C93.8929 37.3 94.2329 37.4333 94.4995 37.7C94.7662 37.9667 94.8995 38.3067 94.8995 38.72C94.8995 39.1333 94.7662 39.4733 94.4995 39.74C94.2329 39.9933 93.8929 40.12 93.4795 40.12ZM103.617 50L103.417 52H101.477C100.344 52 99.4839 51.7333 98.8972 51.2C98.3105 50.6533 98.0172 49.8667 98.0172 48.84V43.6H96.3172V41.6H98.0172L98.5972 38.6H100.317V41.6H103.417V43.6H100.317V48.84C100.317 49.6133 100.704 50 101.477 50H103.617ZM107.925 52H105.625V41.6H107.925V52ZM106.785 40.12C106.358 40.12 106.012 39.9933 105.745 39.74C105.478 39.4733 105.345 39.1333 105.345 38.72C105.345 38.3067 105.478 37.9667 105.745 37.7C106.025 37.4333 106.372 37.3 106.785 37.3C107.198 37.3 107.538 37.4333 107.805 37.7C108.072 37.9667 108.205 38.3067 108.205 38.72C108.205 39.1333 108.072 39.4733 107.805 39.74C107.538 39.9933 107.198 40.12 106.785 40.12ZM110.723 52V41.6H112.443L112.903 43.16C113.236 42.6133 113.676 42.1867 114.223 41.88C114.783 41.56 115.383 41.4 116.023 41.4C116.769 41.4 117.443 41.5867 118.043 41.96C118.643 42.3333 119.116 42.8467 119.463 43.5C119.809 44.1533 119.983 44.8933 119.983 45.72V52H117.683V45.98C117.683 45.2333 117.469 44.6267 117.043 44.16C116.616 43.6933 116.069 43.46 115.403 43.46C114.709 43.46 114.136 43.7 113.683 44.18C113.243 44.6467 113.023 45.2467 113.023 45.98V52H110.723ZM127.32 56.1C126.134 56.1 125.08 55.8133 124.16 55.24C123.254 54.68 122.614 53.9 122.24 52.9L124.5 52.52C124.794 53 125.18 53.3667 125.66 53.62C126.14 53.8733 126.7 54 127.34 54C128.26 54 129.02 53.74 129.62 53.22C130.22 52.7 130.52 51.8867 130.52 50.78V49.84C130.12 50.36 129.607 50.7733 128.98 51.08C128.367 51.3733 127.667 51.52 126.88 51.52C125.934 51.52 125.087 51.3067 124.34 50.88C123.607 50.44 123.027 49.84 122.6 49.08C122.187 48.3067 121.98 47.4333 121.98 46.46C121.98 45.4867 122.187 44.62 122.6 43.86C123.027 43.0867 123.607 42.4867 124.34 42.06C125.087 41.62 125.934 41.4 126.88 41.4C127.72 41.4 128.454 41.5667 129.08 41.9C129.72 42.22 130.234 42.6667 130.62 43.24L131.1 41.6H132.82V50.8C132.82 51.9333 132.574 52.9 132.08 53.7C131.587 54.5 130.92 55.1 130.08 55.5C129.254 55.9 128.334 56.1 127.32 56.1ZM127.44 49.46C128.347 49.46 129.087 49.1867 129.66 48.64C130.234 48.08 130.52 47.3533 130.52 46.46C130.52 45.5667 130.234 44.8467 129.66 44.3C129.087 43.74 128.347 43.46 127.44 43.46C126.534 43.46 125.794 43.74 125.22 44.3C124.66 44.8467 124.38 45.5667 124.38 46.46C124.38 47.3533 124.66 48.08 125.22 48.64C125.794 49.1867 126.534 49.46 127.44 49.46Z" fill="black"/>
</svg>
