<svg width="87" height="64" viewBox="0 0 87 64" fill="none" xmlns="http://www.w3.org/2000/svg">
<path d="M1.5 52V37.9H6.5C7.46 37.9 8.32667 38.1067 9.1 38.52C9.88667 38.92 10.5 39.48 10.94 40.2C11.38 40.92 11.6 41.74 11.6 42.66C11.6 43.5667 11.38 44.3867 10.94 45.12C10.5 45.84 9.88667 46.4067 9.1 46.82C8.32667 47.22 7.46 47.42 6.5 47.42H3.9V52H1.5ZM6.5 45.22C7.28667 45.22 7.92 44.9867 8.4 44.52C8.89333 44.04 9.14 43.42 9.14 42.66C9.14 41.9 8.89333 41.2867 8.4 40.82C7.92 40.34 7.28667 40.1 6.5 40.1H3.9V45.22H6.5ZM13.5094 52V41.6H15.2294L15.6694 43.1C16.0027 42.5533 16.396 42.1667 16.8494 41.94C17.316 41.7133 17.876 41.6 18.5294 41.6H18.9694L19.1694 43.8H17.8494C16.4894 43.8 15.8094 44.4867 15.8094 45.86V52H13.5094ZM25.3467 52.2C24.2801 52.2 23.3201 51.9733 22.4667 51.52C21.6267 51.0533 20.9667 50.4133 20.4867 49.6C20.0201 48.7733 19.7867 47.84 19.7867 46.8C19.7867 45.76 20.0201 44.8333 20.4867 44.02C20.9667 43.1933 21.6267 42.5533 22.4667 42.1C23.3201 41.6333 24.2801 41.4 25.3467 41.4C26.4134 41.4 27.3667 41.6333 28.2067 42.1C29.0601 42.5533 29.7201 43.1933 30.1867 44.02C30.6667 44.8333 30.9067 45.76 30.9067 46.8C30.9067 47.84 30.6667 48.7733 30.1867 49.6C29.7201 50.4133 29.0601 51.0533 28.2067 51.52C27.3667 51.9733 26.4134 52.2 25.3467 52.2ZM25.3467 50.1C26.2801 50.1 27.0401 49.8 27.6267 49.2C28.2134 48.5867 28.5067 47.7867 28.5067 46.8C28.5067 45.8133 28.2134 45.02 27.6267 44.42C27.0401 43.8067 26.2801 43.5 25.3467 43.5C24.4134 43.5 23.6534 43.8067 23.0667 44.42C22.4801 45.02 22.1867 45.8133 22.1867 46.8C22.1867 47.7867 22.4801 48.5867 23.0667 49.2C23.6534 49.8 24.4134 50.1 25.3467 50.1ZM37.4862 52.2C36.5129 52.2 35.6396 51.9733 34.8662 51.52C34.0929 51.0533 33.4862 50.4133 33.0462 49.6C32.6196 48.7733 32.4062 47.84 32.4062 46.8C32.4062 45.76 32.6196 44.8333 33.0462 44.02C33.4862 43.1933 34.0929 42.5533 34.8662 42.1C35.6396 41.6333 36.5129 41.4 37.4862 41.4C38.3262 41.4 39.0729 41.5733 39.7262 41.92C40.3796 42.2533 40.9129 42.6733 41.3262 43.18V37.9H43.6262V52H41.9063L41.4262 50.32C40.9996 50.84 40.4529 51.2867 39.7862 51.66C39.1196 52.02 38.3529 52.2 37.4862 52.2ZM38.0462 50.14C39.0196 50.14 39.8062 49.8333 40.4062 49.22C41.0196 48.5933 41.3262 47.7867 41.3262 46.8C41.3262 45.8133 41.0196 45.0133 40.4062 44.4C39.8062 43.7733 39.0196 43.46 38.0462 43.46C37.0862 43.46 36.3062 43.7733 35.7062 44.4C35.1062 45.0133 34.8062 45.8133 34.8062 46.8C34.8062 47.7867 35.1062 48.5933 35.7062 49.22C36.3062 49.8333 37.0862 50.14 38.0462 50.14ZM50.2266 52.2C49.4932 52.2 48.8266 52.0133 48.2266 51.64C47.6399 51.2667 47.1732 50.7533 46.8266 50.1C46.4932 49.4467 46.3266 48.7067 46.3266 47.88V41.6H48.6266V47.62C48.6266 48.3667 48.8332 48.9733 49.2466 49.44C49.6732 49.9067 50.2132 50.14 50.8666 50.14C51.5332 50.14 52.0866 49.9067 52.5266 49.44C52.9666 48.96 53.1866 48.3533 53.1866 47.62V41.6H55.4866V52H53.7666L53.3066 50.44C52.9732 50.9867 52.5332 51.42 51.9866 51.74C51.4399 52.0467 50.8532 52.2 50.2266 52.2ZM63.0067 52.2C61.9667 52.2 61.0334 51.9733 60.2067 51.52C59.3801 51.0533 58.7334 50.4133 58.2667 49.6C57.8134 48.7733 57.5867 47.84 57.5867 46.8C57.5867 45.76 57.8134 44.8333 58.2667 44.02C58.7334 43.1933 59.3801 42.5533 60.2067 42.1C61.0334 41.6333 61.9667 41.4 63.0067 41.4C64.1534 41.4 65.1667 41.6867 66.0467 42.26C66.9401 42.82 67.5734 43.62 67.9467 44.66L65.7867 45.02C65.5601 44.5667 65.2067 44.2 64.7267 43.92C64.2601 43.64 63.7334 43.5 63.1467 43.5C62.2134 43.5 61.4534 43.8067 60.8667 44.42C60.2801 45.0333 59.9867 45.8267 59.9867 46.8C59.9867 47.7733 60.2801 48.5667 60.8667 49.18C61.4534 49.7933 62.2134 50.1 63.1467 50.1C63.7601 50.1 64.3067 49.96 64.7867 49.68C65.2667 49.3867 65.6267 49.0067 65.8667 48.54L68.0267 48.9C67.6534 49.9533 67.0067 50.7667 66.0867 51.34C65.1667 51.9133 64.1401 52.2 63.0067 52.2ZM75.932 50L75.732 52H73.792C72.6587 52 71.7987 51.7333 71.212 51.2C70.6254 50.6533 70.332 49.8667 70.332 48.84V43.6H68.632V41.6H70.332L70.912 38.6H72.632V41.6H75.732V43.6H72.632V48.84C72.632 49.6133 73.0187 50 73.792 50H75.932ZM81.3845 52.2C80.2112 52.2 79.2312 51.9267 78.4445 51.38C77.6712 50.82 77.1712 50.0533 76.9445 49.08L79.1645 48.7C79.3379 49.1933 79.6312 49.5733 80.0445 49.84C80.4712 50.1067 80.9779 50.24 81.5645 50.24C82.0712 50.24 82.4979 50.1467 82.8445 49.96C83.1912 49.7733 83.3645 49.4867 83.3645 49.1C83.3645 48.74 83.1845 48.4667 82.8245 48.28C82.4645 48.08 81.9112 47.88 81.1645 47.68C80.4179 47.4667 79.7979 47.2533 79.3045 47.04C78.8112 46.8267 78.3845 46.5133 78.0245 46.1C77.6779 45.6867 77.5045 45.14 77.5045 44.46C77.5045 43.4733 77.8845 42.72 78.6445 42.2C79.4045 41.6667 80.3512 41.4 81.4845 41.4C82.5112 41.4 83.3979 41.6667 84.1445 42.2C84.8912 42.72 85.4112 43.44 85.7045 44.36L83.5645 44.72C83.3779 44.28 83.1045 43.9467 82.7445 43.72C82.3979 43.48 81.9845 43.36 81.5045 43.36C81.0512 43.36 80.6645 43.4533 80.3445 43.64C80.0379 43.8267 79.8845 44.08 79.8845 44.4C79.8845 44.7733 80.0712 45.0667 80.4445 45.28C80.8179 45.48 81.3912 45.6867 82.1645 45.9C82.8845 46.1 83.4845 46.3133 83.9645 46.54C84.4579 46.7533 84.8712 47.0667 85.2045 47.48C85.5512 47.88 85.7245 48.4 85.7245 49.04C85.7245 49.6267 85.5645 50.16 85.2445 50.64C84.9245 51.1067 84.4379 51.4867 83.7845 51.78C83.1445 52.06 82.3445 52.2 81.3845 52.2Z" fill="black"/>
</svg>
