<svg width="48" height="64" viewBox="0 0 48 64" fill="none" xmlns="http://www.w3.org/2000/svg">
<path d="M7.4 52H5V40.1H0.2V37.9H12.2V40.1H7.4V52ZM16.2023 52H13.9023V41.6H16.2023V52ZM15.0623 40.12C14.6357 40.12 14.289 39.9933 14.0223 39.74C13.7557 39.4733 13.6223 39.1333 13.6223 38.72C13.6223 38.3067 13.7557 37.9667 14.0223 37.7C14.3023 37.4333 14.649 37.3 15.0623 37.3C15.4757 37.3 15.8157 37.4333 16.0823 37.7C16.349 37.9667 16.4823 38.3067 16.4823 38.72C16.4823 39.1333 16.349 39.4733 16.0823 39.74C15.8157 39.9933 15.4757 40.12 15.0623 40.12ZM19 52V41.6H20.72L21.14 43.08C21.42 42.5867 21.8067 42.1867 22.3 41.88C22.7933 41.56 23.3867 41.4 24.08 41.4C24.7733 41.4 25.3933 41.5667 25.94 41.9C26.4867 42.2333 26.8933 42.6933 27.16 43.28C27.4133 42.76 27.8133 42.32 28.36 41.96C28.92 41.5867 29.58 41.4 30.34 41.4C31.06 41.4 31.7 41.5867 32.26 41.96C32.8333 42.32 33.2733 42.8267 33.58 43.48C33.9 44.12 34.06 44.8533 34.06 45.68V52H31.76V45.9C31.76 45.18 31.5733 44.5933 31.2 44.14C30.8267 43.6867 30.34 43.46 29.74 43.46C29.14 43.46 28.6467 43.6933 28.26 44.16C27.8733 44.6133 27.68 45.1933 27.68 45.9V52H25.38V45.9C25.38 45.18 25.1933 44.5933 24.82 44.14C24.4467 43.6867 23.96 43.46 23.36 43.46C22.76 43.46 22.2667 43.6933 21.88 44.16C21.4933 44.6133 21.3 45.1933 21.3 45.9V52H19ZM46.8586 46.68C46.8586 46.88 46.8453 47.1267 46.8186 47.42H38.4586C38.5653 48.2333 38.8986 48.8867 39.4586 49.38C40.0186 49.86 40.7319 50.1 41.5986 50.1C42.1853 50.1 42.7119 49.9867 43.1786 49.76C43.6586 49.5333 44.0253 49.2267 44.2786 48.84L46.4386 49.2C46.0653 50.16 45.4186 50.9 44.4986 51.42C43.5919 51.94 42.5786 52.2 41.4586 52.2C40.4186 52.2 39.4853 51.9733 38.6586 51.52C37.8453 51.0533 37.2053 50.4133 36.7386 49.6C36.2853 48.7733 36.0586 47.84 36.0586 46.8C36.0586 45.76 36.2853 44.8333 36.7386 44.02C37.2053 43.1933 37.8453 42.5533 38.6586 42.1C39.4853 41.6333 40.4186 41.4 41.4586 41.4C42.4986 41.4 43.4253 41.6333 44.2386 42.1C45.0653 42.5533 45.7053 43.1867 46.1586 44C46.6253 44.8 46.8586 45.6933 46.8586 46.68ZM41.4586 43.4C40.7653 43.4 40.1586 43.6 39.6386 44C39.1319 44.4 38.7853 44.94 38.5986 45.62H44.3586C44.1586 44.9533 43.7986 44.42 43.2786 44.02C42.7719 43.6067 42.1653 43.4 41.4586 43.4Z" fill="black"/>
</svg>
