<svg width="173" height="64" viewBox="0 0 173 64" fill="none" xmlns="http://www.w3.org/2000/svg">
<path d="M6.04 52.2C4.73333 52.2 3.58 51.8533 2.58 51.16C1.59333 50.4533 0.933333 49.5067 0.6 48.32L2.92 47.92C3.30667 48.6267 3.74 49.1533 4.22 49.5C4.7 49.8333 5.31333 50 6.06 50C6.75333 50 7.32 49.8467 7.76 49.54C8.21333 49.22 8.44 48.7867 8.44 48.24C8.44 47.84 8.31333 47.5067 8.06 47.24C7.80667 46.96 7.48667 46.7333 7.1 46.56C6.71333 46.3867 6.2 46.1933 5.56 45.98C4.66667 45.6867 3.93333 45.4 3.36 45.12C2.78667 44.8267 2.29333 44.4067 1.88 43.86C1.48 43.3 1.28 42.58 1.28 41.7C1.28 40.8867 1.48 40.18 1.88 39.58C2.29333 38.9667 2.84667 38.5 3.54 38.18C4.23333 37.86 5.01333 37.7 5.88 37.7C7.10667 37.7 8.16 38.02 9.04 38.66C9.92 39.3 10.54 40.18 10.9 41.3L8.62 41.68C8.36667 41.1067 8.01333 40.6667 7.56 40.36C7.10667 40.0533 6.57333 39.9 5.96 39.9C5.33333 39.9 4.80667 40.0467 4.38 40.34C3.95333 40.6333 3.74 41.0467 3.74 41.58C3.74 41.98 3.86 42.3133 4.1 42.58C4.35333 42.8467 4.67333 43.0667 5.06 43.24C5.44667 43.4133 5.96667 43.6133 6.62 43.84C7.51333 44.1467 8.24667 44.4467 8.82 44.74C9.39333 45.0333 9.88 45.46 10.28 46.02C10.6933 46.58 10.9 47.2933 10.9 48.16C10.9 48.9733 10.68 49.6867 10.24 50.3C9.81333 50.9133 9.22667 51.3867 8.48 51.72C7.74667 52.04 6.93333 52.2 6.04 52.2ZM23.3969 46.68C23.3969 46.88 23.3835 47.1267 23.3569 47.42H14.9969C15.1035 48.2333 15.4369 48.8867 15.9969 49.38C16.5569 49.86 17.2702 50.1 18.1369 50.1C18.7235 50.1 19.2502 49.9867 19.7169 49.76C20.1969 49.5333 20.5635 49.2267 20.8169 48.84L22.9769 49.2C22.6035 50.16 21.9569 50.9 21.0369 51.42C20.1302 51.94 19.1169 52.2 17.9969 52.2C16.9569 52.2 16.0235 51.9733 15.1969 51.52C14.3835 51.0533 13.7435 50.4133 13.2769 49.6C12.8235 48.7733 12.5969 47.84 12.5969 46.8C12.5969 45.76 12.8235 44.8333 13.2769 44.02C13.7435 43.1933 14.3835 42.5533 15.1969 42.1C16.0235 41.6333 16.9569 41.4 17.9969 41.4C19.0369 41.4 19.9635 41.6333 20.7769 42.1C21.6035 42.5533 22.2435 43.1867 22.6969 44C23.1635 44.8 23.3969 45.6933 23.3969 46.68ZM17.9969 43.4C17.3035 43.4 16.6969 43.6 16.1769 44C15.6702 44.4 15.3235 44.94 15.1369 45.62H20.8969C20.6969 44.9533 20.3369 44.42 19.8169 44.02C19.3102 43.6067 18.7035 43.4 17.9969 43.4ZM30.1091 52.2C29.0691 52.2 28.1357 51.9733 27.3091 51.52C26.4824 51.0533 25.8357 50.4133 25.3691 49.6C24.9157 48.7733 24.6891 47.84 24.6891 46.8C24.6891 45.76 24.9157 44.8333 25.3691 44.02C25.8357 43.1933 26.4824 42.5533 27.3091 42.1C28.1357 41.6333 29.0691 41.4 30.1091 41.4C31.2557 41.4 32.2691 41.6867 33.1491 42.26C34.0424 42.82 34.6757 43.62 35.0491 44.66L32.8891 45.02C32.6624 44.5667 32.3091 44.2 31.8291 43.92C31.3624 43.64 30.8357 43.5 30.2491 43.5C29.3157 43.5 28.5557 43.8067 27.9691 44.42C27.3824 45.0333 27.0891 45.8267 27.0891 46.8C27.0891 47.7733 27.3824 48.5667 27.9691 49.18C28.5557 49.7933 29.3157 50.1 30.2491 50.1C30.8624 50.1 31.4091 49.96 31.8891 49.68C32.3691 49.3867 32.7291 49.0067 32.9691 48.54L35.1291 48.9C34.7557 49.9533 34.1091 50.7667 33.1891 51.34C32.2691 51.9133 31.2424 52.2 30.1091 52.2ZM40.6344 52.2C39.901 52.2 39.2344 52.0133 38.6344 51.64C38.0477 51.2667 37.581 50.7533 37.2344 50.1C36.901 49.4467 36.7344 48.7067 36.7344 47.88V41.6H39.0344V47.62C39.0344 48.3667 39.241 48.9733 39.6544 49.44C40.081 49.9067 40.621 50.14 41.2744 50.14C41.941 50.14 42.4944 49.9067 42.9344 49.44C43.3744 48.96 43.5944 48.3533 43.5944 47.62V41.6H45.8944V52H44.1744L43.7144 50.44C43.381 50.9867 42.941 51.42 42.3944 51.74C41.8477 52.0467 41.261 52.2 40.6344 52.2ZM48.5945 52V41.6H50.3145L50.7545 43.1C51.0879 42.5533 51.4812 42.1667 51.9345 41.94C52.4012 41.7133 52.9612 41.6 53.6145 41.6H54.0545L54.2545 43.8H52.9345C51.5745 43.8 50.8945 44.4867 50.8945 45.86V52H48.5945ZM58.2625 52H55.9625V41.6H58.2625V52ZM57.1225 40.12C56.6958 40.12 56.3492 39.9933 56.0825 39.74C55.8158 39.4733 55.6825 39.1333 55.6825 38.72C55.6825 38.3067 55.8158 37.9667 56.0825 37.7C56.3625 37.4333 56.7092 37.3 57.1225 37.3C57.5358 37.3 57.8758 37.4333 58.1425 37.7C58.4092 37.9667 58.5425 38.3067 58.5425 38.72C58.5425 39.1333 58.4092 39.4733 58.1425 39.74C57.8758 39.9933 57.5358 40.12 57.1225 40.12ZM67.2602 50L67.0602 52H65.1202C63.9868 52 63.1268 51.7333 62.5402 51.2C61.9535 50.6533 61.6602 49.8667 61.6602 48.84V43.6H59.9602V41.6H61.6602L62.2402 38.6H63.9602V41.6H67.0602V43.6H63.9602V48.84C63.9602 49.6133 64.3468 50 65.1202 50H67.2602ZM76.3727 41.6H78.7127L74.4527 53.3C74.0927 54.2867 73.626 55 73.0527 55.44C72.4927 55.88 71.7393 56.1 70.7927 56.1H69.2127L69.0127 54H70.9527C71.3393 54 71.6327 53.9133 71.8327 53.74C72.046 53.58 72.226 53.2933 72.3727 52.88L72.4927 52.56L67.8727 41.6H70.3327L73.3927 49.1H73.7127L76.3727 41.6ZM97.8972 51.98H94.8572L93.0172 50.12C92.2172 50.8267 91.4505 51.3467 90.7172 51.68C89.9839 52.0133 89.2505 52.18 88.5172 52.18C87.7439 52.18 87.0439 52.02 86.4172 51.7C85.7905 51.38 85.2972 50.94 84.9372 50.38C84.5905 49.8067 84.4172 49.16 84.4172 48.44C84.4172 47.7467 84.6305 47.1067 85.0572 46.52C85.4839 45.92 86.2639 45.2867 87.3972 44.62L87.4972 44.56L87.4772 44.54C86.8639 43.9267 86.4172 43.3733 86.1372 42.88C85.8705 42.3733 85.7372 41.8333 85.7372 41.26C85.7372 40.6067 85.8972 40.0133 86.2172 39.48C86.5505 38.9467 87.0039 38.5333 87.5772 38.24C88.1639 37.9333 88.8239 37.78 89.5572 37.78C90.2772 37.78 90.9239 37.9267 91.4972 38.22C92.0705 38.5133 92.5172 38.92 92.8372 39.44C93.1705 39.96 93.3372 40.5467 93.3372 41.2C93.3372 41.7867 93.1505 42.3533 92.7772 42.9C92.4172 43.4333 91.7439 44.0133 90.7572 44.64L90.6372 44.72L93.1372 47.2C93.4572 46.8267 94.0572 46.0867 94.9372 44.98H97.5172C96.4372 46.42 95.4439 47.6333 94.5372 48.62L97.8972 51.98ZM89.5372 39.68C89.0439 39.68 88.6372 39.82 88.3172 40.1C87.9972 40.38 87.8372 40.74 87.8372 41.18C87.8372 41.4867 87.9239 41.7733 88.0972 42.04C88.2705 42.2933 88.5705 42.6333 88.9972 43.06L89.3772 43.44C90.0172 43.04 90.4839 42.6733 90.7772 42.34C91.0839 42.0067 91.2372 41.6333 91.2372 41.22C91.2372 40.7667 91.0772 40.4 90.7572 40.12C90.4372 39.8267 90.0305 39.68 89.5372 39.68ZM88.8772 50.08C89.3305 50.08 89.7772 49.98 90.2172 49.78C90.6572 49.5667 91.1372 49.22 91.6572 48.74L88.7972 45.88L88.6372 45.98C87.9572 46.4067 87.4772 46.8133 87.1972 47.2C86.9172 47.5867 86.7772 47.9667 86.7772 48.34C86.7772 48.8467 86.9705 49.2667 87.3572 49.6C87.7572 49.92 88.2639 50.08 88.8772 50.08ZM104.709 52V37.9H109.709C110.669 37.9 111.536 38.1067 112.309 38.52C113.096 38.92 113.709 39.48 114.149 40.2C114.589 40.92 114.809 41.74 114.809 42.66C114.809 43.5667 114.589 44.3867 114.149 45.12C113.709 45.84 113.096 46.4067 112.309 46.82C111.536 47.22 110.669 47.42 109.709 47.42H107.109V52H104.709ZM109.709 45.22C110.496 45.22 111.129 44.9867 111.609 44.52C112.103 44.04 112.349 43.42 112.349 42.66C112.349 41.9 112.103 41.2867 111.609 40.82C111.129 40.34 110.496 40.1 109.709 40.1H107.109V45.22H109.709ZM116.719 52V41.6H118.439L118.879 43.1C119.212 42.5533 119.605 42.1667 120.059 41.94C120.525 41.7133 121.085 41.6 121.739 41.6H122.179L122.379 43.8H121.059C119.699 43.8 119.019 44.4867 119.019 45.86V52H116.719ZM126.387 52H124.087V41.6H126.387V52ZM125.247 40.12C124.82 40.12 124.473 39.9933 124.207 39.74C123.94 39.4733 123.807 39.1333 123.807 38.72C123.807 38.3067 123.94 37.9667 124.207 37.7C124.487 37.4333 124.833 37.3 125.247 37.3C125.66 37.3 126 37.4333 126.267 37.7C126.533 37.9667 126.667 38.3067 126.667 38.72C126.667 39.1333 126.533 39.4733 126.267 39.74C126 39.9933 125.66 40.12 125.247 40.12ZM135.044 52H131.884L128.084 41.6H130.524L133.304 49.48H133.704L136.564 41.6H138.924L135.044 52ZM144.364 41.4C145.698 41.4 146.744 41.82 147.504 42.66C148.278 43.4867 148.664 44.6533 148.664 46.16V52H146.964L146.484 50.36C146.191 50.8533 145.758 51.2867 145.184 51.66C144.611 52.02 143.931 52.2 143.144 52.2C142.451 52.2 141.824 52.06 141.264 51.78C140.718 51.5 140.291 51.1067 139.984 50.6C139.678 50.0933 139.524 49.52 139.524 48.88C139.524 47.8933 139.911 47.1067 140.684 46.52C141.471 45.92 142.611 45.62 144.104 45.62H146.344C146.291 44.9267 146.078 44.38 145.704 43.98C145.344 43.5667 144.858 43.36 144.244 43.36C143.751 43.36 143.324 43.48 142.964 43.72C142.604 43.96 142.338 44.2533 142.164 44.6L140.044 44.24C140.298 43.36 140.818 42.6667 141.604 42.16C142.404 41.6533 143.324 41.4 144.364 41.4ZM143.684 50.26C144.484 50.26 145.131 50 145.624 49.48C146.118 48.96 146.364 48.2733 146.364 47.42H144.184C142.624 47.42 141.844 47.8733 141.844 48.78C141.844 49.2333 142.011 49.5933 142.344 49.86C142.678 50.1267 143.124 50.26 143.684 50.26ZM156.079 52.2C155.039 52.2 154.106 51.9733 153.279 51.52C152.453 51.0533 151.806 50.4133 151.339 49.6C150.886 48.7733 150.659 47.84 150.659 46.8C150.659 45.76 150.886 44.8333 151.339 44.02C151.806 43.1933 152.453 42.5533 153.279 42.1C154.106 41.6333 155.039 41.4 156.079 41.4C157.226 41.4 158.239 41.6867 159.119 42.26C160.013 42.82 160.646 43.62 161.019 44.66L158.859 45.02C158.633 44.5667 158.279 44.2 157.799 43.92C157.333 43.64 156.806 43.5 156.219 43.5C155.286 43.5 154.526 43.8067 153.939 44.42C153.353 45.0333 153.059 45.8267 153.059 46.8C153.059 47.7733 153.353 48.5667 153.939 49.18C154.526 49.7933 155.286 50.1 156.219 50.1C156.833 50.1 157.379 49.96 157.859 49.68C158.339 49.3867 158.699 49.0067 158.939 48.54L161.099 48.9C160.726 49.9533 160.079 50.7667 159.159 51.34C158.239 51.9133 157.213 52.2 156.079 52.2ZM170.205 41.6H172.545L168.285 53.3C167.925 54.2867 167.458 55 166.885 55.44C166.325 55.88 165.571 56.1 164.625 56.1H163.045L162.845 54H164.785C165.171 54 165.465 53.9133 165.665 53.74C165.878 53.58 166.058 53.2933 166.205 52.88L166.325 52.56L161.705 41.6H164.165L167.225 49.1H167.545L170.205 41.6Z" fill="black"/>
</svg>
