<svg width="106" height="64" viewBox="0 0 106 64" fill="none" xmlns="http://www.w3.org/2000/svg">
<path d="M7.74 52.2C6.40667 52.2 5.21333 51.8933 4.16 51.28C3.10667 50.6533 2.28 49.7933 1.68 48.7C1.09333 47.5933 0.8 46.34 0.8 44.94C0.8 43.5533 1.09333 42.3133 1.68 41.22C2.28 40.1133 3.10667 39.2533 4.16 38.64C5.21333 38.0133 6.40667 37.7 7.74 37.7C9.19333 37.7 10.48 38.0667 11.6 38.8C12.72 39.52 13.52 40.5133 14 41.78L11.62 42.18C11.2867 41.46 10.78 40.9 10.1 40.5C9.43333 40.1 8.67333 39.9 7.82 39.9C6.94 39.9 6.15333 40.1133 5.46 40.54C4.78 40.9667 4.24667 41.56 3.86 42.32C3.48667 43.08 3.3 43.9533 3.3 44.94C3.3 45.9267 3.48667 46.8067 3.86 47.58C4.24667 48.34 4.78 48.9333 5.46 49.36C6.15333 49.7867 6.94 50 7.82 50C8.68667 50 9.46667 49.7933 10.16 49.38C10.8533 48.9533 11.3733 48.3667 11.72 47.62L14.1 48.02C13.5933 49.3 12.7667 50.32 11.62 51.08C10.4867 51.8267 9.19333 52.2 7.74 52.2ZM20.9694 52.2C19.9027 52.2 18.9427 51.9733 18.0894 51.52C17.2494 51.0533 16.5894 50.4133 16.1094 49.6C15.6427 48.7733 15.4094 47.84 15.4094 46.8C15.4094 45.76 15.6427 44.8333 16.1094 44.02C16.5894 43.1933 17.2494 42.5533 18.0894 42.1C18.9427 41.6333 19.9027 41.4 20.9694 41.4C22.036 41.4 22.9894 41.6333 23.8294 42.1C24.6827 42.5533 25.3427 43.1933 25.8094 44.02C26.2894 44.8333 26.5294 45.76 26.5294 46.8C26.5294 47.84 26.2894 48.7733 25.8094 49.6C25.3427 50.4133 24.6827 51.0533 23.8294 51.52C22.9894 51.9733 22.036 52.2 20.9694 52.2ZM20.9694 50.1C21.9027 50.1 22.6627 49.8 23.2494 49.2C23.836 48.5867 24.1294 47.7867 24.1294 46.8C24.1294 45.8133 23.836 45.02 23.2494 44.42C22.6627 43.8067 21.9027 43.5 20.9694 43.5C20.036 43.5 19.276 43.8067 18.6894 44.42C18.1027 45.02 17.8094 45.8133 17.8094 46.8C17.8094 47.7867 18.1027 48.5867 18.6894 49.2C19.276 49.8 20.036 50.1 20.9694 50.1ZM28.6289 52V41.6H30.3489L30.7689 43.08C31.0489 42.5867 31.4356 42.1867 31.9289 41.88C32.4222 41.56 33.0156 41.4 33.7089 41.4C34.4022 41.4 35.0222 41.5667 35.5689 41.9C36.1156 42.2333 36.5222 42.6933 36.7889 43.28C37.0422 42.76 37.4422 42.32 37.9889 41.96C38.5489 41.5867 39.2089 41.4 39.9689 41.4C40.6889 41.4 41.3289 41.5867 41.8889 41.96C42.4622 42.32 42.9022 42.8267 43.2089 43.48C43.5289 44.12 43.6889 44.8533 43.6889 45.68V52H41.3889V45.9C41.3889 45.18 41.2022 44.5933 40.8289 44.14C40.4556 43.6867 39.9689 43.46 39.3689 43.46C38.7689 43.46 38.2756 43.6933 37.8889 44.16C37.5022 44.6133 37.3089 45.1933 37.3089 45.9V52H35.0089V45.9C35.0089 45.18 34.8222 44.5933 34.4489 44.14C34.0756 43.6867 33.5889 43.46 32.9889 43.46C32.3889 43.46 31.8956 43.6933 31.5089 44.16C31.1222 44.6133 30.9289 45.1933 30.9289 45.9V52H28.6289ZM46.2875 52V41.6H48.0075L48.4275 43.08C48.7075 42.5867 49.0942 42.1867 49.5875 41.88C50.0808 41.56 50.6742 41.4 51.3675 41.4C52.0608 41.4 52.6808 41.5667 53.2275 41.9C53.7742 42.2333 54.1808 42.6933 54.4475 43.28C54.7008 42.76 55.1008 42.32 55.6475 41.96C56.2075 41.5867 56.8675 41.4 57.6275 41.4C58.3475 41.4 58.9875 41.5867 59.5475 41.96C60.1208 42.32 60.5608 42.8267 60.8675 43.48C61.1875 44.12 61.3475 44.8533 61.3475 45.68V52H59.0475V45.9C59.0475 45.18 58.8608 44.5933 58.4875 44.14C58.1142 43.6867 57.6275 43.46 57.0275 43.46C56.4275 43.46 55.9342 43.6933 55.5475 44.16C55.1608 44.6133 54.9675 45.1933 54.9675 45.9V52H52.6675V45.9C52.6675 45.18 52.4808 44.5933 52.1075 44.14C51.7342 43.6867 51.2475 43.46 50.6475 43.46C50.0475 43.46 49.5542 43.6933 49.1675 44.16C48.7808 44.6133 48.5875 45.1933 48.5875 45.9V52H46.2875ZM74.1461 46.68C74.1461 46.88 74.1328 47.1267 74.1061 47.42H65.7461C65.8528 48.2333 66.1861 48.8867 66.7461 49.38C67.3061 49.86 68.0194 50.1 68.8861 50.1C69.4728 50.1 69.9994 49.9867 70.4661 49.76C70.9461 49.5333 71.3128 49.2267 71.5661 48.84L73.7261 49.2C73.3528 50.16 72.7061 50.9 71.7861 51.42C70.8794 51.94 69.8661 52.2 68.7461 52.2C67.7061 52.2 66.7728 51.9733 65.9461 51.52C65.1328 51.0533 64.4928 50.4133 64.0261 49.6C63.5728 48.7733 63.3461 47.84 63.3461 46.8C63.3461 45.76 63.5728 44.8333 64.0261 44.02C64.4928 43.1933 65.1328 42.5533 65.9461 42.1C66.7728 41.6333 67.7061 41.4 68.7461 41.4C69.7861 41.4 70.7128 41.6333 71.5261 42.1C72.3528 42.5533 72.9928 43.1867 73.4461 44C73.9128 44.8 74.1461 45.6933 74.1461 46.68ZM68.7461 43.4C68.0528 43.4 67.4461 43.6 66.9261 44C66.4194 44.4 66.0728 44.94 65.8861 45.62H71.6461C71.4461 44.9533 71.0861 44.42 70.5661 44.02C70.0594 43.6067 69.4528 43.4 68.7461 43.4ZM76.0383 52V41.6H77.7583L78.1983 43.1C78.5316 42.5533 78.9249 42.1667 79.3783 41.94C79.8449 41.7133 80.4049 41.6 81.0583 41.6H81.4983L81.6983 43.8H80.3783C79.0183 43.8 78.3383 44.4867 78.3383 45.86V52H76.0383ZM87.7356 52.2C86.6956 52.2 85.7623 51.9733 84.9356 51.52C84.109 51.0533 83.4623 50.4133 82.9956 49.6C82.5423 48.7733 82.3156 47.84 82.3156 46.8C82.3156 45.76 82.5423 44.8333 82.9956 44.02C83.4623 43.1933 84.109 42.5533 84.9356 42.1C85.7623 41.6333 86.6956 41.4 87.7356 41.4C88.8823 41.4 89.8956 41.6867 90.7756 42.26C91.669 42.82 92.3023 43.62 92.6756 44.66L90.5156 45.02C90.289 44.5667 89.9356 44.2 89.4556 43.92C88.989 43.64 88.4623 43.5 87.8756 43.5C86.9423 43.5 86.1823 43.8067 85.5956 44.42C85.009 45.0333 84.7156 45.8267 84.7156 46.8C84.7156 47.7733 85.009 48.5667 85.5956 49.18C86.1823 49.7933 86.9423 50.1 87.8756 50.1C88.489 50.1 89.0356 49.96 89.5156 49.68C89.9956 49.3867 90.3556 49.0067 90.5956 48.54L92.7556 48.9C92.3823 49.9533 91.7356 50.7667 90.8156 51.34C89.8956 51.9133 88.869 52.2 87.7356 52.2ZM104.661 46.68C104.661 46.88 104.648 47.1267 104.621 47.42H96.2609C96.3676 48.2333 96.7009 48.8867 97.2609 49.38C97.8209 49.86 98.5343 50.1 99.4009 50.1C99.9876 50.1 100.514 49.9867 100.981 49.76C101.461 49.5333 101.828 49.2267 102.081 48.84L104.241 49.2C103.868 50.16 103.221 50.9 102.301 51.42C101.394 51.94 100.381 52.2 99.2609 52.2C98.2209 52.2 97.2876 51.9733 96.4609 51.52C95.6476 51.0533 95.0076 50.4133 94.5409 49.6C94.0876 48.7733 93.8609 47.84 93.8609 46.8C93.8609 45.76 94.0876 44.8333 94.5409 44.02C95.0076 43.1933 95.6476 42.5533 96.4609 42.1C97.2876 41.6333 98.2209 41.4 99.2609 41.4C100.301 41.4 101.228 41.6333 102.041 42.1C102.868 42.5533 103.508 43.1867 103.961 44C104.428 44.8 104.661 45.6933 104.661 46.68ZM99.2609 43.4C98.5676 43.4 97.9609 43.6 97.4409 44C96.9343 44.4 96.5876 44.94 96.4009 45.62H102.161C101.961 44.9533 101.601 44.42 101.081 44.02C100.574 43.6067 99.9676 43.4 99.2609 43.4Z" fill="black"/>
</svg>
