<svg width="175" height="64" viewBox="0 0 175 64" fill="none" xmlns="http://www.w3.org/2000/svg">
<path d="M7.4 52H5V40.1H0.2V37.9H12.2V40.1H7.4V52ZM12.6109 52V41.6H14.3309L14.7709 43.1C15.1043 42.5533 15.4976 42.1667 15.9509 41.94C16.4176 41.7133 16.9776 41.6 17.6309 41.6H18.0709L18.2709 43.8H16.9509C15.5909 43.8 14.9109 44.4867 14.9109 45.86V52H12.6109ZM23.7283 41.4C25.0616 41.4 26.1083 41.82 26.8683 42.66C27.6416 43.4867 28.0283 44.6533 28.0283 46.16V52H26.3283L25.8483 50.36C25.5549 50.8533 25.1216 51.2867 24.5483 51.66C23.9749 52.02 23.2949 52.2 22.5083 52.2C21.8149 52.2 21.1883 52.06 20.6283 51.78C20.0816 51.5 19.6549 51.1067 19.3483 50.6C19.0416 50.0933 18.8883 49.52 18.8883 48.88C18.8883 47.8933 19.2749 47.1067 20.0483 46.52C20.8349 45.92 21.9749 45.62 23.4683 45.62H25.7083C25.6549 44.9267 25.4416 44.38 25.0683 43.98C24.7083 43.5667 24.2216 43.36 23.6083 43.36C23.1149 43.36 22.6883 43.48 22.3283 43.72C21.9683 43.96 21.7016 44.2533 21.5283 44.6L19.4083 44.24C19.6616 43.36 20.1816 42.6667 20.9683 42.16C21.7683 41.6533 22.6883 41.4 23.7283 41.4ZM23.0483 50.26C23.8483 50.26 24.4949 50 24.9883 49.48C25.4816 48.96 25.7283 48.2733 25.7283 47.42H23.5483C21.9883 47.42 21.2083 47.8733 21.2083 48.78C21.2083 49.2333 21.3749 49.5933 21.7083 49.86C22.0416 50.1267 22.4883 50.26 23.0483 50.26ZM30.6234 52V41.6H32.3434L32.8034 43.16C33.1368 42.6133 33.5768 42.1867 34.1234 41.88C34.6834 41.56 35.2834 41.4 35.9234 41.4C36.6701 41.4 37.3434 41.5867 37.9434 41.96C38.5434 42.3333 39.0168 42.8467 39.3634 43.5C39.7101 44.1533 39.8834 44.8933 39.8834 45.72V52H37.5834V45.98C37.5834 45.2333 37.3701 44.6267 36.9434 44.16C36.5168 43.6933 35.9701 43.46 35.3034 43.46C34.6101 43.46 34.0368 43.7 33.5834 44.18C33.1434 44.6467 32.9234 45.2467 32.9234 45.98V52H30.6234ZM46.2213 52.2C45.0479 52.2 44.0679 51.9267 43.2813 51.38C42.5079 50.82 42.0079 50.0533 41.7813 49.08L44.0013 48.7C44.1746 49.1933 44.4679 49.5733 44.8813 49.84C45.3079 50.1067 45.8146 50.24 46.4013 50.24C46.9079 50.24 47.3346 50.1467 47.6813 49.96C48.0279 49.7733 48.2013 49.4867 48.2013 49.1C48.2013 48.74 48.0213 48.4667 47.6613 48.28C47.3013 48.08 46.7479 47.88 46.0013 47.68C45.2546 47.4667 44.6346 47.2533 44.1413 47.04C43.6479 46.8267 43.2213 46.5133 42.8613 46.1C42.5146 45.6867 42.3413 45.14 42.3413 44.46C42.3413 43.4733 42.7213 42.72 43.4813 42.2C44.2413 41.6667 45.1879 41.4 46.3213 41.4C47.3479 41.4 48.2346 41.6667 48.9813 42.2C49.7279 42.72 50.2479 43.44 50.5413 44.36L48.4013 44.72C48.2146 44.28 47.9413 43.9467 47.5813 43.72C47.2346 43.48 46.8213 43.36 46.3413 43.36C45.8879 43.36 45.5013 43.4533 45.1813 43.64C44.8746 43.8267 44.7213 44.08 44.7213 44.4C44.7213 44.7733 44.9079 45.0667 45.2813 45.28C45.6546 45.48 46.2279 45.6867 47.0013 45.9C47.7213 46.1 48.3213 46.3133 48.8013 46.54C49.2946 46.7533 49.7079 47.0667 50.0413 47.48C50.3879 47.88 50.5613 48.4 50.5613 49.04C50.5613 49.6267 50.4013 50.16 50.0813 50.64C49.7613 51.1067 49.2746 51.4867 48.6213 51.78C47.9813 52.06 47.1813 52.2 46.2213 52.2ZM52.757 56.1V41.6H54.477L54.957 43.28C55.3837 42.76 55.9304 42.32 56.597 41.96C57.2637 41.5867 58.0304 41.4 58.897 41.4C59.8704 41.4 60.7437 41.6333 61.517 42.1C62.2904 42.5533 62.8904 43.1933 63.317 44.02C63.757 44.8333 63.977 45.76 63.977 46.8C63.977 47.84 63.757 48.7733 63.317 49.6C62.8904 50.4133 62.2904 51.0533 61.517 51.52C60.7437 51.9733 59.8704 52.2 58.897 52.2C58.057 52.2 57.3104 52.0333 56.657 51.7C56.0037 51.3533 55.4704 50.9267 55.057 50.42V56.1H52.757ZM58.337 50.14C59.297 50.14 60.077 49.8333 60.677 49.22C61.277 48.5933 61.577 47.7867 61.577 46.8C61.577 45.8133 61.277 45.0133 60.677 44.4C60.077 43.7733 59.297 43.46 58.337 43.46C57.3637 43.46 56.5704 43.7733 55.957 44.4C55.357 45.0133 55.057 45.8133 55.057 46.8C55.057 47.7867 55.357 48.5933 55.957 49.22C56.5704 49.8333 57.3637 50.14 58.337 50.14ZM71.0397 52.2C69.973 52.2 69.013 51.9733 68.1597 51.52C67.3197 51.0533 66.6597 50.4133 66.1797 49.6C65.713 48.7733 65.4797 47.84 65.4797 46.8C65.4797 45.76 65.713 44.8333 66.1797 44.02C66.6597 43.1933 67.3197 42.5533 68.1597 42.1C69.013 41.6333 69.973 41.4 71.0397 41.4C72.1064 41.4 73.0597 41.6333 73.8997 42.1C74.753 42.5533 75.413 43.1933 75.8797 44.02C76.3597 44.8333 76.5997 45.76 76.5997 46.8C76.5997 47.84 76.3597 48.7733 75.8797 49.6C75.413 50.4133 74.753 51.0533 73.8997 51.52C73.0597 51.9733 72.1064 52.2 71.0397 52.2ZM71.0397 50.1C71.973 50.1 72.733 49.8 73.3197 49.2C73.9064 48.5867 74.1997 47.7867 74.1997 46.8C74.1997 45.8133 73.9064 45.02 73.3197 44.42C72.733 43.8067 71.973 43.5 71.0397 43.5C70.1064 43.5 69.3464 43.8067 68.7597 44.42C68.173 45.02 67.8797 45.8133 67.8797 46.8C67.8797 47.7867 68.173 48.5867 68.7597 49.2C69.3464 49.8 70.1064 50.1 71.0397 50.1ZM78.6992 52V41.6H80.4192L80.8592 43.1C81.1925 42.5533 81.5859 42.1667 82.0392 41.94C82.5059 41.7133 83.0659 41.6 83.7192 41.6H84.1592L84.3592 43.8H83.0392C81.6792 43.8 80.9992 44.4867 80.9992 45.86V52H78.6992ZM92.5578 50L92.3578 52H90.4178C89.2845 52 88.4245 51.7333 87.8378 51.2C87.2511 50.6533 86.9578 49.8667 86.9578 48.84V43.6H85.2578V41.6H86.9578L87.5378 38.6H89.2578V41.6H92.3578V43.6H89.2578V48.84C89.2578 49.6133 89.6445 50 90.4178 50H92.5578ZM112.45 51.98H109.41L107.57 50.12C106.77 50.8267 106.004 51.3467 105.27 51.68C104.537 52.0133 103.804 52.18 103.07 52.18C102.297 52.18 101.597 52.02 100.97 51.7C100.344 51.38 99.8503 50.94 99.4903 50.38C99.1436 49.8067 98.9703 49.16 98.9703 48.44C98.9703 47.7467 99.1836 47.1067 99.6103 46.52C100.037 45.92 100.817 45.2867 101.95 44.62L102.05 44.56L102.03 44.54C101.417 43.9267 100.97 43.3733 100.69 42.88C100.424 42.3733 100.29 41.8333 100.29 41.26C100.29 40.6067 100.45 40.0133 100.77 39.48C101.104 38.9467 101.557 38.5333 102.13 38.24C102.717 37.9333 103.377 37.78 104.11 37.78C104.83 37.78 105.477 37.9267 106.05 38.22C106.624 38.5133 107.07 38.92 107.39 39.44C107.724 39.96 107.89 40.5467 107.89 41.2C107.89 41.7867 107.704 42.3533 107.33 42.9C106.97 43.4333 106.297 44.0133 105.31 44.64L105.19 44.72L107.69 47.2C108.01 46.8267 108.61 46.0867 109.49 44.98H112.07C110.99 46.42 109.997 47.6333 109.09 48.62L112.45 51.98ZM104.09 39.68C103.597 39.68 103.19 39.82 102.87 40.1C102.55 40.38 102.39 40.74 102.39 41.18C102.39 41.4867 102.477 41.7733 102.65 42.04C102.824 42.2933 103.124 42.6333 103.55 43.06L103.93 43.44C104.57 43.04 105.037 42.6733 105.33 42.34C105.637 42.0067 105.79 41.6333 105.79 41.22C105.79 40.7667 105.63 40.4 105.31 40.12C104.99 39.8267 104.584 39.68 104.09 39.68ZM103.43 50.08C103.884 50.08 104.33 49.98 104.77 49.78C105.21 49.5667 105.69 49.22 106.21 48.74L103.35 45.88L103.19 45.98C102.51 46.4067 102.03 46.8133 101.75 47.2C101.47 47.5867 101.33 47.9667 101.33 48.34C101.33 48.8467 101.524 49.2667 101.91 49.6C102.31 49.92 102.817 50.08 103.43 50.08ZM124.557 52H122.157V40.1H117.357V37.9H129.357V40.1H124.557V52ZM129.768 52V41.6H131.488L131.928 43.1C132.261 42.5533 132.655 42.1667 133.108 41.94C133.575 41.7133 134.135 41.6 134.788 41.6H135.228L135.428 43.8H134.108C132.748 43.8 132.068 44.4867 132.068 45.86V52H129.768ZM140.885 41.4C142.219 41.4 143.265 41.82 144.025 42.66C144.799 43.4867 145.185 44.6533 145.185 46.16V52H143.485L143.005 50.36C142.712 50.8533 142.279 51.2867 141.705 51.66C141.132 52.02 140.452 52.2 139.665 52.2C138.972 52.2 138.345 52.06 137.785 51.78C137.239 51.5 136.812 51.1067 136.505 50.6C136.199 50.0933 136.045 49.52 136.045 48.88C136.045 47.8933 136.432 47.1067 137.205 46.52C137.992 45.92 139.132 45.62 140.625 45.62H142.865C142.812 44.9267 142.599 44.38 142.225 43.98C141.865 43.5667 141.379 43.36 140.765 43.36C140.272 43.36 139.845 43.48 139.485 43.72C139.125 43.96 138.859 44.2533 138.685 44.6L136.565 44.24C136.819 43.36 137.339 42.6667 138.125 42.16C138.925 41.6533 139.845 41.4 140.885 41.4ZM140.205 50.26C141.005 50.26 141.652 50 142.145 49.48C142.639 48.96 142.885 48.2733 142.885 47.42H140.705C139.145 47.42 138.365 47.8733 138.365 48.78C138.365 49.2333 138.532 49.5933 138.865 49.86C139.199 50.1267 139.645 50.26 140.205 50.26ZM153.25 52H150.09L146.29 41.6H148.73L151.51 49.48H151.91L154.77 41.6H157.13L153.25 52ZM168.53 46.68C168.53 46.88 168.516 47.1267 168.49 47.42H160.13C160.236 48.2333 160.57 48.8867 161.13 49.38C161.69 49.86 162.403 50.1 163.27 50.1C163.856 50.1 164.383 49.9867 164.85 49.76C165.33 49.5333 165.696 49.2267 165.95 48.84L168.11 49.2C167.736 50.16 167.09 50.9 166.17 51.42C165.263 51.94 164.25 52.2 163.13 52.2C162.09 52.2 161.156 51.9733 160.33 51.52C159.516 51.0533 158.876 50.4133 158.41 49.6C157.956 48.7733 157.73 47.84 157.73 46.8C157.73 45.76 157.956 44.8333 158.41 44.02C158.876 43.1933 159.516 42.5533 160.33 42.1C161.156 41.6333 162.09 41.4 163.13 41.4C164.17 41.4 165.096 41.6333 165.91 42.1C166.736 42.5533 167.376 43.1867 167.83 44C168.296 44.8 168.53 45.6933 168.53 46.68ZM163.13 43.4C162.436 43.4 161.83 43.6 161.31 44C160.803 44.4 160.456 44.94 160.27 45.62H166.03C165.83 44.9533 165.47 44.42 164.95 44.02C164.443 43.6067 163.836 43.4 163.13 43.4ZM172.822 52H170.522V37.9H172.822V52Z" fill="black"/>
</svg>
