<svg width="46" height="64" viewBox="0 0 46 64" fill="none" xmlns="http://www.w3.org/2000/svg">
<path d="M1.5 52V37.9H6.88C8.29333 37.9 9.55333 38.2 10.66 38.8C11.7667 39.4 12.6333 40.2333 13.26 41.3C13.8867 42.3667 14.2 43.58 14.2 44.94C14.2 46.3 13.8867 47.52 13.26 48.6C12.6333 49.6667 11.7667 50.5 10.66 51.1C9.55333 51.7 8.29333 52 6.88 52H1.5ZM6.88 49.8C7.82667 49.8 8.66 49.6 9.38 49.2C10.1133 48.7867 10.68 48.2133 11.08 47.48C11.4933 46.7333 11.7 45.8867 11.7 44.94C11.7 43.9933 11.4933 43.1533 11.08 42.42C10.68 41.6867 10.1133 41.12 9.38 40.72C8.66 40.3067 7.82667 40.1 6.88 40.1H3.9V49.8H6.88ZM20.64 41.4C21.9733 41.4 23.02 41.82 23.78 42.66C24.5533 43.4867 24.94 44.6533 24.94 46.16V52H23.24L22.76 50.36C22.4667 50.8533 22.0333 51.2867 21.46 51.66C20.8867 52.02 20.2067 52.2 19.42 52.2C18.7267 52.2 18.1 52.06 17.54 51.78C16.9933 51.5 16.5667 51.1067 16.26 50.6C15.9533 50.0933 15.8 49.52 15.8 48.88C15.8 47.8933 16.1867 47.1067 16.96 46.52C17.7467 45.92 18.8867 45.62 20.38 45.62H22.62C22.5667 44.9267 22.3533 44.38 21.98 43.98C21.62 43.5667 21.1333 43.36 20.52 43.36C20.0267 43.36 19.6 43.48 19.24 43.72C18.88 43.96 18.6133 44.2533 18.44 44.6L16.32 44.24C16.5733 43.36 17.0933 42.6667 17.88 42.16C18.68 41.6533 19.6 41.4 20.64 41.4ZM19.96 50.26C20.76 50.26 21.4067 50 21.9 49.48C22.3933 48.96 22.64 48.2733 22.64 47.42H20.46C18.9 47.42 18.12 47.8733 18.12 48.78C18.12 49.2333 18.2867 49.5933 18.62 49.86C18.9533 50.1267 19.4 50.26 19.96 50.26ZM33.7352 50L33.5352 52H31.5952C30.4618 52 29.6018 51.7333 29.0152 51.2C28.4285 50.6533 28.1352 49.8667 28.1352 48.84V43.6H26.4352V41.6H28.1352L28.7152 38.6H30.4352V41.6H33.5352V43.6H30.4352V48.84C30.4352 49.6133 30.8218 50 31.5952 50H33.7352ZM39.883 41.4C41.2163 41.4 42.263 41.82 43.023 42.66C43.7963 43.4867 44.183 44.6533 44.183 46.16V52H42.483L42.003 50.36C41.7096 50.8533 41.2763 51.2867 40.703 51.66C40.1296 52.02 39.4496 52.2 38.663 52.2C37.9696 52.2 37.343 52.06 36.783 51.78C36.2363 51.5 35.8096 51.1067 35.503 50.6C35.1963 50.0933 35.043 49.52 35.043 48.88C35.043 47.8933 35.4296 47.1067 36.203 46.52C36.9896 45.92 38.1296 45.62 39.623 45.62H41.863C41.8096 44.9267 41.5963 44.38 41.223 43.98C40.863 43.5667 40.3763 43.36 39.763 43.36C39.2696 43.36 38.843 43.48 38.483 43.72C38.123 43.96 37.8563 44.2533 37.683 44.6L35.563 44.24C35.8163 43.36 36.3363 42.6667 37.123 42.16C37.923 41.6533 38.843 41.4 39.883 41.4ZM39.203 50.26C40.003 50.26 40.6496 50 41.143 49.48C41.6363 48.96 41.883 48.2733 41.883 47.42H39.703C38.143 47.42 37.363 47.8733 37.363 48.78C37.363 49.2333 37.5296 49.5933 37.863 49.86C38.1963 50.1267 38.643 50.26 39.203 50.26Z" fill="black"/>
</svg>
