<svg width="53" height="64" viewBox="0 0 53 64" fill="none" xmlns="http://www.w3.org/2000/svg">
<path d="M6.04 52.2C4.73333 52.2 3.58 51.8533 2.58 51.16C1.59333 50.4533 0.933333 49.5067 0.6 48.32L2.92 47.92C3.30667 48.6267 3.74 49.1533 4.22 49.5C4.7 49.8333 5.31333 50 6.06 50C6.75333 50 7.32 49.8467 7.76 49.54C8.21333 49.22 8.44 48.7867 8.44 48.24C8.44 47.84 8.31333 47.5067 8.06 47.24C7.80667 46.96 7.48667 46.7333 7.1 46.56C6.71333 46.3867 6.2 46.1933 5.56 45.98C4.66667 45.6867 3.93333 45.4 3.36 45.12C2.78667 44.8267 2.29333 44.4067 1.88 43.86C1.48 43.3 1.28 42.58 1.28 41.7C1.28 40.8867 1.48 40.18 1.88 39.58C2.29333 38.9667 2.84667 38.5 3.54 38.18C4.23333 37.86 5.01333 37.7 5.88 37.7C7.10667 37.7 8.16 38.02 9.04 38.66C9.92 39.3 10.54 40.18 10.9 41.3L8.62 41.68C8.36667 41.1067 8.01333 40.6667 7.56 40.36C7.10667 40.0533 6.57333 39.9 5.96 39.9C5.33333 39.9 4.80667 40.0467 4.38 40.34C3.95333 40.6333 3.74 41.0467 3.74 41.58C3.74 41.98 3.86 42.3133 4.1 42.58C4.35333 42.8467 4.67333 43.0667 5.06 43.24C5.44667 43.4133 5.96667 43.6133 6.62 43.84C7.51333 44.1467 8.24667 44.4467 8.82 44.74C9.39333 45.0333 9.88 45.46 10.28 46.02C10.6933 46.58 10.9 47.2933 10.9 48.16C10.9 48.9733 10.68 49.6867 10.24 50.3C9.81333 50.9133 9.22667 51.3867 8.48 51.72C7.74667 52.04 6.93333 52.2 6.04 52.2ZM15.5969 52H13.2969V41.6H15.5969V52ZM14.4569 40.12C14.0302 40.12 13.6835 39.9933 13.4169 39.74C13.1502 39.4733 13.0169 39.1333 13.0169 38.72C13.0169 38.3067 13.1502 37.9667 13.4169 37.7C13.6969 37.4333 14.0435 37.3 14.4569 37.3C14.8702 37.3 15.2102 37.4333 15.4769 37.7C15.7435 37.9667 15.8769 38.3067 15.8769 38.72C15.8769 39.1333 15.7435 39.4733 15.4769 39.74C15.2102 39.9933 14.8702 40.12 14.4569 40.12ZM23.1345 56.1C21.9479 56.1 20.8945 55.8133 19.9745 55.24C19.0679 54.68 18.4279 53.9 18.0545 52.9L20.3145 52.52C20.6079 53 20.9945 53.3667 21.4745 53.62C21.9545 53.8733 22.5145 54 23.1545 54C24.0745 54 24.8345 53.74 25.4345 53.22C26.0345 52.7 26.3345 51.8867 26.3345 50.78V49.84C25.9345 50.36 25.4212 50.7733 24.7945 51.08C24.1812 51.3733 23.4812 51.52 22.6945 51.52C21.7479 51.52 20.9012 51.3067 20.1545 50.88C19.4212 50.44 18.8412 49.84 18.4145 49.08C18.0012 48.3067 17.7945 47.4333 17.7945 46.46C17.7945 45.4867 18.0012 44.62 18.4145 43.86C18.8412 43.0867 19.4212 42.4867 20.1545 42.06C20.9012 41.62 21.7479 41.4 22.6945 41.4C23.5345 41.4 24.2679 41.5667 24.8945 41.9C25.5345 42.22 26.0479 42.6667 26.4345 43.24L26.9145 41.6H28.6345V50.8C28.6345 51.9333 28.3879 52.9 27.8945 53.7C27.4012 54.5 26.7345 55.1 25.8945 55.5C25.0679 55.9 24.1479 56.1 23.1345 56.1ZM23.2545 49.46C24.1612 49.46 24.9012 49.1867 25.4745 48.64C26.0479 48.08 26.3345 47.3533 26.3345 46.46C26.3345 45.5667 26.0479 44.8467 25.4745 44.3C24.9012 43.74 24.1612 43.46 23.2545 43.46C22.3479 43.46 21.6079 43.74 21.0345 44.3C20.4745 44.8467 20.1945 45.5667 20.1945 46.46C20.1945 47.3533 20.4745 48.08 21.0345 48.64C21.6079 49.1867 22.3479 49.46 23.2545 49.46ZM31.3266 52V41.6H33.0466L33.5066 43.16C33.8399 42.6133 34.2799 42.1867 34.8266 41.88C35.3866 41.56 35.9866 41.4 36.6266 41.4C37.3732 41.4 38.0466 41.5867 38.6466 41.96C39.2466 42.3333 39.7199 42.8467 40.0666 43.5C40.4132 44.1533 40.5866 44.8933 40.5866 45.72V52H38.2866V45.98C38.2866 45.2333 38.0732 44.6267 37.6466 44.16C37.2199 43.6933 36.6732 43.46 36.0066 43.46C35.3132 43.46 34.7399 43.7 34.2866 44.18C33.8466 44.6467 33.6266 45.2467 33.6266 45.98V52H31.3266ZM46.9244 52.2C45.751 52.2 44.771 51.9267 43.9844 51.38C43.211 50.82 42.711 50.0533 42.4844 49.08L44.7044 48.7C44.8777 49.1933 45.171 49.5733 45.5844 49.84C46.011 50.1067 46.5177 50.24 47.1044 50.24C47.611 50.24 48.0377 50.1467 48.3844 49.96C48.731 49.7733 48.9044 49.4867 48.9044 49.1C48.9044 48.74 48.7244 48.4667 48.3644 48.28C48.0044 48.08 47.451 47.88 46.7044 47.68C45.9577 47.4667 45.3377 47.2533 44.8444 47.04C44.351 46.8267 43.9244 46.5133 43.5644 46.1C43.2177 45.6867 43.0444 45.14 43.0444 44.46C43.0444 43.4733 43.4244 42.72 44.1844 42.2C44.9444 41.6667 45.891 41.4 47.0244 41.4C48.051 41.4 48.9377 41.6667 49.6844 42.2C50.431 42.72 50.951 43.44 51.2444 44.36L49.1044 44.72C48.9177 44.28 48.6444 43.9467 48.2844 43.72C47.9377 43.48 47.5244 43.36 47.0444 43.36C46.591 43.36 46.2044 43.4533 45.8844 43.64C45.5777 43.8267 45.4244 44.08 45.4244 44.4C45.4244 44.7733 45.611 45.0667 45.9844 45.28C46.3577 45.48 46.931 45.6867 47.7044 45.9C48.4244 46.1 49.0244 46.3133 49.5044 46.54C49.9977 46.7533 50.411 47.0667 50.7444 47.48C51.091 47.88 51.2644 48.4 51.2644 49.04C51.2644 49.6267 51.1044 50.16 50.7844 50.64C50.4644 51.1067 49.9777 51.4867 49.3244 51.78C48.6844 52.06 47.8844 52.2 46.9244 52.2Z" fill="black"/>
</svg>
