<svg width="90" height="64" viewBox="0 0 90 64" fill="none" xmlns="http://www.w3.org/2000/svg">
<path d="M6.98 52.2C5.88667 52.2 4.90667 51.96 4.04 51.48C3.18667 50.9867 2.51333 50.3 2.02 49.42C1.54 48.54 1.3 47.5467 1.3 46.44V37.9H3.7V46.44C3.7 47.4933 4 48.3533 4.6 49.02C5.21333 49.6733 6.00667 50 6.98 50C7.96667 50 8.76667 49.6733 9.38 49.02C9.99333 48.3533 10.3 47.4933 10.3 46.44V37.9H12.7V46.44C12.7 47.5467 12.4533 48.54 11.96 49.42C11.48 50.3 10.8067 50.9867 9.94 51.48C9.07333 51.96 8.08667 52.2 6.98 52.2ZM15.4039 52V41.6H17.1239L17.5839 43.16C17.9172 42.6133 18.3572 42.1867 18.9039 41.88C19.4639 41.56 20.0639 41.4 20.7039 41.4C21.4506 41.4 22.1239 41.5867 22.7239 41.96C23.3239 42.3333 23.7972 42.8467 24.1439 43.5C24.4906 44.1533 24.6639 44.8933 24.6639 45.72V52H22.3639V45.98C22.3639 45.2333 22.1506 44.6267 21.7239 44.16C21.2972 43.6933 20.7506 43.46 20.0839 43.46C19.3906 43.46 18.8172 43.7 18.3639 44.18C17.9239 44.6467 17.7039 45.2467 17.7039 45.98V52H15.4039ZM31.0017 52.2C29.8284 52.2 28.8484 51.9267 28.0617 51.38C27.2884 50.82 26.7884 50.0533 26.5617 49.08L28.7817 48.7C28.9551 49.1933 29.2484 49.5733 29.6617 49.84C30.0884 50.1067 30.5951 50.24 31.1817 50.24C31.6884 50.24 32.1151 50.1467 32.4617 49.96C32.8084 49.7733 32.9817 49.4867 32.9817 49.1C32.9817 48.74 32.8017 48.4667 32.4417 48.28C32.0817 48.08 31.5284 47.88 30.7817 47.68C30.0351 47.4667 29.4151 47.2533 28.9217 47.04C28.4284 46.8267 28.0017 46.5133 27.6417 46.1C27.2951 45.6867 27.1217 45.14 27.1217 44.46C27.1217 43.4733 27.5017 42.72 28.2617 42.2C29.0217 41.6667 29.9684 41.4 31.1017 41.4C32.1284 41.4 33.0151 41.6667 33.7617 42.2C34.5084 42.72 35.0284 43.44 35.3217 44.36L33.1817 44.72C32.9951 44.28 32.7217 43.9467 32.3617 43.72C32.0151 43.48 31.6017 43.36 31.1217 43.36C30.6684 43.36 30.2817 43.4533 29.9617 43.64C29.6551 43.8267 29.5017 44.08 29.5017 44.4C29.5017 44.7733 29.6884 45.0667 30.0617 45.28C30.4351 45.48 31.0084 45.6867 31.7817 45.9C32.5017 46.1 33.1017 46.3133 33.5817 46.54C34.0751 46.7533 34.4884 47.0667 34.8217 47.48C35.1684 47.88 35.3417 48.4 35.3417 49.04C35.3417 49.6267 35.1817 50.16 34.8617 50.64C34.5417 51.1067 34.0551 51.4867 33.4017 51.78C32.7617 52.06 31.9617 52.2 31.0017 52.2ZM42.4975 52.2C41.4308 52.2 40.4708 51.9733 39.6175 51.52C38.7775 51.0533 38.1175 50.4133 37.6375 49.6C37.1708 48.7733 36.9375 47.84 36.9375 46.8C36.9375 45.76 37.1708 44.8333 37.6375 44.02C38.1175 43.1933 38.7775 42.5533 39.6175 42.1C40.4708 41.6333 41.4308 41.4 42.4975 41.4C43.5642 41.4 44.5175 41.6333 45.3575 42.1C46.2108 42.5533 46.8708 43.1933 47.3375 44.02C47.8175 44.8333 48.0575 45.76 48.0575 46.8C48.0575 47.84 47.8175 48.7733 47.3375 49.6C46.8708 50.4133 46.2108 51.0533 45.3575 51.52C44.5175 51.9733 43.5642 52.2 42.4975 52.2ZM42.4975 50.1C43.4308 50.1 44.1908 49.8 44.7775 49.2C45.3642 48.5867 45.6575 47.7867 45.6575 46.8C45.6575 45.8133 45.3642 45.02 44.7775 44.42C44.1908 43.8067 43.4308 43.5 42.4975 43.5C41.5642 43.5 40.8042 43.8067 40.2175 44.42C39.6308 45.02 39.3375 45.8133 39.3375 46.8C39.3375 47.7867 39.6308 48.5867 40.2175 49.2C40.8042 49.8 41.5642 50.1 42.4975 50.1ZM50.157 52V41.6H51.877L52.317 43.1C52.6504 42.5533 53.0437 42.1667 53.497 41.94C53.9637 41.7133 54.5237 41.6 55.177 41.6H55.617L55.817 43.8H54.497C53.137 43.8 52.457 44.4867 52.457 45.86V52H50.157ZM64.0156 50L63.8156 52H61.8756C60.7423 52 59.8823 51.7333 59.2956 51.2C58.709 50.6533 58.4156 49.8667 58.4156 48.84V43.6H56.7156V41.6H58.4156L58.9956 38.6H60.7156V41.6H63.8156V43.6H60.7156V48.84C60.7156 49.6133 61.1023 50 61.8756 50H64.0156ZM75.9281 46.68C75.9281 46.88 75.9148 47.1267 75.8881 47.42H67.5281C67.6348 48.2333 67.9681 48.8867 68.5281 49.38C69.0881 49.86 69.8015 50.1 70.6681 50.1C71.2548 50.1 71.7815 49.9867 72.2481 49.76C72.7281 49.5333 73.0948 49.2267 73.3481 48.84L75.5081 49.2C75.1348 50.16 74.4881 50.9 73.5681 51.42C72.6615 51.94 71.6481 52.2 70.5281 52.2C69.4881 52.2 68.5548 51.9733 67.7281 51.52C66.9148 51.0533 66.2748 50.4133 65.8081 49.6C65.3548 48.7733 65.1281 47.84 65.1281 46.8C65.1281 45.76 65.3548 44.8333 65.8081 44.02C66.2748 43.1933 66.9148 42.5533 67.7281 42.1C68.5548 41.6333 69.4881 41.4 70.5281 41.4C71.5681 41.4 72.4948 41.6333 73.3081 42.1C74.1348 42.5533 74.7748 43.1867 75.2281 44C75.6948 44.8 75.9281 45.6933 75.9281 46.68ZM70.5281 43.4C69.8348 43.4 69.2281 43.6 68.7081 44C68.2015 44.4 67.8548 44.94 67.6681 45.62H73.4281C73.2281 44.9533 72.8681 44.42 72.3481 44.02C71.8415 43.6067 71.2348 43.4 70.5281 43.4ZM82.3003 52.2C81.327 52.2 80.4536 51.9733 79.6803 51.52C78.907 51.0533 78.3003 50.4133 77.8603 49.6C77.4336 48.7733 77.2203 47.84 77.2203 46.8C77.2203 45.76 77.4336 44.8333 77.8603 44.02C78.3003 43.1933 78.907 42.5533 79.6803 42.1C80.4536 41.6333 81.327 41.4 82.3003 41.4C83.1403 41.4 83.887 41.5733 84.5403 41.92C85.1936 42.2533 85.727 42.6733 86.1403 43.18V37.9H88.4403V52H86.7203L86.2403 50.32C85.8136 50.84 85.267 51.2867 84.6003 51.66C83.9336 52.02 83.167 52.2 82.3003 52.2ZM82.8603 50.14C83.8336 50.14 84.6203 49.8333 85.2203 49.22C85.8336 48.5933 86.1403 47.7867 86.1403 46.8C86.1403 45.8133 85.8336 45.0133 85.2203 44.4C84.6203 43.7733 83.8336 43.46 82.8603 43.46C81.9003 43.46 81.1203 43.7733 80.5203 44.4C79.9203 45.0133 79.6203 45.8133 79.6203 46.8C79.6203 47.7867 79.9203 48.5933 80.5203 49.22C81.1203 49.8333 81.9003 50.14 82.8603 50.14Z" fill="black"/>
</svg>
