<svg width="224" height="64" viewBox="0 0 224 64" fill="none" xmlns="http://www.w3.org/2000/svg">
<path d="M7.74 52.2C6.40667 52.2 5.21333 51.8933 4.16 51.28C3.10667 50.6533 2.28 49.7933 1.68 48.7C1.09333 47.5933 0.8 46.34 0.8 44.94C0.8 43.5533 1.09333 42.3133 1.68 41.22C2.28 40.1133 3.10667 39.2533 4.16 38.64C5.21333 38.0133 6.40667 37.7 7.74 37.7C9.19333 37.7 10.48 38.0667 11.6 38.8C12.72 39.52 13.52 40.5133 14 41.78L11.62 42.18C11.2867 41.46 10.78 40.9 10.1 40.5C9.43333 40.1 8.67333 39.9 7.82 39.9C6.94 39.9 6.15333 40.1133 5.46 40.54C4.78 40.9667 4.24667 41.56 3.86 42.32C3.48667 43.08 3.3 43.9533 3.3 44.94C3.3 45.9267 3.48667 46.8067 3.86 47.58C4.24667 48.34 4.78 48.9333 5.46 49.36C6.15333 49.7867 6.94 50 7.82 50C8.68667 50 9.46667 49.7933 10.16 49.38C10.8533 48.9533 11.3733 48.3667 11.72 47.62L14.1 48.02C13.5933 49.3 12.7667 50.32 11.62 51.08C10.4867 51.8267 9.19333 52.2 7.74 52.2ZM20.9694 52.2C19.9027 52.2 18.9427 51.9733 18.0894 51.52C17.2494 51.0533 16.5894 50.4133 16.1094 49.6C15.6427 48.7733 15.4094 47.84 15.4094 46.8C15.4094 45.76 15.6427 44.8333 16.1094 44.02C16.5894 43.1933 17.2494 42.5533 18.0894 42.1C18.9427 41.6333 19.9027 41.4 20.9694 41.4C22.036 41.4 22.9894 41.6333 23.8294 42.1C24.6827 42.5533 25.3427 43.1933 25.8094 44.02C26.2894 44.8333 26.5294 45.76 26.5294 46.8C26.5294 47.84 26.2894 48.7733 25.8094 49.6C25.3427 50.4133 24.6827 51.0533 23.8294 51.52C22.9894 51.9733 22.036 52.2 20.9694 52.2ZM20.9694 50.1C21.9027 50.1 22.6627 49.8 23.2494 49.2C23.836 48.5867 24.1294 47.7867 24.1294 46.8C24.1294 45.8133 23.836 45.02 23.2494 44.42C22.6627 43.8067 21.9027 43.5 20.9694 43.5C20.036 43.5 19.276 43.8067 18.6894 44.42C18.1027 45.02 17.8094 45.8133 17.8094 46.8C17.8094 47.7867 18.1027 48.5867 18.6894 49.2C19.276 49.8 20.036 50.1 20.9694 50.1ZM28.6289 52V41.6H30.3489L30.7689 43.08C31.0489 42.5867 31.4356 42.1867 31.9289 41.88C32.4222 41.56 33.0156 41.4 33.7089 41.4C34.4022 41.4 35.0222 41.5667 35.5689 41.9C36.1156 42.2333 36.5222 42.6933 36.7889 43.28C37.0422 42.76 37.4422 42.32 37.9889 41.96C38.5489 41.5867 39.2089 41.4 39.9689 41.4C40.6889 41.4 41.3289 41.5867 41.8889 41.96C42.4622 42.32 42.9022 42.8267 43.2089 43.48C43.5289 44.12 43.6889 44.8533 43.6889 45.68V52H41.3889V45.9C41.3889 45.18 41.2022 44.5933 40.8289 44.14C40.4556 43.6867 39.9689 43.46 39.3689 43.46C38.7689 43.46 38.2756 43.6933 37.8889 44.16C37.5022 44.6133 37.3089 45.1933 37.3089 45.9V52H35.0089V45.9C35.0089 45.18 34.8222 44.5933 34.4489 44.14C34.0756 43.6867 33.5889 43.46 32.9889 43.46C32.3889 43.46 31.8956 43.6933 31.5089 44.16C31.1222 44.6133 30.9289 45.1933 30.9289 45.9V52H28.6289ZM46.2875 52V41.6H48.0075L48.4275 43.08C48.7075 42.5867 49.0942 42.1867 49.5875 41.88C50.0808 41.56 50.6742 41.4 51.3675 41.4C52.0608 41.4 52.6808 41.5667 53.2275 41.9C53.7742 42.2333 54.1808 42.6933 54.4475 43.28C54.7008 42.76 55.1008 42.32 55.6475 41.96C56.2075 41.5867 56.8675 41.4 57.6275 41.4C58.3475 41.4 58.9875 41.5867 59.5475 41.96C60.1208 42.32 60.5608 42.8267 60.8675 43.48C61.1875 44.12 61.3475 44.8533 61.3475 45.68V52H59.0475V45.9C59.0475 45.18 58.8608 44.5933 58.4875 44.14C58.1142 43.6867 57.6275 43.46 57.0275 43.46C56.4275 43.46 55.9342 43.6933 55.5475 44.16C55.1608 44.6133 54.9675 45.1933 54.9675 45.9V52H52.6675V45.9C52.6675 45.18 52.4808 44.5933 52.1075 44.14C51.7342 43.6867 51.2475 43.46 50.6475 43.46C50.0475 43.46 49.5542 43.6933 49.1675 44.16C48.7808 44.6133 48.5875 45.1933 48.5875 45.9V52H46.2875ZM67.7461 52.2C67.0128 52.2 66.3461 52.0133 65.7461 51.64C65.1594 51.2667 64.6928 50.7533 64.3461 50.1C64.0128 49.4467 63.8461 48.7067 63.8461 47.88V41.6H66.1461V47.62C66.1461 48.3667 66.3528 48.9733 66.7661 49.44C67.1928 49.9067 67.7328 50.14 68.3861 50.14C69.0528 50.14 69.6061 49.9067 70.0461 49.44C70.4861 48.96 70.7061 48.3533 70.7061 47.62V41.6H73.0061V52H71.2861L70.8261 50.44C70.4928 50.9867 70.0528 51.42 69.5061 51.74C68.9594 52.0467 68.3728 52.2 67.7461 52.2ZM75.7063 52V41.6H77.4263L77.8863 43.16C78.2196 42.6133 78.6596 42.1867 79.2063 41.88C79.7663 41.56 80.3663 41.4 81.0063 41.4C81.7529 41.4 82.4263 41.5867 83.0263 41.96C83.6263 42.3333 84.0996 42.8467 84.4463 43.5C84.7929 44.1533 84.9662 44.8933 84.9662 45.72V52H82.6663V45.98C82.6663 45.2333 82.4529 44.6267 82.0263 44.16C81.5996 43.6933 81.0529 43.46 80.3863 43.46C79.6929 43.46 79.1196 43.7 78.6663 44.18C78.2263 44.6467 78.0063 45.2467 78.0063 45.98V52H75.7063ZM89.9641 52H87.6641V41.6H89.9641V52ZM88.8241 40.12C88.3974 40.12 88.0507 39.9933 87.7841 39.74C87.5174 39.4733 87.3841 39.1333 87.3841 38.72C87.3841 38.3067 87.5174 37.9667 87.7841 37.7C88.0641 37.4333 88.4107 37.3 88.8241 37.3C89.2374 37.3 89.5774 37.4333 89.8441 37.7C90.1107 37.9667 90.2441 38.3067 90.2441 38.72C90.2441 39.1333 90.1107 39.4733 89.8441 39.74C89.5774 39.9933 89.2374 40.12 88.8241 40.12ZM97.5817 52.2C96.5417 52.2 95.6084 51.9733 94.7817 51.52C93.955 51.0533 93.3084 50.4133 92.8417 49.6C92.3884 48.7733 92.1617 47.84 92.1617 46.8C92.1617 45.76 92.3884 44.8333 92.8417 44.02C93.3084 43.1933 93.955 42.5533 94.7817 42.1C95.6084 41.6333 96.5417 41.4 97.5817 41.4C98.7284 41.4 99.7417 41.6867 100.622 42.26C101.515 42.82 102.148 43.62 102.522 44.66L100.362 45.02C100.135 44.5667 99.7817 44.2 99.3017 43.92C98.835 43.64 98.3084 43.5 97.7217 43.5C96.7884 43.5 96.0284 43.8067 95.4417 44.42C94.855 45.0333 94.5617 45.8267 94.5617 46.8C94.5617 47.7733 94.855 48.5667 95.4417 49.18C96.0284 49.7933 96.7884 50.1 97.7217 50.1C98.335 50.1 98.8817 49.96 99.3617 49.68C99.8417 49.3867 100.202 49.0067 100.442 48.54L102.602 48.9C102.228 49.9533 101.582 50.7667 100.662 51.34C99.7417 51.9133 98.715 52.2 97.5817 52.2ZM108.547 41.4C109.88 41.4 110.927 41.82 111.687 42.66C112.46 43.4867 112.847 44.6533 112.847 46.16V52H111.147L110.667 50.36C110.374 50.8533 109.94 51.2867 109.367 51.66C108.794 52.02 108.114 52.2 107.327 52.2C106.634 52.2 106.007 52.06 105.447 51.78C104.9 51.5 104.474 51.1067 104.167 50.6C103.86 50.0933 103.707 49.52 103.707 48.88C103.707 47.8933 104.094 47.1067 104.867 46.52C105.654 45.92 106.794 45.62 108.287 45.62H110.527C110.474 44.9267 110.26 44.38 109.887 43.98C109.527 43.5667 109.04 43.36 108.427 43.36C107.934 43.36 107.507 43.48 107.147 43.72C106.787 43.96 106.52 44.2533 106.347 44.6L104.227 44.24C104.48 43.36 105 42.6667 105.787 42.16C106.587 41.6533 107.507 41.4 108.547 41.4ZM107.867 50.26C108.667 50.26 109.314 50 109.807 49.48C110.3 48.96 110.547 48.2733 110.547 47.42H108.367C106.807 47.42 106.027 47.8733 106.027 48.78C106.027 49.2333 106.194 49.5933 106.527 49.86C106.86 50.1267 107.307 50.26 107.867 50.26ZM121.642 50L121.442 52H119.502C118.369 52 117.509 51.7333 116.922 51.2C116.336 50.6533 116.042 49.8667 116.042 48.84V43.6H114.342V41.6H116.042L116.622 38.6H118.342V41.6H121.442V43.6H118.342V48.84C118.342 49.6133 118.729 50 119.502 50H121.642ZM125.95 52H123.65V41.6H125.95V52ZM124.81 40.12C124.383 40.12 124.037 39.9933 123.77 39.74C123.503 39.4733 123.37 39.1333 123.37 38.72C123.37 38.3067 123.503 37.9667 123.77 37.7C124.05 37.4333 124.397 37.3 124.81 37.3C125.223 37.3 125.563 37.4333 125.83 37.7C126.097 37.9667 126.23 38.3067 126.23 38.72C126.23 39.1333 126.097 39.4733 125.83 39.74C125.563 39.9933 125.223 40.12 124.81 40.12ZM133.708 52.2C132.641 52.2 131.681 51.9733 130.828 51.52C129.988 51.0533 129.328 50.4133 128.848 49.6C128.381 48.7733 128.148 47.84 128.148 46.8C128.148 45.76 128.381 44.8333 128.848 44.02C129.328 43.1933 129.988 42.5533 130.828 42.1C131.681 41.6333 132.641 41.4 133.708 41.4C134.774 41.4 135.728 41.6333 136.568 42.1C137.421 42.5533 138.081 43.1933 138.548 44.02C139.028 44.8333 139.268 45.76 139.268 46.8C139.268 47.84 139.028 48.7733 138.548 49.6C138.081 50.4133 137.421 51.0533 136.568 51.52C135.728 51.9733 134.774 52.2 133.708 52.2ZM133.708 50.1C134.641 50.1 135.401 49.8 135.988 49.2C136.574 48.5867 136.868 47.7867 136.868 46.8C136.868 45.8133 136.574 45.02 135.988 44.42C135.401 43.8067 134.641 43.5 133.708 43.5C132.774 43.5 132.014 43.8067 131.428 44.42C130.841 45.02 130.548 45.8133 130.548 46.8C130.548 47.7867 130.841 48.5867 131.428 49.2C132.014 49.8 132.774 50.1 133.708 50.1ZM141.367 52V41.6H143.087L143.547 43.16C143.881 42.6133 144.321 42.1867 144.867 41.88C145.427 41.56 146.027 41.4 146.667 41.4C147.414 41.4 148.087 41.5867 148.687 41.96C149.287 42.3333 149.761 42.8467 150.107 43.5C150.454 44.1533 150.627 44.8933 150.627 45.72V52H148.327V45.98C148.327 45.2333 148.114 44.6267 147.687 44.16C147.261 43.6933 146.714 43.46 146.047 43.46C145.354 43.46 144.781 43.7 144.327 44.18C143.887 44.6467 143.667 45.2467 143.667 45.98V52H141.367ZM171.21 51.98H168.17L166.33 50.12C165.53 50.8267 164.763 51.3467 164.03 51.68C163.296 52.0133 162.563 52.18 161.83 52.18C161.056 52.18 160.356 52.02 159.73 51.7C159.103 51.38 158.61 50.94 158.25 50.38C157.903 49.8067 157.73 49.16 157.73 48.44C157.73 47.7467 157.943 47.1067 158.37 46.52C158.796 45.92 159.576 45.2867 160.71 44.62L160.81 44.56L160.79 44.54C160.176 43.9267 159.73 43.3733 159.45 42.88C159.183 42.3733 159.05 41.8333 159.05 41.26C159.05 40.6067 159.21 40.0133 159.53 39.48C159.863 38.9467 160.316 38.5333 160.89 38.24C161.476 37.9333 162.136 37.78 162.87 37.78C163.59 37.78 164.236 37.9267 164.81 38.22C165.383 38.5133 165.83 38.92 166.15 39.44C166.483 39.96 166.65 40.5467 166.65 41.2C166.65 41.7867 166.463 42.3533 166.09 42.9C165.73 43.4333 165.056 44.0133 164.07 44.64L163.95 44.72L166.45 47.2C166.77 46.8267 167.37 46.0867 168.25 44.98H170.83C169.75 46.42 168.756 47.6333 167.85 48.62L171.21 51.98ZM162.85 39.68C162.356 39.68 161.95 39.82 161.63 40.1C161.31 40.38 161.15 40.74 161.15 41.18C161.15 41.4867 161.236 41.7733 161.41 42.04C161.583 42.2933 161.883 42.6333 162.31 43.06L162.69 43.44C163.33 43.04 163.796 42.6733 164.09 42.34C164.396 42.0067 164.55 41.6333 164.55 41.22C164.55 40.7667 164.39 40.4 164.07 40.12C163.75 39.8267 163.343 39.68 162.85 39.68ZM162.19 50.08C162.643 50.08 163.09 49.98 163.53 49.78C163.97 49.5667 164.45 49.22 164.97 48.74L162.11 45.88L161.95 45.98C161.27 46.4067 160.79 46.8133 160.51 47.2C160.23 47.5867 160.09 47.9667 160.09 48.34C160.09 48.8467 160.283 49.2667 160.67 49.6C161.07 49.92 161.576 50.08 162.19 50.08ZM184.262 52.2C182.929 52.2 181.735 51.8933 180.682 51.28C179.629 50.6533 178.802 49.7933 178.202 48.7C177.615 47.5933 177.322 46.34 177.322 44.94C177.322 43.5533 177.615 42.3133 178.202 41.22C178.802 40.1133 179.629 39.2533 180.682 38.64C181.735 38.0133 182.929 37.7 184.262 37.7C185.715 37.7 187.002 38.0667 188.122 38.8C189.242 39.52 190.042 40.5133 190.522 41.78L188.142 42.18C187.809 41.46 187.302 40.9 186.622 40.5C185.955 40.1 185.195 39.9 184.342 39.9C183.462 39.9 182.675 40.1133 181.982 40.54C181.302 40.9667 180.769 41.56 180.382 42.32C180.009 43.08 179.822 43.9533 179.822 44.94C179.822 45.9267 180.009 46.8067 180.382 47.58C180.769 48.34 181.302 48.9333 181.982 49.36C182.675 49.7867 183.462 50 184.342 50C185.209 50 185.989 49.7933 186.682 49.38C187.375 48.9533 187.895 48.3667 188.242 47.62L190.622 48.02C190.115 49.3 189.289 50.32 188.142 51.08C187.009 51.8267 185.715 52.2 184.262 52.2ZM196.771 41.4C198.105 41.4 199.151 41.82 199.911 42.66C200.685 43.4867 201.071 44.6533 201.071 46.16V52H199.371L198.891 50.36C198.598 50.8533 198.165 51.2867 197.591 51.66C197.018 52.02 196.338 52.2 195.551 52.2C194.858 52.2 194.231 52.06 193.671 51.78C193.125 51.5 192.698 51.1067 192.391 50.6C192.085 50.0933 191.931 49.52 191.931 48.88C191.931 47.8933 192.318 47.1067 193.091 46.52C193.878 45.92 195.018 45.62 196.511 45.62H198.751C198.698 44.9267 198.485 44.38 198.111 43.98C197.751 43.5667 197.265 43.36 196.651 43.36C196.158 43.36 195.731 43.48 195.371 43.72C195.011 43.96 194.745 44.2533 194.571 44.6L192.451 44.24C192.705 43.36 193.225 42.6667 194.011 42.16C194.811 41.6533 195.731 41.4 196.771 41.4ZM196.091 50.26C196.891 50.26 197.538 50 198.031 49.48C198.525 48.96 198.771 48.2733 198.771 47.42H196.591C195.031 47.42 194.251 47.8733 194.251 48.78C194.251 49.2333 194.418 49.5933 194.751 49.86C195.085 50.1267 195.531 50.26 196.091 50.26ZM206.066 52H203.766V37.9H206.066V52ZM211.264 52H208.964V37.9H211.264V52ZM217.802 52.2C216.628 52.2 215.648 51.9267 214.862 51.38C214.088 50.82 213.588 50.0533 213.362 49.08L215.582 48.7C215.755 49.1933 216.048 49.5733 216.462 49.84C216.888 50.1067 217.395 50.24 217.982 50.24C218.488 50.24 218.915 50.1467 219.262 49.96C219.608 49.7733 219.782 49.4867 219.782 49.1C219.782 48.74 219.602 48.4667 219.242 48.28C218.882 48.08 218.328 47.88 217.582 47.68C216.835 47.4667 216.215 47.2533 215.722 47.04C215.228 46.8267 214.802 46.5133 214.442 46.1C214.095 45.6867 213.922 45.14 213.922 44.46C213.922 43.4733 214.302 42.72 215.062 42.2C215.822 41.6667 216.768 41.4 217.902 41.4C218.928 41.4 219.815 41.6667 220.562 42.2C221.308 42.72 221.828 43.44 222.122 44.36L219.982 44.72C219.795 44.28 219.522 43.9467 219.162 43.72C218.815 43.48 218.402 43.36 217.922 43.36C217.468 43.36 217.082 43.4533 216.762 43.64C216.455 43.8267 216.302 44.08 216.302 44.4C216.302 44.7733 216.488 45.0667 216.862 45.28C217.235 45.48 217.808 45.6867 218.582 45.9C219.302 46.1 219.902 46.3133 220.382 46.54C220.875 46.7533 221.288 47.0667 221.622 47.48C221.968 47.88 222.142 48.4 222.142 49.04C222.142 49.6267 221.982 50.16 221.662 50.64C221.342 51.1067 220.855 51.4867 220.202 51.78C219.562 52.06 218.762 52.2 217.802 52.2Z" fill="black"/>
</svg>
