<svg width="67" height="64" viewBox="0 0 67 64" fill="none" xmlns="http://www.w3.org/2000/svg">
<path d="M10.6 43.78V37.9H13V52H10.6V45.98H3.9V52H1.5V37.9H3.9V43.78H10.6ZM19.6922 52.2C18.9589 52.2 18.2922 52.0133 17.6922 51.64C17.1055 51.2667 16.6389 50.7533 16.2922 50.1C15.9589 49.4467 15.7922 48.7067 15.7922 47.88V41.6H18.0922V47.62C18.0922 48.3667 18.2989 48.9733 18.7122 49.44C19.1389 49.9067 19.6789 50.14 20.3322 50.14C20.9989 50.14 21.5522 49.9067 21.9922 49.44C22.4322 48.96 22.6522 48.3533 22.6522 47.62V41.6H24.9522V52H23.2322L22.7722 50.44C22.4389 50.9867 21.9989 51.42 21.4522 51.74C20.9055 52.0467 20.3189 52.2 19.6922 52.2ZM27.6523 52V41.6H29.3723L29.7923 43.08C30.0723 42.5867 30.459 42.1867 30.9523 41.88C31.4457 41.56 32.039 41.4 32.7323 41.4C33.4257 41.4 34.0457 41.5667 34.5923 41.9C35.139 42.2333 35.5457 42.6933 35.8123 43.28C36.0657 42.76 36.4657 42.32 37.0123 41.96C37.5723 41.5867 38.2323 41.4 38.9923 41.4C39.7123 41.4 40.3523 41.5867 40.9123 41.96C41.4857 42.32 41.9257 42.8267 42.2323 43.48C42.5523 44.12 42.7123 44.8533 42.7123 45.68V52H40.4123V45.9C40.4123 45.18 40.2257 44.5933 39.8523 44.14C39.479 43.6867 38.9923 43.46 38.3923 43.46C37.7923 43.46 37.299 43.6933 36.9123 44.16C36.5257 44.6133 36.3323 45.1933 36.3323 45.9V52H34.0323V45.9C34.0323 45.18 33.8457 44.5933 33.4723 44.14C33.099 43.6867 32.6123 43.46 32.0123 43.46C31.4123 43.46 30.919 43.6933 30.5323 44.16C30.1457 44.6133 29.9523 45.1933 29.9523 45.9V52H27.6523ZM49.5509 41.4C50.8843 41.4 51.9309 41.82 52.6909 42.66C53.4643 43.4867 53.8509 44.6533 53.8509 46.16V52H52.1509L51.6709 50.36C51.3776 50.8533 50.9443 51.2867 50.3709 51.66C49.7976 52.02 49.1176 52.2 48.3309 52.2C47.6376 52.2 47.0109 52.06 46.4509 51.78C45.9043 51.5 45.4776 51.1067 45.1709 50.6C44.8643 50.0933 44.7109 49.52 44.7109 48.88C44.7109 47.8933 45.0976 47.1067 45.8709 46.52C46.6576 45.92 47.7976 45.62 49.2909 45.62H51.5309C51.4776 44.9267 51.2643 44.38 50.8909 43.98C50.5309 43.5667 50.0443 43.36 49.4309 43.36C48.9376 43.36 48.5109 43.48 48.1509 43.72C47.7909 43.96 47.5243 44.2533 47.3509 44.6L45.2309 44.24C45.4843 43.36 46.0043 42.6667 46.7909 42.16C47.5909 41.6533 48.5109 41.4 49.5509 41.4ZM48.8709 50.26C49.6709 50.26 50.3176 50 50.8109 49.48C51.3043 48.96 51.5509 48.2733 51.5509 47.42H49.3709C47.8109 47.42 47.0309 47.8733 47.0309 48.78C47.0309 49.2333 47.1976 49.5933 47.5309 49.86C47.8643 50.1267 48.3109 50.26 48.8709 50.26ZM56.4461 52V41.6H58.1661L58.6261 43.16C58.9594 42.6133 59.3994 42.1867 59.9461 41.88C60.5061 41.56 61.1061 41.4 61.7461 41.4C62.4928 41.4 63.1661 41.5867 63.7661 41.96C64.3661 42.3333 64.8394 42.8467 65.1861 43.5C65.5328 44.1533 65.7061 44.8933 65.7061 45.72V52H63.4061V45.98C63.4061 45.2333 63.1928 44.6267 62.7661 44.16C62.3394 43.6933 61.7928 43.46 61.1261 43.46C60.4328 43.46 59.8594 43.7 59.4061 44.18C58.9661 44.6467 58.7461 45.2467 58.7461 45.98V52H56.4461Z" fill="black"/>
</svg>
