<svg width="12" height="12" viewBox="0 0 12 12" fill="none" xmlns="http://www.w3.org/2000/svg">
<g clip-path="url(#clip0_48971_10732)">
<path fill-rule="evenodd" clip-rule="evenodd" d="M4.25 1.00105C4.66422 1.00105 5 1.33684 5 1.75105C5 2.16527 4.66422 2.50105 4.25 2.50105C3.7494 2.50105 3.60862 2.50469 3.50614 2.52507C3.01028 2.6237 2.62265 3.01133 2.52402 3.50719C2.50363 3.60968 2.5 3.75045 2.5 4.25105V7.05105C2.5 7.62348 2.50058 8.0077 2.52476 8.30357C2.54822 8.5907 2.5901 8.72798 2.63624 8.81854C2.75609 9.05374 2.94731 9.24497 3.18251 9.36481C3.27307 9.41095 3.41036 9.45284 3.69748 9.4763C3.99336 9.50047 4.37757 9.50105 4.95 9.50105H7.75C8.2506 9.50105 8.39138 9.49742 8.49386 9.47703C8.98973 9.3784 9.37735 8.99078 9.47598 8.49492C9.49637 8.39243 9.5 8.25166 9.5 7.75105C9.5 7.33684 9.83579 7.00105 10.25 7.00105C10.6642 7.00105 11 7.33684 11 7.75105C11 8.17976 11.0036 8.50364 10.9472 8.78755C10.7302 9.87845 9.8774 10.7312 8.7865 10.9482C8.51899 11.0014 8.216 11.0013 7.82328 11.0011C6.85537 11.0006 5.88746 11.0011 4.91955 11.0011C4.3854 11.0011 3.93956 11.0011 3.57533 10.9713C3.19545 10.9403 2.83879 10.8732 2.50153 10.7013C1.98408 10.4377 1.56339 10.017 1.29973 9.49953C1.12789 9.16226 1.06078 8.80561 1.02974 8.42572C0.999982 8.06149 0.99999 7.61564 1 7.08149C1 6.11358 1.00046 5.14568 0.999977 4.17778C0.999782 3.78505 0.999632 3.48206 1.05284 3.21455C1.26984 2.12366 2.1226 1.27089 3.2135 1.05389C3.49741 0.99742 3.8213 1.00105 4.25 1.00105Z" fill="#99A2AD"/>
<path fill-rule="evenodd" clip-rule="evenodd" d="M7 0.751053C7 0.336839 7.33579 0.00105286 7.75 0.00105286H11.25C11.6642 0.00105286 12 0.336839 12 0.751053V4.25105C12 4.66527 11.6642 5.00105 11.25 5.00105C10.8358 5.00105 10.5 4.66527 10.5 4.25105V2.56171L7.28033 5.78138C6.98744 6.07428 6.51256 6.07428 6.21967 5.78138C5.92678 5.48849 5.92678 5.01362 6.21967 4.72072L9.43934 1.50105H7.75C7.33579 1.50105 7 1.16527 7 0.751053Z" fill="#99A2AD"/>
</g>
<defs>
<clipPath id="clip0_48971_10732">
<rect width="12" height="12" fill="white" transform="translate(0 0.00105286)"/>
</clipPath>
</defs>
</svg>
