<svg width="12" height="12" viewBox="0 0 12 12" fill="none" xmlns="http://www.w3.org/2000/svg">
<path d="M1 3.50105C1 3.22491 1.22386 3.00105 1.5 3.00105H10.5C10.7761 3.00105 11 3.22491 11 3.50105C11 3.7772 10.7761 4.00105 10.5 4.00105H1.5C1.22386 4.00105 1 3.7772 1 3.50105Z" fill="#99A2AD"/>
<path d="M1 6.50105C1 6.22491 1.22386 6.00105 1.5 6.00105H10.5C10.7761 6.00105 11 6.22491 11 6.50105C11 6.7772 10.7761 7.00105 10.5 7.00105H1.5C1.22386 7.00105 1 6.7772 1 6.50105Z" fill="#99A2AD"/>
<path d="M1 9.50105C1 9.22491 1.22386 9.00105 1.5 9.00105H6.5C6.77614 9.00105 7 9.22491 7 9.50105C7 9.77719 6.77614 10.0011 6.5 10.0011H1.5C1.22386 10.0011 1 9.77719 1 9.50105Z" fill="#99A2AD"/>
</svg>
