<svg width="12" height="13" viewBox="0 0 12 13" fill="none" xmlns="http://www.w3.org/2000/svg">
<path fill-rule="evenodd" clip-rule="evenodd" d="M12 6.99789C12 10.3116 9.31371 12.9979 6 12.9979C2.68629 12.9979 0 10.3116 0 6.99789C0 3.68419 2.68629 0.997894 6 0.997894C9.31371 0.997894 12 3.68419 12 6.99789ZM8.6074 10.666C7.87179 11.1898 6.97187 11.4979 6 11.4979C3.51472 11.4979 1.5 9.48318 1.5 6.99789C1.5 6.02602 1.80809 5.12611 2.33194 4.39049L8.6074 10.666ZM9.66806 9.6053L3.3926 3.32983C4.12821 2.80599 5.02813 2.49789 6 2.49789C8.48528 2.49789 10.5 4.51261 10.5 6.99789C10.5 7.96977 10.1919 8.86968 9.66806 9.6053Z" fill="#99A2AD"/>
</svg>
