<svg width="12" height="12" viewBox="0 0 12 12" fill="none" xmlns="http://www.w3.org/2000/svg">
<path fill-rule="evenodd" clip-rule="evenodd" d="M5.47812 8.60528e-08H6.52188C7.2034 -3.96706e-06 7.74542 -7.18608e-06 8.18271 0.0357212C8.63052 0.072308 9.01235 0.148839 9.36198 0.326981C9.92646 0.614601 10.3854 1.07354 10.673 1.63803C10.8512 1.98765 10.9277 2.36949 10.9643 2.81729C11 3.25458 11 3.79659 11 4.47811L11 9.29356C11 9.79797 11 10.2111 10.9709 10.5309C10.9421 10.8475 10.879 11.1727 10.6757 11.4293C10.3935 11.7854 9.96523 11.9944 9.51095 11.9977C9.18359 12.0001 8.88834 11.8497 8.62109 11.6777C8.35107 11.5038 8.02539 11.2496 7.62774 10.9392L6.67684 10.197C6.28824 9.89364 6.20449 9.84036 6.13101 9.82041C6.04523 9.79712 5.95478 9.79712 5.869 9.82041C5.79552 9.84036 5.71177 9.89364 5.32317 10.197L4.37226 10.9392C3.97462 11.2496 3.64893 11.5038 3.37891 11.6777C3.11165 11.8497 2.81641 12.0001 2.48905 11.9977C2.03477 11.9944 1.60647 11.7854 1.32433 11.4293C1.12103 11.1727 1.05789 10.8475 1.02908 10.5309C0.999985 10.2111 0.999992 9.79794 1 9.29349L1 4.47812C0.999999 3.7966 0.999996 3.25458 1.03572 2.81729C1.07231 2.36949 1.14884 1.98765 1.32698 1.63803C1.6146 1.07354 2.07355 0.6146 2.63803 0.32698C2.98766 0.148838 3.36949 0.0723079 3.81729 0.0357212C4.25459 -7.18608e-06 4.7966 -3.96706e-06 5.47812 8.60528e-08ZM3.89872 1.0324C3.51276 1.06393 3.27718 1.12365 3.09202 1.21799C2.7157 1.40973 2.40974 1.71569 2.21799 2.09202C2.12365 2.27717 2.06394 2.51276 2.0324 2.89872C2.00039 3.29052 2 3.79168 2 4.5L2 9.26828C2 9.80413 2.0005 10.1713 2.02497 10.4403C2.05022 10.7179 2.0952 10.792 2.10811 10.8083C2.20216 10.927 2.34492 10.9966 2.49635 10.9977C2.51715 10.9979 2.60325 10.9877 2.83757 10.8369C3.06465 10.6907 3.35443 10.4651 3.77683 10.1354L4.70787 9.40868C4.72869 9.39242 4.7493 9.37628 4.76974 9.36027C5.05891 9.13382 5.31237 8.93533 5.60698 8.85535C5.86434 8.78547 6.13567 8.78548 6.39303 8.85535C6.68764 8.93533 6.9411 9.13382 7.23027 9.36028C7.25071 9.37628 7.27132 9.39243 7.29214 9.40868L8.22317 10.1354C8.64557 10.4651 8.93535 10.6907 9.16243 10.8369C9.39675 10.9877 9.48285 10.9979 9.50365 10.9977C9.65508 10.9966 9.79784 10.927 9.89189 10.8083C9.9048 10.792 9.94978 10.7178 9.97503 10.4403C9.9995 10.1713 10 9.80412 10 9.26828L10 4.5C10 3.79169 9.99961 3.29052 9.9676 2.89872C9.93607 2.51276 9.87636 2.27718 9.78202 2.09202C9.59027 1.7157 9.28431 1.40973 8.90798 1.21799C8.72283 1.12365 8.48724 1.06393 8.10128 1.0324C7.70949 1.00039 7.20832 1 6.5 1H5.5C4.79169 1 4.29052 1.00039 3.89872 1.0324Z" fill="#99A2AD"/>
</svg>
