<svg width="12" height="14" viewBox="0 0 12 14" fill="none" xmlns="http://www.w3.org/2000/svg">
<path d="M10 9.38054V11C10 11.5523 9.55228 12 9 12H3C2.44772 12 2 11.5523 2 11V9.38054C2.34636 9.46695 2.68814 9.50004 3 9.50004C3.56842 9.50004 4.07239 9.39763 4.5 9.20395C4.92761 9.39763 5.43158 9.50004 6 9.50004C6.56842 9.50004 7.07239 9.39763 7.5 9.20395C7.92761 9.39763 8.43158 9.50004 9 9.50004C9.31186 9.50004 9.65364 9.46695 10 9.38054Z" fill="#99A2AD"/>
<path d="M1 6.00004C1 5.44776 1.44772 5.00004 2 5.00004H10C10.5523 5.00004 11 5.44776 11 6.00004C11 7.50004 10 8.00004 9 8.00004C7.5 8.00004 7.5 7.00004 7.5 7.00004C7.5 7.00004 7.5 8.00004 6 8.00004C4.5 8.00004 4.5 7.00004 4.5 7.00004C4.5 7.00004 4.5 8.00004 3 8.00004C2 8.00004 1 7.50004 1 6.00004Z" fill="#99A2AD"/>
<path d="M5.90722 1.04999C5.94681 0.977721 6.05319 0.97772 6.09278 1.04999C6.56001 1.9029 7 2.27413 7 3.00004C7 3.55233 6.55228 4.00004 6 4.00004C5.44772 4.00004 5 3.55233 5 3.00004C5 2.27413 5.43999 1.9029 5.90722 1.04999Z" fill="#99A2AD"/>
</svg>
