<svg width="12" height="12" viewBox="0 0 12 12" fill="none" xmlns="http://www.w3.org/2000/svg">
<g clip-path="url(#clip0_1695_20)">
<path fill-rule="evenodd" clip-rule="evenodd" d="M6.87975 0.878253C8.05106 -0.291114 9.9496 -0.291103 11.1209 0.878286C12.2927 2.04822 12.2929 3.94547 11.1213 5.11558L10.456 5.78089C10.1631 6.07378 9.68826 6.07378 9.39537 5.78089C9.10247 5.488 9.10247 5.01313 9.39537 4.72023L10.0607 4.05492C10.6457 3.47083 10.6462 2.5239 10.0611 1.93981C9.47539 1.35504 8.52523 1.35504 7.93951 1.93981L5.64317 4.23212C5.18398 4.69059 5.08435 5.37364 5.34783 5.92936C5.52528 6.30364 5.36572 6.75091 4.99145 6.92836C4.61717 7.10581 4.1699 6.94625 3.99245 6.57198C3.46553 5.46061 3.66134 4.09112 4.58337 3.1706L6.87975 0.878253Z" fill="#99A2AD"/>
<path fill-rule="evenodd" clip-rule="evenodd" d="M6.97097 5.07819C7.34406 4.89825 7.79237 5.05483 7.97231 5.42792C8.51045 6.54373 8.31808 7.92511 7.39098 8.8522L5.12245 11.1208C3.95104 12.2922 2.0518 12.2922 0.88039 11.1208C-0.291022 9.94935 -0.291022 8.05012 0.88039 6.87871L1.53859 6.2205C1.83149 5.92761 2.30636 5.92761 2.59925 6.2205C2.89215 6.5134 2.89215 6.98827 2.59925 7.28116L1.94105 7.93937C1.35542 8.52499 1.35542 9.47447 1.94105 10.0601C2.52667 10.6457 3.47616 10.6457 4.06178 10.0601L6.33032 7.79154C6.79256 7.3293 6.89094 6.63876 6.62123 6.07953C6.4413 5.70644 6.59788 5.25813 6.97097 5.07819Z" fill="#99A2AD"/>
</g>
<defs>
<clipPath id="clip0_1695_20">
<rect width="12" height="12" fill="white"/>
</clipPath>
</defs>
</svg>
