<svg width="12" height="12" viewBox="0 0 12 12" fill="none" xmlns="http://www.w3.org/2000/svg">
<g clip-path="url(#clip0_44680_10981)">
<path fill-rule="evenodd" clip-rule="evenodd" d="M6.54893 3.13815C6.90093 2.94426 7.13943 2.5697 7.13943 2.13942C7.13943 1.51014 6.62929 1 6 1C5.37072 1 4.86058 1.51014 4.86058 2.13942C4.86058 2.56969 5.09907 2.94425 5.45106 3.13813L3.8437 5.54131C3.7807 5.63549 3.65211 5.65858 3.56028 5.5922L2.16652 4.58461C2.23851 4.43519 2.27886 4.26764 2.27886 4.09068C2.27886 3.46139 1.76872 2.95125 1.13943 2.95125C0.510149 2.95125 1.14441e-05 3.46139 1.14441e-05 4.09068C1.14441e-05 4.71996 0.510149 5.2301 1.13943 5.2301L1.71125 7.00214H10.3065L10.8606 5.2301C11.4899 5.2301 12 4.71996 12 4.09068C12 3.46139 11.4899 2.95125 10.8606 2.95125C10.2313 2.95125 9.72118 3.46139 9.72118 4.09068C9.72118 4.2714 9.76326 4.44229 9.83814 4.5941L8.4455 5.60087C8.35367 5.66726 8.22508 5.64417 8.16208 5.54998L6.54893 3.13815ZM2.00045 8.20214H9.99957L9.87158 8.8242C9.70677 9.6252 9.00164 10.2 8.18386 10.2H3.81691C2.99988 10.2 2.29517 9.62621 2.12959 8.82613L2.00045 8.20214Z" fill="#99A2AD"/>
</g>
<defs>
<clipPath id="clip0_44680_10981">
<rect width="12" height="12" fill="white"/>
</clipPath>
</defs>
</svg>
