<svg width="12" height="12" viewBox="0 0 12 12" fill="none" xmlns="http://www.w3.org/2000/svg">
<path fill-rule="evenodd" clip-rule="evenodd" d="M6 1C3.51472 1 1.5 3.01472 1.5 5.5V9.19958C1.5 9.39856 1.53208 9.59624 1.595 9.785C1.80876 10.4263 2.54092 10.7295 3.14551 10.4272L3.47346 10.2633C3.79616 10.1019 4.18232 10.1367 4.47095 10.3532L4.79463 10.596C5.50892 11.1317 6.49108 11.1317 7.20537 10.596L7.52905 10.3532C7.81768 10.1367 8.20384 10.1019 8.52654 10.2633L8.85449 10.4272C9.45908 10.7295 10.1912 10.4263 10.405 9.785C10.4679 9.59624 10.5 9.39856 10.5 9.19958V5.5C10.5 3.01472 8.48528 1 6 1ZM4.09981 7.21487C4.25751 7.00106 4.55154 6.93981 4.78247 7.06283L4.83877 7.09744C4.89142 7.13444 5.00896 7.20204 5.17511 7.27211C5.83636 7.55098 6.51597 7.55098 7.16123 7.09744C7.3985 6.93066 7.72935 6.98324 7.90019 7.21487C8.07103 7.44651 8.01717 7.76948 7.77989 7.93626C6.79119 8.63119 5.72792 8.63119 4.75521 8.22097C4.51287 8.11877 4.33086 8.0141 4.22011 7.93626C3.98283 7.76948 3.92897 7.44651 4.09981 7.21487ZM3.5 5.25C3.5 4.83579 3.83579 4.5 4.25 4.5C4.66421 4.5 5 4.83579 5 5.25C5 5.66421 4.66421 6 4.25 6C3.83579 6 3.5 5.66421 3.5 5.25ZM7 5.25C7 4.83579 7.33579 4.5 7.75 4.5C8.16421 4.5 8.5 4.83579 8.5 5.25C8.5 5.66421 8.16421 6 7.75 6C7.33579 6 7 5.66421 7 5.25Z" fill="#99A2AD"/>
</svg>
