<svg width="12" height="12" viewBox="0 0 12 12" fill="none" xmlns="http://www.w3.org/2000/svg">
<path d="M2.5 2.5C2.77614 2.5 3 2.72386 3 3V5.5C3 5.77614 3.22386 6 3.5 6C3.77614 6 4 5.77614 4 5.5V1.5C4 1.22386 4.22386 1 4.5 1C4.77614 1 5 1.22386 5 1.5L5 5C5 5.27614 5.22386 5.5 5.5 5.5C5.77614 5.5 6 5.27614 6 5V1C6 0.723858 6.22386 0.5 6.5 0.5C6.77614 0.5 7 0.723858 7 1V5.0625C7 5.33864 7.22386 5.5625 7.5 5.5625C7.77614 5.5625 8 5.33864 8 5.0625V1.9375C8 1.66136 8.22386 1.4375 8.5 1.4375C8.77614 1.4375 9 1.66136 9 1.9375V7.5L8.72 7.4675L10.4938 5.56951C10.7537 5.2914 11.1928 5.28515 11.4605 5.55576C11.7081 5.80601 11.7209 6.20418 11.4891 6.46918C10.8119 7.24361 9.4762 8.77555 8.87374 9.4985C7.93499 10.625 6.56012 11 5.52568 11C2.15029 11 2 8.7272 2 7.958L2 3C2 2.72386 2.22386 2.5 2.5 2.5Z" fill="#99A2AD"/>
</svg>
