<svg width="12" height="12" viewBox="0 0 12 12" fill="none" xmlns="http://www.w3.org/2000/svg">
<g clip-path="url(#clip0_29260_9010)">
<path fill-rule="evenodd" clip-rule="evenodd" d="M6 12C9.31371 12 12 9.31371 12 6C12 2.68629 9.31371 0 6 0C2.68629 0 0 2.68629 0 6C0 9.31371 2.68629 12 6 12ZM6.64428 6.99512C6.56483 7.35498 6.35827 7.56445 5.98221 7.56445C5.53199 7.56445 5.26716 7.25293 5.26716 6.8125V6.7373C5.26716 6.10352 5.59026 5.68457 6.21526 5.31396C6.89852 4.90039 7.10509 4.63184 7.10509 4.1377C7.10509 3.61133 6.70255 3.24609 6.11992 3.24609C5.60085 3.24609 5.25127 3.50391 5.08178 3.98193C4.94937 4.32568 4.71102 4.47607 4.38793 4.47607C3.96949 4.47607 3.7 4.21289 3.7 3.80469C3.7 3.57373 3.76293 3.36963 3.86886 3.16553C4.20784 2.45654 5.0553 2 6.19407 2C7.69831 2 8.7 2.84854 8.7 4.1C8.7 4.91104 8.32331 5.45361 7.57649 5.89941C6.87204 6.31299 6.71314 6.54395 6.64428 6.99512ZM6.86144 9.15674C6.86144 9.62939 6.47479 10 5.9928 10C5.51611 10 5.12945 9.62939 5.12945 9.15674C5.12945 8.68408 5.51611 8.31348 5.9928 8.31348C6.47479 8.31348 6.86144 8.68408 6.86144 9.15674Z" fill="#99A2AD"/>
</g>
<defs>
<clipPath id="clip0_29260_9010">
<rect width="12" height="12" fill="white"/>
</clipPath>
</defs>
</svg>
