<svg width="12" height="12" viewBox="0 0 12 12" fill="none" xmlns="http://www.w3.org/2000/svg">
<path d="M6.16504 11C6.9291 11 7.60758 10.9042 8.0599 10.7545C8.42665 10.6347 8.55501 10.4731 8.55501 10.2635C8.55501 10.0539 8.41443 9.92216 8.16381 9.92216C8.10269 9.92216 8.02323 9.92814 7.92543 9.94611C7.37531 10.0778 6.95355 10.1617 6.35452 10.1617C3.72616 10.1617 1.95355 8.66467 1.95355 6.07186C1.95355 3.56287 3.5978 1.83234 6.0978 1.83234C8.27995 1.83234 10.0465 3.14371 10.0465 5.55689C10.0465 6.81437 9.58191 7.69461 8.90342 7.69461C8.46333 7.69461 8.22494 7.46108 8.22494 7.05389V4.08383C8.22494 3.7485 8.02934 3.54491 7.69927 3.54491C7.37531 3.54491 7.17359 3.7485 7.17359 4.08383V4.38323H7.11247C6.86186 3.8503 6.2934 3.54491 5.62103 3.54491C4.40465 3.54491 3.54279 4.5509 3.54279 6.02994C3.54279 7.53293 4.40465 8.56287 5.66381 8.56287C6.37286 8.56287 6.92298 8.21557 7.19193 7.60479H7.25306C7.36308 8.20958 7.93765 8.56287 8.6956 8.56287C10.1198 8.56287 11 7.27545 11 5.48503C11 2.75449 8.95232 1 6.11002 1C3.09046 1 1 2.98204 1 6.03593C1 9.1497 3.16381 11 6.16504 11ZM5.87775 7.62874C5.1198 7.62874 4.67359 7.02994 4.67359 6.03593C4.67359 5.0479 5.12592 4.46108 5.87775 4.46108C6.64792 4.46108 7.13692 5.07186 7.13692 6.02994C7.13692 7.01198 6.64181 7.62874 5.87775 7.62874Z" fill="#99A2AD"/>
</svg>
