<svg width="12" height="13" viewBox="0 0 12 13" fill="none" xmlns="http://www.w3.org/2000/svg">
<path fill-rule="evenodd" clip-rule="evenodd" d="M4.5 0.753174C4.5 0.33896 4.16421 0.00317383 3.75 0.00317383C3.33579 0.00317383 3 0.33896 3 0.753174V1.58283C2.84666 1.61459 2.71397 1.65902 2.59202 1.72115C2.21569 1.9129 1.90973 2.21886 1.71799 2.59518C1.5 3.02301 1.5 3.58306 1.5 4.70316V8.30316C1.5 9.42327 1.5 9.98332 1.71799 10.4111C1.90973 10.7875 2.21569 11.0934 2.59202 11.2852C3.01984 11.5032 3.5799 11.5032 4.7 11.5032H7.3C8.4201 11.5032 8.98016 11.5032 9.40798 11.2852C9.78431 11.0934 10.0903 10.7875 10.282 10.4111C10.5 9.98332 10.5 9.42327 10.5 8.30316V4.70316C10.5 3.58306 10.5 3.02301 10.282 2.59518C10.0903 2.21886 9.78431 1.9129 9.40798 1.72115C9.28603 1.65902 9.15334 1.61459 9 1.58283V0.753174C9 0.33896 8.66421 0.00317383 8.25 0.00317383C7.83579 0.00317383 7.5 0.33896 7.5 0.753174V1.50321C7.43538 1.50316 7.36874 1.50316 7.3 1.50316H6.75V0.753174C6.75 0.33896 6.41421 0.00317383 6 0.00317383C5.58579 0.00317383 5.25 0.33896 5.25 0.753174V1.50316H4.7C4.63126 1.50316 4.56462 1.50316 4.5 1.50321V0.753174ZM8.78033 4.22231C9.07322 4.51521 9.07322 4.99008 8.78033 5.28298L5.52919 8.53411C5.38854 8.67476 5.19778 8.75378 4.99886 8.75378C4.79995 8.75378 4.60919 8.67476 4.46853 8.53411L3.21967 7.28525C2.92678 6.99235 2.92678 6.51748 3.21967 6.22459C3.51256 5.93169 3.98744 5.93169 4.28033 6.22459L4.99886 6.94312L7.71967 4.22231C8.01256 3.92942 8.48744 3.92942 8.78033 4.22231Z" fill="#99A2AD"/>
</svg>
