<svg width="12" height="13" viewBox="0 0 12 13" fill="none" xmlns="http://www.w3.org/2000/svg">
<path fill-rule="evenodd" clip-rule="evenodd" d="M0.217987 1.09519C0 1.52302 0 2.08307 0 3.20317V8.80317C0 9.92328 0 10.4833 0.217987 10.9112C0.409734 11.2875 0.715695 11.5934 1.09202 11.7852C1.51984 12.0032 2.0799 12.0032 3.2 12.0032H8.8C9.9201 12.0032 10.4802 12.0032 10.908 11.7852C11.2843 11.5934 11.5903 11.2875 11.782 10.9112C12 10.4833 12 9.92328 12 8.80317V3.20317C12 2.08307 12 1.52302 11.782 1.09519C11.5903 0.718869 11.2843 0.412908 10.908 0.221161C10.4802 0.00317383 9.9201 0.00317383 8.8 0.00317383H3.2C2.0799 0.00317383 1.51984 0.00317383 1.09202 0.221161C0.715695 0.412908 0.409734 0.718869 0.217987 1.09519ZM6.70632 6.14201L5.05112 8.21574L4.28944 7.15128C4.14813 6.9538 3.85187 6.9538 3.71056 7.15128L2.06577 9.44991C1.89957 9.68217 2.06751 10.0032 2.35521 10.0032H9.63012C9.93565 10.0032 10.109 9.66915 9.9238 9.43717L7.29368 6.14201C7.14592 5.95689 6.85408 5.95689 6.70632 6.14201Z" fill="#99A2AD"/>
</svg>
