<svg width="12" height="12" viewBox="0 0 12 12" fill="none" xmlns="http://www.w3.org/2000/svg">
<path d="M7.39235 1.42568C7.86758 0.950462 8.10519 0.712852 8.37918 0.623826C8.62019 0.545517 8.87981 0.545517 9.12082 0.623826C9.39481 0.712852 9.63242 0.950461 10.1076 1.42568L10.5743 1.89237C11.0496 2.36759 11.2872 2.6052 11.3762 2.8792C11.4545 3.12021 11.4545 3.37983 11.3762 3.62084C11.2872 3.89483 11.0496 4.13244 10.5743 4.60766L10.1076 5.07435C9.63243 5.54957 9.39481 5.78718 9.12082 5.87621C8.87981 5.95452 8.62019 5.95452 8.37918 5.87621C8.10519 5.78718 7.86758 5.54957 7.39235 5.07435L6.92566 4.60766C6.45044 4.13244 6.21283 3.89483 6.12381 3.62084C6.0455 3.37983 6.0455 3.12021 6.12381 2.8792C6.21283 2.6052 6.45044 2.36759 6.92566 1.89237L7.39235 1.42568Z" fill="#99A2AD"/>
<path d="M1.13079 1.65523C1 1.91192 1 2.24795 1 2.92001V3.58001C1 4.25208 1 4.58811 1.13079 4.8448C1.24584 5.0706 1.42942 5.25417 1.65521 5.36922C1.91191 5.50001 2.24794 5.50001 2.92 5.50001H3.58C4.25206 5.50001 4.58809 5.50001 4.84479 5.36922C5.07058 5.25417 5.25416 5.0706 5.36921 4.8448C5.5 4.58811 5.5 4.25208 5.5 3.58001V2.92001C5.5 2.24795 5.5 1.91192 5.36921 1.65523C5.25416 1.42943 5.07058 1.24585 4.84479 1.13081C4.58809 1.00001 4.25206 1.00001 3.58 1.00001H2.92C2.24794 1.00001 1.91191 1.00001 1.65521 1.13081C1.42942 1.24585 1.24584 1.42943 1.13079 1.65523Z" fill="#99A2AD"/>
<path d="M1.13079 7.15523C1 7.41192 1 7.74795 1 8.42001V9.08001C1 9.75208 1 10.0881 1.13079 10.3448C1.24584 10.5706 1.42942 10.7542 1.65521 10.8692C1.9119 11 2.24793 11 2.91999 11H3.58C4.25205 11 4.5881 11 4.84479 10.8692C5.07058 10.7542 5.25416 10.5706 5.36921 10.3448C5.5 10.0881 5.5 9.75208 5.5 9.08001V8.42001C5.5 7.74795 5.5 7.41192 5.36921 7.15523C5.25416 6.92943 5.07058 6.74585 4.84479 6.63081C4.58809 6.50001 4.25206 6.50001 3.58 6.50001H2.92C2.24794 6.50001 1.91191 6.50001 1.65521 6.63081C1.42942 6.74585 1.24584 6.92943 1.13079 7.15523Z" fill="#99A2AD"/>
<path d="M6.63079 7.15523C6.5 7.41192 6.5 7.74795 6.5 8.42001V9.08001C6.5 9.75208 6.5 10.0881 6.63079 10.3448C6.74584 10.5706 6.92942 10.7542 7.15521 10.8692C7.4119 11 7.74793 11 8.41999 11H9.08C9.75205 11 10.0881 11 10.3448 10.8692C10.5706 10.7542 10.7542 10.5706 10.8692 10.3448C11 10.0881 11 9.75208 11 9.08001V8.42001C11 7.74795 11 7.41192 10.8692 7.15523C10.7542 6.92943 10.5706 6.74585 10.3448 6.63081C10.0881 6.50001 9.75206 6.50001 9.08 6.50001H8.42C7.74794 6.50001 7.41191 6.50001 7.15521 6.63081C6.92942 6.74585 6.74584 6.92943 6.63079 7.15523Z" fill="#99A2AD"/>
</svg>
