<svg width="12" height="13" viewBox="0 0 12 13" fill="none" xmlns="http://www.w3.org/2000/svg">
<g clip-path="url(#clip0_13435_269)">
<path fill-rule="evenodd" clip-rule="evenodd" d="M8.49419 3.2483C7.67504 2.70283 6.69966 2.44092 5.71745 2.50272C4.73524 2.56451 3.80037 2.9466 3.05605 3.59044C2.31172 4.23429 1.79899 5.10439 1.59639 6.06746C1.39379 7.03053 1.5125 8.03346 1.93432 8.92263C2.11186 9.29687 1.95241 9.74417 1.57817 9.92171C1.20394 10.0992 0.756636 9.93979 0.579096 9.56556C0.0166606 8.38001 -0.141613 7.04276 0.12852 5.75866C0.398653 4.47457 1.0823 3.31444 2.07473 2.45598C3.06716 1.59752 4.31365 1.08807 5.62326 1.00568C6.93287 0.923286 8.23339 1.27249 9.32559 1.99979C10.4178 2.7271 11.2414 3.7924 11.6704 5.03251C12.0993 6.27262 12.1099 7.61916 11.7005 8.86586C11.2911 10.1126 10.4843 11.1907 9.40362 11.935C8.32298 12.6794 7.02811 13.049 5.71737 12.9872C5.30361 12.9677 4.98402 12.6164 5.00353 12.2027C5.02304 11.7889 5.37427 11.4693 5.78803 11.4888C6.77108 11.5352 7.74224 11.258 8.55272 10.6997C9.3632 10.1415 9.96831 9.33288 10.2754 8.39785C10.5824 7.46283 10.5745 6.45293 10.2528 5.52284C9.93108 4.59276 9.31334 3.79378 8.49419 3.2483Z" fill="#99A2AD"/>
</g>
<defs>
<clipPath id="clip0_13435_269">
<rect width="12" height="12" fill="white" transform="translate(0 0.997009)"/>
</clipPath>
</defs>
</svg>
