<svg width="12" height="12" viewBox="0 0 12 12" fill="none" xmlns="http://www.w3.org/2000/svg">
<g clip-path="url(#clip0_11333_10282)">
<path fill-rule="evenodd" clip-rule="evenodd" d="M12 6C12 2.68629 9.31371 0 6 0C2.68629 0 0 2.68629 0 6C0 9.31371 2.68629 12 6 12C9.31371 12 12 9.31371 12 6ZM5.77582 2.70423C5.83692 2.58042 5.98683 2.52959 6.11064 2.59069C6.15994 2.61502 6.19985 2.65493 6.22418 2.70423L7.17557 4.63195L9.30293 4.94108C9.43957 4.96093 9.53424 5.08779 9.51439 5.22443C9.50648 5.27884 9.48086 5.32912 9.44149 5.3675L7.90211 6.86802L8.26551 8.98679C8.28885 9.12287 8.19745 9.25211 8.06137 9.27545C8.00718 9.28475 7.95144 9.27592 7.90277 9.25033L6 8.24999L4.09723 9.25033C3.97501 9.31458 3.82386 9.2676 3.75961 9.14539C3.73402 9.09672 3.72519 9.04098 3.73449 8.98679L4.09789 6.86802L2.55851 5.3675C2.45964 5.27113 2.45762 5.11285 2.55399 5.01398C2.59237 4.97461 2.64265 4.94898 2.69706 4.94108L4.82443 4.63195L5.77582 2.70423Z" fill="#99A2AD"/>
</g>
<defs>
<clipPath id="clip0_11333_10282">
<rect width="12" height="12" fill="white"/>
</clipPath>
</defs>
</svg>
