<svg width="12" height="12" viewBox="0 0 12 12" fill="none" xmlns="http://www.w3.org/2000/svg">
<path d="M5.28358 1.49879C5.52968 0.833735 6.47032 0.833735 6.71642 1.49879L7.61676 3.93192C7.69413 4.14102 7.85898 4.30587 8.06808 4.38324L10.5012 5.28358C11.1663 5.52968 11.1663 6.47032 10.5012 6.71642L8.06808 7.61676C7.85898 7.69413 7.69413 7.85898 7.61676 8.06808L6.71642 10.5012C6.47032 11.1663 5.52968 11.1663 5.28358 10.5012L4.38324 8.06808C4.30587 7.85898 4.14102 7.69413 3.93192 7.61676L1.49879 6.71642C0.833735 6.47032 0.833735 5.52968 1.49879 5.28358L3.93192 4.38324C4.14102 4.30587 4.30587 4.14102 4.38324 3.93192L5.28358 1.49879Z" fill="#99A2AD"/>
</svg>
