<svg width="12" height="12" viewBox="0 0 12 12" fill="none" xmlns="http://www.w3.org/2000/svg">
<path d="M2.8026 0.218103C2.70567 -0.072701 2.29433 -0.0727009 2.1974 0.218103L1.95474 0.94607C1.796 1.4223 1.4223 1.796 0.94607 1.95474L0.218103 2.1974C-0.072701 2.29433 -0.0727009 2.70567 0.218103 2.8026L0.94607 3.04526C1.4223 3.204 1.796 3.5777 1.95474 4.05393L2.1974 4.7819C2.29433 5.0727 2.70567 5.0727 2.8026 4.7819L3.04526 4.05393C3.204 3.5777 3.5777 3.204 4.05393 3.04526L4.7819 2.8026C5.0727 2.70567 5.0727 2.29433 4.7819 2.1974L4.05393 1.95474C3.5777 1.796 3.204 1.4223 3.04526 0.94607L2.8026 0.218103Z" fill="#99A2AD"/>
<path fill-rule="evenodd" clip-rule="evenodd" d="M6.43563 3.4716C6.18025 4.21808 5.83727 4.97238 5.40483 5.40483C4.97238 5.83728 4.21808 6.18025 3.4716 6.43564C3.4246 6.45171 3.37764 6.46744 3.33079 6.48283C3.1856 6.5305 3.0415 6.57485 2.90093 6.61588C2.83424 6.63534 2.76835 6.65406 2.70352 6.67204C2.43216 6.74726 2.43216 7.25274 2.70352 7.32797C2.76835 7.34594 2.83424 7.36466 2.90093 7.38412C3.04149 7.42515 3.1856 7.4695 3.33079 7.51717C3.37764 7.53256 3.4246 7.54829 3.4716 7.56437C4.21808 7.81975 4.97238 8.16273 5.40483 8.59517C5.83727 9.02762 6.18025 9.78192 6.43563 10.5284C6.45171 10.5754 6.46744 10.6224 6.48283 10.6692C6.5305 10.8144 6.57485 10.9585 6.61588 11.0991C6.63534 11.1658 6.65406 11.2316 6.67203 11.2965C6.74726 11.5678 7.25274 11.5678 7.32797 11.2965C7.34594 11.2316 7.36466 11.1658 7.38412 11.0991C7.42515 10.9585 7.4695 10.8144 7.51717 10.6692C7.53256 10.6224 7.54829 10.5754 7.56437 10.5284C7.81975 9.78192 8.16273 9.02762 8.59517 8.59517C9.02762 8.16273 9.78192 7.81975 10.5284 7.56437C10.5754 7.54829 10.6224 7.53256 10.6692 7.51717C10.8144 7.4695 10.9585 7.42515 11.0991 7.38412C11.1658 7.36466 11.2316 7.34594 11.2965 7.32797C11.5678 7.25274 11.5678 6.74726 11.2965 6.67204C11.2316 6.65406 11.1658 6.63534 11.0991 6.61588C10.9585 6.57485 10.8144 6.5305 10.6692 6.48283C10.6224 6.46744 10.5754 6.45171 10.5284 6.43564C9.78192 6.18025 9.02762 5.83728 8.59517 5.40483C8.16273 4.97238 7.81975 4.21808 7.56437 3.4716C7.54829 3.4246 7.53256 3.37764 7.51717 3.33079C7.4695 3.1856 7.42515 3.0415 7.38412 2.90093C7.36466 2.83424 7.34594 2.76835 7.32797 2.70352C7.25274 2.43216 6.74726 2.43216 6.67203 2.70352C6.65406 2.76835 6.63534 2.83424 6.61588 2.90093C6.57485 3.04149 6.5305 3.1856 6.48283 3.33079C6.46744 3.37764 6.45171 3.4246 6.43563 3.4716Z" fill="#99A2AD"/>
</svg>
