<svg width="12" height="12" viewBox="0 0 12 12" fill="none" xmlns="http://www.w3.org/2000/svg">
<path d="M6 8C7.10457 8 8 7.10457 8 6C8 4.89543 7.10457 4 6 4C4.89543 4 4 4.89543 4 6C4 7.10457 4.89543 8 6 8Z" fill="#99A2AD"/>
<path fill-rule="evenodd" clip-rule="evenodd" d="M0 4.8C0 3.11984 0 2.27976 0.32698 1.63803C0.614601 1.07354 1.07354 0.614601 1.63803 0.32698C2.27976 0 3.11984 0 4.8 0H7.2C8.88016 0 9.72024 0 10.362 0.32698C10.9265 0.614601 11.3854 1.07354 11.673 1.63803C12 2.27976 12 3.11984 12 4.8V7.2C12 8.88016 12 9.72024 11.673 10.362C11.3854 10.9265 10.9265 11.3854 10.362 11.673C9.72024 12 8.88016 12 7.2 12H4.8C3.11984 12 2.27976 12 1.63803 11.673C1.07354 11.3854 0.614601 10.9265 0.32698 10.362C0 9.72024 0 8.88016 0 7.2V4.8ZM9.5 6C9.5 7.933 7.933 9.5 6 9.5C4.067 9.5 2.5 7.933 2.5 6C2.5 4.067 4.067 2.5 6 2.5C7.933 2.5 9.5 4.067 9.5 6Z" fill="#99A2AD"/>
</svg>
