<svg width="12" height="12" viewBox="0 0 12 12" fill="none" xmlns="http://www.w3.org/2000/svg">
<path d="M0.559755 6.29361C0.435972 5.48488 0.40667 5.38889 0.189898 5.08264C-0.0825222 4.69775 -0.121263 4.25726 0.475103 4.14144C2.00611 3.84408 3.66355 4.06621 5.17348 4.34267C5.77736 4.45325 6.22264 4.45327 6.82652 4.34269C8.33645 4.06623 9.99389 3.8441 11.5249 4.14145C12.1213 4.25728 12.0825 4.69777 11.8101 5.08266C11.5933 5.38891 11.564 5.4849 11.4402 6.29363C11.2547 7.50574 10.2352 7.99993 8.97239 8C7.58564 8.00014 7.12407 7.20889 6.69365 6.13014C6.27517 5.08111 5.72484 5.08108 5.30635 6.13012C4.87593 7.20888 4.41436 8.00013 3.02761 7.99998C1.76479 7.99991 0.745258 7.50573 0.559755 6.29361Z" fill="#99A2AD"/>
</svg>
