<svg width="12" height="12" viewBox="0 0 12 12" fill="none" xmlns="http://www.w3.org/2000/svg">
<path d="M8.25 6.5C9.39706 6.5 11.5 6.92857 11.5 8.64286C11.5 9.39286 11.3088 9.5 10.9265 9.5L7.88107 9.50135C7.96028 9.2566 8 8.96947 8 8.64286C8 7.78095 7.68395 7.10869 7.16321 6.61108C7.55483 6.53174 7.93782 6.5 8.25 6.5ZM3.75 6.5C4.89706 6.5 7 6.92857 7 8.64286C7 9.39286 6.80882 9.5 6.42647 9.5H1.07353C0.691176 9.5 0.5 9.39286 0.5 8.64286C0.5 6.92857 2.60294 6.5 3.75 6.5ZM3.75 2.75C4.57875 2.75 5.25 3.42125 5.25 4.25C5.25 5.07875 4.57875 5.75 3.75 5.75C2.92125 5.75 2.25 5.07875 2.25 4.25C2.25 3.42125 2.92125 2.75 3.75 2.75ZM8.25 2.75C9.07875 2.75 9.75 3.42125 9.75 4.25C9.75 5.07875 9.07875 5.75 8.25 5.75C7.42125 5.75 6.75 5.07875 6.75 4.25C6.75 3.42125 7.42125 2.75 8.25 2.75Z" fill="#99A2AD"/>
</svg>
