<svg width="20" height="20" viewBox="0 0 20 20" fill="none" xmlns="http://www.w3.org/2000/svg">
<path fill-rule="evenodd" clip-rule="evenodd" d="M2 6.66667C2 5.11217 2 4.33492 2.28108 3.73215C2.57915 3.09292 3.09292 2.57915 3.73215 2.28108C4.33492 2 5.11217 2 6.66667 2H13.3333C14.8878 2 15.6651 2 16.2679 2.28108C16.9071 2.57915 17.4208 3.09292 17.7189 3.73215C18 4.33492 18 5.11217 18 6.66667C18 7.44392 18 7.83254 17.8595 8.13393C17.7104 8.45354 17.4535 8.71042 17.1339 8.85946C16.8325 9 16.4439 9 15.6667 9H4.33333C3.55608 9 3.16746 9 2.86607 8.85946C2.54646 8.71042 2.28958 8.45354 2.14054 8.13393C2 7.83254 2 7.44392 2 6.66667ZM2 13.3333C2 12.5561 2 12.1675 2.14054 11.8661C2.28958 11.5465 2.54646 11.2896 2.86607 11.1405C3.16746 11 3.55608 11 4.33333 11H6.6C7.44008 11 7.86012 11 8.18099 11.1635C8.46323 11.3073 8.6927 11.5368 8.83651 11.819C9 12.1399 9 12.5599 9 13.4V15.6667C9 16.4439 9 16.8325 8.85946 17.1339C8.71042 17.4535 8.45354 17.7104 8.13393 17.8595C7.83254 18 7.44392 18 6.66667 18C5.11217 18 4.33492 18 3.73215 17.7189C3.09292 17.4208 2.57915 16.9071 2.28108 16.2679C2 15.6651 2 14.8878 2 13.3333ZM11.1635 11.819C11 12.1399 11 12.5599 11 13.4V15.6667C11 16.4439 11 16.8325 11.1405 17.1339C11.2896 17.4535 11.5465 17.7104 11.8661 17.8595C12.1675 18 12.5561 18 13.3333 18C14.8878 18 15.6651 18 16.2679 17.7189C16.9071 17.4208 17.4208 16.9071 17.7189 16.2679C18 15.6651 18 14.8878 18 13.3333C18 12.5561 18 12.1675 17.8595 11.8661C17.7104 11.5465 17.4535 11.2896 17.1339 11.1405C16.8325 11 16.4439 11 15.6667 11H13.4C12.5599 11 12.1399 11 11.819 11.1635C11.5368 11.3073 11.3073 11.5368 11.1635 11.819Z" fill="#99A2AD"/>
<path d="M2 6.66667C2 5.11217 2 4.33492 2.28108 3.73215C2.57915 3.09292 3.09292 2.57915 3.73215 2.28108C4.33492 2 5.11217 2 6.66667 2H13.3333C14.8878 2 15.6651 2 16.2679 2.28108C16.9071 2.57915 17.4208 3.09292 17.7189 3.73215C18 4.33492 18 5.11217 18 6.66667C18 7.44392 18 7.83254 17.8595 8.13393C17.7104 8.45354 17.4535 8.71042 17.1339 8.85946C16.8325 9 16.4439 9 15.6667 9H4.33333C3.55608 9 3.16746 9 2.86607 8.85946C2.54646 8.71042 2.28958 8.45354 2.14054 8.13393C2 7.83254 2 7.44392 2 6.66667Z" fill="#99A2AD"/>
<path d="M2 13.3333C2 12.5561 2 12.1675 2.14054 11.8661C2.28958 11.5465 2.54646 11.2896 2.86607 11.1405C3.16746 11 3.55608 11 4.33333 11H6.6C7.44008 11 7.86012 11 8.18099 11.1635C8.46323 11.3073 8.6927 11.5368 8.83651 11.819C9 12.1399 9 12.5599 9 13.4V15.6667C9 16.4439 9 16.8325 8.85946 17.1339C8.71042 17.4535 8.45354 17.7104 8.13393 17.8595C7.83254 18 7.44392 18 6.66667 18C5.11217 18 4.33492 18 3.73215 17.7189C3.09292 17.4208 2.57915 16.9071 2.28108 16.2679C2 15.6651 2 14.8878 2 13.3333Z" fill="#99A2AD"/>
<path d="M11.1635 11.819C11 12.1399 11 12.5599 11 13.4V15.6667C11 16.4439 11 16.8325 11.1405 17.1339C11.2896 17.4535 11.5465 17.7104 11.8661 17.8595C12.1675 18 12.5561 18 13.3333 18C14.8878 18 15.6651 18 16.2679 17.7189C16.9071 17.4208 17.4208 16.9071 17.7189 16.2679C18 15.6651 18 14.8878 18 13.3333C18 12.5561 18 12.1675 17.8595 11.8661C17.7104 11.5465 17.4535 11.2896 17.1339 11.1405C16.8325 11 16.4439 11 15.6667 11H13.4C12.5599 11 12.1399 11 11.819 11.1635C11.5368 11.3073 11.3073 11.5368 11.1635 11.819Z" fill="#99A2AD"/>
</svg>
