<svg width="20" height="20" viewBox="0 0 20 20" fill="none" xmlns="http://www.w3.org/2000/svg">
<path fill-rule="evenodd" clip-rule="evenodd" d="M11.546 2.66372C11.546 1.68516 12.6929 1.14608 13.4579 1.76434L16.9332 4.57396C17.2896 4.86209 17.5 5.30178 17.5 5.76C17.4957 6.19137 17.3062 6.62615 16.9336 6.92772L13.458 9.73744C12.693 10.3557 11.546 9.81672 11.546 8.83816V7.8372L8.02677 7.37735C7.95778 7.36834 7.8914 7.35193 7.82841 7.32901C7.55511 7.2377 7.38698 7.04666 7.31485 6.94909C7.20373 6.79877 7.14235 6.64 7.10675 6.52616C7.03208 6.28742 7 6.01353 7 5.75093C7 5.48844 7.03202 5.21462 7.10662 4.97591C7.14218 4.8621 7.20352 4.7033 7.31461 4.55294C7.38698 4.45499 7.556 4.26293 7.83097 4.17195C7.89324 4.1495 7.95876 4.13341 8.0268 4.12452L11.546 3.6648V2.66372Z" fill="#99A2AD"/>
<path fill-rule="evenodd" clip-rule="evenodd" d="M6.5456 10.2634C7.31132 9.64518 8.45915 10.1843 8.45915 11.1628V12.2943C10.282 12.5804 12.8178 13.7046 13.9374 16.5643C14.0887 16.9507 13.9591 17.3895 13.6214 17.6344C13.2838 17.8794 12.822 17.8695 12.4954 17.6103C11.51 16.8284 10.4286 16.4495 8.45915 16.3626V17.3372C8.45915 18.3157 7.31132 18.8548 6.5456 18.2366L3.0673 15.4271C2.71088 15.1389 2.49995 14.6991 2.5 14.2407C2.5044 13.8098 2.6938 13.3747 3.06728 13.0731L6.5456 10.2634Z" fill="#99A2AD"/>
</svg>
