<svg width="20" height="20" viewBox="0 0 20 20" fill="none" xmlns="http://www.w3.org/2000/svg">
<path fill-rule="evenodd" clip-rule="evenodd" d="M2.46322 4.32054C2 5.22967 2 6.41978 2 8.8V11.2C2 13.5802 2 14.7703 2.46322 15.6795C2.87068 16.4791 3.52085 17.1293 4.32054 17.5368C5.22967 18 6.41978 18 8.8 18H11.2C13.5802 18 14.7703 18 15.6795 17.5368C16.4791 17.1293 17.1293 16.4791 17.5368 15.6795C18 14.7703 18 13.5802 18 11.2V8.8C18 6.41978 18 5.22967 17.5368 4.32054C17.1293 3.52085 16.4791 2.87068 15.6795 2.46322C14.7703 2 13.5802 2 11.2 2H8.8C6.41978 2 5.22967 2 4.32054 2.46322C3.52085 2.87068 2.87068 3.52085 2.46322 4.32054ZM3.99848 5.74805C3.99848 5.33383 4.33427 4.99805 4.74848 4.99805H8.7482C9.16241 4.99805 9.4982 5.33383 9.4982 5.74805C9.4982 6.16226 9.16241 6.49805 8.7482 6.49805L7.50171 6.49805V10.25C7.50171 10.6642 7.16593 11 6.75172 11C6.3375 11 6.00172 10.6642 6.00172 10.25L6.00171 6.49805H4.74848C4.33427 6.49805 3.99848 6.16226 3.99848 5.74805ZM11.7482 6C11.334 6 10.9982 6.33579 10.9982 6.75C10.9982 7.16421 11.334 7.5 11.7482 7.5H14.2445C14.6587 7.5 14.9945 7.16421 14.9945 6.75C14.9945 6.33579 14.6587 6 14.2445 6H11.7482ZM9.50049 10.25C9.50075 9.83579 9.83676 9.50022 10.251 9.50048L14.2524 9.50306C14.6667 9.50332 15.0022 9.83933 15.002 10.2535C15.0017 10.6678 14.6657 11.0033 14.2515 11.0031L10.25 11.0005C9.83579 11.0002 9.50022 10.6642 9.50049 10.25ZM6.75001 13.0019C6.33579 13.0019 6.00001 13.3377 6.00001 13.7519C6.00001 14.1661 6.33579 14.5019 6.75001 14.5019L14.25 14.5019C14.6642 14.5019 15 14.1661 15 13.7519C15 13.3377 14.6642 13.0019 14.25 13.0019L6.75001 13.0019Z" fill="#99A2AD"/>
</svg>
