<svg width="20" height="20" viewBox="0 0 20 20" fill="none" xmlns="http://www.w3.org/2000/svg">
<g clip-path="url(#clip0_26062_9273)">
<path fill-rule="evenodd" clip-rule="evenodd" d="M10 20C15.5228 20 20 15.5228 20 10C20 4.47715 15.5228 0 10 0C4.47715 0 0 4.47715 0 10C0 15.5228 4.47715 20 10 20ZM15.35 7.27971C15.6426 6.98649 15.6421 6.51162 15.3488 6.21905C15.0556 5.92648 14.5807 5.927 14.2882 6.22021L8.33325 12.1882L5.80992 9.66013C5.5173 9.36696 5.04243 9.36651 4.74926 9.65913C4.45609 9.95175 4.45564 10.4266 4.74826 10.7198L7.8025 13.7798C7.94321 13.9208 8.13421 14 8.33339 14C8.53257 13.9999 8.72356 13.9207 8.86424 13.7797L15.35 7.27971Z" fill="#2688EB"/>
</g>
<defs>
<clipPath id="clip0_26062_9273">
<rect width="20" height="20" fill="white"/>
</clipPath>
</defs>
</svg>
