<svg width="20" height="20" viewBox="0 0 20 20" fill="none" xmlns="http://www.w3.org/2000/svg">
<path fill-rule="evenodd" clip-rule="evenodd" d="M2 8.4C2 6.15979 2 5.03969 2.43597 4.18404C2.81947 3.43139 3.43139 2.81947 4.18404 2.43597C5.03969 2 6.15979 2 8.4 2H11.6C13.8402 2 14.9603 2 15.816 2.43597C16.5686 2.81947 17.1805 3.43139 17.564 4.18404C18 5.03969 18 6.15979 18 8.4V11.6C18 13.8402 18 14.9603 17.564 15.816C17.1805 16.5686 16.5686 17.1805 15.816 17.564C14.9603 18 13.8402 18 11.6 18H8.4C6.15979 18 5.03969 18 4.18404 17.564C3.43139 17.1805 2.81947 16.5686 2.43597 15.816C2 14.9603 2 13.8402 2 11.6V8.4ZM6.4 9.1C5.90294 9.1 5.5 9.50294 5.5 10C5.5 10.4971 5.90294 10.9 6.4 10.9H13.6C14.0971 10.9 14.5 10.4971 14.5 10C14.5 9.50294 14.0971 9.1 13.6 9.1H6.4Z" fill="#2688EB"/>
</svg>
