<svg width="20" height="20" viewBox="0 0 20 20" fill="none" xmlns="http://www.w3.org/2000/svg">
<path fill-rule="evenodd" clip-rule="evenodd" d="M1.5 10C1.5 5.30558 5.30558 1.5 10 1.5C14.6944 1.5 18.5 5.30558 18.5 10C18.5 14.6944 14.6944 18.5 10 18.5C5.30558 18.5 1.5 14.6944 1.5 10ZM10.0001 5.5C9.58591 5.5 9.25012 5.83579 9.25012 6.25V10.75C9.25012 11.1642 9.58591 11.5 10.0001 11.5C10.4143 11.5 10.7501 11.1642 10.7501 10.75V6.25C10.7501 5.83579 10.4143 5.5 10.0001 5.5ZM9.1001 13.9C9.1001 13.4029 9.50304 13 10.0001 13C10.4972 13 10.9001 13.4029 10.9001 13.9C10.9001 14.3971 10.4972 14.8 10.0001 14.8C9.50304 14.8 9.1001 14.3971 9.1001 13.9Z" fill="#99A2AD"/>
</svg>
