<svg width="20" height="20" viewBox="0 0 20 20" fill="none" xmlns="http://www.w3.org/2000/svg">
<path d="M7.28107 4.98553L6.75641 6.1981C6.71981 6.28269 6.70151 6.32498 6.67303 6.35784C6.64782 6.38691 6.61693 6.4105 6.58228 6.42713C6.54312 6.44594 6.4976 6.45238 6.40656 6.46526L5.65687 6.57134C3.50737 6.8755 2.43262 7.02758 1.98094 7.53117C1.58879 7.9684 1.42576 8.56579 1.54125 9.14236C1.67428 9.80643 2.52202 10.4862 4.21751 11.8457L4.49107 12.065C4.56798 12.1267 4.60643 12.1575 4.63136 12.1965C4.65342 12.2309 4.66774 12.2697 4.67334 12.3102C4.67966 12.3561 4.67048 12.4046 4.65211 12.5016L4.5677 12.9475C4.09397 15.4501 3.8571 16.7014 4.22927 17.3134C4.55153 17.8433 5.11598 18.1772 5.73431 18.2037C6.4484 18.2343 7.42583 17.4211 9.38064 15.7947L9.71764 15.5143C9.81986 15.4292 9.87097 15.3867 9.92798 15.3704C9.97825 15.3561 10.0315 15.3561 10.0818 15.3704C10.1388 15.3867 10.1899 15.4292 10.2921 15.5143L10.6291 15.7947C12.5839 17.4211 13.5614 18.2343 14.2755 18.2037C14.8938 18.1772 15.4582 17.8433 15.7805 17.3134C16.1527 16.7014 15.9158 15.4501 15.4421 12.9475L15.3577 12.5016C15.3393 12.4046 15.3301 12.3561 15.3364 12.3102C15.342 12.2697 15.3563 12.2309 15.3784 12.1965C15.4033 12.1575 15.4418 12.1267 15.5187 12.065L15.7923 11.8457C17.4877 10.4862 18.3355 9.80643 18.4685 9.14236C18.584 8.56579 18.421 7.9684 18.0288 7.53117C17.5771 7.02758 16.5024 6.8755 14.3529 6.57134L13.6032 6.46526C13.5122 6.45238 13.4666 6.44594 13.4275 6.42713C13.3928 6.4105 13.3619 6.38691 13.3367 6.35784C13.3083 6.32498 13.29 6.28269 13.2534 6.1981L12.7287 4.98553C11.8689 2.99829 11.4389 2.00467 10.8363 1.70179C10.313 1.43881 9.69673 1.43881 9.17346 1.70179C8.57083 2.00467 8.14091 2.99829 7.28107 4.98553Z" fill="#99A2AD"/>
</svg>
