<svg width="20" height="20" viewBox="0 0 20 20" fill="none" xmlns="http://www.w3.org/2000/svg">
<path d="M7.86671 16.722C7.3754 18.6717 8.11305 19.0756 9.43266 17.6522L14.9757 11.3763C16.2582 9.83381 15.937 8.59454 14.0901 8.28473L11.4175 7.79703C11.2614 7.76854 11.1583 7.62074 11.1872 7.4669C11.1882 7.46182 11.1892 7.45677 11.1905 7.45175L12.2189 3.27049C12.7116 1.30836 11.8905 0.953021 10.6587 2.3435C8.88883 4.30984 7.54385 5.79525 6.62375 6.79973C6.30296 7.14994 5.78661 7.69658 5.07469 8.43963C3.51443 10.1456 4.33561 11.3829 6.14029 11.6927L8.69443 12.1439C8.85072 12.1715 8.95471 12.3187 8.92669 12.4727C8.92561 12.4786 8.92434 12.4845 8.92288 12.4904L7.86671 16.722Z" fill="#99A2AD"/>
</svg>
