<svg width="20" height="20" viewBox="0 0 20 20" fill="none" xmlns="http://www.w3.org/2000/svg">
<path fill-rule="evenodd" clip-rule="evenodd" d="M7.06593 2.05836C6.81239 1.99946 6.55171 1.99969 6.25597 1.99996L6.19541 2L6.16517 2C5.51653 1.99999 4.98604 1.99998 4.5544 2.03398C4.10779 2.06916 3.70382 2.14415 3.32441 2.32935C2.67335 2.64713 2.14714 3.17335 1.82935 3.82441C1.64416 4.20382 1.56916 4.60779 1.53399 5.0544C1.49999 5.48603 1.49999 6.01652 1.5 6.66515V12.2814C1.49999 12.9548 1.49998 13.5055 1.53655 13.9531C1.5744 14.4163 1.65514 14.8347 1.85423 15.2255C2.16582 15.837 2.663 16.3342 3.27453 16.6458C3.66527 16.8449 4.08367 16.9256 4.54693 16.9634C4.99448 17 5.54518 17 6.21853 17H13.7814C14.4548 17 15.0055 17 15.4531 16.9634C15.9163 16.9256 16.3347 16.8449 16.7255 16.6458C17.337 16.3342 17.8342 15.837 18.1458 15.2255C18.3449 14.8347 18.4256 14.4163 18.4634 13.9531C18.5 13.5055 18.5 12.9548 18.5 12.2814V8.85014C18.5 8.17677 18.5 7.62606 18.4634 7.1785C18.4256 6.71524 18.3449 6.29685 18.1458 5.90611C17.8342 5.29458 17.337 4.79739 16.7255 4.4858C16.3347 4.28671 15.9163 4.20598 15.4531 4.16813C15.0055 4.13156 14.4548 4.13157 13.7814 4.13157L10.2955 4.13157C9.89058 4.13157 9.81106 4.1267 9.74448 4.11063C9.66757 4.09206 9.59407 4.06144 9.52673 4.01989C9.46844 3.98394 9.40899 3.9309 9.12387 3.64336L8.36631 2.87931C8.15826 2.66913 7.97489 2.48386 7.75454 2.3453C7.54257 2.212 7.30983 2.11502 7.06593 2.05836Z" fill="#99A2AD"/>
</svg>
