<svg width="20" height="20" viewBox="0 0 20 20" fill="none" xmlns="http://www.w3.org/2000/svg">
<path fill-rule="evenodd" clip-rule="evenodd" d="M10 1C5.58172 1 2 4.58172 2 9V15.2757C2 15.752 2.11089 16.2218 2.3239 16.6478C2.98432 17.9686 4.55986 18.5458 5.91721 17.9641L6.46927 17.7275C6.79494 17.5879 7.17138 17.6428 7.44358 17.8696L7.88768 18.2397C9.11131 19.2594 10.8887 19.2594 12.1123 18.2397L12.5418 17.8818C12.823 17.6475 13.2118 17.5908 13.5482 17.7349L14.103 17.9727C15.449 18.5496 17.0114 17.9772 17.6663 16.6674C17.8857 16.2285 18 15.7445 18 15.2538V9C18 4.58172 14.4183 1 10 1ZM7 10.25C7.69036 10.25 8.25 9.69036 8.25 9C8.25 8.30964 7.69036 7.75 7 7.75C6.30964 7.75 5.75 8.30964 5.75 9C5.75 9.69036 6.30964 10.25 7 10.25ZM14.25 9C14.25 9.69036 13.6904 10.25 13 10.25C12.3096 10.25 11.75 9.69036 11.75 9C11.75 8.30964 12.3096 7.75 13 7.75C13.6904 7.75 14.25 8.30964 14.25 9ZM12.2655 13.338C12.5903 13.0809 12.6451 12.6092 12.388 12.2845C12.1309 11.9597 11.6592 11.9049 11.3345 12.162C10.8293 12.5619 10.3883 12.7137 9.99938 12.714C9.61092 12.7143 9.17075 12.5636 8.66664 12.1629C8.34239 11.9051 7.87059 11.9591 7.61284 12.2833C7.35509 12.6076 7.40901 13.0794 7.73326 13.3371C8.4292 13.8903 9.18906 14.2146 10.0006 14.214C10.8117 14.2133 11.5707 13.8881 12.2655 13.338Z" fill="#99A2AD"/>
</svg>
