<svg width="20" height="20" viewBox="0 0 20 20" fill="none" xmlns="http://www.w3.org/2000/svg">
<path d="M10.2932 1.50317C9.85029 1.50317 9.49127 1.86219 9.49127 2.30505V8.66662C9.47796 8.97411 9.22446 9.21931 8.9137 9.21931C8.59441 9.21931 8.33557 8.96048 8.33557 8.64119L8.33484 3.30664C8.33484 2.86377 7.97583 2.50476 7.53296 2.50476C7.09009 2.50476 6.73108 2.86377 6.73108 3.30664V9.35934C6.6574 9.59455 6.43775 9.76521 6.17825 9.76521C5.88003 9.76521 5.63446 9.53985 5.60254 9.25014V5.30443C5.60254 4.86157 5.24353 4.50255 4.80066 4.50255C4.35779 4.50255 3.99878 4.86157 3.99878 5.30443V11.73C3.99878 11.7436 3.99912 11.7571 3.99979 11.7706L3.99968 11.8204C3.99511 13.8995 3.9929 14.9065 4.39472 16.0316C4.79722 16.9047 5.49476 17.5405 6.25883 17.9283C6.98253 18.2956 8.30382 18.591 9.61185 18.4792C9.71131 18.4715 9.81022 18.4604 9.90736 18.4468C10.0123 18.4327 10.1169 18.4158 10.2207 18.3959C10.2393 18.3915 10.2579 18.3869 10.2767 18.3822C10.8449 18.2643 11.2804 18.0926 11.2804 18.0926C12.686 17.6145 13.8605 16.5902 13.9944 16.4314V16.4122C14.7774 15.7323 16.6187 12.6045 17.3877 11.267C17.5908 10.9139 17.5088 10.468 17.1969 10.2062C16.8225 9.89196 16.2608 9.95914 15.9711 10.3528L13.9988 13.0323V8.12746H13.9968V3.79925C13.9968 3.35638 13.6378 2.99737 13.1949 2.99737C12.752 2.99737 12.393 3.35638 12.393 3.79925V8.61034C12.3729 8.95003 12.0911 9.21931 11.7464 9.21931C11.3886 9.21931 11.0986 8.92928 11.0986 8.57151V8.12746H11.095V2.30506C11.095 1.86219 10.736 1.50317 10.2932 1.50317Z" fill="#99A2AD"/>
</svg>
