<svg width="20" height="20" viewBox="0 0 20 20" fill="none" xmlns="http://www.w3.org/2000/svg">
<path opacity="0.4" d="M4.07798 4.07798C5.59369 2.56227 7.68727 1.625 10 1.625C12.3127 1.625 14.4063 2.56227 15.922 4.07798C17.4377 5.59369 18.375 7.68727 18.375 10C18.375 12.3127 17.4377 14.4063 15.922 15.922C14.4063 17.4377 12.3127 18.375 10 18.375C7.68727 18.375 5.59369 17.4377 4.07798 15.922C2.56227 14.4063 1.625 12.3127 1.625 10C1.625 7.68727 2.56227 5.59369 4.07798 4.07798Z" stroke="#909499" stroke-width="0.25"/>
<rect opacity="0.4" x="1.625" y="3.125" width="16.75" height="13.75" rx="4.125" stroke="#909499" stroke-width="0.25"/>
<rect opacity="0.4" x="3.125" y="1.625" width="13.75" height="16.75" rx="4.125" stroke="#909499" stroke-width="0.25"/>
<rect opacity="0.4" x="2.125" y="2.125" width="15.75" height="15.75" rx="4.125" stroke="#909499" stroke-width="0.25"/>
</svg>
