<svg width="20" height="20" viewBox="0 0 20 20" fill="none" xmlns="http://www.w3.org/2000/svg">
<path d="M10 1.5C14.692 1.5 18.5 5.308 18.5 10C18.5 14.692 14.692 18.5 10 18.5C5.308 18.5 1.5 14.692 1.5 10C1.5 5.308 5.308 1.5 10 1.5ZM10 9C9.50294 9 9.1 9.40294 9.1 9.9V13.6C9.1 14.0971 9.50294 14.5 10 14.5C10.4971 14.5 10.9 14.0971 10.9 13.6V9.9C10.9 9.40294 10.4971 9 10 9ZM10 5.5C9.44772 5.5 9 5.94772 9 6.5C9 7.05228 9.44772 7.5 10 7.5C10.5523 7.5 11 7.05228 11 6.5C11 5.94772 10.5523 5.5 10 5.5Z" fill="#99A2AD"/>
</svg>
