<svg width="20" height="20" viewBox="0 0 20 20" fill="none" xmlns="http://www.w3.org/2000/svg">
<path fill-rule="evenodd" clip-rule="evenodd" d="M3.12471 3.12471C2 4.24942 2 6.05961 2 9.68V10.32C2 13.9404 2 15.7506 3.12471 16.8753C4.24942 18 6.05961 18 9.68 18H10.32C13.9404 18 15.7506 18 16.8753 16.8753C18 15.7506 18 13.9404 18 10.32V9.68C18 6.05961 18 4.24942 16.8753 3.12471C15.7506 2 13.9404 2 10.32 2H9.68C6.05961 2 4.24942 2 3.12471 3.12471ZM4.70003 7C4.78691 11.185 6.87209 13.7 10.5279 13.7H10.7351V11.3057C12.0784 11.4398 13.0942 12.4257 13.5019 13.7H15.4C14.8787 11.7953 13.5086 10.7423 12.6531 10.3399C13.5086 9.84363 14.7116 8.63644 14.999 7H13.2746C12.9003 8.32793 11.791 9.53513 10.7351 9.64914V7H9.01073V11.641C7.9414 11.3728 6.5914 10.0717 6.53125 7H4.70003Z" fill="#99A2AD"/>
</svg>
