<svg width="20" height="20" viewBox="0 0 20 20" fill="none" xmlns="http://www.w3.org/2000/svg">
<path fill-rule="evenodd" clip-rule="evenodd" d="M8.31738 2H11.6826C12.635 2 13.3956 2 14.0099 2.05017C14.6399 2.10162 15.1818 2.20966 15.6795 2.4632C16.4792 2.87067 17.1293 3.52087 17.5368 4.32056C17.7904 4.81824 17.8983 5.36011 17.9498 5.99011C18 6.60437 18 7.36493 18 8.31738V11.6826C18 12.6351 18 13.3956 17.9498 14.0099C17.8983 14.6399 17.7904 15.1818 17.5368 15.6794C17.1293 16.4791 16.4792 17.1293 15.6795 17.5368C15.1818 17.7903 14.6399 17.8984 14.0099 17.9498C13.3956 18 12.6351 18 11.6826 18H8.31738C7.36493 18 6.6044 18 5.99014 17.9498C5.36011 17.8984 4.81824 17.7903 4.32053 17.5368C3.52084 17.1293 2.8707 16.4791 2.46323 15.6794C2.20963 15.1818 2.10165 14.6399 2.05017 14.0099C2 13.3956 2 12.6351 2 11.6826V8.31738C2 7.36493 2 6.60437 2.05017 5.99011C2.10165 5.36011 2.20963 4.81824 2.46323 4.32056C2.8707 3.52087 3.52084 2.87067 4.32053 2.4632C4.81824 2.20966 5.36011 2.10162 5.99014 2.05017C6.6044 2 7.36496 2 8.31738 2ZM8.75061 5.29016C8.72529 4.87562 8.36871 4.56009 7.95416 4.58541C7.53962 4.61073 7.22409 4.96731 7.24941 5.38186L7.40185 7.87787C7.42717 8.29242 7.78375 8.60795 8.1983 8.58263C8.61284 8.55731 8.92837 8.20073 8.90306 7.78618L8.75061 5.29016ZM12.188 5.68535C12.2926 5.28341 12.0515 4.87281 11.6496 4.76825C11.2476 4.66369 10.837 4.90477 10.7325 5.30671L10.0416 7.96269C9.93701 8.36463 10.1781 8.77523 10.58 8.87979C10.982 8.98435 11.3926 8.74327 11.4971 8.34133L12.188 5.68535ZM8.17328 10.7703C8.36148 10.7468 8.48673 10.7884 8.57908 10.8466C8.68161 10.9112 8.77659 11.0188 8.84741 11.1604C9.03314 11.5319 9.48484 11.6825 9.85632 11.4967C10.2278 11.311 10.3784 10.8593 10.1926 10.4878C9.85094 9.80441 9.1052 9.13815 7.98679 9.27794C6.85912 9.41889 6.11876 10.45 6.12805 11.5506C6.13159 13.686 7.86379 15.416 10 15.416C12.1385 15.416 13.872 13.6825 13.872 11.544C13.872 10.937 13.6832 10.1676 13.3649 9.63713C13.1512 9.28099 12.6893 9.16551 12.3331 9.37919C11.977 9.59287 11.8615 10.0548 12.0752 10.4109C12.2369 10.6805 12.368 11.176 12.368 11.544C12.368 12.8519 11.3079 13.912 10 13.912C8.69223 13.912 7.63204 12.8519 7.63204 11.544C7.63206 11.0438 7.90744 10.8036 8.17328 10.7703Z" fill="#99A2AD"/>
</svg>
