<svg width="20" height="20" viewBox="0 0 20 20" fill="none" xmlns="http://www.w3.org/2000/svg">
<path fill-rule="evenodd" clip-rule="evenodd" d="M14.2268 17.953C15.0757 17.8787 15.531 17.7169 15.9883 17.4724C16.6281 17.1302 17.1301 16.6281 17.4723 15.9884C17.8196 15.3389 18 14.6933 18 12.9179V7.08228C18 5.3069 17.8196 4.66132 17.4723 4.01179C17.1301 3.37205 16.6281 2.86998 15.9883 2.52784C15.5311 2.28332 15.0758 2.12155 14.2271 2.04719C14.7706 2.56765 15.2113 3.19423 15.5181 3.89565C15.7762 4.48569 15.8905 5.12687 15.9457 5.89861C16.0001 6.65698 16 7.59688 16 8.79565V11.2043C16 12.403 16.0001 13.3429 15.9457 14.1013C15.8905 14.873 15.7762 15.5142 15.5181 16.1043C15.2113 16.8058 14.7704 17.4325 14.2268 17.953ZM10.4357 18.0001H7.08218C5.3068 18.0001 4.66122 17.8197 4.01169 17.4724C3.37195 17.1302 2.86988 16.6281 2.52774 15.9884C2.18037 15.3389 2 14.6933 2 12.9179V7.08228C2 5.3069 2.18037 4.66132 2.52774 4.01179C2.86988 3.37205 3.37195 2.86998 4.01169 2.52784C4.66122 2.18046 5.3068 2.0001 7.08218 2.0001H10.4397L10.4443 2.00042C11.1356 2.04993 11.5852 2.14519 11.9532 2.30616C12.933 2.73474 13.7153 3.51696 14.1438 4.49677C14.3048 4.86479 14.4001 5.31442 14.4496 6.00575C14.4996 6.70429 14.5 7.59061 14.5 8.82496V11.175C14.5 12.4093 14.4996 13.2956 14.4496 13.9942C14.4001 14.6855 14.3048 15.1351 14.1438 15.5031C13.7153 16.483 12.933 17.2652 11.9532 17.6938C11.5852 17.8547 11.1356 17.95 10.4443 17.9995C10.4414 17.9997 10.4386 17.9999 10.4357 18.0001ZM7.00701 7.76536C6.87635 7.7185 6.7294 7.78875 6.69738 7.95103C6.56802 8.60658 6.50005 9.28509 6.50005 9.98046C6.50005 10.69 6.57081 11.3819 6.70534 12.0498C6.73794 12.2117 6.88482 12.2816 7.01532 12.2346C8.27987 11.7799 9.43117 11.0816 10.4131 10.1946C10.529 10.0898 10.529 9.91318 10.4131 9.80841C9.42902 8.91946 8.27483 8.22003 7.00701 7.76536ZM7.51337 6.35341C6.50952 5.99341 5.4334 6.60834 5.22576 7.66064C5.07762 8.41133 5.00005 9.1871 5.00005 9.98046C5.00005 10.79 5.08081 11.5811 5.23488 12.346C5.44625 13.3955 6.52132 14.0063 7.52291 13.6462C8.97497 13.124 10.2947 12.323 11.4186 11.3077C12.1939 10.6073 12.1939 9.39571 11.4186 8.69534C10.2922 7.6778 8.96919 6.8755 7.51337 6.35341Z" fill="#99A2AD"/>
</svg>
