<svg width="20" height="20" viewBox="0 0 20 20" fill="none" xmlns="http://www.w3.org/2000/svg">
<path fill-rule="evenodd" clip-rule="evenodd" d="M14.2545 17.9263C14.782 17.8674 15.2474 17.7569 15.6795 17.5368C16.4792 17.1293 17.1293 16.4791 17.5368 15.6794C17.7904 15.1818 17.8983 14.6399 17.9498 14.0099C18 13.3956 18 12.6351 18 11.6826V8.31738C18 7.36493 18 6.60437 17.9498 5.99011C17.8983 5.36011 17.7904 4.81824 17.5368 4.32056C17.1293 3.52087 16.4792 2.87067 15.6795 2.4632C15.2474 2.24309 14.782 2.13264 14.2546 2.07368C14.7854 2.58885 15.2165 3.20608 15.5181 3.89565C15.7762 4.48568 15.8905 5.12686 15.9457 5.89861C16 6.65698 16 7.59687 16 8.79564V8.82495V11.175V11.2043C16 12.403 16 13.3429 15.9457 14.1013C15.8905 14.873 15.7762 15.5142 15.5181 16.1043C15.2165 16.7939 14.7853 17.4111 14.2545 17.9263ZM10.437 18H8.31738C7.36493 18 6.6044 18 5.99014 17.9498C5.36011 17.8984 4.81824 17.7903 4.32053 17.5368C3.52084 17.1293 2.8707 16.4791 2.46323 15.6794C2.20963 15.1818 2.10165 14.6399 2.05017 14.0099C2 13.3956 2 12.6351 2 11.6826V8.31738C2 7.36493 2 6.60437 2.05017 5.99011C2.10165 5.36011 2.20963 4.81824 2.46323 4.32056C2.8707 3.52087 3.52084 2.87067 4.32053 2.4632C4.81824 2.20966 5.36011 2.10162 5.99014 2.05017C6.6044 2 7.36496 2 8.31738 2H10.4384C10.4403 2.00014 10.4423 2.00028 10.4442 2.00042C11.1356 2.04992 11.5852 2.14518 11.9532 2.30615C12.933 2.73473 13.7152 3.51695 14.1438 4.49677C14.3048 4.86478 14.4001 5.31441 14.4496 6.00574C14.4996 6.70428 14.5 7.5906 14.5 8.82495V11.175C14.5 12.4093 14.4996 13.2956 14.4496 13.9942C14.4001 14.6855 14.3048 15.1351 14.1438 15.5031C13.7152 16.4829 12.933 17.2652 11.9532 17.6938C11.5852 17.8547 11.1356 17.95 10.4442 17.9995C10.4418 17.9997 10.4394 17.9998 10.437 18ZM7.007 7.76532C6.87634 7.71846 6.72939 7.78872 6.69736 7.95099C6.56801 8.60654 6.50003 9.28506 6.50003 9.98042C6.50003 10.6899 6.5708 11.3819 6.70533 12.0498C6.73793 12.2116 6.8848 12.2815 7.01531 12.2346C8.27986 11.7799 9.43116 11.0816 10.413 10.1946C10.529 10.0898 10.529 9.91314 10.413 9.80837C9.42901 8.91942 8.27481 8.21999 7.007 7.76532ZM7.51335 6.35337C6.5095 5.99337 5.43339 6.6083 5.22574 7.6606C5.07761 8.4113 5.00003 9.18706 5.00003 9.98042C5.00003 10.7899 5.0808 11.5811 5.23486 12.346C5.44624 13.3954 6.5213 14.0063 7.52289 13.6461C8.97495 13.124 10.2946 12.3229 11.4186 11.3076C12.1939 10.6073 12.1939 9.39567 11.4186 8.6953C10.2922 7.67777 8.96917 6.87546 7.51335 6.35337Z" fill="#99A2AD"/>
</svg>
