<svg width="20" height="20" viewBox="0 0 20 20" fill="none" xmlns="http://www.w3.org/2000/svg">
<path d="M10.0046 17.6083C8.59139 17.6083 7.35792 17.3226 6.30415 16.7512C5.25038 16.1797 4.43625 15.3687 3.86175 14.318C3.28725 13.2673 3 12.0415 3 10.6406V10.1336C3 8.73886 3.29954 7.50077 3.89862 6.41935C4.4977 5.33794 5.33947 4.4977 6.42396 3.89862C7.50845 3.29954 8.74807 3 10.1429 3H10.2166C11.5192 3 12.6851 3.26881 13.7143 3.80645C14.7435 4.34409 15.5484 5.08755 16.129 6.03687C16.7097 6.98618 17 8.06297 17 9.26728V9.72811C17 10.5515 16.8648 11.2796 16.5945 11.9124C16.3241 12.5453 15.9462 13.0384 15.4608 13.3917C14.9754 13.745 14.4163 13.9217 13.7834 13.9217C13.212 13.9217 12.7204 13.8018 12.3088 13.5622C11.8971 13.3226 11.6513 13.0092 11.5714 12.6221H11.4793C11.4117 12.8618 11.2765 13.0814 11.0737 13.2811C10.871 13.4808 10.6237 13.6375 10.3318 13.7512C10.0399 13.8648 9.73426 13.9217 9.41475 13.9217C8.9109 13.9217 8.47158 13.7988 8.09677 13.553C7.72196 13.3072 7.43318 12.957 7.23041 12.5023C7.02765 12.0476 6.92627 11.51 6.92627 10.8894V9.96774C6.92627 9.36559 7.02918 8.84025 7.23502 8.39171C7.44086 7.94316 7.73579 7.59908 8.11982 7.35945C8.50384 7.11981 8.95391 7 9.47005 7C9.92473 7 10.3241 7.11213 10.6682 7.33641C11.0123 7.56068 11.2396 7.85407 11.3502 8.21659H11.424V7.97696C11.424 7.73118 11.4916 7.5361 11.6267 7.39171C11.7619 7.24731 11.9462 7.17512 12.1797 7.17512C12.4071 7.17512 12.5883 7.24731 12.7235 7.39171C12.8587 7.5361 12.9263 7.73118 12.9263 7.97696V11.6636C12.9263 11.977 13.0215 12.2273 13.212 12.4147C13.4025 12.6022 13.6513 12.6959 13.9585 12.6959C14.2842 12.6959 14.5699 12.5699 14.8157 12.318C15.0614 12.0661 15.2504 11.7081 15.3825 11.2442C15.5146 10.7803 15.5806 10.2381 15.5806 9.61751V9.31336C15.5806 8.34869 15.3518 7.48541 14.894 6.7235C14.4362 5.96159 13.8003 5.36559 12.9862 4.93548C12.172 4.50537 11.2489 4.29032 10.2166 4.29032H10.1429C9.02457 4.29032 8.03533 4.5361 7.17512 5.02765C6.3149 5.5192 5.6467 6.21198 5.17051 7.10599C4.69431 8 4.45622 9.02764 4.45622 10.1889V10.5853C4.45622 11.7404 4.68663 12.7527 5.14747 13.6221C5.6083 14.4916 6.26113 15.1613 7.10599 15.6313C7.95085 16.1014 8.93548 16.3364 10.0599 16.3364H10.1336C10.5515 16.3364 11.0707 16.2903 11.6912 16.1982C12.0169 16.1551 12.2289 16.1336 12.3272 16.1336C12.5054 16.1336 12.6528 16.1874 12.7696 16.2949C12.8863 16.4025 12.9447 16.5392 12.9447 16.7051C12.9447 16.871 12.8955 17.0123 12.7972 17.129C12.6989 17.2458 12.5576 17.3287 12.3733 17.3779C11.7773 17.5315 11.0154 17.6083 10.0876 17.6083H10.0046ZM8.52995 10.6774C8.52995 11.298 8.64823 11.7696 8.88479 12.0922C9.12135 12.4147 9.47004 12.576 9.93088 12.576C10.3856 12.576 10.7327 12.4209 10.9724 12.1106C11.212 11.8003 11.3318 11.3502 11.3318 10.7604V10.0138C11.3318 9.47311 11.2043 9.04608 10.9493 8.73272C10.6943 8.41935 10.3487 8.26267 9.91244 8.26267C9.47619 8.26267 9.13671 8.42703 8.89401 8.75576C8.6513 9.08449 8.52995 9.54378 8.52995 10.1336V10.6774Z" fill="#99A2AD"/>
</svg>
