<svg width="20" height="20" viewBox="0 0 20 20" fill="none" xmlns="http://www.w3.org/2000/svg">
<path d="M16.3195 10.4C17.2476 10.4 18 11.153 18 12.082C18 13.0201 17.6245 13.4904 16.0317 14.7304L15.307 15.2946C15.1264 15.4351 14.8736 15.4351 14.693 15.2946L13.9683 14.7304C12.3755 13.4904 12 13.0201 12 12.082C12 11.153 12.7524 10.4 13.6805 10.4C14.1777 10.4 14.6195 10.6343 15 11.0876C15.3805 10.6343 15.8223 10.4 16.3195 10.4Z" fill="#99A2AD"/>
<path fill-rule="evenodd" clip-rule="evenodd" d="M16.995 8.9719C16.8541 5.65258 13.7762 3 10 3C6.13401 3 3 5.78016 3 9.20966C3 10.883 3.74613 12.4018 4.96029 13.517C4.84235 14.2134 4.48534 15.1256 3.88926 16.2536L3.75434 16.5053C3.66705 16.6657 3.72304 16.8683 3.8794 16.9578C3.95149 16.9991 4.03621 17.0106 4.11629 16.99C5.97242 16.5128 7.29822 15.9113 8.09242 15.1859C8.69885 15.338 9.33872 15.4193 10 15.4193C10.7294 15.4193 11.4327 15.3204 12.0938 15.1368C11.734 14.821 11.427 14.5126 11.1877 14.1942C10.6703 13.5057 10.5 12.824 10.5 12.082C10.5 10.3259 11.9227 8.90002 13.6805 8.90002C14.1659 8.90002 14.6069 9.01219 15 9.2045C15.3931 9.01219 15.8341 8.90002 16.3195 8.90002C16.5513 8.90002 16.7773 8.92482 16.995 8.9719Z" fill="#99A2AD"/>
</svg>
