<svg width="20" height="20" viewBox="0 0 20 20" fill="none" xmlns="http://www.w3.org/2000/svg">
<path d="M5 5.6C5 5.03995 5 4.75992 5.10899 4.54601C5.20487 4.35785 5.35785 4.20487 5.54601 4.10899C5.75992 4 6.03995 4 6.6 4H7.4C7.96005 4 8.24008 4 8.45399 4.10899C8.64215 4.20487 8.79513 4.35785 8.89101 4.54601C9 4.75992 9 5.03995 9 5.6V14.4C9 14.9601 9 15.2401 8.89101 15.454C8.79513 15.6422 8.64215 15.7951 8.45399 15.891C8.24008 16 7.96005 16 7.4 16H6.6C6.03995 16 5.75992 16 5.54601 15.891C5.35785 15.7951 5.20487 15.6422 5.10899 15.454C5 15.2401 5 14.9601 5 14.4V5.6Z" fill="#99A2AD"/>
<path d="M11 5.6C11 5.03995 11 4.75992 11.109 4.54601C11.2049 4.35785 11.3578 4.20487 11.546 4.10899C11.7599 4 12.0399 4 12.6 4H13.4C13.9601 4 14.2401 4 14.454 4.10899C14.6422 4.20487 14.7951 4.35785 14.891 4.54601C15 4.75992 15 5.03995 15 5.6V14.4C15 14.9601 15 15.2401 14.891 15.454C14.7951 15.6422 14.6422 15.7951 14.454 15.891C14.2401 16 13.9601 16 13.4 16H12.6C12.0399 16 11.7599 16 11.546 15.891C11.3578 15.7951 11.2049 15.6422 11.109 15.454C11 15.2401 11 14.9601 11 14.4V5.6Z" fill="#99A2AD"/>
</svg>
