<svg width="20" height="20" viewBox="0 0 20 20" fill="none" xmlns="http://www.w3.org/2000/svg">
<g clip-path="url(#clip0_5469_1652)">
<path fill-rule="evenodd" clip-rule="evenodd" d="M20 10C20 15.5228 15.5228 20 10 20C4.47715 20 0 15.5228 0 10C0 4.47715 4.47715 0 10 0C15.5228 0 20 4.47715 20 10ZM6 7.5C6 7.03406 6 6.80109 6.07612 6.61732C6.17761 6.37229 6.37229 6.17761 6.61732 6.07612C6.80109 6 7.03406 6 7.5 6C7.96594 6 8.19891 6 8.38268 6.07612C8.62771 6.17761 8.82239 6.37229 8.92388 6.61732C9 6.80109 9 7.03406 9 7.5V12.5C9 12.9659 9 13.1989 8.92388 13.3827C8.82239 13.6277 8.62771 13.8224 8.38268 13.9239C8.19891 14 7.96594 14 7.5 14C7.03406 14 6.80109 14 6.61732 13.9239C6.37229 13.8224 6.17761 13.6277 6.07612 13.3827C6 13.1989 6 12.9659 6 12.5V7.5ZM11.0761 6.61732C11 6.80109 11 7.03406 11 7.5V12.5C11 12.9659 11 13.1989 11.0761 13.3827C11.1776 13.6277 11.3723 13.8224 11.6173 13.9239C11.8011 14 12.0341 14 12.5 14C12.9659 14 13.1989 14 13.3827 13.9239C13.6277 13.8224 13.8224 13.6277 13.9239 13.3827C14 13.1989 14 12.9659 14 12.5V7.5C14 7.03406 14 6.80109 13.9239 6.61732C13.8224 6.37229 13.6277 6.17761 13.3827 6.07612C13.1989 6 12.9659 6 12.5 6C12.0341 6 11.8011 6 11.6173 6.07612C11.3723 6.17761 11.1776 6.37229 11.0761 6.61732Z" fill="#99A2AD"/>
</g>
<defs>
<clipPath id="clip0_5469_1652">
<rect width="20" height="20" fill="white"/>
</clipPath>
</defs>
</svg>
