<svg width="20" height="20" viewBox="0 0 20 20" fill="none" xmlns="http://www.w3.org/2000/svg">
<path d="M0.500488 11.5023C0.480826 12.4512 1.01628 13.4625 2.72008 13.4998C3.00009 13.5 3.94934 13.428 4.76444 13.2936C5.90907 13.1049 6.58028 12.1301 6.74216 11.5041C6.89181 11.0472 6.83981 10.2852 6.83981 9.8869C6.86716 9.40253 7.23825 9.30487 7.57282 9.19472L7.58943 9.19039C7.96546 9.09245 8.56223 8.93701 10.1244 8.93701C11.3342 8.93701 12.1718 9.10882 12.4258 9.19472C13.0861 9.36652 13.1355 9.63536 13.159 9.90479C13.159 10.3577 13.1015 10.9783 13.2527 11.5103C13.6043 12.5884 14.4441 13.0845 14.9129 13.2173C15.5726 13.4042 17.0195 13.4946 17.2058 13.4946C19.2058 13.4946 19.5248 12.2089 19.4986 11.5024C19.4819 10.7021 19.1718 10.1017 18.7383 9.60175C18.2816 9.00715 17.6191 8.51324 17.5418 8.45166C15.8888 7.19024 13.6799 6.83579 13.6799 6.83579C11.9297 6.47706 10.1244 6.50435 10.1244 6.50435C8.21805 6.45998 6.58443 6.78487 6.58443 6.78487C6.58443 6.78487 4.0509 7.17317 2.40333 8.49964C1.96606 8.84883 1.5703 9.21436 1.25435 9.60175C0.782463 10.1803 0.488621 10.8077 0.500488 11.5023Z" fill="#99A2AD"/>
</svg>
