<svg width="20" height="20" viewBox="0 0 20 20" fill="none" xmlns="http://www.w3.org/2000/svg">
<path d="M11.7597 12.7158C12.8882 11.5872 14.6647 11.4832 15.846 12.4764L16.6996 13.1955C17.6737 14.0153 17.7728 15.4931 16.9192 16.4953C16.4537 17.0339 15.7985 17.3722 15.0899 17.4398C12.3624 17.8072 9.50111 16.4929 6.50448 13.496C3.50785 10.4991 2.19281 7.63683 2.56016 4.90992C2.57925 4.69656 2.62359 4.48622 2.69224 4.2833C2.8511 3.81717 3.13153 3.40191 3.50455 3.08043C4.50756 2.2276 5.98441 2.32584 6.80414 3.30086L7.52234 4.15451C8.51709 5.33427 8.4139 7.11175 7.28542 8.24033L6.67289 8.85208C6.50958 9.0157 6.45611 9.25924 6.53585 9.47623C6.75874 10.0855 7.32752 10.8467 8.24054 11.7598C9.15439 12.6737 9.91552 13.2417 10.5239 13.4654C10.741 13.545 10.9846 13.4912 11.148 13.3276L11.7597 12.7158Z" fill="#99A2AD"/>
</svg>
