<svg width="20" height="20" viewBox="0 0 20 20" fill="none" xmlns="http://www.w3.org/2000/svg">
<path fill-rule="evenodd" clip-rule="evenodd" d="M11.38 3.49957H5.87759C6.23069 3.0586 6.6752 2.69493 7.18404 2.43567C8.03968 1.99969 9.15979 1.99969 11.4 1.99969H11.6C13.8402 1.99969 14.9603 1.99969 15.816 2.43567C16.5686 2.81916 17.1805 3.43108 17.564 4.18373C18 5.03938 18 6.15948 18 8.39969V8.59969C18 10.8399 18 11.96 17.564 12.8157C17.3047 13.3245 16.941 13.7691 16.5 14.1222V8.61957C16.5 6.8274 16.5 5.93132 16.1512 5.2468C15.8444 4.64468 15.3549 4.15515 14.7528 3.84835C14.0682 3.49957 13.1722 3.49957 11.38 3.49957ZM6.1291 4.99957C4.68658 4.99957 4.16204 5.14612 3.63429 5.42837C3.11449 5.70636 2.70654 6.1143 2.42855 6.6341C2.14631 7.16186 1.99976 7.6864 1.99976 9.12892V13.8705C1.99976 15.313 2.14631 15.8375 2.42855 16.3653C2.70654 16.8851 3.11449 17.293 3.63429 17.571C4.16204 17.8533 4.68658 17.9998 6.1291 17.9998H10.8707C12.3132 17.9998 12.8377 17.8533 13.3655 17.571C13.8853 17.293 14.2932 16.8851 14.5712 16.3653C14.8535 15.8375 15 15.313 15 13.8705V9.12892C15 7.6864 14.8535 7.16186 14.5712 6.6341C14.2932 6.1143 13.8853 5.70636 13.3655 5.42837C12.8377 5.14612 12.3132 4.99957 10.8707 4.99957H6.1291ZM6.059 12.9961L7.79817 14.9897L10.233 12L12.9291 15.4346C13.047 15.5876 13.0187 15.8072 12.8659 15.9252C12.8047 15.9724 12.7296 15.998 12.6523 15.998H4.3515C4.15843 15.998 4.00192 15.8414 4.00192 15.6483C4.00192 15.5688 4.02894 15.4918 4.07852 15.4297L6.059 12.9961Z" fill="#99A2AD"/>
</svg>
