<svg width="20" height="20" viewBox="0 0 20 20" fill="none" xmlns="http://www.w3.org/2000/svg">
<path d="M12.5981 2.2203C12.1746 1.79672 11.4499 2.01615 11.3324 2.60354L11.0244 4.14349C11.0129 4.20098 10.9846 4.25378 10.9432 4.29524L8.47992 6.7585C8.42979 6.80863 8.36338 6.83917 8.2927 6.84461L4.4342 7.14142C3.55083 7.23436 3.19564 8.26484 3.79639 8.86559L6.75843 11.8274L2.29293 16.2929C1.90241 16.6834 1.90241 17.3166 2.29293 17.7071C2.68346 18.0976 3.31662 18.0976 3.70715 17.7071L8.17264 13.2416L11.1351 16.2043C11.7545 16.8237 12.7937 16.4185 12.8593 15.5665L13.1561 11.708C13.1615 11.6373 13.192 11.5709 13.2422 11.5208L15.7054 9.05749C15.7469 9.01604 15.7997 8.98778 15.8572 8.97628L17.3971 8.66829C17.9845 8.55081 18.204 7.8261 17.7804 7.40252L12.5981 2.2203Z" fill="#99A2AD"/>
</svg>
