<svg width="20" height="20" viewBox="0 0 20 20" fill="none" xmlns="http://www.w3.org/2000/svg">
<g clip-path="url(#clip0_5469_1653)">
<path fill-rule="evenodd" clip-rule="evenodd" d="M10 20C15.5228 20 20 15.5228 20 10C20 4.47715 15.5228 0 10 0C4.47715 0 0 4.47715 0 10C0 15.5228 4.47715 20 10 20ZM14.7332 9.55417L7.79909 5.69379C7.71814 5.64872 7.62635 5.625 7.53291 5.625C7.23859 5.625 7 5.85538 7 6.13958V13.8603C7 13.9506 7.02457 14.0392 7.07124 14.1174C7.21824 14.3636 7.54411 14.4481 7.79909 14.3061L14.7332 10.4457C14.8144 10.4005 14.8818 10.3354 14.9287 10.257C15.0757 10.0108 14.9882 9.69612 14.7332 9.55417Z" fill="#99A2AD"/>
</g>
<defs>
<clipPath id="clip0_5469_1653">
<rect width="20" height="20" fill="white"/>
</clipPath>
</defs>
</svg>
