<svg width="20" height="20" viewBox="0 0 20 20" fill="none" xmlns="http://www.w3.org/2000/svg">
<path d="M10 14C12.2091 14 14 12.2091 14 10C14 7.79086 12.2091 6 10 6C7.79086 6 6 7.79086 6 10C6 12.2091 7.79086 14 10 14Z" fill="#FF3347"/>
<path fill-rule="evenodd" clip-rule="evenodd" d="M18 10C18 14.4183 14.4183 18 10 18C5.58172 18 2 14.4183 2 10C2 5.58172 5.58172 2 10 2C14.4183 2 18 5.58172 18 10ZM16.3428 10C16.3428 13.5031 13.5031 16.3428 10 16.3428C6.49694 16.3428 3.65715 13.5031 3.65715 10C3.65715 6.49694 6.49694 3.65715 10 3.65715C13.5031 3.65715 16.3428 6.49694 16.3428 10Z" fill="#FF3347"/>
</svg>
