<svg width="20" height="20" viewBox="0 0 20 20" fill="none" xmlns="http://www.w3.org/2000/svg">
<path d="M9.68303 1.83121C9.68303 1.57225 9.39394 1.41352 9.16928 1.54912L5.0252 4.05049C4.81104 4.17975 4.81104 4.4854 5.0252 4.61467L9.16928 7.11603C9.39394 7.25164 9.68303 7.0929 9.68303 6.83394L9.68303 5.04211C13.0084 5.04211 15.7042 7.68935 15.7042 10.9549C15.7042 14.2204 13.0084 16.8677 9.68303 16.8677C6.77541 16.8677 4.29758 14.8287 3.76607 12.0564C3.69224 11.6713 3.31448 11.4179 2.92233 11.4904C2.53017 11.5629 2.27212 11.9339 2.34595 12.319C3.00547 15.759 6.0773 18.2867 9.68303 18.2867C13.8065 18.2867 17.1492 15.0041 17.1492 10.9549C17.1492 6.90562 13.8065 3.62304 9.68303 3.62304L9.68303 1.83121Z" fill="#99A2AD"/>
<path d="M7.15024 13.6984C6.96402 13.6984 6.81306 13.5502 6.81306 13.3673V9.98224L5.97721 10.3047C5.80025 10.3729 5.60884 10.2448 5.60884 10.0581V9.59784C5.60884 9.46481 5.68991 9.3447 5.81467 9.29288L7.59215 8.55464C7.81446 8.46231 8.06068 8.62257 8.06068 8.8596V13.3673C8.06068 13.5502 7.90972 13.6984 7.72349 13.6984H7.15024Z" fill="#99A2AD"/>
<path d="M9.31538 12.237C9.2234 12.342 9.17741 12.4704 9.17741 12.6222C9.17741 12.8246 9.25805 13.0162 9.41934 13.1971C9.58062 13.378 9.80112 13.5235 10.0808 13.6335C10.3606 13.7436 10.6693 13.7986 11.007 13.7986C11.4177 13.7986 11.7787 13.7208 12.09 13.5652C12.4012 13.4096 12.6412 13.1902 12.8101 12.9068C12.9789 12.6234 13.0633 12.2945 13.0633 11.9201C13.0633 11.5836 12.9934 11.2876 12.8535 11.0321C12.7137 10.7765 12.5177 10.5779 12.2657 10.4362C12.0137 10.2946 11.7227 10.2237 11.3925 10.2237C11.1708 10.2237 10.9654 10.2598 10.7764 10.3319C10.5874 10.404 10.4475 10.4995 10.3568 10.6184H10.2925L10.3757 9.49507H12.2733C12.4572 9.49507 12.5977 9.45269 12.6948 9.36793C12.7918 9.28318 12.8403 9.16237 12.8403 9.00551C12.8403 8.84612 12.7912 8.72215 12.6929 8.6336C12.5946 8.54505 12.4547 8.50077 12.2733 8.50077H10.1262C9.65496 8.50077 9.40548 8.70444 9.37776 9.11177L9.25301 10.9562C9.24545 11.0801 9.2675 11.1914 9.31916 11.2901C9.37083 11.3888 9.44517 11.4653 9.54219 11.5197C9.63921 11.5741 9.74946 11.6013 9.87294 11.6013C9.95107 11.6013 10.0267 11.5868 10.0997 11.5577C10.1728 11.5286 10.2547 11.4786 10.3455 11.4078C10.4589 11.3268 10.5767 11.2642 10.6989 11.2199C10.8211 11.1756 10.9402 11.1535 11.0561 11.1535C11.2123 11.1535 11.3528 11.187 11.4776 11.2541C11.6023 11.3211 11.6993 11.4153 11.7686 11.5368C11.8379 11.6582 11.8726 11.7974 11.8726 11.9542C11.8726 12.1187 11.8361 12.2642 11.763 12.3907C11.6899 12.5172 11.5885 12.6158 11.4587 12.6867C11.3289 12.7575 11.1821 12.7929 11.0183 12.7929C10.8469 12.7929 10.6907 12.7544 10.5496 12.6772C10.4085 12.6 10.2724 12.4805 10.1413 12.3186C10.0708 12.2351 9.99832 12.1744 9.92397 12.1364C9.84963 12.0985 9.7671 12.0795 9.67638 12.0795C9.5277 12.0795 9.40737 12.132 9.31538 12.237Z" fill="#99A2AD"/>
</svg>
