<svg width="20" height="20" viewBox="0 0 20 20" fill="none" xmlns="http://www.w3.org/2000/svg">
<path fill-rule="evenodd" clip-rule="evenodd" d="M11.6826 2H8.31739H8.31738H8.31738C7.36494 1.99999 6.60439 1.99999 5.99013 2.05018C5.36012 2.10165 4.81824 2.20963 4.32054 2.46322C3.52085 2.87068 2.87068 3.52085 2.46322 4.32054C2.20963 4.81824 2.10165 5.36012 2.05018 5.99013C1.99999 6.6044 1.99999 7.36494 2 8.31739V11.6826C1.99999 12.6351 1.99999 13.3956 2.05018 14.0099C2.10165 14.6399 2.20963 15.1818 2.46322 15.6795C2.87068 16.4791 3.52085 17.1293 4.32054 17.5368C4.81824 17.7904 5.36012 17.8984 5.99013 17.9498C6.60439 18 7.36493 18 8.31737 18H11.6826C12.6351 18 13.3956 18 14.0099 17.9498C14.6399 17.8984 15.1818 17.7904 15.6795 17.5368C16.4791 17.1293 17.1293 16.4791 17.5368 15.6795C17.7904 15.1818 17.8984 14.6399 17.9498 14.0099C18 13.3956 18 12.6351 18 11.6826V8.31737C18 7.36493 18 6.60439 17.9498 5.99013C17.8984 5.36012 17.7904 4.81824 17.5368 4.32054C17.1293 3.52085 16.4791 2.87068 15.6795 2.46322C15.1818 2.20963 14.6399 2.10165 14.0099 2.05018C13.3956 1.99999 12.6351 1.99999 11.6826 2H11.6826ZM5.02582 9.48878C5.00874 9.65686 5 9.82741 5 10C5 12.7614 7.23858 15 10 15C12.7614 15 15 12.7614 15 10C15 9.82741 14.9913 9.65686 14.9742 9.48878C14.7181 6.9675 12.5888 5 10 5C7.41117 5 5.28186 6.9675 5.02582 9.48878ZM10 7C8.34316 7 6.99811 8.34315 6.99811 10C6.99811 11.6569 8.34316 13 10 13C11.6569 13 13.0019 11.6569 13.0019 10C13.0019 8.34315 11.6569 7 10 7Z" fill="#99A2AD"/>
</svg>
