<svg width="20" height="20" viewBox="0 0 20 20" fill="none" xmlns="http://www.w3.org/2000/svg">
<path d="M13.5 10.5C15.4412 10.5 19 11.2143 19 14.0714C19 15.3214 18.6765 15.5 18.0294 15.5L13.2925 15.501C13.4308 15.1006 13.5 14.6229 13.5 14.0714C13.5 12.5877 12.9081 11.4516 11.9455 10.6347C12.5082 10.5387 13.048 10.5 13.5 10.5ZM6.5 10.5C8.44118 10.5 12 11.2143 12 14.0714C12 15.3214 11.6765 15.5 11.0294 15.5H1.97059C1.32353 15.5 1 15.3214 1 14.0714C1 11.2143 4.55882 10.5 6.5 10.5ZM6.5 4C7.88125 4 9 5.11875 9 6.5C9 7.88125 7.88125 9 6.5 9C5.11875 9 4 7.88125 4 6.5C4 5.11875 5.11875 4 6.5 4ZM13.5 4C14.8813 4 16 5.11875 16 6.5C16 7.88125 14.8813 9 13.5 9C12.1187 9 11 7.88125 11 6.5C11 5.11875 12.1187 4 13.5 4Z" fill="#99A2AD"/>
</svg>
