<svg width="20" height="20" viewBox="0 0 20 20" fill="none" xmlns="http://www.w3.org/2000/svg">
<path fill-rule="evenodd" clip-rule="evenodd" d="M7.32379 3C7.0663 2.99998 6.82982 2.99997 6.63213 3.01612C6.419 3.03353 6.18583 3.07339 5.95552 3.19074C5.62624 3.35852 5.35852 3.62624 5.19074 3.95552C5.0734 4.18583 5.03353 4.419 5.01612 4.63213C4.99997 4.8298 4.99998 5.06627 5 5.32373V12.6762C4.99998 12.9337 4.99997 13.1702 5.01612 13.3679C5.03353 13.581 5.0734 13.8142 5.19074 14.0445C5.35852 14.3738 5.62624 14.6415 5.95552 14.8093C6.18583 14.9266 6.419 14.9665 6.63213 14.9839C6.82981 15 7.06629 15 7.32377 15H14.6762C14.9337 15 15.1702 15 15.3679 14.9839C15.581 14.9665 15.8142 14.9266 16.0445 14.8093C16.3738 14.6415 16.6415 14.3738 16.8093 14.0445C16.9266 13.8142 16.9665 13.581 16.9839 13.3679C17 13.1702 17 12.9337 17 12.6762V5.32377C17 5.06629 17 4.82981 16.9839 4.63213C16.9665 4.419 16.9266 4.18583 16.8093 3.95552C16.6415 3.62624 16.3738 3.35852 16.0445 3.19074C15.8142 3.07339 15.581 3.03353 15.3679 3.01612C15.1702 2.99997 14.9337 2.99998 14.6762 3H7.32379ZM11 6C11.8288 6 12.5 6.67125 12.5 7.5C12.5 8.32875 11.8288 9 11 9C10.1713 9 9.5 8.32875 9.5 7.5C9.5 6.67125 10.1713 6 11 6ZM8 11.6231V11.25C8 9.9375 9.99875 9.5625 11 9.5625C12.0013 9.5625 14 9.9375 14 11.25V11.6231C14 11.8313 13.8313 12 13.6231 12H8.37688C8.16873 12 8 11.8313 8 11.6231Z" fill="#99A2AD"/>
<path fill-rule="evenodd" clip-rule="evenodd" d="M3.5 6.25V11.65C3.5 12.6425 3.50058 13.3417 3.54519 13.8877C3.58909 14.425 3.67184 14.7475 3.79973 14.9985C4.06338 15.5159 4.48408 15.9366 5.00153 16.2003C5.25252 16.3282 5.57503 16.4109 6.11228 16.4548C6.65829 16.4994 7.35753 16.5 8.35 16.5H13.75C13.75 17.3284 13.0784 18 12.25 18H8.31737C7.36493 18 6.60439 18 5.99013 17.9498C5.36012 17.8984 4.81824 17.7904 4.32054 17.5368C3.52085 17.1293 2.87068 16.4792 2.46322 15.6795C2.20963 15.1818 2.10165 14.6399 2.05018 14.0099C1.99999 13.3956 1.99999 12.6351 2 11.6826L2 7.75C2 6.92158 2.67157 6.25 3.5 6.25Z" fill="#99A2AD"/>
</svg>
