<svg width="20" height="20" viewBox="0 0 20 20" fill="none" xmlns="http://www.w3.org/2000/svg">
<path fill-rule="evenodd" clip-rule="evenodd" d="M3.32698 3.13803C3 3.77976 3 4.61984 3 6.3V13.7C3 15.3802 3 16.2202 3.32698 16.862C3.6146 17.4265 4.07354 17.8854 4.63803 18.173C5.27976 18.5 6.11984 18.5 7.8 18.5H12.2C13.8802 18.5 14.7202 18.5 15.362 18.173C15.9265 17.8854 16.3854 17.4265 16.673 16.862C17 16.2202 17 15.3802 17 13.7V6.3C17 4.61984 17 3.77976 16.673 3.13803C16.3854 2.57354 15.9265 2.1146 15.362 1.82698C14.7202 1.5 13.8802 1.5 12.2 1.5H7.8C6.11984 1.5 5.27976 1.5 4.63803 1.82698C4.07354 2.1146 3.6146 2.57354 3.32698 3.13803ZM10 6C11.105 6 12 6.895 12 8C12 9.105 11.105 10 10 10C8.895 10 8 9.105 8 8C8 6.895 8.895 6 10 6ZM6 13.4975V13C6 11.25 8.665 10.75 10 10.75C11.335 10.75 14 11.25 14 13V13.4975C14 13.775 13.775 14 13.4975 14H6.5025C6.22498 14 6 13.775 6 13.4975Z" fill="#99A2AD"/>
</svg>
