<svg width="20" height="20" viewBox="0 0 20 20" fill="none" xmlns="http://www.w3.org/2000/svg">
<path d="M1.5 8.8C1.5 7.11984 1.5 6.27976 1.82698 5.63803C2.1146 5.07354 2.57354 4.6146 3.13803 4.32698C3.77976 4 4.61984 4 6.3 4H10.2C11.8802 4 12.7202 4 13.362 4.32698C13.9265 4.6146 14.3854 5.07354 14.673 5.63803C15 6.27976 15 7.11984 15 8.8V11.2C15 12.8802 15 13.7202 14.673 14.362C14.3854 14.9265 13.9265 15.3854 13.362 15.673C12.7202 16 11.8802 16 10.2 16H6.3C4.61984 16 3.77976 16 3.13803 15.673C2.57354 15.3854 2.1146 14.9265 1.82698 14.362C1.5 13.7202 1.5 12.8802 1.5 11.2V8.8Z" fill="#99A2AD"/>
<path d="M19.1322 6.57552L16.7519 7.90478C16.5961 7.99177 16.5 8.15368 16.5 8.32903V11.671C16.5 11.8463 16.5961 12.0082 16.7519 12.0952L19.1322 13.4245C19.5189 13.6404 20 13.3676 20 12.9323V7.06765C20 6.63244 19.5189 6.35959 19.1322 6.57552Z" fill="#99A2AD"/>
</svg>
