<svg width="12" height="12" viewBox="0 0 12 12" fill="none" xmlns="http://www.w3.org/2000/svg">
<path d="M6.75 1.75105C6.75 1.33684 6.41421 1.00105 6 1.00105C5.58579 1.00105 5.25 1.33684 5.25 1.75105V5.25105H1.75C1.33579 5.25105 1 5.58684 1 6.00105C1 6.41527 1.33579 6.75105 1.75 6.75105H5.25V10.2511C5.25 10.6653 5.58579 11.0011 6 11.0011C6.41421 11.0011 6.75 10.6653 6.75 10.2511V6.75105H10.25C10.6642 6.75105 11 6.41527 11 6.00105C11 5.58684 10.6642 5.25105 10.25 5.25105H6.75V1.75105Z" fill="#99A2AD"/>
</svg>
