<svg width="12" height="12" viewBox="0 0 12 12" fill="none" xmlns="http://www.w3.org/2000/svg">
<path d="M4.99902 10.0044C4.99902 10.5567 5.44673 11.0044 5.99902 11.0044C6.5513 11.0044 6.99902 10.5567 6.99902 10.0044L6.99905 4.41549L8.29071 5.70716C8.68124 6.09768 9.3144 6.09768 9.70493 5.70716C10.0954 5.31663 10.0954 4.68347 9.70493 4.29294L6.7189 1.30692C6.53703 1.11835 6.28174 1.00105 5.99906 1.00105C5.76782 1.00105 5.55492 1.07954 5.38553 1.21132C5.35275 1.23678 5.32142 1.26439 5.29176 1.29405L2.29359 4.29248C1.90309 4.68302 1.90312 5.31618 2.29366 5.70669C2.6842 6.0972 3.31736 6.09717 3.70787 5.70663L4.99905 4.41534L4.99902 10.0044Z" fill="#99A2AD"/>
</svg>
