<svg width="12" height="12" viewBox="0 0 12 12" fill="none" xmlns="http://www.w3.org/2000/svg">
<path fill-rule="evenodd" clip-rule="evenodd" d="M12 6.00105C12 9.31476 9.31371 12.0011 6 12.0011C2.68629 12.0011 0 9.31476 0 6.00105C0 2.68734 2.68629 0.00105286 6 0.00105286C9.31371 0.00105286 12 2.68734 12 6.00105ZM6.75 3.25105C6.75 2.83684 6.41421 2.50105 6 2.50105C5.58579 2.50105 5.25 2.83684 5.25 3.25105V6.44039L4.28033 5.47072C3.98744 5.17783 3.51256 5.17783 3.21967 5.47072C2.92678 5.76362 2.92678 6.23849 3.21967 6.53138L5.46967 8.78138C5.76256 9.07428 6.23744 9.07428 6.53033 8.78138L8.78033 6.53138C9.07322 6.23849 9.07322 5.76362 8.78033 5.47072C8.48744 5.17783 8.01256 5.17783 7.71967 5.47072L6.75 6.44039V3.25105Z" fill="#99A2AD"/>
</svg>
