<svg width="12" height="12" viewBox="0 0 12 12" fill="none" xmlns="http://www.w3.org/2000/svg">
<path d="M4.99902 2.00108C4.99902 1.4488 5.44673 1.00108 5.99902 1.00108C6.5513 1.00108 6.99902 1.44879 6.99902 2.00108L6.99905 7.59003L8.29071 6.29837C8.68124 5.90784 9.3144 5.90784 9.70493 6.29837C10.0954 6.68889 10.0954 7.32206 9.70493 7.71258L6.7189 10.6986C6.53703 10.8872 6.28174 11.0045 5.99906 11.0045C5.76782 11.0045 5.55492 10.926 5.38553 10.7942C5.35275 10.7687 5.32142 10.7411 5.29176 10.7115L2.29359 7.71305C1.90309 7.32251 1.90312 6.68934 2.29366 6.29883C2.6842 5.90833 3.31736 5.90835 3.70787 6.2989L4.99905 7.59019L4.99902 2.00108Z" fill="#99A2AD"/>
</svg>
