<svg width="12" height="12" viewBox="0 0 12 12" fill="none" xmlns="http://www.w3.org/2000/svg">
<path d="M7.83973 1.48943C7.77866 1.16373 7.46513 0.94921 7.13943 1.01028C6.81374 1.07134 6.59921 1.38488 6.66028 1.71057L6.81028 2.51058C6.87135 2.83627 7.18488 3.0508 7.51057 2.98973C7.83627 2.92866 8.05079 2.61513 7.98973 2.28944L7.83973 1.48943Z" fill="#99A2AD"/>
<path d="M10.2242 1.77651C10.459 2.01037 10.4597 2.39027 10.2259 2.62504L9.62671 3.22655C9.39285 3.46132 9.01295 3.46207 8.77818 3.22821C8.54341 2.99435 8.54267 2.61445 8.77652 2.37968L9.37569 1.77817C9.60955 1.5434 9.98944 1.54266 10.2242 1.77651Z" fill="#99A2AD"/>
<path fill-rule="evenodd" clip-rule="evenodd" d="M7.82281 4.17428C8.05793 4.40779 8.05923 4.78769 7.82572 5.02281L7.36402 5.48768C7.76471 6.05691 8 6.75098 8 7.5C8 9.43299 6.433 11 4.5 11C2.567 11 1 9.43299 1 7.5C1 5.567 2.567 4 4.5 4C5.25065 4 5.94611 4.23631 6.51603 4.63859L6.97429 4.17719C7.2078 3.94207 7.58769 3.94077 7.82281 4.17428ZM6.8 7.5C6.8 8.77025 5.77026 9.8 4.5 9.8C3.22975 9.8 2.2 8.77025 2.2 7.5C2.2 6.22974 3.22975 5.2 4.5 5.2C5.77026 5.2 6.8 6.22974 6.8 7.5Z" fill="#99A2AD"/>
<path d="M10.9897 4.86056C10.9287 5.18626 10.6151 5.40078 10.2894 5.33972L9.48943 5.18973C9.16374 5.12867 8.94921 4.81514 9.01027 4.48944C9.07134 4.16375 9.38487 3.94922 9.71056 4.01028L10.5106 4.16027C10.8363 4.22133 11.0508 4.53486 10.9897 4.86056Z" fill="#99A2AD"/>
</svg>
