<svg width="12" height="12" viewBox="0 0 12 12" fill="none" xmlns="http://www.w3.org/2000/svg">
<path fill-rule="evenodd" clip-rule="evenodd" d="M9.03033 2.96967C9.32322 3.26256 9.32322 3.73744 9.03033 4.03033L7.06066 6L9.03033 7.96967C9.32322 8.26256 9.32322 8.73744 9.03033 9.03033C8.73744 9.32322 8.26256 9.32322 7.96967 9.03033L6 7.06066L4.03033 9.03033C3.73744 9.32322 3.26256 9.32322 2.96967 9.03033C2.67678 8.73744 2.67678 8.26256 2.96967 7.96967L4.93934 6L2.96967 4.03033C2.67678 3.73744 2.67678 3.26256 2.96967 2.96967C3.26256 2.67678 3.73744 2.67678 4.03033 2.96967L6 4.93934L7.96967 2.96967C8.26256 2.67678 8.73744 2.67678 9.03033 2.96967Z" fill="#99A2AD"/>
</svg>
