<svg width="12" height="12" viewBox="0 0 12 12" fill="none" xmlns="http://www.w3.org/2000/svg">
<g clip-path="url(#clip0_48119_10492)">
<path d="M3.61853 2.97419L1.40908 3.35596C0.856795 3.4514 0.58065 3.49911 0.389075 3.6429C0.22056 3.76939 0.0968875 3.94612 0.035784 4.14777C-0.0336815 4.37701 0.0160853 4.6528 0.11562 5.20437L1.08761 10.5906C1.18714 11.1422 1.23691 11.418 1.38241 11.6101C1.51039 11.7791 1.68844 11.9037 1.89104 11.966C2.12135 12.0369 2.3975 11.9892 2.94979 11.8938L5.37261 11.4751C5.9249 11.3797 6.20104 11.332 6.39262 11.1882C6.44748 11.147 6.49759 11.1005 6.54233 11.0496L5.37675 10.8408C5.04181 10.7808 4.73285 10.7255 4.47808 10.6577C4.2026 10.5844 3.90575 10.4763 3.63112 10.2659C3.23947 9.96569 2.95408 9.54929 2.81261 9.07824C2.71391 8.74962 2.71545 8.43493 2.74164 8.15008C2.76598 7.88535 2.82025 7.57283 2.87961 7.23103L3.61853 2.97419Z" fill="#99A2AD"/>
<path d="M4.23987 9.47154C4.49348 9.6659 4.8583 9.73125 5.58794 9.86193L8.45621 10.3758C9.18585 10.5065 9.55067 10.5719 9.85443 10.4773C10.1216 10.3942 10.3561 10.2271 10.5243 10.0001C10.7155 9.74205 10.7799 9.37093 10.9088 8.62868L11.8591 3.15388C11.988 2.41163 12.0524 2.04051 11.9596 1.73157C11.878 1.45983 11.7139 1.22138 11.4908 1.05041C11.2372 0.856044 10.8724 0.7907 10.1427 0.660013L7.27446 0.146269C6.54482 0.0155813 6.18 -0.0497624 5.87624 0.0447727C5.60905 0.127928 5.37455 0.294978 5.20636 0.521981C5.01515 0.780049 4.95073 1.15117 4.82188 1.89342L3.87154 7.36807C3.7427 8.11031 3.67828 8.48144 3.77106 8.79037C3.85268 9.06212 4.01679 9.30057 4.23987 9.47154Z" fill="#99A2AD"/>
</g>
<defs>
<clipPath id="clip0_48119_10492">
<rect width="12" height="12" fill="white"/>
</clipPath>
</defs>
</svg>
