<svg width="12" height="12" viewBox="0 0 12 12" fill="none" xmlns="http://www.w3.org/2000/svg">
<path d="M6.5 3.75C6.5 3.33579 6.16421 3 5.75 3C5.33579 3 5 3.33579 5 3.75V6.75C5 7.09415 5.23422 7.39414 5.5681 7.47761L7.5681 7.97761C7.96994 8.07807 8.37715 7.83375 8.47761 7.4319C8.57807 7.03006 8.33375 6.62285 7.9319 6.52239L6.5 6.16442V3.75Z" fill="#99A2AD"/>
<path fill-rule="evenodd" clip-rule="evenodd" d="M12 6C12 9.31371 9.31371 12 6 12C2.68629 12 0 9.31371 0 6C0 2.68629 2.68629 0 6 0C9.31371 0 12 2.68629 12 6ZM10.5 6C10.5 8.48528 8.48528 10.5 6 10.5C3.51472 10.5 1.5 8.48528 1.5 6C1.5 3.51472 3.51472 1.5 6 1.5C8.48528 1.5 10.5 3.51472 10.5 6Z" fill="#99A2AD"/>
</svg>
