<svg width="12" height="12" viewBox="0 0 12 12" fill="none" xmlns="http://www.w3.org/2000/svg">
<path d="M9 3.5C9 4.32843 7.65685 5 6 5C4.34315 5 3 4.32843 3 3.5C3 2.67157 4.34315 2 6 2C7.65685 2 9 2.67157 9 3.5Z" fill="#99A2AD"/>
<path d="M9 8.5C9 9.32843 7.65685 10 6 10C4.34315 10 3 9.32843 3 8.50001V7.50001C3 7.41016 3.09557 7.39372 3.17071 7.50001C3.58254 8.0826 4.69378 8.5 6 8.5C7.30622 8.5 8.41746 8.0826 8.82929 7.5C8.90443 7.39371 9 7.41016 9 7.5V8.5Z" fill="#99A2AD"/>
<path d="M9 6C9 6.82843 7.65685 7.5 6 7.5C4.34315 7.5 3 6.82843 3 6.00001V5.00001C3 4.91016 3.09557 4.89372 3.17071 5.00001C3.58254 5.5826 4.69378 6 6 6C7.30622 6 8.41746 5.5826 8.82929 5C8.90443 4.89371 9 4.91016 9 5V6Z" fill="#99A2AD"/>
</svg>
