<svg width="12" height="12" viewBox="0 0 12 12" fill="none" xmlns="http://www.w3.org/2000/svg">
<path d="M2.02046 4.86231C1.99707 4.56283 1.98537 4.41309 2.03646 4.29764C2.08135 4.19621 2.1587 4.11258 2.25633 4.05993C2.36744 4 2.51764 4 2.81803 4H9.18465C9.48516 4 9.63542 4 9.74655 4.05996C9.8442 4.11264 9.92155 4.19631 9.96643 4.29779C10.0175 4.41328 10.0057 4.56307 9.98219 4.86266L9.7317 8.05066C9.64999 9.09062 9.60914 9.61061 9.38047 10.0044C9.17911 10.3511 8.8782 10.6293 8.51676 10.8029C8.1063 11 7.58471 11 6.54154 11H5.45972C4.41612 11 3.89433 11 3.48376 10.8028C3.12224 10.6291 2.82129 10.3507 2.61998 10.0038C2.39137 9.60988 2.35072 9.08967 2.26944 8.04924L2.02046 4.86231Z" fill="#99A2AD"/>
<path d="M10.25 3H1.75C1.33579 3 1 2.66421 1 2.25C1 1.83579 1.33579 1.5 1.75 1.5H4.06301C4.28503 0.637386 5.06808 0 6 0C6.93192 0 7.71497 0.637386 7.93699 1.5H10.25C10.6642 1.5 11 1.83579 11 2.25C11 2.66421 10.6642 3 10.25 3Z" fill="#99A2AD"/>
</svg>
