<svg width="12" height="12" viewBox="0 0 12 12" fill="none" xmlns="http://www.w3.org/2000/svg">
<path fill-rule="evenodd" clip-rule="evenodd" d="M6.75 1.75C6.75 1.33579 6.41421 1 6 1C5.58579 1 5.25 1.33579 5.25 1.75V5.43934L4.28033 4.46967C3.98744 4.17678 3.51256 4.17678 3.21967 4.46967C2.92678 4.76256 2.92678 5.23744 3.21967 5.53033L5.46967 7.78033C5.76256 8.07322 6.23744 8.07322 6.53033 7.78033L8.78033 5.53033C9.07322 5.23744 9.07322 4.76256 8.78033 4.46967C8.48744 4.17678 8.01256 4.17678 7.71967 4.46967L6.75 5.43934V1.75ZM2.75 9.5C2.33579 9.5 2 9.83579 2 10.25C2 10.6642 2.33579 11 2.75 11H9.25C9.66421 11 10 10.6642 10 10.25C10 9.83579 9.66421 9.5 9.25 9.5H2.75Z" fill="#99A2AD"/>
</svg>
