<svg width="12" height="12" viewBox="0 0 12 12" fill="none" xmlns="http://www.w3.org/2000/svg">
<g clip-path="url(#clip0_27736_9271)">
<path fill-rule="evenodd" clip-rule="evenodd" d="M6 12C9.31371 12 12 9.31371 12 6C12 2.68629 9.31371 0 6 0C2.68629 0 0 2.68629 0 6C0 9.31371 2.68629 12 6 12ZM6 1.99999C6.41421 1.99999 6.75 2.33578 6.75 2.74999V6.3C6.75 6.71421 6.41421 7.05 6 7.05C5.58579 7.05 5.25 6.71421 5.25 6.3V2.74999C5.25 2.33578 5.58579 1.99999 6 1.99999ZM6.90156 8.99998C6.90156 9.49703 6.49862 9.89997 6.00156 9.89997C5.50451 9.89997 5.10156 9.49703 5.10156 8.99998C5.10156 8.50292 5.50451 8.09998 6.00156 8.09998C6.49862 8.09998 6.90156 8.50292 6.90156 8.99998Z" fill="#99A2AD"/>
</g>
<defs>
<clipPath id="clip0_27736_9271">
<rect width="12" height="12" fill="white"/>
</clipPath>
</defs>
</svg>
