<svg width="12" height="12" viewBox="0 0 12 12" fill="none" xmlns="http://www.w3.org/2000/svg">
<path fill-rule="evenodd" clip-rule="evenodd" d="M1.75 0C1.33579 0 1 0.335786 1 0.75V10.25C1 10.6642 1.33579 11 1.75 11C2.16421 11 2.5 10.6642 2.5 10.25V6.80533C2.76122 6.91716 3.0334 6.98938 3.30793 6.99711C4.0973 7.01896 4.83324 6.77015 5.56518 6.49676C5.7325 6.43499 5.899 6.37086 6.06546 6.30675C6.69092 6.06584 7.31572 5.8252 7.98043 5.71072C8.7129 5.56215 9.4719 5.45286 10.1229 5.8345C10.1972 5.88076 10.2735 5.92987 10.3554 5.98285C10.4178 6.02319 10.5 5.97849 10.5 5.90421V1.47018C10.5 1.21962 10.5 1.09434 10.4372 0.916483C10.3968 0.802231 10.2585 0.584683 10.1722 0.499614C10.0379 0.367188 9.97778 0.338986 9.85753 0.282581C9.55505 0.140698 9.21865 0.0414314 8.90666 0.0136365C8.22687 -0.0478575 7.57704 0.106625 6.93903 0.325379C6.64967 0.425179 6.36137 0.528763 6.07312 0.632333C5.51251 0.833759 4.95205 1.03513 4.38422 1.20851C3.77004 1.4131 3.11081 1.40957 2.5 1.19995V0.75C2.5 0.335786 2.16421 0 1.75 0Z" fill="#99A2AD"/>
</svg>
