<svg width="12" height="12" viewBox="0 0 12 12" fill="none" xmlns="http://www.w3.org/2000/svg">
<path d="M5.95788 2.3619L3.8955 4.65841C3.32142 5.29767 3.03437 5.61731 3.00772 5.91571C2.9845 6.17575 3.07534 6.43306 3.25668 6.62088C3.46476 6.8364 3.88886 6.90497 4.73705 7.0421L5.09199 7.09949C5.21211 7.11891 5.27217 7.12862 5.31244 7.15982C5.34782 7.18723 5.37298 7.22571 5.38391 7.26911C5.39634 7.31851 5.38116 7.37742 5.35079 7.49525L4.95059 9.04816C4.75917 9.79093 4.66346 10.1623 4.75117 10.3065C4.82673 10.4308 4.96379 10.5042 5.1091 10.4984C5.27775 10.4915 5.534 10.2062 6.04651 9.6355L8.10889 7.33899C8.68298 6.69973 8.97003 6.3801 8.99667 6.0817C9.01989 5.82166 8.92905 5.56435 8.74771 5.37653C8.53963 5.161 8.11553 5.09243 7.26735 4.9553L6.9124 4.89791C6.79229 4.87849 6.73223 4.86878 6.69196 4.83758C6.65658 4.81018 6.63141 4.7717 6.62049 4.7283C6.60805 4.6789 6.62324 4.61998 6.6536 4.50216L7.0538 2.94924C7.24522 2.20647 7.34093 1.83509 7.25323 1.69087C7.17766 1.56662 7.04061 1.49317 6.8953 1.49905C6.72664 1.50587 6.47039 1.79121 5.95788 2.3619Z" fill="#99A2AD"/>
</svg>
