<svg width="12" height="12" viewBox="0 0 12 12" fill="none" xmlns="http://www.w3.org/2000/svg">
<path d="M5.5 7.99831V10.9983H4.09289C3.54582 10.9983 3.34744 10.94 3.14744 10.8305C2.94744 10.721 2.79048 10.5603 2.68352 10.3555C2.57656 10.1508 2.51959 9.94768 2.51959 9.3876V7.99831H5.5ZM9.5 7.99831V9.3876C9.5 9.94768 9.44304 10.1508 9.33608 10.3555C9.22912 10.5603 9.07215 10.721 8.87216 10.8305C8.69034 10.93 8.50986 10.9873 8.06753 10.9969L7.92671 10.9983L6.50059 10.9928V7.99284L9.5 7.99831ZM5.49995 4.30609V7.00718L2.28665 7.00718C2.01311 7.00718 1.91392 6.97802 1.81392 6.92327C1.71392 6.86852 1.63544 6.78817 1.58196 6.68579C1.52848 6.58341 1.5 6.48186 1.5 6.20183V5.4983C1.5 5.21161 1.54747 5.01236 1.6366 4.84173C1.72574 4.6711 1.85654 4.53719 2.0232 4.44594C2.18987 4.35468 2.3845 4.30609 2.66453 4.30609L5.49995 4.30609ZM9.33547 4.29175C9.6155 4.29175 9.81013 4.34034 9.9768 4.4316C10.1435 4.52285 10.2743 4.65676 10.3634 4.82739C10.4377 4.96958 10.483 5.13165 10.4961 5.34764L10.5 5.48397V6.18749C10.5 6.46753 10.4715 6.56907 10.418 6.67145C10.3646 6.77383 10.2861 6.85418 10.1861 6.90893C10.1004 6.95586 10.0152 6.98399 9.82042 6.99107L9.71335 6.99284H6.50059V4.29175L9.33547 4.29175ZM5.99937 3.99829L6 3.89854C6.10004 1.14236 8.02355 0.485959 8.88264 1.36548C9.78264 2.28688 9.02727 4.38098 6 4.29721C2.97273 4.38098 2.25537 2.28688 3.15537 1.36548C4.02473 0.475445 5.94216 1.15805 5.99937 3.99829Z" fill="#99A2AD"/>
</svg>
