<svg width="12" height="12" viewBox="0 0 12 12" fill="none" xmlns="http://www.w3.org/2000/svg">
<path d="M5.5 2C7.98528 2 10 4.01472 10 6.5C10 7.01885 9.91219 7.51719 9.75062 7.98096C9.90506 8.2458 10 8.58071 10 9C10 10.6667 8.5 11 7.75 11C7 11 7 10.1046 7 9C7 7.89543 7 7 7.75 7C8.06351 7 8.50808 7.05825 8.91935 7.24778C8.97229 7.00759 9 6.75703 9 6.5C9 4.567 7.433 3 5.5 3C3.567 3 2 4.567 2 6.5C2 6.75703 2.02771 7.00759 2.08029 7.24885C2.49192 7.05825 2.93649 7 3.25 7C4 7 4 7.89543 4 9C4 10.1046 4 11 3.25 11C2.5 11 1 10.6667 1 9C1 8.58071 1.09494 8.2458 1.24898 7.97936C1.08781 7.51719 1 7.01885 1 6.5C1 4.01472 3.01472 2 5.5 2Z" fill="#99A2AD"/>
</svg>
