<svg width="12" height="12" viewBox="0 0 12 12" fill="none" xmlns="http://www.w3.org/2000/svg">
<g clip-path="url(#clip0_37360_10655)">
<path fill-rule="evenodd" clip-rule="evenodd" d="M3.55 0.00448608C3.85376 0.00448608 4.1 0.250729 4.1 0.554486V1.90001H7.45154C7.7553 1.90001 8.00154 2.14626 8.00154 2.45001C8.00154 2.75377 7.7553 3.00001 7.45154 3.00001H5.89999V3.24844C5.89999 3.66292 5.82142 4.07364 5.66845 4.45886C5.46152 4.97999 5.12442 5.43936 4.68938 5.7931L4.14449 6.23616L4.87012 7.09508C5.06615 7.32712 5.03697 7.67413 4.80493 7.87016C4.57289 8.06619 4.22588 8.037 4.02985 7.80497L3.29087 6.93025L0.896971 8.87676C0.661292 9.06839 0.314887 9.03269 0.123253 8.79701C-0.0683809 8.56133 -0.0326761 8.21492 0.203003 8.02329L2.58086 6.08983L1.57985 4.90496C1.38382 4.67292 1.41301 4.3259 1.64504 4.12987C1.87708 3.93385 2.22409 3.96303 2.42012 4.19507L3.43448 5.39574L3.99541 4.93963C4.28454 4.70453 4.50858 4.39923 4.64611 4.05289C4.74777 3.79687 4.79999 3.5239 4.79999 3.24844V3.00001H0.551544C0.247788 3.00001 0.00154305 2.75377 0.00154305 2.45001C0.00154305 2.14626 0.247788 1.90001 0.551544 1.90001H3V0.554486C3 0.250729 3.24624 0.00448608 3.55 0.00448608ZM8.00258 4C8.2109 4.00009 8.40129 4.11788 8.49438 4.30424L11.9421 11.207C12.0778 11.4787 11.9675 11.8091 11.6958 11.9448C11.424 12.0805 11.0937 11.9702 10.958 11.6985L10.1047 9.99006C10.0708 9.99659 10.0358 10 10 10H5.88923L5.04182 11.6929C4.90585 11.9645 4.57543 12.0745 4.3038 11.9385C4.03218 11.8025 3.92221 11.4721 4.05818 11.2005L7.51052 4.3038C7.60377 4.11752 7.79426 3.99991 8.00258 4ZM6.43987 8.90001H9.56023L8.00179 5.77979L6.43987 8.90001Z" fill="#99A2AD"/>
</g>
<defs>
<clipPath id="clip0_37360_10655">
<rect width="12" height="12" fill="white"/>
</clipPath>
</defs>
</svg>
