<svg width="12" height="12" viewBox="0 0 12 12" fill="none" xmlns="http://www.w3.org/2000/svg">
<path d="M6 0.5C7.65685 0.5 9 1.83653 9 3.49199V4.999L9.74815 5C10.1634 5 10.5 5.33978 10.5 5.7599V10.2401C10.5 10.6598 10.1582 11 9.74815 11H2.25185C1.83662 11 1.5 10.6602 1.5 10.2401V5.7599C1.5 5.34022 1.84182 5 2.25185 5L3 4.999V3.50118C3 1.90287 4.25206 0.596377 5.82406 0.505095L6 0.5ZM6 2L5.85464 2.00687C5.08977 2.07955 4.5 2.7203 4.5 3.5V5H7.5V3.5C7.5 2.6658 6.82843 2 6 2Z" fill="#99A2AD"/>
</svg>
