<svg width="12" height="12" viewBox="0 0 12 12" fill="none" xmlns="http://www.w3.org/2000/svg">
<g clip-path="url(#clip0_23033_9139)">
<path fill-rule="evenodd" clip-rule="evenodd" d="M6 11.25C4.19504 11.25 2.48735 9.87351 1.58144 7.66858C0.58307 5.23857 0.486446 1.9125 1.27734 1.0875C1.67329 0.674474 1.83465 0.66229 3.55281 0.932932C4.49577 1.08147 5.18273 1.15167 6 1.15167C6.81727 1.15167 7.50423 1.08147 8.44719 0.932932C10.1653 0.66229 10.3267 0.674474 10.7227 1.0875C11.5136 1.9125 11.4169 5.23857 10.4186 7.66858C9.51265 9.87351 7.80496 11.25 6 11.25ZM5.99991 9.0625C4.17991 9.0625 3.45191 7.4053 3.81591 6.991C3.98948 6.79345 4.16305 6.8785 4.45501 7.02156C4.77534 7.17851 5.23818 7.4053 5.99991 7.4053C6.76164 7.4053 7.22449 7.17851 7.54482 7.02156C7.83678 6.8785 8.01035 6.79345 8.18391 6.991C8.54791 7.4053 7.81991 9.0625 5.99991 9.0625ZM4.07648 5.38063C4.79977 5.44501 5.42459 5.04977 5.47205 4.49783C5.51951 3.94589 4.97164 3.44626 4.24835 3.38187C3.52506 3.31749 2.90024 3.71273 2.85278 4.26467C2.80532 4.81661 3.35319 5.31624 4.07648 5.38063ZM6.52794 4.49783C6.57532 5.04977 7.19913 5.44501 7.92124 5.38063C8.64336 5.31624 9.19034 4.81661 9.14295 4.26467C9.09557 3.71273 8.47177 3.31749 7.74965 3.38187C7.02754 3.44626 6.48056 3.94589 6.52794 4.49783Z" fill="#99A2AD"/>
</g>
<defs>
<clipPath id="clip0_23033_9139">
<rect width="12" height="12" fill="white"/>
</clipPath>
</defs>
</svg>
