<svg width="12" height="12" viewBox="0 0 12 12" fill="none" xmlns="http://www.w3.org/2000/svg">
<path d="M10.4552 7.00049C11.1976 7.00049 11.7994 7.60285 11.7994 8.3459C11.7994 9.0963 11.499 9.47254 10.225 10.4644L9.64525 10.9157C9.50083 11.0281 9.29859 11.0281 9.15416 10.9157L8.57445 10.4644C7.30038 9.47254 7 9.0963 7 8.3459C7 7.60285 7.60182 7.00049 8.3442 7.00049C8.74194 7.00049 9.09536 7.1879 9.39971 7.5505C9.70405 7.1879 10.0575 7.00049 10.4552 7.00049Z" fill="#99A2AD"/>
<path fill-rule="evenodd" clip-rule="evenodd" d="M11 5.41176C11 3.09013 8.89581 1 6 1C3.40825 1 1 2.84102 1 5.41176C1 6.47808 1.45186 7.4764 1.94444 7.99796C1.94444 8.69627 1.53614 9.57838 1.20757 10.2882C1.13944 10.4354 1.07473 10.5752 1.01781 10.7044C0.955493 10.8443 1.06529 11.0058 1.2138 10.9998C2.51364 10.9481 3.43568 10.1473 4 9.47426C4.59191 9.69958 5.24518 9.747 5.93045 9.74986C5.68713 9.29325 5.60007 8.83171 5.60007 8.346C5.60007 6.83095 6.82749 5.60059 8.34426 5.60059C8.73021 5.60059 9.08288 5.68243 9.39977 5.8234C9.71667 5.68243 10.0693 5.60059 10.4553 5.60059C10.6392 5.60059 10.8189 5.61868 10.9927 5.65318C10.9975 5.57335 11 5.49286 11 5.41176Z" fill="#99A2AD"/>
</svg>
