<svg width="12" height="12" viewBox="0 0 12 12" fill="none" xmlns="http://www.w3.org/2000/svg">
<g clip-path="url(#clip0_21122_9181)">
<path d="M6 0C9.31371 0 12 2.68629 12 6C12 9.31371 9.31371 12 6 12C2.68629 12 0 9.31371 0 6C0 2.68629 2.68629 0 6 0ZM6.75 2.25H4.5C4.29289 2.25 4.125 2.41789 4.125 2.625V5.625H3.84548C3.69062 5.625 3.62795 5.6424 3.56684 5.67509C3.50573 5.70777 3.45777 5.75573 3.42509 5.81684C3.3924 5.87795 3.375 5.94062 3.375 6.09548V6.27952C3.375 6.43438 3.3924 6.49705 3.42509 6.55816C3.45777 6.61927 3.50573 6.66723 3.56684 6.69991C3.62795 6.7326 3.69062 6.75 3.84548 6.75H4.125V7.5H3.84548C3.69062 7.5 3.62795 7.5174 3.56684 7.55009C3.50573 7.58277 3.45777 7.63073 3.42509 7.69184C3.3924 7.75295 3.375 7.81562 3.375 7.97048V8.15452C3.375 8.30938 3.3924 8.37205 3.42509 8.43316C3.45777 8.49427 3.50573 8.54223 3.56684 8.57491C3.62795 8.6076 3.69062 8.625 3.84548 8.625H4.125V9.27952C4.125 9.43438 4.1424 9.49705 4.17509 9.55816C4.20777 9.61927 4.25573 9.66723 4.31684 9.69991C4.37795 9.7326 4.44062 9.75 4.59548 9.75H4.77952C4.93438 9.75 4.99705 9.7326 5.05816 9.69991C5.11927 9.66723 5.16723 9.61927 5.19991 9.55816C5.2326 9.49705 5.25 9.43438 5.25 9.27952V8.625H6.27952C6.43438 8.625 6.49705 8.6076 6.55816 8.57491C6.61927 8.54223 6.66723 8.49427 6.69991 8.43316C6.7326 8.37205 6.75 8.30938 6.75 8.15452V7.97048C6.75 7.81562 6.7326 7.75295 6.69991 7.69184C6.66723 7.63073 6.61927 7.58277 6.55816 7.55009C6.49705 7.5174 6.43438 7.5 6.27952 7.5H5.25V6.75H6.75C7.99264 6.75 9 5.74264 9 4.5C9 3.25736 7.99264 2.25 6.75 2.25ZM6.75 3.375C7.37132 3.375 7.875 3.87868 7.875 4.5C7.875 5.12132 7.37132 5.625 6.75 5.625H5.25V3.375H6.75Z" fill="#99A2AD"/>
</g>
<defs>
<clipPath id="clip0_21122_9181">
<rect width="12" height="12" fill="white"/>
</clipPath>
</defs>
</svg>
