<svg width="12" height="12" viewBox="0 0 12 12" fill="none" xmlns="http://www.w3.org/2000/svg">
<path fill-rule="evenodd" clip-rule="evenodd" d="M10.4982 8.23468C10.6776 7.95201 10.7673 7.81068 10.7509 7.70017C10.7365 7.60344 10.6778 7.52166 10.5907 7.47714C10.4912 7.42628 10.2873 7.47625 9.87953 7.57619C9.53481 7.66067 9.1745 7.70547 8.80371 7.70547C6.31789 7.70547 4.30273 5.69185 4.30273 3.20792C4.30273 2.83475 4.34822 2.47219 4.43395 2.12548C4.5348 1.7176 4.58523 1.51366 4.5346 1.4141C4.49027 1.32692 4.40871 1.26805 4.312 1.25344C4.20156 1.23676 4.05991 1.32613 3.77661 1.50489C2.40862 2.36803 1.5 3.89214 1.5 5.6283C1.5 8.31964 3.68342 10.5014 6.37681 10.5014C8.11084 10.5014 9.63349 9.59709 10.4982 8.23468Z" fill="#99A2AD"/>
</svg>
