<svg width="12" height="13" viewBox="0 0 12 13" fill="none" xmlns="http://www.w3.org/2000/svg">
<path fill-rule="evenodd" clip-rule="evenodd" d="M5.02399 0.0432818C4.49821 -0.0780514 3.94702 0.08003 3.56546 0.461582L0.458393 3.56865C0.0768413 3.9502 -0.0812406 4.5014 0.0400925 5.02718L1.12064 9.70954C1.2552 10.2927 1.71053 10.748 2.29365 10.8826L6.97601 11.9631C7.50179 12.0844 8.05298 11.9263 8.43453 11.5448L11.5416 8.43772C11.9232 8.05617 12.0812 7.50498 11.9599 6.9792L10.8794 2.29684C10.7448 1.71372 10.2895 1.25839 9.70635 1.12383L5.02399 0.0432818ZM8.78033 5.0335C9.07322 4.74061 9.07322 4.26574 8.78033 3.97284C8.48744 3.67995 8.01256 3.67995 7.71967 3.97284L5 6.69251L4.28033 5.97284C3.98744 5.67995 3.51256 5.67995 3.21967 5.97284C2.92678 6.26574 2.92678 6.74061 3.21967 7.0335L4.46967 8.2835C4.76256 8.5764 5.23744 8.5764 5.53033 8.2835L8.78033 5.0335Z" fill="#99A2AD"/>
</svg>
