<svg width="12" height="13" viewBox="0 0 12 13" fill="none" xmlns="http://www.w3.org/2000/svg">
<g clip-path="url(#clip0_53738_11059)">
<path fill-rule="evenodd" clip-rule="evenodd" d="M6 0.00317383C2.68775 0.00317383 0.00195312 2.68897 0.00195312 6.00122C0.00195312 9.31348 2.68775 11.9993 6 11.9993C6.55315 11.9993 6.99967 11.5527 6.99967 10.9996C6.99967 10.7397 6.89971 10.5064 6.73976 10.3265C6.58648 10.1532 6.48651 9.91994 6.48651 9.66669C6.48651 9.11354 6.93303 8.66702 7.48618 8.66702H8.6658C10.5052 8.66702 11.998 7.17417 11.998 5.33477C11.998 2.38906 9.31225 0.00317383 6 0.00317383ZM3 6.00317C3 6.55546 2.55228 7.00317 2 7.00317C1.44772 7.00317 1 6.55546 1 6.00317C1 5.45089 1.44772 5.00317 2 5.00317C2.55228 5.00317 3 5.45089 3 6.00317ZM9.75 7.00317C10.3023 7.00317 10.75 6.55546 10.75 6.00317C10.75 5.45089 10.3023 5.00317 9.75 5.00317C9.19771 5.00317 8.75 5.45089 8.75 6.00317C8.75 6.55546 9.19771 7.00317 9.75 7.00317ZM9 2.75317C9 3.30546 8.55229 3.75317 8 3.75317C7.44772 3.75317 7 3.30546 7 2.75317C7 2.20089 7.44772 1.75317 8 1.75317C8.55229 1.75317 9 2.20089 9 2.75317ZM4 3.75317C4.55228 3.75317 5 3.30546 5 2.75317C5 2.20089 4.55228 1.75317 4 1.75317C3.44772 1.75317 3 2.20089 3 2.75317C3 3.30546 3.44772 3.75317 4 3.75317Z" fill="#99A2AD"/>
</g>
<defs>
<clipPath id="clip0_53738_11059">
<rect width="12" height="12" fill="white" transform="translate(0 0.00317383)"/>
</clipPath>
</defs>
</svg>
