<svg width="12" height="13" viewBox="0 0 12 13" fill="none" xmlns="http://www.w3.org/2000/svg">
<path fill-rule="evenodd" clip-rule="evenodd" d="M7.8 3.00317H4.2C3.62345 3.00317 3.25117 3.00395 2.96784 3.0271C2.69617 3.0493 2.59545 3.08697 2.54601 3.11217C2.35785 3.20804 2.20487 3.36102 2.10899 3.54918C2.0838 3.59863 2.04612 3.69935 2.02393 3.97101C2.00078 4.25435 2 4.62662 2 5.20317V6.80317C2 7.37973 2.00078 7.752 2.02393 8.03534C2.04612 8.307 2.0838 8.40772 2.10899 8.45716C2.20487 8.64533 2.35785 8.79831 2.54601 8.89418C2.59545 8.91937 2.69617 8.95705 2.96784 8.97925C3.25117 9.0024 3.62345 9.00317 4.2 9.00317H7.8C8.37655 9.00317 8.74883 9.0024 9.03216 8.97925C9.30383 8.95705 9.40455 8.91937 9.45399 8.89418C9.64215 8.79831 9.79513 8.64533 9.89101 8.45716C9.9162 8.40772 9.95388 8.307 9.97607 8.03534C9.99922 7.752 10 7.37973 10 6.80317V5.20317C10 4.62662 9.99922 4.25435 9.97607 3.97101C9.95388 3.69935 9.9162 3.59863 9.89101 3.54918C9.79513 3.36102 9.64215 3.20804 9.45399 3.11217C9.40455 3.08697 9.30383 3.0493 9.03216 3.0271C8.74883 3.00395 8.37655 3.00317 7.8 3.00317ZM1.21799 3.09519C1 3.52302 1 4.08307 1 5.20317V6.80317C1 7.92328 1 8.48333 1.21799 8.91115C1.40973 9.28748 1.71569 9.59344 2.09202 9.78519C2.51984 10.0032 3.0799 10.0032 4.2 10.0032H7.8C8.9201 10.0032 9.48016 10.0032 9.90798 9.78519C10.2843 9.59344 10.5903 9.28748 10.782 8.91115C11 8.48333 11 7.92328 11 6.80317V5.20317C11 4.08307 11 3.52302 10.782 3.09519C10.5903 2.71887 10.2843 2.41291 9.90798 2.22116C9.48016 2.00317 8.9201 2.00317 7.8 2.00317H4.2C3.0799 2.00317 2.51984 2.00317 2.09202 2.22116C1.71569 2.41291 1.40973 2.71887 1.21799 3.09519Z" fill="#99A2AD"/>
<path d="M1 4.37317H11V5.62317H1V4.37317Z" fill="#99A2AD"/>
<path d="M3 7.31317C3 7.11716 3 7.01915 3.03815 6.94428C3.0717 6.87842 3.12525 6.82488 3.1911 6.79132C3.26597 6.75317 3.36398 6.75317 3.56 6.75317H3.69C3.88602 6.75317 3.98403 6.75317 4.0589 6.79132C4.12475 6.82488 4.1783 6.87842 4.21185 6.94428C4.25 7.01915 4.25 7.11716 4.25 7.31317V7.44317C4.25 7.63919 4.25 7.7372 4.21185 7.81207C4.1783 7.87793 4.12475 7.93147 4.0589 7.96503C3.98403 8.00317 3.88602 8.00317 3.69 8.00317H3.56C3.36398 8.00317 3.26597 8.00317 3.1911 7.96503C3.12525 7.93147 3.0717 7.87793 3.03815 7.81207C3 7.7372 3 7.63919 3 7.44317V7.31317Z" fill="#99A2AD"/>
</svg>
