<svg width="12" height="12" viewBox="0 0 12 12" fill="none" xmlns="http://www.w3.org/2000/svg">
<g clip-path="url(#clip0_54926_10991)">
<path d="M4 5C4.55228 5 5 4.55228 5 4C5 3.44772 4.55228 3 4 3C3.44772 3 3 3.44772 3 4C3 4.55228 3.44772 5 4 5Z" fill="#99A2AD"/>
<path fill-rule="evenodd" clip-rule="evenodd" d="M0.217987 1.09202C0 1.51984 0 2.0799 0 3.2V8.8C0 9.9201 0 10.4802 0.217987 10.908C0.409734 11.2843 0.715695 11.5903 1.09202 11.782C1.51984 12 2.0799 12 3.2 12H8.8C9.9201 12 10.4802 12 10.908 11.782C11.2843 11.5903 11.5903 11.2843 11.782 10.908C12 10.4802 12 9.9201 12 8.8V3.2C12 2.0799 12 1.51984 11.782 1.09202C11.5903 0.715695 11.2843 0.409734 10.908 0.217987C10.4802 0 9.9201 0 8.8 0H3.2C2.0799 0 1.51984 0 1.09202 0.217987C0.715695 0.409734 0.409734 0.715695 0.217987 1.09202ZM8.8 1.5H3.2C2.6152 1.5 2.26681 1.50117 2.00855 1.52227C1.85093 1.53514 1.78468 1.55214 1.76692 1.55765C1.67765 1.60469 1.60469 1.67765 1.55765 1.76693C1.55214 1.78468 1.53514 1.85093 1.52227 2.00855C1.50117 2.26681 1.5 2.6152 1.5 3.2V8.52151L2.56584 7.19747C2.7778 6.93417 3.2222 6.93418 3.43416 7.19747L4.45728 8.46844L7.05949 5.20826C7.28112 4.93058 7.71888 4.93058 7.94051 5.20826L10.5 8.41492V3.2C10.5 2.6152 10.4988 2.26681 10.4777 2.00855C10.4649 1.85094 10.4479 1.78468 10.4424 1.76693C10.3953 1.67765 10.3224 1.60469 10.2331 1.55765C10.2153 1.55214 10.1491 1.53514 9.99145 1.52227C9.73319 1.50117 9.3848 1.5 8.8 1.5ZM10.2383 1.55945L10.2352 1.55833C10.2374 1.55904 10.2383 1.55945 10.2383 1.55945ZM10.4405 1.76175C10.4405 1.76175 10.441 1.76265 10.4417 1.76478L10.4405 1.76175ZM1.55945 1.76175L1.55833 1.76478C1.55904 1.76264 1.55945 1.76175 1.55945 1.76175ZM1.76175 1.55945C1.76175 1.55945 1.76264 1.55904 1.76478 1.55833L1.76175 1.55945Z" fill="#99A2AD"/>
</g>
<defs>
<clipPath id="clip0_54926_10991">
<rect width="12" height="12" rx="2" fill="white"/>
</clipPath>
</defs>
</svg>
