<svg width="12" height="12" viewBox="0 0 12 12" fill="none" xmlns="http://www.w3.org/2000/svg">
<path fill-rule="evenodd" clip-rule="evenodd" d="M10 5.05312C10 2.85501 8.21224 1 6 1C3.78776 1 2 2.85501 2 5.05312C2 6.59353 2.98316 8.38831 4.89846 10.5085C5.45529 11.125 6.39992 11.1673 7.0083 10.603C7.04074 10.5729 7.07184 10.5414 7.10153 10.5085C9.01684 8.38832 10 6.59353 10 5.05312ZM6 3.5C5.172 3.5 4.5 4.172 4.5 5C4.5 5.828 5.172 6.5 6 6.5C6.828 6.5 7.5 5.828 7.5 5C7.5 4.172 6.828 3.5 6 3.5Z" fill="#99A2AD"/>
</svg>
