<svg width="12" height="12" viewBox="0 0 12 12" fill="none" xmlns="http://www.w3.org/2000/svg">
<path fill-rule="evenodd" clip-rule="evenodd" d="M6 1C6.41421 1 6.75 1.33579 6.75 1.75V10.25C6.75 10.6642 6.41421 11 6 11C5.58579 11 5.25 10.6642 5.25 10.25V1.75C5.25 1.33579 5.58579 1 6 1ZM3 4C3.41421 4 3.75 4.33579 3.75 4.75L3.75 10.25C3.75 10.6642 3.41421 11 3 11C2.58579 11 2.25 10.6642 2.25 10.25V4.75C2.25 4.33579 2.58579 4 3 4ZM9.75 6.25C9.75 5.83579 9.41421 5.5 9 5.5C8.58579 5.5 8.25 5.83579 8.25 6.25L8.25 10.25C8.25 10.6642 8.58579 11 9 11C9.41421 11 9.75 10.6642 9.75 10.25L9.75 6.25Z" fill="#99A2AD"/>
</svg>
