<svg width="12" height="13" viewBox="0 0 12 13" fill="none" xmlns="http://www.w3.org/2000/svg">
<path fill-rule="evenodd" clip-rule="evenodd" d="M12 5.53781C12 2.47936 9.31842 0 6.01052 0C2.70263 0 0.0210476 2.47936 0.0210476 5.53781C0.0210476 6.62538 0.360124 7.63972 0.946191 8.48969C0.946191 9.43634 0.537416 10.4019 0.168202 11.2739C0.11816 11.3921 0.0688452 11.5086 0.0213734 11.6231C-0.0534081 11.8015 0.0783524 12.0073 0.256566 11.9998C1.81637 11.9338 3 11.4721 3.61239 10.6139C4.34667 10.9109 5.15779 11.0756 6.01052 11.0756C9.31842 11.0756 12 8.59627 12 5.53781ZM5.99999 3.25C5.76919 3.25 5.56932 3.40359 5.51351 3.63644C5.41695 4.03924 5.01214 4.28751 4.60934 4.19095C4.20654 4.09439 3.95827 3.68958 4.05483 3.28678C4.2733 2.37539 5.0795 1.75 5.99999 1.75C7.13671 1.75 7.96605 2.68782 7.96605 3.79324C7.96605 4.20917 7.86781 4.55422 7.69158 4.84916C7.52774 5.12338 7.31445 5.3193 7.17464 5.44772L7.17329 5.44896C6.88987 5.70929 6.78188 5.80996 6.74344 6.09891C6.68881 6.50951 6.31167 6.79808 5.90107 6.74345C5.49048 6.68882 5.20191 6.31168 5.25654 5.90109C5.36755 5.06669 5.83045 4.64398 6.1207 4.37891L6.15856 4.34427C6.30349 4.21115 6.36441 4.14592 6.40392 4.07979C6.43158 4.03351 6.46605 3.95763 6.46605 3.79323C6.46605 3.43345 6.22785 3.25 5.99999 3.25ZM6.90012 8.50747C6.90012 9.00452 6.49717 9.40747 6.00012 9.40747C5.50306 9.40747 5.10012 9.00452 5.10012 8.50747C5.10012 8.01041 5.50306 7.60747 6.00012 7.60747C6.49717 7.60747 6.90012 8.01041 6.90012 8.50747Z" fill="#99A2AD"/>
</svg>
