<svg width="12" height="12" viewBox="0 0 12 12" fill="none" xmlns="http://www.w3.org/2000/svg">
<path d="M7.57943 0.915169L7.63907 0.829399C7.82763 0.603118 8.14752 0.5508 8.39507 0.690959L8.48411 0.752577L11.2579 3.06598L11.3047 3.1159C11.4933 3.34218 11.4871 3.66625 11.3046 3.88447L11.2279 3.96094L8.48411 6.24743C8.37628 6.33729 8.24036 6.3865 8.1 6.3865C7.80177 6.3865 7.55435 6.16891 7.50785 5.88382L7.5 5.7865V4.4995L4 4.50001C3.48716 4.50001 3.06449 4.88605 3.00673 5.38338L3 5.50001V8.00001C3 8.51284 3.38604 8.93551 3.88338 8.99328L4 9.00001H8C8.55228 9.00001 9 9.44772 9 10C9 10.5128 8.61396 10.9355 8.11662 10.9933L8 11H4C2.40232 11 1.09634 9.75109 1.00509 8.17628L1 8.00001V5.50001C1 3.90232 2.24892 2.59634 3.82373 2.5051L4 2.50001L7.5 2.49949V1.21351C7.5 1.10824 7.52768 1.00547 7.57943 0.915169L7.63907 0.829399L7.57943 0.915169Z" fill="#99A2AD"/>
</svg>
