<svg width="12" height="13" viewBox="0 0 12 13" fill="none" xmlns="http://www.w3.org/2000/svg">
<g clip-path="url(#clip0_14705_4299)">
<path fill-rule="evenodd" clip-rule="evenodd" d="M6 12.997C9.31371 12.997 12 10.3107 12 6.99701C12 3.6833 9.31371 0.997009 6 0.997009C2.68629 0.997009 0 3.6833 0 6.99701C0 10.3107 2.68629 12.997 6 12.997ZM4 4.99701C3.53055 4.99701 3.15 5.37757 3.15 5.84701C3.15 6.31645 3.53055 6.69701 4 6.69701C4.46944 6.69701 4.85 6.31645 4.85 5.84701C4.85 5.37757 4.46944 4.99701 4 4.99701ZM4.43629 8.47259C4.20881 8.23163 3.82907 8.22071 3.58811 8.44819C3.34716 8.67567 3.33623 9.05541 3.56371 9.29637C4.17372 9.94251 5.04011 10.347 6 10.347C6.9599 10.347 7.82628 9.94251 8.43629 9.29637C8.66377 9.05541 8.65285 8.67567 8.41189 8.44819C8.17094 8.22071 7.79119 8.23163 7.56371 8.47259C7.17095 8.88862 6.61614 9.14701 6 9.14701C5.38387 9.14701 4.82905 8.88862 4.43629 8.47259ZM7.15 5.84701C7.15 5.37757 7.53055 4.99701 8 4.99701C8.46944 4.99701 8.85 5.37757 8.85 5.84701C8.85 6.31645 8.46944 6.69701 8 6.69701C7.53055 6.69701 7.15 6.31645 7.15 5.84701Z" fill="#99A2AD"/>
</g>
<defs>
<clipPath id="clip0_14705_4299">
<rect width="12" height="12" fill="white" transform="translate(0 0.997009)"/>
</clipPath>
</defs>
</svg>
