<svg width="12" height="13" viewBox="0 0 12 13" fill="none" xmlns="http://www.w3.org/2000/svg">
<g clip-path="url(#clip0_45371_10929)">
<path d="M11.25 5.74606C11.6642 5.74606 12 5.41028 12 4.99606L12 1.74606C12 1.33185 11.6642 0.996063 11.25 0.996063C10.8358 0.996063 10.5 1.33185 10.5 1.74606L10.5 3.02742C9.40121 1.78253 7.79277 0.996063 6.00004 0.996063C3.17901 0.996063 0.814394 2.94223 0.172132 5.56424C0.0735831 5.96656 0.319838 6.37259 0.722158 6.47114C1.12448 6.56969 1.53051 6.32343 1.62906 5.92111C2.11078 3.95453 3.88602 2.49606 6.00004 2.49606C7.44891 2.49606 8.73861 3.18052 9.56238 4.24606L8.25 4.24606C7.83579 4.24606 7.5 4.58185 7.5 4.99606C7.5 5.41028 7.83579 5.74606 8.25 5.74606L11.25 5.74606Z" fill="#99A2AD"/>
<path d="M11.2783 7.51717C11.6807 7.61543 11.9272 8.02128 11.829 8.42368C11.1882 11.0478 8.82258 12.9961 6.00004 12.9961C4.20725 12.9961 2.59883 12.2096 1.5 10.9646L1.5 12.2461C1.5 12.6603 1.16421 12.9961 0.75 12.9961C0.335786 12.9961 2.73388e-08 12.6603 4.86511e-08 12.2461L1.01022e-07 8.99606C1.22335e-07 8.58185 0.335786 8.24606 0.75 8.24606L3.75 8.24606C4.16421 8.24606 4.5 8.58185 4.5 8.99606C4.5 9.41028 4.16421 9.74606 3.75 9.74606L2.43769 9.74606C3.26139 10.8115 4.55118 11.4961 6.00004 11.4961C8.11521 11.4961 9.89121 10.036 10.3718 8.06786C10.4701 7.66547 10.8759 7.41892 11.2783 7.51717Z" fill="#99A2AD"/>
</g>
<defs>
<clipPath id="clip0_45371_10929">
<rect width="12" height="12" fill="white" transform="translate(0 0.996002)"/>
</clipPath>
</defs>
</svg>
