<svg width="12" height="12" viewBox="0 0 12 12" fill="none" xmlns="http://www.w3.org/2000/svg">
<path d="M6 0.5C4.34315 0.5 3 1.84315 3 3.5V5H2.78C2.33196 5 2.10794 5 1.93681 5.08719C1.78628 5.16389 1.66389 5.28628 1.58719 5.43681C1.5 5.60794 1.5 5.83196 1.5 6.28V9.72C1.5 10.168 1.5 10.3921 1.58719 10.5632C1.66389 10.7137 1.78628 10.8361 1.93681 10.9128C2.10794 11 2.33196 11 2.78 11H9.22C9.66804 11 9.89206 11 10.0632 10.9128C10.2137 10.8361 10.3361 10.7137 10.4128 10.5632C10.5 10.3921 10.5 10.168 10.5 9.72V6.28C10.5 5.83196 10.5 5.60794 10.4128 5.43681C10.3361 5.28628 10.2137 5.16389 10.0632 5.08719C9.89206 5 9.66804 5 9.22 5H4.5V3.5C4.5 2.67157 5.17157 2 6 2C6.65282 2 7.21007 2.41746 7.41567 3.00229C7.55305 3.39306 7.98119 3.59848 8.37196 3.4611C8.76273 3.32373 8.96815 2.89558 8.83077 2.50481C8.42063 1.33814 7.30916 0.5 6 0.5Z" fill="#99A2AD"/>
</svg>
